<?xml version="1.0" encoding="UTF-8"?><!DOCTYPE svg PUBLIC "-//W3C//DTD SVG 1.1//EN" "http://www.w3.org/Graphics/SVG/1.1/DTD/svg11.dtd"><svg xmlns="http://www.w3.org/2000/svg" xmlns:xlink="http://www.w3.org/1999/xlink"><defs><clipPath id="clip0"><path d="M0 0h20v20H0z"/></clipPath><clipPath id="clip0"><path d="M0 0h20v20H0z"/></clipPath></defs><symbol id="icon-arrow-left" viewBox="0 0 24 14"><path d="M.876 9.088l3.879 3.88a1 1 0 001.414-1.415L2.614 8H23a1 1 0 000-2H2.553l3.616-3.619A1 1 0 004.755.967l-3.88 3.88a3.007 3.007 0 00.001 4.241z"/></symbol><symbol id="icon-facebook" viewBox="0 0 20 20"><path fill-rule="evenodd" clip-rule="evenodd" d="M0 10.056C0 15.028 3.61 19.162 8.333 20v-7.223h-2.5V10h2.5V7.777c0-2.5 1.611-3.888 3.89-3.888.721 0 1.5.111 2.221.222v2.556h-1.277c-1.223 0-1.5.61-1.5 1.389V10h2.666l-.444 2.777h-2.222V20C16.389 19.162 20 15.028 20 10.056 20 4.525 15.5 0 10 0S0 4.525 0 10.056z"/></symbol><symbol id="icon-instagram" viewBox="0 0 20 20"><g clip-path="url(#clip0)"><path d="M13.125 10a3.125 3.125 0 11-6.25 0c0-.178.019-.352.051-.52H5.833v4.163c0 .29.235.524.524.524h7.287a.524.524 0 00.523-.524V9.479h-1.093c.032.169.051.343.051.521zM10 12.083a2.082 2.082 0 001.925-2.881A2.083 2.083 0 1010 12.083zm2.5-4.27h1.249a.314.314 0 00.313-.313V6.251a.314.314 0 00-.313-.314H12.5a.313.313 0 00-.313.314V7.5a.315.315 0 00.313.313zM10 0a10 10 0 100 20 10 10 0 000-20zm5.208 14.051a1.16 1.16 0 01-1.157 1.157H5.949a1.16 1.16 0 01-1.157-1.157V5.949c0-.636.52-1.157 1.157-1.157h8.102c.636 0 1.157.52 1.157 1.157v8.102z"/></g></symbol><symbol id="icon-linkedin" viewBox="0 0 20 20"><g clip-path="url(#clip0)"><path d="M10 0C4.477 0 0 4.477 0 10s4.477 10 10 10 10-4.477 10-10S15.523 0 10 0zM7.552 14.145H5.527V7.628h2.025v6.517zM6.527 6.828c-.64 0-1.053-.453-1.053-1.013 0-.572.426-1.012 1.08-1.012.652 0 1.052.44 1.065 1.012 0 .56-.413 1.013-1.092 1.013zm8.42 7.317h-2.024v-3.612c0-.84-.294-1.411-1.026-1.411-.56 0-.892.386-1.039.758-.054.132-.067.32-.067.506v3.758H8.765V9.706c0-.813-.026-1.493-.054-2.079h1.76l.092.905h.041c.267-.425.92-1.052 2.013-1.052 1.332 0 2.33.893 2.33 2.812v3.853z"/></g></symbol><symbol id="icon-search" viewBox="0 0 28 28"><path d="M27.054 22.065l-4.626-4.609c.841-1.675 1.402-3.63 1.402-5.586C23.83 5.307 18.503 0 11.915 0 5.327 0 0 5.307 0 11.87c0 6.564 5.327 11.87 11.915 11.87 1.962 0 3.925-.558 5.607-1.396l4.626 4.609c1.401 1.396 3.504 1.396 4.906 0a3.63 3.63 0 000-4.888zm-15.14-1.117c-5.045 0-9.11-4.05-9.11-9.078 0-5.027 4.065-9.077 9.11-9.077 5.047 0 9.112 4.05 9.112 9.077 0 5.028-4.065 9.078-9.111 9.078z"/></symbol><symbol id="icon-twitter" viewBox="0 0 20 20"><path d="M10 0C4.478 0 0 4.478 0 10s4.478 10 10 10 10-4.478 10-10S15.522 0 10 0zm4.806 7.538c.007.105.007.214.007.321 0 3.277-2.496 7.052-7.056 7.052a7.031 7.031 0 01-3.808-1.112c.2.022.393.031.598.031 1.16 0 2.228-.393 3.078-1.058a2.48 2.48 0 01-2.317-1.718 2.71 2.71 0 001.118-.045 2.477 2.477 0 01-1.984-2.433v-.031c.328.185.714.299 1.118.314a2.48 2.48 0 01-.768-3.312 7.038 7.038 0 005.112 2.591c-.35-1.685.909-3.049 2.422-3.049.714 0 1.357.3 1.81.782a4.898 4.898 0 001.574-.596 2.467 2.467 0 01-1.09 1.363c.5-.053.983-.192 1.43-.386a5.194 5.194 0 01-1.244 1.286z"/></symbol></svg>