<svg width="100" height="102" viewBox="0 0 100 102" fill="none" xmlns="http://www.w3.org/2000/svg">
<g clip-path="url(#clip0)">
<path d="M50 101.08C77.6142 101.08 100 78.5074 100 50.6631C100 22.8188 77.6142 0.246582 50 0.246582C22.3858 0.246582 0 22.8188 0 50.6631C0 78.5074 22.3858 101.08 50 101.08Z" fill="#3B5059"/>
<path d="M33.9941 49.291H66.6246V52.0357H33.9941V49.291Z" fill="#EEEFEE"/>
<path d="M70.9609 73.5257H57.8094C57.4486 73.5257 57.1027 73.3812 56.8476 73.124C56.5925 72.8668 56.4492 72.518 56.4492 72.1543V29.1735C56.4491 28.9934 56.4842 28.8149 56.5525 28.6485C56.6208 28.482 56.721 28.3307 56.8473 28.2032C56.9736 28.0758 57.1236 27.9747 57.2887 27.9057C57.4538 27.8368 57.6307 27.8013 57.8094 27.8013H70.9609V30.5458H59.1641V70.782H70.9609V73.5257Z" fill="#EEEFEE"/>
<path d="M73.2359 21.8486H73.225C69.2132 21.8486 65.9609 25.128 65.9609 29.1732C65.9609 33.2185 69.2132 36.4978 73.225 36.4978H73.2359C77.2478 36.4978 80.5 33.2185 80.5 29.1732C80.5 25.128 77.2478 21.8486 73.2359 21.8486Z" fill="#EF5261"/>
<path d="M73.2387 23.8662H73.2262C70.3193 23.8662 67.9629 26.2421 67.9629 29.173C67.9629 32.1038 70.3193 34.4797 73.2262 34.4797H73.2387C76.1455 34.4797 78.502 32.1038 78.502 29.173C78.502 26.2421 76.1455 23.8662 73.2387 23.8662Z" fill="#DA364C"/>
<path d="M73.2359 43.3384H73.225C69.2132 43.3384 65.9609 46.6177 65.9609 50.663C65.9609 54.7083 69.2132 57.9877 73.225 57.9877H73.2359C77.2478 57.9877 80.5 54.7083 80.5 50.663C80.5 46.6177 77.2478 43.3384 73.2359 43.3384Z" fill="#F6C863"/>
<path d="M73.2387 45.3569H73.2262C70.3193 45.3569 67.9629 47.7328 67.9629 50.6637C67.9629 53.5945 70.3193 55.9704 73.2262 55.9704H73.2387C76.1455 55.9704 78.502 53.5945 78.502 50.6637C78.502 47.7328 76.1455 45.3569 73.2387 45.3569Z" fill="#EAB54E"/>
<path d="M73.2359 64.8306H73.225C69.2132 64.8306 65.9609 68.1099 65.9609 72.1551C65.9609 76.2004 69.2132 79.4797 73.225 79.4797H73.2359C77.2478 79.4797 80.5 76.2004 80.5 72.1551C80.5 68.1099 77.2478 64.8306 73.2359 64.8306Z" fill="#69B0EE"/>
<path d="M73.2387 66.8467H73.2262C70.3193 66.8467 67.9629 69.2226 67.9629 72.1534C67.9629 75.0842 70.3193 77.4601 73.2262 77.4601H73.2387C76.1455 77.4601 78.502 75.0842 78.502 72.1534C78.502 69.2226 76.1455 66.8467 73.2387 66.8467Z" fill="#419BE9"/>
<path d="M51.6177 59.9231V67.2414H16.3691V59.9231C16.3674 58.9109 16.6566 57.9199 17.2016 57.07C17.7466 56.22 18.5242 55.5474 19.4403 55.1335L29.2255 51.0498L38.7435 51.0561L48.5474 55.1335C49.4633 55.5476 50.2406 56.2202 50.7855 57.0702C51.3303 57.9202 51.6194 58.9111 51.6177 59.9231Z" fill="#2CBFAE"/>
<path d="M29.2598 48.3789V52.3854C29.8559 53.137 30.191 53.5584 30.7871 53.7743H37.2535C37.8504 53.5584 38.1848 53.137 38.7816 52.3854V48.3789H29.2598Z" fill="#F4BB87"/>
<path d="M31.6309 53.7749L33.0824 56.2051H34.8988L36.3504 53.7749H31.6309Z" fill="#DA364C"/>
<path d="M35.9875 64.3257L33.982 65.865L31.9766 64.3257L33.0758 56.2095H34.8883L35.9875 64.3257Z" fill="#EF5261"/>
<path d="M38.7441 51.0571C38.9751 52.0664 38.911 53.1215 38.5595 54.0947C38.208 55.068 37.5842 55.9176 36.7637 56.5407L34.0215 53.7757L38.7441 51.0571Z" fill="#EEEFEE"/>
<path d="M29.2265 51.0498C29.0084 52.0671 29.0862 53.1262 29.4504 54.1C29.8146 55.0738 30.4497 55.9209 31.2796 56.5397L34.0218 53.7747L29.2265 51.0498Z" fill="#EEEFEE"/>
<path d="M42.2855 41.2681C42.6873 41.3224 43.0558 41.5218 43.3226 41.8294C43.5895 42.137 43.7366 42.5318 43.7366 42.9405C43.7366 43.3492 43.5895 43.7439 43.3226 44.0515C43.0558 44.3591 42.6873 44.5586 42.2855 44.6129H40.834V41.2681H42.2855Z" fill="#F4BB87"/>
<path d="M25.9608 41.2681C25.5591 41.3224 25.1906 41.5218 24.9237 41.8294C24.6569 42.137 24.5098 42.5318 24.5098 42.9405C24.5098 43.3492 24.6569 43.7439 24.9237 44.0515C25.1906 44.3591 25.5591 44.5586 25.9608 44.6129H27.4117V41.2681H25.9608Z" fill="#F4BB87"/>
<path d="M25.959 44.2354C25.959 45.2197 26.1815 46.1911 26.6096 47.0757C27.0376 47.9604 27.6599 48.735 28.4293 49.3409L30.0746 50.6383C31.2039 51.5275 32.5957 52.0106 34.0285 52.0106C35.4614 52.0106 36.8531 51.5275 37.9824 50.6383L39.6301 49.3409C40.4004 48.7356 41.0238 47.9612 41.4528 47.0765C41.8818 46.1918 42.1051 45.2202 42.1059 44.2354V34.8296H25.959V44.2354Z" fill="#FED19A"/>
<path d="M42.5979 40.5661C42.5476 41.1116 42.3765 41.6387 42.0971 42.1085C42.0971 42.1085 41.9721 39.2561 41.6448 36.7148C41.6448 36.7148 40.4729 38.8417 36.6518 39.4719C36.6518 39.4719 37.7385 38.6574 37.7964 36.4785C37.7964 36.4785 35.4198 40.3881 26.405 38.9615C26.2961 40.1361 26.2961 41.3183 26.405 42.4929C26.405 42.4929 25.8182 42.4252 25.4526 40.96C25.159 39.5051 25.0844 38.014 25.2315 36.5367C25.5682 30.7641 32.1487 29.7164 32.1487 29.7164C32.1487 29.7164 37.7198 28.2031 40.0862 32.8981C40.0862 32.8981 42.2417 32.2971 42.6362 36.6336C42.7822 37.9411 42.7693 39.2617 42.5979 40.5661Z" fill="#62667C"/>
</g>
<defs>
<clipPath id="clip0">
<rect width="100" height="100.833" fill="white" transform="translate(0 0.246582)"/>
</clipPath>
</defs>
</svg>
