<svg width="100" height="101" viewBox="0 0 100 101" fill="none" xmlns="http://www.w3.org/2000/svg">
<g clip-path="url(#clip0)">
<path d="M50 100.833C77.6142 100.833 100 78.2607 100 50.4164C100 22.5722 77.6142 0 50 0C22.3858 0 0 22.5722 0 50.4164C0 78.2607 22.3858 100.833 50 100.833Z" fill="#3B5059"/>
<path d="M67.2491 57.8543V61.6466C67.2491 61.9122 67.1972 62.1752 67.0963 62.4206C66.9955 62.666 66.8477 62.889 66.6614 63.0768C66.4751 63.2646 66.2539 63.4135 66.0105 63.5151C65.7671 63.6166 65.5063 63.6689 65.2428 63.6688H34.7602C34.4967 63.6689 34.2359 63.6166 33.9925 63.5151C33.7491 63.4135 33.5279 63.2646 33.3416 63.0768C33.1553 62.889 33.0075 62.666 32.9066 62.4206C32.8058 62.1752 32.7539 61.9122 32.7539 61.6466V57.8543C32.7523 56.8639 33.0353 55.8943 33.5687 55.0626C34.1021 54.2309 34.863 53.5728 35.7594 53.168L45.3351 49.1709L54.6491 49.1772L64.2436 53.168C65.14 53.5728 65.9009 54.2309 66.4343 55.0626C66.9677 55.8943 67.2507 56.8639 67.2491 57.8543Z" fill="#69B0EE"/>
<path d="M45.3672 46.5566V50.4781C45.9508 51.2131 46.2781 51.6259 46.8625 51.837H53.1906C53.7742 51.6259 54.1016 51.2131 54.6859 50.4781V46.5566H45.3672Z" fill="#F4BB87"/>
<path d="M47.6855 51.8369L49.1066 54.2152H50.8839L52.3041 51.8369H47.6855Z" fill="#DA364C"/>
<path d="M51.9522 62.1627L49.9898 63.6681L48.0273 62.1627L49.1031 54.2197H50.8765L51.9522 62.1627Z" fill="#EF5261"/>
<path d="M54.6483 49.1768C54.8749 50.1644 54.8124 51.1972 54.4683 52.1497C54.1243 53.1023 53.5135 53.9337 52.7101 54.5431L50.0273 51.8347L54.6483 49.1768Z" fill="#EEEFEE"/>
<path d="M45.3351 49.1709C45.1219 50.1664 45.198 51.2029 45.5544 52.1558C45.9108 53.1088 46.5324 53.9378 47.3446 54.5434L50.0282 51.8351L45.3351 49.1709Z" fill="#EEEFEE"/>
<path d="M58.1109 39.5986C58.5009 39.656 58.8573 39.853 59.1151 40.1536C59.3729 40.4541 59.5147 40.8382 59.5147 41.2356C59.5147 41.633 59.3729 42.017 59.1151 42.3176C58.8573 42.6182 58.5009 42.8152 58.1109 42.8725H56.6914V39.5986H58.1109Z" fill="#F4BB87"/>
<path d="M42.1381 39.5986C41.7482 39.656 41.3917 39.853 41.134 40.1536C40.8762 40.4541 40.7344 40.8382 40.7344 41.2356C40.7344 41.633 40.8762 42.017 41.134 42.3176C41.3917 42.6182 41.7482 42.8152 42.1381 42.8725H43.5577V39.5986H42.1381Z" fill="#F4BB87"/>
<path d="M42.1387 42.5016C42.1381 43.4655 42.3555 44.4168 42.7743 45.2831C43.1932 46.1495 43.8025 46.9082 44.5559 47.5015L46.1715 48.7674C47.2765 49.6378 48.6384 50.1106 50.0406 50.1106C51.4428 50.1106 52.8047 49.6378 53.9097 48.7674L55.5191 47.5015C56.2721 46.9086 56.8813 46.1504 57.3002 45.2846C57.7192 44.4188 57.937 43.4681 57.937 42.5047V33.2998H42.1387V42.5016Z" fill="#FED19A"/>
<path d="M44.2906 34.6339C43.9662 36.4465 43.2298 38.1587 42.1391 39.6362C41.1063 38.6665 40.611 32.0131 44.2367 29.6112C47.1836 27.4055 52.5789 26.3026 55.7101 30.2934C59.0155 32.0265 59.1476 35.918 57.9374 39.5984L56.7577 38.3332L56.7382 38.3041C54.5314 37.4031 52.2383 36.7342 49.8953 36.3079C47.9429 35.955 45.5523 35.3981 44.2906 34.6339Z" fill="#62667C"/>
<path d="M80.1879 30.9829L77.0832 27.8532L69.3082 35.6929L64.5996 30.9451L72.3746 23.1046L69.2777 19.982L82.0316 18.1221L80.1879 30.9829Z" fill="#EF5261"/>
<path d="M19.8125 69.8506L22.9172 72.9804L30.6922 65.1406L35.4008 69.8884L27.6258 77.729L30.7227 80.8516L17.9688 82.7115L19.8125 69.8506Z" fill="#F6C863"/>
<path d="M19.8125 30.9829L22.9172 27.8532L30.6922 35.6929L35.4008 30.9451L27.6258 23.1046L30.7227 19.982L17.9688 18.1221L19.8125 30.9829Z" fill="#69B0EE"/>
<path d="M80.1879 69.8506L77.0832 72.9804L69.3082 65.1406L64.5996 69.8884L72.3746 77.729L69.2777 80.8516L82.0316 82.7115L80.1879 69.8506Z" fill="#2CBFAE"/>
</g>
<defs>
<clipPath id="clip0">
<rect width="100" height="100.833" fill="white"/>
</clipPath>
</defs>
</svg>
