<svg width="157" height="40" fill="none" xmlns="http://www.w3.org/2000/svg" viewBox="0 0 157 40"><path d="M35.879 16.051V.515h2.416l5.72 13.04L49.698.514h2.417v15.536h-1.623l.043-13.814-5.973 13.814h-1.105L37.46 2.237l.043 13.814h-1.623zM64.221 16.051h-1.458v-2.014c-.626 1.466-2.145 2.35-4.143 2.328-3.5-.062-4.73-2.454-4.73-5.207V4.756h1.52v6.125c0 2.435 1.072 4.071 3.603 4.05 2.334-.022 3.668-1.442 3.668-3.78V4.756h1.54V16.05zM65.973 4.756h1.465c0 .63 0 1.26-.021 2.014.647-1.47 2.166-2.37 4.168-2.331 3.478.043 4.708 2.435 4.708 5.188v6.424H74.77V9.926c0-2.436-1.073-4.093-3.603-4.05-2.313 0-3.647 1.442-3.647 3.776v6.385h-1.547V4.756zM89.636 16.051H88.17V13.72c-.793 1.492-2.291 2.644-4.625 2.644-3.575 0-5.791-2.81-5.791-5.98 0-3.362 2.416-5.945 5.77-5.945 2.459 0 4.082 1.44 4.582 2.605V.515h1.544l-.014 15.536zm-10.367-5.65c.018 2.27 1.58 4.515 4.497 4.515a4.42 4.42 0 003.189-1.322 4.43 4.43 0 001.248-3.243 4.355 4.355 0 00-1.291-3.17 4.46 4.46 0 00-4.888-.956 4.501 4.501 0 00-2.008 1.668 4.554 4.554 0 00-.754 2.509h.007zM91.156 10.402a5.98 5.98 0 011.736-4.207 5.885 5.885 0 014.178-1.74 5.886 5.886 0 014.175 1.746 5.98 5.98 0 011.729 4.21 5.98 5.98 0 01-1.729 4.21 5.886 5.886 0 01-4.175 1.745 5.885 5.885 0 01-4.178-1.74 5.98 5.98 0 01-1.736-4.206v-.018zm1.52.04a4.54 4.54 0 001.32 3.192 4.468 4.468 0 003.17 1.318 4.47 4.47 0 003.17-1.326 4.54 4.54 0 001.312-3.195 4.54 4.54 0 00-1.312-3.196 4.47 4.47 0 00-3.17-1.326 4.468 4.468 0 00-3.17 1.319 4.54 4.54 0 00-1.32 3.192v.021zM0 18.714a18.806 18.806 0 005.528 12.801 18.515 18.515 0 0012.777 5.394 18.507 18.507 0 0012.93-5.01 18.796 18.796 0 005.901-12.63h-1.63a17.168 17.168 0 01-3.08 9.275 16.966 16.966 0 01-7.626 6.05 16.818 16.818 0 01-9.669.84 16.904 16.904 0 01-8.54-4.646 17.118 17.118 0 01-4.61-8.608 17.205 17.205 0 01.833-9.745 17.057 17.057 0 016.003-7.687 16.855 16.855 0 019.203-3.105V0A18.52 18.52 0 005.25 5.678 18.813 18.813 0 000 18.714z" fill="#fff"/><path d="M27.117 18.328l4.529-.205a13.266 13.266 0 00-2.077-6.559 13.127 13.127 0 00-5.072-4.61l-2.056 4.078a8.602 8.602 0 013.313 3.014 8.695 8.695 0 011.363 4.282z" fill="#9DC31F"/><path d="M18.567 27.354a8.467 8.467 0 01-3.879-.944l-2.055 4.078a12.981 12.981 0 0013.187-.767l-2.503-3.816a8.453 8.453 0 01-4.75 1.449z" fill="#004F9E"/><path d="M31.693 18.714c0-.202-.022-.397-.033-.595l-4.543.21c0 .129.022.258.022.388 0 1.427-.35 2.831-1.018 4.088a8.622 8.622 0 01-2.814 3.118l2.502 3.816a13.167 13.167 0 004.32-4.765 13.289 13.289 0 001.564-6.26z" fill="#28B7CD"/><path d="M18.566 10.074a8.464 8.464 0 013.875.944l2.055-4.078a12.975 12.975 0 00-13.18.767l2.503 3.816a8.492 8.492 0 014.747-1.449z" fill="#FF9E06"/><path d="M9.994 18.714c0-1.427.349-2.831 1.018-4.088a8.623 8.623 0 012.814-3.118l-2.502-3.816a13.175 13.175 0 00-4.302 4.762 13.295 13.295 0 00-1.557 6.245c0 .202.021.393.028.591l4.53-.205a3.006 3.006 0 01-.03-.371z" fill="#E93E11"/><path d="M10.013 19.1l-4.529.204a13.274 13.274 0 002.079 6.558 13.133 13.133 0 005.07 4.612l2.056-4.079a8.603 8.603 0 01-3.313-3.013 8.694 8.694 0 01-1.363-4.283z" fill="#662A82"/><path d="M55.2 18.508H43.543v7.602h-6.23v4.829h6.23v6.01h5.212v-6.01H55.2V26.11h-6.445v-2.763H55.2v-4.839zM70.348 23.938h3.356v1.283h.047c.3-.587.922-1.694 2.992-1.694v3.625c-1.659.043-2.82.393-2.82 2.216v6.615h-3.575V23.938zM77.995 23.938h3.356v1.283h.029c.304-.587.926-1.694 2.992-1.694v3.625c-1.655.043-2.817.393-2.817 2.216v6.615H77.98l.015-12.045zM109.261 23.938L103.274 40h-3.79l1.895-4.623-4.436-11.439h3.811l2.388 6.993h.046l2.281-6.993h3.792zM121.298 31.407a6.489 6.489 0 01-2.588 3.731 6.396 6.396 0 01-8.403-.98 6.513 6.513 0 01-1.674-4.228c.011-1.585.6-3.11 1.656-4.285a6.359 6.359 0 018.477-.901 6.45 6.45 0 012.507 3.842h-3.618a2.69 2.69 0 00-1.026-1.26 2.663 2.663 0 00-1.558-.434c-1.702-.086-2.86 1.326-2.86 3.06 0 1.732 1.14 3.058 2.86 3.058a2.726 2.726 0 001.532-.408c.46-.285.826-.701 1.052-1.195h3.643zM128.778 23.549c4.35 0 6.434 3.451 6.434 6.402s-2.084 6.392-6.434 6.392-6.434-3.452-6.434-6.403c0-2.95 2.091-6.402 6.434-6.402v.01zm0 9.432a3 3 0 001.72-.432c.518-.315.93-.778 1.183-1.331a3.07 3.07 0 00-.55-3.371 2.999 2.999 0 00-3.31-.734 3.022 3.022 0 00-1.382 1.12 3.062 3.062 0 00-.521 1.707 2.968 2.968 0 00.798 2.125 2.896 2.896 0 002.062.917zM136.392 23.938h3.353v1.28h.042c.297-.588.923-1.694 2.985-1.694v3.603c-1.655.047-2.817.393-2.817 2.212v6.604h-3.574l.011-12.005zM144.039 23.524h3.353v1.736h.068a4.528 4.528 0 011.653-1.316 4.493 4.493 0 012.065-.42c4.232 0 5.823 3.747 5.823 6.543 0 3.466-2.406 6.305-5.802 6.305-2.145 0-3.16-1.041-3.575-1.499v5.091h-3.574l-.011-16.44zm9.394 6.435a3.028 3.028 0 00-.524-1.662 2.995 2.995 0 00-1.35-1.09 2.966 2.966 0 00-3.242.68 3.037 3.037 0 00-.629 3.277 3.014 3.014 0 001.101 1.345 2.975 2.975 0 003.786-.39 3.025 3.025 0 00.858-2.16zM69.1 30.939c.05-.328.076-.66.075-.991 0-.454-.047-.907-.14-1.351a6.441 6.441 0 00-2.37-3.78 6.35 6.35 0 00-8.306.483 6.473 6.473 0 00-.78 8.349 6.384 6.384 0 003.66 2.525 6.34 6.34 0 004.41-.488 6.414 6.414 0 003.03-3.266h-3.707a2.864 2.864 0 01-2.181 1.08c-1.39 0-2.56-1.08-2.917-2.547H69.1v-.014zm-9.076-2.342a2.918 2.918 0 011.047-1.492 2.88 2.88 0 013.444 0c.498.372.865.895 1.046 1.492h-5.537zM97.555 30.939a6.452 6.452 0 00-1.582-5.3 6.337 6.337 0 00-8.518-.836 6.43 6.43 0 00-2.45 3.906 6.467 6.467 0 00.786 4.554 6.382 6.382 0 003.616 2.843 6.328 6.328 0 004.574-.34 6.402 6.402 0 003.163-3.346h-3.718a2.841 2.841 0 01-2.18 1.08c-1.395 0-2.563-1.08-2.917-2.547h9.226v-.014zm-9.076-2.342a2.918 2.918 0 011.047-1.492 2.88 2.88 0 013.443 0c.499.372.866.894 1.047 1.492h-5.537z" fill="#fff"/></svg>