<svg width="245" height="62" fill="none" xmlns="http://www.w3.org/2000/svg" viewBox="0 0 245 62"><path d="M55.988 24.88V.799h3.771l8.925 20.21L77.554.8h3.77v24.08h-2.532l.067-21.41-9.321 21.41h-1.724l-9.36-21.41.067 21.41h-2.533zM100.219 24.88h-2.276v-3.122c-.976 2.272-3.347 3.64-6.465 3.607-5.462-.095-7.38-3.803-7.38-8.07V7.372h2.37v9.493c0 3.776 1.674 6.31 5.623 6.277 3.643-.033 5.723-2.233 5.723-5.858V7.372h2.405v17.507zM102.951 7.372h2.287c0 .977 0 1.954-.033 3.122 1.009-2.279 3.38-3.675 6.504-3.614 5.428.067 7.346 3.776 7.346 8.042v9.957h-2.376v-9.493c0-3.775-1.673-6.344-5.623-6.277-3.609 0-5.689 2.233-5.689 5.852v9.896h-2.416V7.372zM139.878 24.88h-2.287v-3.614c-1.239 2.312-3.576 4.1-7.218 4.1-5.579 0-9.037-4.357-9.037-9.271 0-5.21 3.771-9.215 9.003-9.215 3.838 0 6.37 2.234 7.151 4.038V.798h2.41l-.022 24.081zm-16.177-8.757c.028 3.518 2.466 6.997 7.017 6.997a6.942 6.942 0 004.976-2.05 6.862 6.862 0 001.947-5.025 6.69 6.69 0 00-.5-2.666 6.69 6.69 0 00-1.514-2.249 7.01 7.01 0 00-7.628-1.48 7.026 7.026 0 00-4.309 6.474h.011zM142.25 16.123a9.24 9.24 0 012.708-6.521 9.214 9.214 0 0113.035.01 9.235 9.235 0 010 13.05 9.214 9.214 0 01-13.035.01 9.24 9.24 0 01-2.708-6.521v-.028zm2.371.061a7.011 7.011 0 002.059 4.948 6.995 6.995 0 009.894-.012 7.01 7.01 0 000-9.906 6.995 6.995 0 00-9.894-.011 7.011 7.011 0 00-2.059 4.948v.033zM0 29.006A29.056 29.056 0 008.627 48.85a28.99 28.99 0 0019.938 8.36 28.988 28.988 0 0020.176-7.765 29.053 29.053 0 009.21-19.578h-2.543A26.49 26.49 0 0150.6 44.244a26.446 26.446 0 01-11.9 9.377 26.412 26.412 0 01-28.415-5.9 26.5 26.5 0 01-5.893-28.448A26.466 26.466 0 0113.759 7.36a26.42 26.42 0 0114.36-4.813V0A28.991 28.991 0 008.193 8.801 29.057 29.057 0 000 29.006z" fill="#3C3C3B"/><path d="M42.316 28.409l7.067-.319a20.466 20.466 0 00-3.241-10.165 20.436 20.436 0 00-7.915-7.147L35.02 17.1a13.412 13.412 0 017.296 11.309z" fill="#9DC31F"/><path d="M28.973 42.398a13.285 13.285 0 01-6.053-1.463l-3.207 6.322a20.374 20.374 0 0020.578-1.19l-3.905-5.914a13.254 13.254 0 01-7.413 2.245z" fill="#004F9E"/><path d="M49.456 29.006c0-.312-.034-.614-.05-.921l-7.09.324c0 .2.033.402.033.603a13.415 13.415 0 01-5.98 11.17l3.905 5.913a20.46 20.46 0 006.742-7.386 20.487 20.487 0 002.44-9.703z" fill="#28B7CD"/><path d="M28.973 15.614a13.28 13.28 0 016.047 1.464l3.207-6.322a20.364 20.364 0 00-20.567 1.19l3.905 5.914a13.316 13.316 0 017.408-2.245z" fill="#FF9E06"/><path d="M15.597 29.006a13.414 13.414 0 015.98-11.17l-3.905-5.913a20.47 20.47 0 00-6.713 7.38 20.497 20.497 0 00-2.43 9.68c0 .314.034.61.045.917l7.068-.319a4.632 4.632 0 01-.045-.575z" fill="#E93E11"/><path d="M15.624 29.604l-7.067.318A20.478 20.478 0 0011.8 40.087a20.447 20.447 0 007.913 7.147l3.207-6.321a13.394 13.394 0 01-5.169-4.67 13.415 13.415 0 01-2.127-6.639z" fill="#662A82"/><path d="M86.138 28.688h-18.19v11.784h-9.723v7.483h9.722v9.315h8.133v-9.315h10.058v-7.483H76.08v-4.284h10.058v-7.5zM109.779 37.104h5.238v1.988h.073c.468-.91 1.439-2.625 4.669-2.625v5.618c-2.589.067-4.402.61-4.402 3.435v10.253h-5.578v-18.67zM121.71 37.104h5.238v1.988h.044c.475-.91 1.445-2.625 4.669-2.625v5.618c-2.582.067-4.395.61-4.395 3.435v10.253h-5.578l.022-18.67zM170.504 37.104L161.16 62h-5.913l2.957-7.165-6.923-17.731h5.947l3.726 10.84h.072l3.559-10.84h5.919zM189.285 48.68a10.052 10.052 0 01-4.038 5.784 10.033 10.033 0 01-13.113-1.519 10.066 10.066 0 01-2.613-6.554 9.998 9.998 0 012.585-6.64 9.97 9.97 0 0113.228-1.397 9.99 9.99 0 013.912 5.954h-5.645a4.177 4.177 0 00-4.033-2.625c-2.655-.134-4.463 2.055-4.463 4.742 0 2.686 1.78 4.74 4.463 4.74a4.273 4.273 0 004.033-2.484h5.684zM200.961 36.5c6.788 0 10.04 5.35 10.04 9.924s-3.252 9.907-10.04 9.907c-6.789 0-10.041-5.35-10.041-9.923 0-4.574 3.263-9.924 10.041-9.924v.017zm0 14.621a4.711 4.711 0 004.53-2.733 4.727 4.727 0 00-.858-5.225 4.714 4.714 0 00-5.166-1.138 4.716 4.716 0 00-2.969 4.383 4.556 4.556 0 004.463 4.713zM212.841 37.104h5.232v1.983h.067c.463-.91 1.439-2.625 4.658-2.625v5.584c-2.583.073-4.396.61-4.396 3.43v10.236h-5.578l.017-18.608zM224.773 36.462h5.233v2.691h.106a7.06 7.06 0 015.801-2.691c6.605 0 9.087 5.807 9.087 10.141 0 5.372-3.754 9.773-9.053 9.773-3.347 0-4.932-1.614-5.579-2.323v7.891h-5.578l-.017-25.482zm14.66 9.974a4.674 4.674 0 00-2.925-4.266 4.658 4.658 0 00-5.059 1.055 4.669 4.669 0 00-.981 5.08 4.665 4.665 0 008.632-.06c.23-.575.343-1.19.333-1.81zM107.832 47.955a9.995 9.995 0 00.118-1.536 9.975 9.975 0 00-3.918-7.952 9.954 9.954 0 00-12.96.747 9.979 9.979 0 004.493 16.855 9.954 9.954 0 0011.609-5.82h-5.784a4.468 4.468 0 01-3.403 1.676c-2.17 0-3.994-1.675-4.552-3.948h14.397v-.022zm-14.163-3.63a4.523 4.523 0 014.32-3.2 4.521 4.521 0 014.32 3.2h-8.64zM152.234 47.955a9.963 9.963 0 00-2.469-8.216 9.941 9.941 0 00-17.116 4.76 9.965 9.965 0 001.227 7.06 9.935 9.935 0 0012.78 3.88 9.952 9.952 0 004.936-5.189h-5.801a4.469 4.469 0 01-3.403 1.675c-2.175 0-3.999-1.675-4.552-3.948h14.398v-.022zm-14.163-3.63a4.52 4.52 0 014.32-3.2 4.517 4.517 0 014.32 3.2h-8.64z" fill="#3C3C3B"/></svg>