<svg width="100" height="101" viewBox="0 0 100 101" fill="none" xmlns="http://www.w3.org/2000/svg">
<g clip-path="url(#clip0)">
<path d="M50 100.833C77.6142 100.833 100 78.2607 100 50.4164C100 22.5722 77.6142 0 50 0C22.3858 0 0 22.5722 0 50.4164C0 78.2607 22.3858 100.833 50 100.833Z" fill="#69B0EE"/>
<path d="M58.2871 42.1762C59.5621 42.1762 60.5957 40.8833 60.5957 39.2883C60.5957 37.6934 59.5621 36.4004 58.2871 36.4004C57.0121 36.4004 55.9785 37.6934 55.9785 39.2883C55.9785 40.8833 57.0121 42.1762 58.2871 42.1762Z" fill="#F4BB87"/>
<path d="M34.5957 36.3994C33.3207 36.3994 32.291 37.6929 32.291 39.2881C32.291 40.8833 33.3246 42.176 34.5996 42.176C35.8746 42.176 36.909 40.8825 36.909 39.2881C36.909 37.6937 35.8707 36.3994 34.5957 36.3994Z" fill="#F4BB87"/>
<path d="M72.9578 64.1386C72.6701 62.6053 71.961 61.1843 70.9112 60.0378C69.8614 58.8912 68.5132 58.0651 67.0203 57.6537C62.1163 55.9535 57.3253 53.9385 52.6766 51.6211C50.776 52.8293 48.5752 53.4704 46.3285 53.4704C44.0818 53.4704 41.881 52.8293 39.9805 51.6211C35.3318 53.9385 30.5407 55.9535 25.6367 57.6537C24.1438 58.065 22.7955 58.891 21.7457 60.0376C20.6958 61.1842 19.9867 62.6052 19.6992 64.1386V74.5692H72.9578V64.1386Z" fill="#62667C"/>
<path d="M48.6965 74.5692C51.5951 69.0171 53.6896 63.0747 54.916 56.9234L46.3285 55.8867L37.7402 56.9234C38.9664 63.0747 41.0606 69.017 43.959 74.5692H48.6965Z" fill="#DBD8DD"/>
<path d="M52.6766 49.4727V51.6217L46.3281 55.8866L39.9805 51.6217V49.4727H52.6766Z" fill="#F4BB87"/>
<path d="M58.2751 36.3998C58.4118 43.0863 55.9447 49.3363 49.0337 51.3774C47.3469 51.8713 45.5556 51.8713 43.8689 51.3774C36.9548 49.3363 34.4595 43.0902 34.5962 36.3998C34.5962 36.3998 32.8118 23.0607 40.3533 22.8118C47.8947 22.5628 58.0329 27.5485 58.0329 27.5485C58.8353 29.8929 58.6954 33.029 58.2751 36.3998Z" fill="#FED19A"/>
<path d="M42.9785 55.9102L45.1215 59.3125H47.5332L49.6762 55.9102H42.9785Z" fill="#DA364C"/>
<path d="M47.6734 74.5699L49.443 72.5611L47.5367 59.3174H45.125L43.2188 72.5651L44.9883 74.5739L47.6734 74.5699Z" fill="#EF5261"/>
<path d="M39.9805 51.6221L46.3281 55.887L39.6289 60.1527L39.9805 51.6221Z" fill="#EEEFEE"/>
<path d="M52.6766 51.6221L46.3281 55.887L53.0281 60.1527L52.6766 51.6221Z" fill="#EEEFEE"/>
<path d="M34.0723 59.3177L37.4262 58.9616L36.3598 62.8878C36.3598 62.8878 39.9176 70.3715 43.1949 74.5694H46.3285C43.2348 66.5627 39.773 58.8553 39.9809 51.6221C37.3681 53.6123 35.3286 56.2686 34.0723 59.3177Z" fill="#575B6D"/>
<path d="M58.5836 59.3171L55.2297 58.961L56.2961 62.8849C56.2961 62.8849 52.7383 70.3685 49.4609 74.5665H46.3281C49.4219 66.5597 52.8836 58.8523 52.6758 51.6191C55.2886 53.6101 57.3278 56.2673 58.5836 59.3171Z" fill="#575B6D"/>
<path d="M60.5531 27.8522C60.196 24.9084 58.6664 22.5325 55.0687 22.6901C55.0687 22.6901 54.7523 18.1211 46.5406 18.1211C43.5738 18.1656 40.6798 19.0535 38.1914 20.6829L38.1203 20.7278C33.8148 23.4707 31.8539 30.2872 33.8148 35.0264C34.0118 35.5188 34.2747 35.9818 34.5961 36.4026L35.0711 34.1393C35.2633 33.2936 35.6563 32.5076 36.2165 31.8489C36.7766 31.1903 37.4871 30.6787 38.2867 30.3581C41.0851 29.1977 43.1468 26.9834 45.6937 27.8932C46.8424 28.3125 48.0616 28.4999 49.282 28.4446C52.1445 28.2871 54.5226 28.7597 56.6906 31.238C57.6031 32.7734 58.4093 34.3008 58.2882 36.401L59.1476 34.7309C60.2909 32.6325 60.7807 30.2355 60.5531 27.8522Z" fill="#414451"/>
<path d="M71.6945 82.7144C69.9903 82.7156 68.324 82.2071 66.9065 81.2532C65.4889 80.2993 64.3839 78.9428 63.7311 77.3554C63.0784 75.768 62.9073 74.0211 63.2394 72.3356C63.5716 70.6501 64.3921 69.1019 65.5972 67.8868C66.8023 66.6717 68.3378 65.8443 70.0093 65.5094C71.6808 65.1744 73.4134 65.347 74.9876 66.0052C76.5619 66.6633 77.9072 67.7776 78.8532 69.2069C79.7993 70.6363 80.3036 72.3165 80.3023 74.0349C80.2982 76.3356 79.39 78.5408 77.7766 80.1676C76.1632 81.7944 73.9762 82.7102 71.6945 82.7144Z" fill="#F6C863"/>
<path d="M78.568 74.0343C78.5669 75.4063 78.1624 76.7471 77.4055 77.8873C76.6487 79.0274 75.5736 79.9157 74.3162 80.4398C73.0587 80.9638 71.6753 81.1001 70.341 80.8315C69.0068 80.5628 67.7814 79.9012 66.82 78.9304C65.8586 77.9595 65.2043 76.723 64.9398 75.3772C64.6753 74.0314 64.8126 72.6367 65.3342 71.3696C65.8557 70.1024 66.7383 69.0196 67.8701 68.2582C69.002 67.4968 70.3323 67.0909 71.693 67.0918C72.5967 67.0918 73.4915 67.2714 74.3263 67.6205C75.161 67.9695 75.9194 68.481 76.5579 69.1258C77.1965 69.7706 77.7027 70.5361 78.0476 71.3783C78.3925 72.2205 78.5693 73.1231 78.568 74.0343Z" fill="#EAB54E"/>
<path d="M70.2201 77.1722C70.1061 77.1723 69.9931 77.1497 69.8877 77.1056C69.7823 77.0615 69.6866 76.9969 69.6061 76.9154L68.0436 75.3399C67.9629 75.2586 67.8989 75.162 67.8552 75.0557C67.8115 74.9493 67.7891 74.8354 67.7891 74.7203C67.7891 74.6053 67.8115 74.4913 67.8552 74.385C67.8989 74.2787 67.9629 74.1821 68.0436 74.1008C68.1243 74.0194 68.2201 73.9549 68.3255 73.9108C68.4309 73.8668 68.5439 73.8441 68.658 73.8441C68.7721 73.8441 68.8851 73.8668 68.9906 73.9108C69.096 73.9549 69.1918 74.0194 69.2725 74.1008L70.2201 75.0571L74.1037 71.142C74.2681 70.9852 74.4866 70.8993 74.7128 70.9024C74.939 70.9056 75.1551 70.9976 75.3151 71.1589C75.475 71.3202 75.5663 71.5381 75.5694 71.7662C75.5726 71.9943 75.4873 72.2146 75.3319 72.3803L70.8342 76.9154C70.7537 76.9969 70.658 77.0615 70.5526 77.1056C70.4472 77.1497 70.3342 77.1723 70.2201 77.1722Z" fill="#EEEFEE"/>
</g>
<defs>
<clipPath id="clip0">
<rect width="100" height="100.833" fill="white"/>
</clipPath>
</defs>
</svg>
