<svg width="99" height="99" viewBox="0 0 99 99" fill="none" xmlns="http://www.w3.org/2000/svg">
<path d="M49.5 99C76.8381 99 99 76.8381 99 49.5C99 22.1619 76.8381 0 49.5 0C22.1619 0 0 22.1619 0 49.5C0 76.8381 22.1619 99 49.5 99Z" fill="#FF7A53"/>
<path d="M67.7317 43.6397H61.0184V29.0056C61.0184 22.6552 55.8519 17.4889 49.5017 17.4889C43.1515 17.4889 37.9848 22.6554 37.9848 29.0056V43.6397H31.2715V29.0056C31.2715 18.9535 39.4496 10.7754 49.5017 10.7754C59.5538 10.7754 67.7321 18.9535 67.7321 29.0056V43.6397H67.7317Z" fill="#3C3B41"/>
<path d="M49.5 10.7754V17.4887C55.8504 17.4887 61.0167 22.6552 61.0167 29.0054V43.6395H67.73V29.0054C67.7302 18.9533 59.5519 10.7754 49.5 10.7754Z" fill="#3C3B41"/>
<path d="M64.2802 82.6344H34.7226C27.937 82.6344 22.3848 77.0824 22.3848 70.2965V45.7859C22.3848 42.5237 25.0539 39.8545 28.3162 39.8545H70.6869C73.9491 39.8545 76.6183 42.5237 76.6183 45.7859V70.2965C76.6181 77.0824 71.0659 82.6344 64.2802 82.6344Z" fill="#FFDB2D"/>
<path d="M70.6852 39.8545H49.5V82.6342H64.2789C71.0645 82.6342 76.6168 77.0822 76.6168 70.2963V45.7857C76.6166 42.5237 73.9474 39.8545 70.6852 39.8545Z" fill="#FFDB2D"/>
<path d="M71.4901 53.2803H27.5117V69.2071H71.4901V53.2803Z" fill="white"/>
<path d="M71.4882 53.2803H49.5V69.2071H71.4882V53.2803Z" fill="white"/>
<path d="M69.902 54.9941H29.0977V67.4975H69.902V54.9941Z" fill="#3C3B41"/>
<path d="M69.9021 54.9941H49.5V67.4975H69.9021V54.9941Z" fill="#3C3B41"/>
<path d="M41.233 59.4426L40.2677 58.0473L37.9845 59.6269V56.8506H36.2877V59.6269L34.0045 58.0473L33.0391 59.4426L35.6448 61.2455L33.0391 63.0486L34.0045 64.4439L36.2877 62.8643V65.6406H37.9845V62.8643L40.2677 64.4439L41.233 63.0486L38.627 61.2455L41.233 59.4426Z" fill="white"/>
<path d="M53.5965 59.4416L52.6308 58.0463L50.3478 59.6259V56.8496H48.6508V59.6259L46.3678 58.0463L45.4023 59.4416L48.0081 61.2445L45.4023 63.0476L46.3678 64.4429L48.6508 62.8634V65.6397H50.3478V62.8634L52.6308 64.4429L53.5965 63.0476L50.9905 61.2445L53.5965 59.4416Z" fill="white"/>
<path d="M50.3483 62.8643L52.6313 64.4439L53.597 63.0486L50.991 61.2455L53.597 59.4426L52.6313 58.0473L50.3483 59.6269V56.8506H49.5V65.6406H50.3483V62.8643Z" fill="white"/>
<path d="M65.9597 59.4416L64.9943 58.0463L62.7113 59.6259V56.8496H61.0143V59.6259L58.7313 58.0463L57.7656 59.4416L60.3716 61.2445L57.7656 63.0476L58.7313 64.4429L61.0143 62.8634V65.6397H62.7113V62.8634L64.9943 64.4429L65.9597 63.0476L63.3538 61.2445L65.9597 59.4416Z" fill="white"/>
</svg>
