<svg width="100" height="100" viewBox="0 0 100 100" fill="none" xmlns="http://www.w3.org/2000/svg">
<path d="M50 100C77.6142 100 100 77.6142 100 50C100 22.3858 77.6142 0 50 0C22.3858 0 0 22.3858 0 50C0 77.6142 22.3858 100 50 100Z" fill="#5C2B73"/>
<path d="M81.8867 48.7916V51.1938H72.3117V48.7916H81.8867Z" fill="#63AD82"/>
<path d="M81.0112 53.2769C80.1145 53.2769 79.3876 51.8067 79.3876 49.993C79.3876 48.1793 80.1145 46.709 81.0112 46.709C81.9079 46.709 82.6348 48.1793 82.6348 49.993C82.6348 51.8067 81.9079 53.2769 81.0112 53.2769Z" fill="#85EBA3"/>
<path d="M17.957 51.1947V48.7925H27.532V51.1947H17.957Z" fill="#63AD82"/>
<path d="M18.8315 53.2769C17.9348 53.2769 17.2079 51.8067 17.2079 49.993C17.2079 48.1793 17.9348 46.709 18.8315 46.709C19.7282 46.709 20.4551 48.1793 20.4551 49.993C20.4551 51.8067 19.7282 53.2769 18.8315 53.2769Z" fill="#85EBA3"/>
<path d="M60.044 22.4235L62.0391 23.2593L59.9123 28.4519L57.9172 27.6161L60.044 22.4235Z" fill="#63AD82"/>
<path d="M60.1724 24.9643C58.6661 24.3333 57.698 23.2044 58.0099 22.4428C58.3219 21.6812 59.7958 21.5752 61.302 22.2062C62.8083 22.8371 63.7764 23.9661 63.4645 24.7277C63.1525 25.4893 61.6786 25.5952 60.1724 24.9643Z" fill="#85EBA3"/>
<path d="M39.7978 77.5618L37.8027 76.7261L39.9295 71.5335L41.9245 72.3692L39.7978 77.5618Z" fill="#63AD82"/>
<path d="M38.5395 77.7803C37.0333 77.1493 36.0652 76.0203 36.3771 75.2587C36.6891 74.497 38.163 74.3911 39.6692 75.022C41.1754 75.653 42.1436 76.782 41.8316 77.5437C41.5197 78.3053 40.0458 78.4113 38.5395 77.7803Z" fill="#85EBA3"/>
<path d="M77.1819 60.2308L76.3555 62.2485L71.221 60.0976L72.0474 58.0799L77.1819 60.2308Z" fill="#63AD82"/>
<path d="M74.9044 63.6892C74.1512 63.3737 74.0465 61.8831 74.6704 60.3598C75.2943 58.8365 76.4106 57.8574 77.1637 58.1729C77.9168 58.4884 78.0216 59.979 77.3977 61.5023C76.7738 63.0256 75.6575 64.0047 74.9044 63.6892Z" fill="#85EBA3"/>
<path d="M22.6619 39.7554L23.4883 37.7378L28.6227 39.8886L27.7964 41.9063L22.6619 39.7554Z" fill="#63AD82"/>
<path d="M22.6797 41.8123C21.9266 41.4968 21.8219 40.0062 22.4458 38.4829C23.0697 36.9596 24.186 35.9805 24.9391 36.2959C25.6922 36.6114 25.797 38.1021 25.1731 39.6253C24.5492 41.1486 23.4329 42.1277 22.6797 41.8123Z" fill="#85EBA3"/>
<path d="M37.8038 23.2596L39.7988 22.4238L41.9256 27.6165L39.9305 28.4522L37.8038 23.2596Z" fill="#63AD82"/>
<path d="M36.3771 24.7276C36.0652 23.966 37.0333 22.8371 38.5396 22.2061C40.0458 21.5751 41.5197 21.6811 41.8317 22.4427C42.1436 23.2044 41.1754 24.3333 39.6692 24.9642C38.163 25.5952 36.6891 25.4893 36.3771 24.7276Z" fill="#85EBA3"/>
<path d="M62.04 76.7263L60.0449 77.562L57.9182 72.3694L59.9132 71.5337L62.04 76.7263Z" fill="#63AD82"/>
<path d="M58.0099 77.5431C57.698 76.7814 58.6662 75.6525 60.1724 75.0215C61.6786 74.3906 63.1525 74.4965 63.4645 75.2581C63.7764 76.0198 62.8083 77.1487 61.302 77.7797C59.7958 78.4106 58.3219 78.3047 58.0099 77.5431Z" fill="#85EBA3"/>
<path d="M76.3553 37.7377L77.1816 39.7554L72.0472 41.9062L71.2208 39.8885L76.3553 37.7377Z" fill="#63AD82"/>
<path d="M74.6704 39.6255C74.0465 38.1023 74.1513 36.6117 74.9044 36.2962C75.6575 35.9807 76.7738 36.9598 77.3977 38.4831C78.0216 40.0064 77.9168 41.497 77.1637 41.8124C76.4106 42.1279 75.2943 41.1488 74.6704 39.6255Z" fill="#85EBA3"/>
<path d="M23.4885 62.2486L22.6621 60.231L27.7965 58.0801L28.6229 60.0978L23.4885 62.2486Z" fill="#63AD82"/>
<path d="M22.4458 61.5025C21.8219 59.9792 21.9266 58.4886 22.6798 58.1731C23.4329 57.8576 24.5492 58.8367 25.1731 60.36C25.797 61.8833 25.6922 63.3739 24.9391 63.6894C24.186 64.0049 23.0697 63.0258 22.4458 61.5025Z" fill="#85EBA3"/>
<path d="M48.734 17.666H51.1094V27.3494H48.734V17.666Z" fill="#63AD82"/>
<path d="M49.9208 20.1931C48.1274 20.1931 46.6736 19.458 46.6736 18.5511C46.6736 17.6443 48.1274 16.9092 49.9208 16.9092C51.7141 16.9092 53.168 17.6443 53.168 18.5511C53.168 19.458 51.7141 20.1931 49.9208 20.1931Z" fill="#85EBA3"/>
<path d="M51.1098 82.3198H48.7344V72.6365H51.1098V82.3198Z" fill="#63AD82"/>
<path d="M49.9208 83.0768C48.1274 83.0768 46.6736 82.3417 46.6736 81.4349C46.6736 80.5281 48.1274 79.793 49.9208 79.793C51.7141 79.793 53.168 80.5281 53.168 81.4349C53.168 82.3417 51.7141 83.0768 49.9208 83.0768Z" fill="#85EBA3"/>
<path d="M81.8867 48.7916V51.1938H72.3117V48.7916H81.8867Z" fill="#63AD82"/>
<path d="M81.0112 53.2769C80.1145 53.2769 79.3876 51.8067 79.3876 49.993C79.3876 48.1793 80.1145 46.709 81.0112 46.709C81.9079 46.709 82.6348 48.1793 82.6348 49.993C82.6348 51.8067 81.9079 53.2769 81.0112 53.2769Z" fill="#85EBA3"/>
<path d="M17.957 51.1947V48.7925H27.532V51.1947H17.957Z" fill="#63AD82"/>
<path d="M18.8315 53.2769C17.9348 53.2769 17.2079 51.8067 17.2079 49.993C17.2079 48.1793 17.9348 46.709 18.8315 46.709C19.7282 46.709 20.4551 48.1793 20.4551 49.993C20.4551 51.8067 19.7282 53.2769 18.8315 53.2769Z" fill="#85EBA3"/>
<path d="M26.4785 27.9834L28.1582 26.2847L34.9287 33.1319L33.2491 34.8306L26.4785 27.9834Z" fill="#63AD82"/>
<path d="M25.6406 30.0818C25.0066 29.4406 25.5206 27.8811 26.7887 26.5986C28.0568 25.3162 29.5988 24.7963 30.2328 25.4376C30.8669 26.0788 30.3529 27.6383 29.0848 28.9208C27.8167 30.2032 26.2747 30.7231 25.6406 30.0818Z" fill="#85EBA3"/>
<path d="M73.3652 72.002L71.6855 73.7007L64.915 66.8536L66.5947 65.155L73.3652 72.002Z" fill="#63AD82"/>
<path d="M69.6094 74.5481C68.9754 73.9069 69.4894 72.3474 70.7574 71.0649C72.0255 69.7825 73.5675 69.2627 74.2016 69.9039C74.8356 70.5451 74.3216 72.1046 73.0535 73.387C71.7854 74.6695 70.2435 75.1893 69.6094 74.5481Z" fill="#85EBA3"/>
<path d="M71.6856 26.2847L73.3652 27.9834L66.5947 34.8306L64.915 33.1319L71.6856 26.2847Z" fill="#63AD82"/>
<path d="M70.7574 28.9209C69.4893 27.6384 68.9753 26.079 69.6094 25.4377C70.2434 24.7965 71.7854 25.3163 73.0535 26.5988C74.3216 27.8813 74.8356 29.4407 74.2016 30.0819C73.5675 30.7232 72.0255 30.2034 70.7574 28.9209Z" fill="#85EBA3"/>
<path d="M28.1582 73.7011L26.4785 72.0024L33.249 65.1552L34.9287 66.8539L28.1582 73.7011Z" fill="#63AD82"/>
<path d="M26.7887 73.3867C25.5206 72.1043 25.0066 70.5448 25.6406 69.9036C26.2747 69.2624 27.8167 69.7822 29.0848 71.0646C30.3529 72.3471 30.8669 73.9065 30.2328 74.5478C29.5988 75.189 28.0568 74.6692 26.7887 73.3867Z" fill="#85EBA3"/>
<path d="M48.734 17.666H51.1094V27.3494H48.734V17.666Z" fill="#63AD82"/>
<path d="M49.9208 20.1931C48.1274 20.1931 46.6736 19.458 46.6736 18.5511C46.6736 17.6443 48.1274 16.9092 49.9208 16.9092C51.7141 16.9092 53.168 17.6443 53.168 18.5511C53.168 19.458 51.7141 20.1931 49.9208 20.1931Z" fill="#85EBA3"/>
<path d="M51.1098 82.3198H48.7344V72.6365H51.1098V82.3198Z" fill="#63AD82"/>
<path d="M49.9208 83.0768C48.1274 83.0768 46.6736 82.3417 46.6736 81.4349C46.6736 80.5281 48.1274 79.793 49.9208 79.793C51.7141 79.793 53.168 80.5281 53.168 81.4349C53.168 82.3417 51.7141 83.0768 49.9208 83.0768Z" fill="#85EBA3"/>
<path d="M49.9203 75.0066C36.2601 75.0066 25.1863 63.8074 25.1863 49.9925C25.1863 36.1777 36.2601 24.9785 49.9203 24.9785C63.5805 24.9785 74.6543 36.1777 74.6543 49.9925C74.6543 63.8074 63.5805 75.0066 49.9203 75.0066Z" fill="#85EBA3"/>
<path opacity="0.7" d="M49.9223 69.018C39.5326 69.018 31.1102 60.5001 31.1102 49.9929C31.1102 39.4856 39.5326 30.9678 49.9223 30.9678C60.3119 30.9678 68.7344 39.4856 68.7344 49.9929C68.7344 60.5001 60.3119 69.018 49.9223 69.018Z" fill="#E3CC41"/>
<path opacity="0.7" d="M49.9209 64.0061C42.2683 64.0061 36.0646 57.7322 36.0646 49.9928C36.0646 42.2535 42.2683 35.9795 49.9209 35.9795C57.5736 35.9795 63.7773 42.2535 63.7773 49.9928C63.7773 57.7322 57.5736 64.0061 49.9209 64.0061Z" fill="#E3CC41"/>
<path opacity="0.7" d="M49.9215 58.5167C45.2669 58.5167 41.4935 54.7006 41.4935 49.9932C41.4935 45.2858 45.2669 41.4697 49.9215 41.4697C54.5762 41.4697 58.3496 45.2858 58.3496 49.9932C58.3496 54.7006 54.5762 58.5167 49.9215 58.5167Z" fill="#E3CC41"/>
<g style="mix-blend-mode:multiply">
<path d="M32.2616 47.5512C30.1408 47.5512 28.4216 45.8125 28.4216 43.6677C28.4216 41.5229 30.1408 39.7842 32.2616 39.7842C34.3824 39.7842 36.1016 41.5229 36.1016 43.6677C36.1016 45.8125 34.3824 47.5512 32.2616 47.5512Z" fill="#86BE81"/>
</g>
<path d="M41.0994 37.1014C38.9787 37.1014 37.2594 35.3627 37.2594 33.2179C37.2594 31.0731 38.9787 29.3345 41.0994 29.3345C43.2202 29.3345 44.9395 31.0731 44.9395 33.2179C44.9395 35.3627 43.2202 37.1014 41.0994 37.1014Z" fill="#86BE81"/>
<g style="mix-blend-mode:multiply">
<path d="M64.9803 62.8851C62.8595 62.8851 61.1403 61.1464 61.1403 59.0017C61.1403 56.8569 62.8595 55.1182 64.9803 55.1182C67.1011 55.1182 68.8203 56.8569 68.8203 59.0017C68.8203 61.1464 67.1011 62.8851 64.9803 62.8851Z" fill="#86BE81"/>
</g>
<path d="M62.1387 48.4245C61.1701 48.4245 60.3848 47.6304 60.3848 46.6507C60.3848 45.6711 61.1701 44.877 62.1387 44.877C63.1074 44.877 63.8926 45.6711 63.8926 46.6507C63.8926 47.6304 63.1074 48.4245 62.1387 48.4245Z" fill="#86BE81"/>
<path d="M36.7442 55.9165C35.7755 55.9165 34.9903 55.1224 34.9903 54.1428C34.9903 53.1632 35.7755 52.3691 36.7442 52.3691C37.7128 52.3691 38.498 53.1632 38.498 54.1428C38.498 55.1224 37.7128 55.9165 36.7442 55.9165Z" fill="#86BE81"/>
<path d="M48.7324 70.7915C47.7638 70.7915 46.9786 69.9974 46.9786 69.0178C46.9786 68.0383 47.7638 67.2441 48.7324 67.2441C49.7011 67.2441 50.4863 68.0383 50.4863 69.0178C50.4863 69.9974 49.7011 70.7915 48.7324 70.7915Z" fill="#86BE81"/>
<path d="M43.1763 49.1227C41.8261 49.1227 40.7316 48.0157 40.7316 46.6502C40.7316 45.2847 41.8261 44.1777 43.1763 44.1777C44.5265 44.1777 45.6211 45.2847 45.6211 46.6502C45.6211 48.0157 44.5265 49.1227 43.1763 49.1227Z" fill="#86BE81"/>
<g style="mix-blend-mode:multiply">
<path d="M55.2017 42.0455C53.8515 42.0455 52.7569 40.9386 52.7569 39.573C52.7569 38.2075 53.8515 37.1006 55.2017 37.1006C56.5519 37.1006 57.6465 38.2075 57.6465 39.573C57.6465 40.9386 56.5519 42.0455 55.2017 42.0455Z" fill="#86BE81"/>
</g>
</svg>
