<svg width="100" height="100" viewBox="0 0 100 100" fill="none" xmlns="http://www.w3.org/2000/svg">
<path d="M50 100C77.6142 100 100 77.6142 100 50C100 22.3858 77.6142 0 50 0C22.3858 0 0 22.3858 0 50C0 77.6142 22.3858 100 50 100Z" fill="#F6C863"/>
<path d="M59.5754 74.3823L57.3551 66.5503H42.6441L40.4238 74.3823H59.5754Z" fill="#414451"/>
<path d="M65.7277 76.5462C65.6277 74.4368 65.0074 73.7837 64.2246 73.7837H35.7738C34.9926 73.7837 34.3715 74.4337 34.2715 76.5462H65.7277Z" fill="#575B6D"/>
<path d="M79.6336 23.4541H20.3664C19.0422 23.4541 17.9688 24.5276 17.9688 25.8518V65.5502C17.9688 66.8744 19.0422 67.9479 20.3664 67.9479H79.6336C80.9578 67.9479 82.0312 66.8744 82.0312 65.5502V25.8518C82.0312 24.5276 80.9578 23.4541 79.6336 23.4541Z" fill="#575B6D"/>
<path d="M20.6387 25.8521H79.3629V60.6028H20.6387V25.8521Z" fill="#69B0EE"/>
<path d="M49.9992 63.0474C49.7089 63.0474 49.425 63.1335 49.1836 63.2948C48.9422 63.4562 48.754 63.6855 48.6429 63.9538C48.5318 64.222 48.5028 64.5172 48.5595 64.802C48.6162 65.0868 48.7561 65.3484 48.9615 65.5536C49.1669 65.7589 49.4285 65.8987 49.7133 65.9552C49.9981 66.0118 50.2933 65.9826 50.5615 65.8713C50.8298 65.7601 51.059 65.5718 51.2202 65.3303C51.3814 65.0888 51.4674 64.8049 51.4672 64.5146C51.467 64.1254 51.3123 63.7522 51.037 63.477C50.7617 63.2019 50.3884 63.0474 49.9992 63.0474Z" fill="#828A9E"/>
<path d="M49.1016 39.5391H62.2602V41.4922H49.1016V39.5391Z" fill="#EEEFEE"/>
<path d="M49.0672 35.5737V38.4112H47.1141V36.5503H35.9062V34.5972H48.0938C48.3521 34.5982 48.5996 34.7015 48.782 34.8845C48.9645 35.0675 49.067 35.3153 49.0672 35.5737Z" fill="#EEEFEE"/>
<path d="M47.1133 38.4111H49.0664V41.1752H47.1133V38.4111Z" fill="#575B6D"/>
<path d="M56.9824 46.3125V52.282H54.9606V47.3602H41.2191V52.282H39.1973V46.3125C39.1973 46.0534 39.3001 45.805 39.4832 45.6217C39.6664 45.4384 39.9148 45.3354 40.1738 45.3352H47.0793V40.0273H49.1004V45.3352H56.0059C56.265 45.3354 56.5133 45.4384 56.6965 45.6217C56.8796 45.805 56.9824 46.0534 56.9824 46.3125Z" fill="#EEEFEE"/>
<path d="M51.7527 39.2463V41.7908C51.7528 41.8998 51.7314 42.0077 51.6898 42.1085C51.6481 42.2092 51.587 42.3007 51.51 42.3777C51.4329 42.4548 51.3414 42.5159 51.2407 42.5576C51.14 42.5992 51.032 42.6206 50.923 42.6205H45.2629C45.1535 42.621 45.0451 42.6 44.9439 42.5585C44.8427 42.5171 44.7507 42.4561 44.6731 42.379C44.5956 42.3019 44.5339 42.2103 44.4918 42.1094C44.4497 42.0084 44.4279 41.9002 44.4277 41.7908V39.2463C44.4277 39.0248 44.5157 38.8124 44.6723 38.6557C44.829 38.4991 45.0414 38.4111 45.2629 38.4111H50.923C51.1437 38.4122 51.355 38.5007 51.5105 38.6572C51.666 38.8138 51.7531 39.0256 51.7527 39.2463Z" fill="#EF5261"/>
<path d="M58.8035 49.6909H53.1426C52.6831 49.6909 52.3105 50.0634 52.3105 50.5229V53.0667C52.3105 53.5262 52.6831 53.8987 53.1426 53.8987H58.8035C59.263 53.8987 59.6355 53.5262 59.6355 53.0667V50.5229C59.6355 50.0634 59.263 49.6909 58.8035 49.6909Z" fill="#F6C863"/>
<path d="M43.2117 49.6909H37.5508C37.0913 49.6909 36.7188 50.0634 36.7188 50.5229V53.0667C36.7188 53.5262 37.0913 53.8987 37.5508 53.8987H43.2117C43.6712 53.8987 44.0438 53.5262 44.0438 53.0667V50.5229C44.0438 50.0634 43.6712 49.6909 43.2117 49.6909Z" fill="#F6C863"/>
<path d="M64.8336 40.5157C64.8342 41.0955 64.6628 41.6625 64.3411 42.1449C64.0193 42.6273 63.5617 43.0034 63.0262 43.2256C62.4906 43.4478 61.9012 43.5061 61.3325 43.3932C60.7637 43.2803 60.2413 43.0012 59.8312 42.5913C59.4212 42.1813 59.142 41.659 59.0289 41.0903C58.9158 40.5216 58.974 39.9321 59.1961 39.3965C59.4182 38.8609 59.7941 38.4032 60.2764 38.0813C60.7587 37.7595 61.3256 37.5879 61.9055 37.5884C62.6818 37.5888 63.4262 37.8973 63.9752 38.4462C64.5242 38.9951 64.833 39.7394 64.8336 40.5157Z" fill="#575B6D"/>
<path d="M41.027 35.483C41.0276 36.0629 40.8562 36.6299 40.5344 37.1123C40.2126 37.5947 39.755 37.9707 39.2194 38.1929C38.6838 38.4151 38.0943 38.4734 37.5255 38.3604C36.9568 38.2475 36.4344 37.9683 36.0243 37.5583C35.6143 37.1483 35.3351 36.6258 35.2222 36.0571C35.1092 35.4883 35.1675 34.8988 35.3897 34.3632C35.6119 33.8276 35.988 33.37 36.4704 33.0482C36.9527 32.7265 37.5198 32.555 38.0996 32.5557C38.8758 32.5563 39.62 32.8649 40.1689 33.4137C40.7177 33.9626 41.0263 34.7068 41.027 35.483Z" fill="#EF5261"/>
</svg>
