<svg width="100" height="101" viewBox="0 0 100 101" fill="none" xmlns="http://www.w3.org/2000/svg">
<g clip-path="url(#clip0)">
<path d="M50 100.915C77.6142 100.915 100 78.3427 100 50.4985C100 22.6542 77.6142 0.0820312 50 0.0820312C22.3858 0.0820312 0 22.6542 0 50.4985C0 78.3427 22.3858 100.915 50 100.915Z" fill="#EA8953"/>
<path d="M79.8125 22.2563H20.1875C18.9621 22.2563 17.9688 23.258 17.9688 24.4936V76.506C17.9688 77.7416 18.9621 78.7432 20.1875 78.7432H79.8125C81.0379 78.7432 82.0312 77.7416 82.0312 76.506V24.4936C82.0312 23.258 81.0379 22.2563 79.8125 22.2563Z" fill="#EEEFEE"/>
<path d="M82.0312 24.4936V34.9298H17.9688V24.4936C17.9704 23.9007 18.2047 23.3327 18.6204 22.9135C19.0362 22.4943 19.5996 22.258 20.1875 22.2563H79.8125C80.4004 22.258 80.9638 22.4943 81.3796 22.9135C81.7953 23.3327 82.0296 23.9007 82.0312 24.4936Z" fill="#575B6D"/>
<path d="M74.7246 30.5623C75.8033 30.5623 76.6777 29.6806 76.6777 28.5929C76.6777 27.5053 75.8033 26.6235 74.7246 26.6235C73.6459 26.6235 72.7715 27.5053 72.7715 28.5929C72.7715 29.6806 73.6459 30.5623 74.7246 30.5623Z" fill="#DBD8DD"/>
<path d="M66.3477 30.5623C67.4263 30.5623 68.3008 29.6806 68.3008 28.5929C68.3008 27.5053 67.4263 26.6235 66.3477 26.6235C65.269 26.6235 64.3945 27.5053 64.3945 28.5929C64.3945 29.6806 65.269 30.5623 66.3477 30.5623Z" fill="#DBD8DD"/>
<path d="M57.9707 30.5623C59.0494 30.5623 59.9238 29.6806 59.9238 28.5929C59.9238 27.5053 59.0494 26.6235 57.9707 26.6235C56.892 26.6235 56.0176 27.5053 56.0176 28.5929C56.0176 29.6806 56.892 30.5623 57.9707 30.5623Z" fill="#DBD8DD"/>
<path d="M50.7016 55.942V42.6533H50.7008H49.0273V55.942H30.168V70.8629H31.8422V57.6302H49.0273H50.7016H67.8867V70.8629H69.5609V55.942H50.7016Z" fill="#575B6D"/>
<path d="M54.0708 39.501H45.6559C44.9733 39.501 44.4199 40.0589 44.4199 40.7472V44.5607C44.4199 45.249 44.9733 45.807 45.6559 45.807H54.0708C54.7534 45.807 55.3068 45.249 55.3068 44.5607V40.7472C55.3068 40.0589 54.7534 39.501 54.0708 39.501Z" fill="#EF5261"/>
<path d="M54.0708 53.6338H45.6559C44.9733 53.6338 44.4199 54.1917 44.4199 54.88V58.6936C44.4199 59.3818 44.9733 59.9398 45.6559 59.9398H54.0708C54.7534 59.9398 55.3068 59.3818 55.3068 58.6936V54.88C55.3068 54.1917 54.7534 53.6338 54.0708 53.6338Z" fill="#2CBFAE"/>
<path d="M72.9301 53.6338H64.5152C63.8326 53.6338 63.2793 54.1917 63.2793 54.88V58.6936C63.2793 59.3818 63.8326 59.9398 64.5152 59.9398H72.9301C73.6127 59.9398 74.166 59.3818 74.166 58.6936V54.88C74.166 54.1917 73.6127 53.6338 72.9301 53.6338Z" fill="#F6C863"/>
<path d="M72.9301 67.71H64.5152C63.8326 67.71 63.2793 68.2679 63.2793 68.9562V72.7697C63.2793 73.458 63.8326 74.016 64.5152 74.016H72.9301C73.6127 74.016 74.166 73.458 74.166 72.7697V68.9562C74.166 68.2679 73.6127 67.71 72.9301 67.71Z" fill="#69B0EE"/>
<path d="M35.4848 53.6338H27.0699C26.3873 53.6338 25.834 54.1917 25.834 54.88V58.6936C25.834 59.3818 26.3873 59.9398 27.0699 59.9398H35.4848C36.1674 59.9398 36.7207 59.3818 36.7207 58.6936V54.88C36.7207 54.1917 36.1674 53.6338 35.4848 53.6338Z" fill="#F6C863"/>
<path d="M35.4848 67.71H27.0699C26.3873 67.71 25.834 68.2679 25.834 68.9562V72.7697C25.834 73.458 26.3873 74.016 27.0699 74.016H35.4848C36.1674 74.016 36.7207 73.458 36.7207 72.7697V68.9562C36.7207 68.2679 36.1674 67.71 35.4848 67.71Z" fill="#69B0EE"/>
</g>
<defs>
<clipPath id="clip0">
<rect width="100" height="100.833" fill="white" transform="translate(0 0.0820312)"/>
</clipPath>
</defs>
</svg>
