<svg width="100" height="101" viewBox="0 0 100 101" fill="none" xmlns="http://www.w3.org/2000/svg">
<g clip-path="url(#clip0)">
<path d="M50 100.833C77.6142 100.833 100 78.2607 100 50.4164C100 22.5722 77.6142 0 50 0C22.3858 0 0 22.5722 0 50.4164C0 78.2607 22.3858 100.833 50 100.833Z" fill="#2CBFAE"/>
<path d="M72.8652 20.5596H27.1301C25.9116 20.5596 24.9238 21.5556 24.9238 22.7842V80.4898C24.9238 81.7184 25.9116 82.7144 27.1301 82.7144H72.8652C74.0837 82.7144 75.0715 81.7184 75.0715 80.4898V22.7842C75.0715 21.5556 74.0837 20.5596 72.8652 20.5596Z" fill="#F6B863"/>
<path d="M28.3906 24.0547H71.6048V79.2158H28.3906V24.0547Z" fill="#EEEFEE"/>
<path d="M50.4441 28.8905C50.2824 28.8905 50.1152 28.8842 49.9457 28.8708C48.904 28.9445 47.862 28.7314 46.931 28.2544C46 27.7774 45.2149 27.0544 44.6598 26.1625H35.3887C35.2953 26.1626 35.2028 26.1441 35.1165 26.1081C35.0302 26.0722 34.9518 26.0194 34.8857 25.9528C34.8197 25.8862 34.7673 25.8071 34.7316 25.7201C34.696 25.6331 34.6776 25.5398 34.6777 25.4456V19.836C34.6776 19.7418 34.696 19.6486 34.7316 19.5615C34.7673 19.4745 34.8197 19.3955 34.8857 19.3289C34.9518 19.2623 35.0302 19.2095 35.1165 19.1735C35.2028 19.1375 35.2953 19.119 35.3887 19.1191H64.6074C64.7008 19.119 64.7933 19.1375 64.8796 19.1735C64.9659 19.2095 65.0443 19.2623 65.1104 19.3289C65.1764 19.3955 65.2288 19.4745 65.2645 19.5615C65.3001 19.6486 65.3185 19.7418 65.3184 19.836V25.4441C65.3185 25.5382 65.3001 25.6315 65.2645 25.7185C65.2288 25.8055 65.1764 25.8846 65.1104 25.9512C65.0443 26.0178 64.9659 26.0706 64.8796 26.1066C64.7933 26.1426 64.7008 26.161 64.6074 26.1609H55.3363C54.8096 26.9895 54.0866 27.6729 53.2325 28.1494C52.3784 28.6259 51.4202 28.8806 50.4441 28.8905ZM49.9457 27.4418C50.834 27.5228 51.7264 27.3394 52.5125 26.9144C53.2986 26.4893 53.9438 25.8412 54.3684 25.0502C54.4332 24.9518 54.521 24.8712 54.6242 24.8154C54.7274 24.7596 54.8427 24.7304 54.9598 24.7304H63.8973V20.5552H36.0988V24.7304H45.0363C45.1534 24.7304 45.2687 24.7596 45.3719 24.8154C45.475 24.8712 45.5629 24.9518 45.6277 25.0502C46.4246 26.2555 47.6262 27.6246 49.9457 27.4418Z" fill="#62667C"/>
<path d="M61.4357 18.1176H38.5607C38.3339 18.1127 38.1085 18.1535 37.8975 18.2376C37.6866 18.3217 37.4944 18.4475 37.3323 18.6075C37.1702 18.7675 37.0415 18.9585 36.9535 19.1693C36.8656 19.3802 36.8203 19.6066 36.8203 19.8353C36.8203 20.064 36.8656 20.2904 36.9535 20.5013C37.0415 20.7121 37.1702 20.9031 37.3323 21.0631C37.4944 21.2231 37.6866 21.3488 37.8975 21.433C38.1085 21.5171 38.3339 21.5579 38.5607 21.553H61.4357C61.6625 21.5579 61.8879 21.5171 62.0989 21.433C62.3098 21.3488 62.502 21.2231 62.6641 21.0631C62.8262 20.9031 62.955 20.7121 63.0429 20.5013C63.1308 20.2904 63.1761 20.064 63.1761 19.8353C63.1761 19.6066 63.1308 19.3802 63.0429 19.1693C62.955 18.9585 62.8262 18.7675 62.6641 18.6075C62.502 18.4475 62.3098 18.3217 62.0989 18.2376C61.8879 18.1535 61.6625 18.1127 61.4357 18.1176Z" fill="#575B6D"/>
<path d="M33.9805 40.0967H38.7977V53.847H33.9805V40.0967Z" fill="#69B0EE"/>
<path d="M42.7695 33.4121H47.5867V53.8481H42.7695V33.4121Z" fill="#F6C863"/>
<path d="M51.5566 41.6123H56.3738V53.8484H51.5566V41.6123Z" fill="#2CBFAE"/>
<path d="M60.3457 31.2666H65.1629V53.8469H60.3457V31.2666Z" fill="#EF5261"/>
<path d="M32.1426 58.04H67.8526V59.8235H32.1426V58.04Z" fill="#CCD0D2"/>
<path d="M32.1426 63.5244H67.8526V65.3079H32.1426V63.5244Z" fill="#CCD0D2"/>
<path d="M32.1426 69.0098H67.8526V70.7933H32.1426V69.0098Z" fill="#CCD0D2"/>
<path d="M32.1426 74.4941H67.8526V76.2776H32.1426V74.4941Z" fill="#CCD0D2"/>
</g>
<defs>
<clipPath id="clip0">
<rect width="100" height="100.833" fill="white"/>
</clipPath>
</defs>
</svg>
