<svg width="140" height="52" viewBox="0 0 140 52" fill="none" xmlns="http://www.w3.org/2000/svg">
<path d="M100.659 0.311523H0V39.9758H100.659V0.311523Z" fill="#0B65A5"/>
<path d="M139.995 0.311523H100.658V39.9758H139.995V0.311523Z" fill="#1D1D1B"/>
<path d="M125.84 12.2207H115.817V18.5944H110.453V22.759H115.817V28.0916H120.3V22.7336H125.84V18.5944H120.3V16.3852H125.84V12.2207Z" fill="#D9D9D9"/>
<path d="M41.8781 51.428C40.7197 51.428 40.1152 50.6662 40.1152 49.3458V46.5781H40.8205V49.3205C40.8205 50.2092 41.173 50.6916 41.9033 50.6916C42.6337 50.6916 42.9862 50.2346 42.9862 49.3712V46.5781H43.6914V49.3458C43.6914 50.6916 43.0618 51.428 41.8781 51.428Z" fill="#1D1D1B"/>
<path d="M48.1515 51.3518L46.2627 48.4571L45.9101 47.8731C45.9101 48.0509 45.9101 48.711 45.9101 48.965V51.5042H45.2051V46.5781H45.9353L47.7234 49.4728L48.1263 50.1584V46.5781H48.8063V51.3518H48.1515Z" fill="#1D1D1B"/>
<path d="M53.513 51.3521L53.1353 50.2094H51.2214L50.8435 51.3521H50.1133L51.8005 46.5781H52.556L54.2937 51.3521H53.513ZM52.5308 48.4572C52.5308 48.1017 52.2287 47.5431 52.1783 47.3399C52.1783 47.5431 51.9517 48.1017 51.8257 48.4572L51.4479 49.5491H52.9086L52.5308 48.4572Z" fill="#1D1D1B"/>
<path d="M57.7207 51.3521V46.5781H60.768V47.2637H58.4259V48.4572H59.7858V49.1428H58.4259V50.641H60.9443V51.3521H57.7207Z" fill="#1D1D1B"/>
<path d="M65.7543 51.3518V47.9747C65.7543 48.127 65.578 48.4571 65.4521 48.7364L64.3945 51.428L63.2612 48.7364L62.9338 47.9747C62.9484 48.2538 62.9484 48.5335 62.9338 48.8126V51.3518H62.2539V46.5781H62.9842L64.0671 49.1173C64.0671 49.3966 64.3189 49.7267 64.3692 49.9299C64.3692 49.7267 64.5959 49.3966 64.6966 49.1173L65.7293 46.5781H66.5099V51.3518H65.7543Z" fill="#1D1D1B"/>
<path d="M69.9587 49.5747H68.6995V51.3523H68.0195V46.5782H69.9838C70.1858 46.5596 70.3896 46.5851 70.5809 46.6531C70.7722 46.7211 70.9468 46.8299 71.0926 46.9722C71.2384 47.1144 71.3521 47.2867 71.4258 47.4772C71.4996 47.6678 71.5318 47.8722 71.5201 48.0764C71.5323 48.283 71.4995 48.4898 71.4243 48.6824C71.3491 48.8749 71.2331 49.0486 71.0845 49.1913C70.9358 49.3339 70.758 49.4421 70.5635 49.5084C70.3691 49.5746 70.1627 49.5972 69.9587 49.5747ZM69.9587 47.2384H68.6743V48.889H69.9587C70.0674 48.9011 70.1775 48.8884 70.2807 48.8518C70.3839 48.8153 70.4776 48.7558 70.5549 48.6778C70.6323 48.5998 70.6913 48.5052 70.7275 48.4011C70.7638 48.2971 70.7766 48.1861 70.7646 48.0764C70.7755 47.968 70.7631 47.8585 70.7285 47.7553C70.6938 47.652 70.6375 47.5575 70.5635 47.4781C70.4895 47.3986 70.3995 47.3361 70.2995 47.2948C70.1995 47.2535 70.0918 47.2342 69.9838 47.2384H69.9587Z" fill="#1D1D1B"/>
<path d="M75.3229 49.3969L76.2797 51.3521H75.474L74.5422 49.4477H73.4592V51.3521H72.7793V46.5785H74.8444C75.0395 46.5563 75.2371 46.577 75.4235 46.6391C75.61 46.7013 75.781 46.8035 75.9246 46.9386C76.0682 47.0737 76.1811 47.2386 76.2554 47.4219C76.3298 47.6052 76.3638 47.8025 76.3553 48.0004C76.3753 48.3188 76.2825 48.634 76.0934 48.8898C75.9043 49.1456 75.6312 49.3253 75.3229 49.3969ZM74.8444 47.2386H73.4592V48.7875H74.8444C74.9494 48.8032 75.0566 48.7947 75.1579 48.7627C75.2593 48.7308 75.3522 48.6761 75.4297 48.6029C75.5072 48.5296 75.5672 48.4397 75.6054 48.3398C75.6436 48.2398 75.6588 48.1325 75.6501 48.0258C75.6581 47.9181 75.6427 47.8101 75.6046 47.7092C75.5666 47.6083 75.5069 47.5171 75.43 47.442C75.3531 47.3669 75.2608 47.3097 75.1596 47.2746C75.0584 47.2394 74.9508 47.2272 74.8444 47.2386Z" fill="#1D1D1B"/>
<path d="M77.791 51.3521V46.5781H80.8383V47.2637H78.5213V48.4572H79.8561V49.1428H78.5213V50.641H81.0396V51.3521H77.791Z" fill="#1D1D1B"/>
<path d="M83.6111 51.428C83.2898 51.4295 82.9721 51.3598 82.6805 51.2238C82.3889 51.0877 82.1306 50.8887 81.9238 50.6408L82.4274 50.1583C82.7548 50.4938 83.1953 50.6932 83.6615 50.717C84.3415 50.717 84.6435 50.4884 84.6435 50.0314C84.6435 49.5743 84.3666 49.4727 83.5859 49.2188C82.8052 48.9649 82.1001 48.6856 82.1001 47.8222C82.109 47.6293 82.1574 47.4404 82.2423 47.2673C82.3273 47.0943 82.4468 46.9409 82.5935 46.8168C82.7403 46.6927 82.911 46.6006 83.0948 46.5464C83.2786 46.4922 83.4716 46.477 83.6615 46.5018C83.9508 46.4957 84.2382 46.5488 84.5066 46.6579C84.775 46.767 85.0187 46.9299 85.2229 47.1366L84.7192 47.6445C84.576 47.4949 84.4036 47.3771 84.2129 47.2984C84.0221 47.2197 83.8171 47.1819 83.6111 47.1874C83.057 47.1874 82.8052 47.4667 82.8052 47.7968C82.8052 48.1269 83.0318 48.2793 83.8629 48.5332C84.6939 48.7871 85.374 49.1172 85.374 49.9806C85.374 50.8439 84.8199 51.428 83.6111 51.428Z" fill="#1D1D1B"/>
<path d="M89.7277 51.3521L89.3248 50.2094H87.436L87.033 51.3521H86.3027L87.99 46.5781H88.7455L90.4832 51.3521H89.7277ZM88.7203 48.4826C88.7203 48.1271 88.4182 47.5685 88.3678 47.3653C88.3678 47.5685 88.1411 48.1271 88.0152 48.4826L87.6374 49.5745H89.0981L88.7203 48.4826Z" fill="#1D1D1B"/>
<path d="M94.6154 47.2637V48.4571H95.9752V49.1681H94.6154V51.301H93.9102V46.5781H96.9574V47.2637H94.6154Z" fill="#1D1D1B"/>
<path d="M98.1914 51.3521V46.5781H101.239V47.2637H98.8966V48.4572H100.256V49.1428H98.8966V50.641H101.415V51.3521H98.1914Z" fill="#1D1D1B"/>
<path d="M105.24 49.3969L106.197 51.3521H105.392L104.435 49.4477H103.377V51.3521H102.672V46.5785H104.687C104.882 46.5563 105.079 46.577 105.266 46.6391C105.452 46.7013 105.623 46.8035 105.767 46.9386C105.91 47.0737 106.023 47.2386 106.098 47.4219C106.172 47.6052 106.206 47.8025 106.197 48.0004C106.221 48.3086 106.139 48.6156 105.965 48.87C105.791 49.1243 105.535 49.3104 105.24 49.3969ZM104.762 47.2386H103.377V48.7875H104.687C104.792 48.8032 104.899 48.7947 105 48.7627C105.102 48.7308 105.194 48.6761 105.272 48.6029C105.349 48.5296 105.41 48.4397 105.448 48.3398C105.486 48.2398 105.501 48.1325 105.492 48.0258C105.5 47.9181 105.485 47.8101 105.447 47.7092C105.409 47.6083 105.349 47.5171 105.272 47.442C105.195 47.3669 105.103 47.3097 105.002 47.2746C104.901 47.2394 104.793 47.2272 104.687 47.2386H104.762Z" fill="#1D1D1B"/>
<path d="M110.278 49.3969L111.235 51.3521H110.404L109.472 49.4477H108.414V51.3521H107.709V46.5785H109.724C109.919 46.5563 110.116 46.577 110.303 46.6391C110.489 46.7013 110.66 46.8035 110.804 46.9386C110.947 47.0737 111.06 47.2386 111.135 47.4219C111.209 47.6052 111.243 47.8025 111.235 48.0004C111.258 48.3086 111.176 48.6156 111.002 48.87C110.828 49.1243 110.572 49.3104 110.278 49.3969ZM109.799 47.2386H108.414V48.7875H109.724C109.827 48.799 109.931 48.7875 110.029 48.7536C110.128 48.7198 110.217 48.6645 110.292 48.5918C110.366 48.519 110.424 48.4306 110.461 48.3327C110.497 48.2349 110.512 48.1301 110.504 48.0258C110.516 47.9195 110.505 47.8118 110.47 47.7107C110.435 47.6097 110.377 47.5179 110.302 47.4423C110.227 47.3666 110.136 47.309 110.036 47.2737C109.936 47.2385 109.829 47.2265 109.724 47.2386H109.799Z" fill="#1D1D1B"/>
<path d="M112.746 51.3521V46.5781H115.793V47.2637H113.451V48.4572H114.761V49.1428H113.401V50.641H115.919V51.3521H112.746Z" fill="#1D1D1B"/>
<path d="M119.17 49.4476V51.3521H118.465V49.4476L116.777 46.5781H117.608L118.339 47.8986C118.49 48.1779 118.742 48.6604 118.817 48.8381C118.893 49.0159 119.145 48.2033 119.296 47.8986L120.051 46.5781H120.882L119.17 49.4476Z" fill="#1D1D1B"/>
<path d="M123.499 51.4282C122.29 51.4282 121.51 50.4125 121.51 48.8889C121.51 47.3653 122.29 46.3495 123.499 46.3495C123.824 46.3248 124.15 46.3956 124.436 46.5534C124.722 46.7111 124.956 46.949 125.111 47.2383L124.481 47.6192C124.389 47.4401 124.247 47.2919 124.073 47.1928C123.898 47.0936 123.699 47.0476 123.499 47.0606C122.668 47.0606 122.24 47.7462 122.24 48.8127C122.24 49.8792 122.668 50.5395 123.499 50.5395C123.712 50.5494 123.923 50.5002 124.109 50.3971C124.296 50.2941 124.451 50.1413 124.557 49.9554L125.136 50.3617C124.995 50.6801 124.765 50.9503 124.474 51.1396C124.184 51.3289 123.845 51.4292 123.499 51.4282Z" fill="#1D1D1B"/>
<path d="M128.109 51.4285C126.9 51.4285 126.119 50.4127 126.119 48.889C126.119 47.3654 126.9 46.3496 128.109 46.3496C129.317 46.3496 130.123 47.3654 130.123 48.889C130.123 50.4127 129.343 51.4285 128.109 51.4285ZM128.109 47.213C127.303 47.213 126.849 47.8987 126.849 48.9652C126.849 50.0318 127.303 50.692 128.109 50.692C128.914 50.692 129.393 50.0318 129.393 48.9652C129.393 47.8987 128.94 47.213 128.109 47.213Z" fill="#1D1D1B"/>
<path d="M134.028 49.3969L134.985 51.3521H134.179L133.247 49.4477H132.164V51.3521H131.484V46.5785H133.549C133.745 46.5563 133.942 46.577 134.129 46.6391C134.315 46.7013 134.486 46.8035 134.63 46.9386C134.773 47.0737 134.886 47.2386 134.96 47.4219C135.035 47.6052 135.069 47.8025 135.06 48.0004C135.086 48.3199 134.995 48.6377 134.805 48.8947C134.615 49.1516 134.339 49.3301 134.028 49.3969ZM133.549 47.2386H132.164V48.7875H133.549C133.655 48.8032 133.762 48.7947 133.863 48.7627C133.964 48.7308 134.057 48.6761 134.135 48.6029C134.212 48.5296 134.272 48.4397 134.31 48.3398C134.349 48.2398 134.364 48.1325 134.355 48.0258C134.363 47.9181 134.348 47.8101 134.31 47.7092C134.272 47.6083 134.212 47.5171 134.135 47.442C134.058 47.3669 133.966 47.3097 133.865 47.2746C133.763 47.2394 133.656 47.2272 133.549 47.2386Z" fill="#1D1D1B"/>
<path d="M138.435 49.5748H137.201V51.3523H136.496V46.5784H138.486C138.687 46.5593 138.889 46.5847 139.079 46.6529C139.27 46.7211 139.443 46.8303 139.587 46.9731C139.731 47.1158 139.842 47.2885 139.913 47.4791C139.984 47.6697 140.012 47.8737 139.997 48.0766C140.009 48.2832 139.976 48.49 139.901 48.6825C139.826 48.8751 139.71 49.0487 139.561 49.1914C139.412 49.334 139.235 49.4423 139.04 49.5085C138.846 49.5747 138.639 49.5973 138.435 49.5748ZM138.435 47.2387H137.176V48.8892H138.435C138.546 48.9055 138.659 48.8959 138.765 48.8612C138.872 48.8266 138.969 48.7677 139.049 48.6892C139.129 48.6107 139.191 48.5146 139.228 48.4084C139.266 48.3022 139.279 48.1887 139.266 48.0766C139.278 47.9659 139.265 47.8541 139.229 47.749C139.192 47.6439 139.134 47.548 139.057 47.4681C138.98 47.3883 138.887 47.3263 138.784 47.2867C138.681 47.2471 138.57 47.2307 138.46 47.2387H138.435Z" fill="#1D1D1B"/>
<path d="M10.9297 22.6833H13.8005V16.1318H19.3913V13.6687H13.8005V9.78349H19.8698V7.26953H10.9297V22.6833Z" fill="#F4F6F8"/>
<path d="M30.7487 7.26953L25.3594 22.6833H28.331L29.8672 18.1379H34.4758L36.0624 22.6833H39.2103L33.7958 7.26953H30.7487ZM32.159 11.1039C32.159 11.4341 32.3855 11.815 32.5366 12.1959L33.7707 15.7509H30.5976L31.8316 12.1705C31.9575 11.7896 32.0582 11.4341 32.159 11.1039Z" fill="#F4F6F8"/>
<path d="M54.3201 18.1377C54.1423 17.0618 53.61 16.0777 52.8092 15.3444C53.3676 14.9954 53.8415 14.525 54.1964 13.9675C54.5512 13.41 54.778 12.7796 54.8601 12.1224C54.9422 11.4651 54.8774 10.7977 54.6707 10.1689C54.464 9.5401 54.1205 8.96586 53.6653 8.48819C53.0697 7.99192 52.3825 7.61968 51.6433 7.39303C50.9041 7.16637 50.1278 7.0898 49.359 7.16774C48.1943 7.17313 47.0319 7.27504 45.8837 7.47246H45.5059V22.7085H48.2005V16.4109H49.2834C50.6685 16.4109 51.2477 17.0966 51.6002 18.9503C51.7956 20.1739 52.1164 21.3738 52.5572 22.5307V22.7593H55.4282L55.0756 22.099C54.7102 20.8032 54.4574 19.4777 54.3201 18.1377ZM52.1796 11.7893C52.1796 13.186 51.1722 14.0747 49.6612 14.0747H48.3012V9.63089C48.7288 9.60094 49.158 9.60094 49.5856 9.63089C51.2477 9.55471 52.1544 10.3673 52.1544 11.7893H52.1796Z" fill="#F4F6F8"/>
<path d="M68.7506 16.5887H71.269V20.1437C70.7069 20.3192 70.1192 20.3965 69.5313 20.3723C66.7863 20.3723 65.074 18.3154 65.074 14.9889C64.9793 14.3168 65.0301 13.632 65.2231 12.9816C65.416 12.3313 65.7464 11.7308 66.1916 11.2216C66.6367 10.7124 67.1861 10.3065 67.8018 10.0319C68.4175 9.75727 69.0849 9.62046 69.7581 9.63088C70.6299 9.60988 71.4938 9.80154 72.2764 10.1895L72.7801 10.4689L73.46 7.92953L73.1326 7.75177C72.0621 7.24453 70.8902 6.99255 69.7076 7.01537C68.6903 6.99325 67.6797 7.188 66.7421 7.5869C65.8046 7.98579 64.9612 8.57982 64.267 9.33011C63.5728 10.0804 63.0436 10.9701 62.7139 11.9408C62.3843 12.9116 62.2617 13.9416 62.3541 14.9635C62.2837 17.0917 63.0121 19.1683 64.394 20.7786C65.0385 21.465 65.8217 22.0039 66.6907 22.3587C67.5596 22.7136 68.494 22.8761 69.4307 22.8354C70.8377 22.8292 72.2307 22.5534 73.5356 22.0228L73.8126 21.8959V14.2779H68.7759L68.7506 16.5887Z" fill="#F4F6F8"/>
<path d="M87.6629 7.01562C84.0869 7.01562 81.5938 10.3422 81.5938 15.0907C81.5938 19.8393 84.112 22.9373 87.5118 22.9373C90.5339 22.9373 93.5811 20.3979 93.5811 14.8368C93.5811 10.1644 91.2138 7.01562 87.6629 7.01562ZM87.6629 20.4741C85.3208 20.4741 84.2632 17.6554 84.2632 15.0399C84.2632 12.4244 85.3209 9.47878 87.6881 9.47878C90.0554 9.47878 91.0878 12.2974 91.0878 14.913C91.0878 17.5285 89.9295 20.5249 87.5874 20.5249L87.6629 20.4741Z" fill="#F4F6F8"/>
<path d="M63.335 26.2891V30.4537H65.4503V31.2156H62.5039V26.2891H63.335Z" fill="#F4F6F8"/>
<path d="M72.4795 26.2891V31.2156H71.6484V26.2891H72.4795Z" fill="#F4F6F8"/>
<path d="M79.9815 26.2891L82.4999 29.8189V26.2891H83.331V31.2156H82.4999L79.9815 27.6858V31.2156H79.1504V26.2891H79.9815Z" fill="#F4F6F8"/>
<path d="M93.5828 26.2891V27.0509H90.9384V28.3714H93.3056V29.1078H90.9384V30.4537H93.6582V31.2156H90.1074V26.2891H93.5828Z" fill="#F4F6F8"/>
</svg>
