<svg width="140" height="44" viewBox="0 0 140 44" fill="none" xmlns="http://www.w3.org/2000/svg">
<path d="M7.85744 9.96838H0V16.097H7.85744V23.95H14.4438V16.097H22.6249V9.96838H14.467V6.72932H22.6249V0.624023H7.88057L7.85744 9.96838ZM66.3262 14.1162C66.3262 12.3918 65.6791 10.9937 64.0152 10.9937C62.3512 10.9937 61.7042 12.3918 61.7042 14.1162H66.3262ZM70.1625 16.0737V17.0291H61.658C61.9122 19.103 63.2063 19.8953 65.2862 19.8953C66.616 19.8784 67.9139 19.4826 69.03 18.7535V22.3887C67.614 23.0295 66.0754 23.3477 64.5236 23.3208C63.516 23.372 62.5094 23.2008 61.5742 22.8192C60.6389 22.4376 59.7976 21.8548 59.1088 21.1115C58.4201 20.3682 57.9005 19.4822 57.5864 18.5155C57.2723 17.5488 57.1711 16.5246 57.2901 15.5144C57.2901 10.5742 60.0402 7.73132 63.8534 7.73132C68.4754 7.73132 70.07 11.6462 70.07 16.0737H70.1625ZM32.8626 14.1162C32.8626 12.3918 32.1925 10.9937 30.5516 10.9937C28.9108 10.9937 28.2406 12.3918 28.2406 14.1162H32.8626ZM36.6758 16.0737V17.0291H28.1944C28.4255 19.103 29.7197 19.8953 31.7996 19.8953C33.1304 19.8849 34.43 19.4885 35.5434 18.7535V22.3887C34.1282 23.0317 32.589 23.3501 31.037 23.3208C30.0423 23.3388 29.055 23.1443 28.1402 22.7501C27.2254 22.3558 26.4036 21.7708 25.7291 21.0334C25.0546 20.296 24.5425 19.423 24.2265 18.4718C23.9106 17.5206 23.7979 16.5127 23.8959 15.5144C23.8959 10.5742 26.646 7.73132 30.4823 7.73132C35.1043 7.73132 36.6758 11.6462 36.6758 16.0737ZM41.8987 10.8073V8.05756H38.0394V22.9945H42.2916V16.6795C42.2916 13.7667 43.4009 12.019 45.3653 12.019C45.8562 11.9912 46.3483 12.0464 46.8212 12.1821L47.0292 7.89445C46.5506 7.79038 46.0628 7.73571 45.5732 7.73132C43.7475 7.73132 42.6844 8.91976 41.9449 10.8073H41.8987ZM55.811 7.73132C56.3006 7.73571 56.7884 7.79038 57.267 7.89445L57.0359 12.1821C56.5712 12.045 56.0864 11.9898 55.603 12.019C53.6387 12.019 52.5294 13.7667 52.5294 16.6795V22.9945H48.2772V8.05756H52.1365V10.8073C52.876 8.91976 53.9391 7.73132 55.7648 7.73132" fill="#00973D"/>
<path d="M132.234 22.4587L138.774 3.35059L130.986 16.7496L127.935 7.68488H123.96L128.582 22.0393L124.746 35.0189L128.906 32.4556L127.358 43.804L135.261 24.253L131.009 27.1659L132.234 22.4587ZM79.8662 7.47516C78.9738 7.39767 78.0813 7.62104 77.3284 8.11026C76.5756 8.59947 76.005 9.32684 75.7064 10.1783C75.7104 9.34568 75.6719 8.51345 75.5908 7.68488H71.5234C71.6221 8.72258 71.6607 9.7652 71.639 10.8074V22.4587L76.0993 18.474V14.2096C76.0993 12.2988 76.6077 11.0405 78.0405 11.0405C78.9418 11.0405 79.7738 11.5298 79.7738 13.3707V22.552L84.234 18.4973V12.8115C84.234 9.85202 83.1479 7.47516 79.9124 7.47516H79.8662ZM94.2638 13.8368C94.2638 11.9726 93.7785 10.2016 91.9528 10.2016C89.6418 10.2016 89.6418 13.0445 89.6418 13.8368H94.2638ZM98.3312 15.2116V16.2835H89.6418C89.6254 16.756 89.7104 17.2265 89.8908 17.6629C90.0713 18.0992 90.3431 18.4912 90.6875 18.8119C91.0319 19.1327 91.441 19.3748 91.8867 19.5215C92.3324 19.6683 92.8043 19.7164 93.2701 19.6624C94.7293 19.6159 96.156 19.2163 97.4299 18.4973L92.8079 22.7384C91.7946 22.8221 90.7754 22.6801 89.8226 22.3224C88.8697 21.9647 88.0066 21.4 87.2943 20.6685C86.582 19.9369 86.038 19.0564 85.7008 18.0892C85.3637 17.122 85.2417 16.0919 85.3433 15.0718C85.3433 11.0871 87.6543 7.47516 91.8835 7.47516C93.2008 7.47516 98.2619 7.47516 98.2619 15.2116H98.3312ZM118.229 15.2116C118.229 13.5105 117.836 10.8307 116.034 10.8307C114.231 10.8307 113.861 13.6737 113.861 15.2116C113.861 16.3768 114.023 19.476 115.987 19.476C117.952 19.476 118.298 17.2856 118.298 15.2116H118.229ZM118.645 7.80139H122.874C122.815 8.91136 122.815 10.0237 122.874 11.1337V20.8509C122.874 22.9947 122.874 28.9602 115.387 28.9602L110.233 24.2996C111.653 25.0897 113.235 25.5364 114.855 25.6046C118.391 25.6046 118.53 22.9947 118.53 19.9188C118.239 20.707 117.71 21.3832 117.017 21.8516C116.325 22.32 115.504 22.5569 114.67 22.5287C112.105 22.5287 109.47 20.711 109.47 15.1417C109.47 10.4812 111.342 7.49846 114.693 7.49846C115.537 7.45926 116.372 7.68767 117.081 8.15159C117.79 8.61552 118.337 9.29166 118.645 10.085V7.80139ZM107.737 7.59167H108.384V11.7395C107.9 11.6214 107.403 11.5665 106.905 11.5764C104.294 11.5764 103.993 13.9067 103.993 16.0039V18.9867L99.5791 22.5053V10.854C99.6008 9.8118 99.5623 8.76918 99.4636 7.73148H103.508C103.508 8.61698 103.508 9.52578 103.623 10.4113C104.525 8.82671 105.149 7.52175 107.714 7.52175" fill="#F39117"/>
<path d="M127.936 7.68432L130.986 16.749L139.999 1.22949L127.936 7.68432Z" fill="#00973D"/>
<path d="M31.4527 40.6345C30.5283 40.6345 30.043 40.0287 30.043 38.9801V36.65H30.5977V38.8636C30.5977 39.586 30.898 39.9821 31.4758 39.9821C32.0536 39.9821 32.354 39.6093 32.354 38.9102V36.5801H32.9318V38.9102C32.9318 39.9821 32.4003 40.5646 31.4527 40.5646" fill="#1D1D1B"/>
<path d="M36.4888 40.5881L34.9635 38.2578L34.6862 37.7685V40.658H34.1777V36.7432H34.7555L36.2115 39.0734C36.2115 39.2132 36.4657 39.5161 36.5119 39.6094V36.7432H37.0665V40.5881H36.4888Z" fill="#1D1D1B"/>
<path d="M40.0268 38.2812C40.0268 38.0016 39.7726 37.5589 39.7264 37.3957L39.4491 38.2812L39.1487 39.1666H40.3273L40.0268 38.2812ZM40.8126 40.6113L40.4891 39.7026H38.9638L38.6634 40.6113H38.0625L39.426 36.7666H40.05L41.4135 40.6113H40.8126Z" fill="#1D1D1B"/>
<path d="M44.1855 40.5879V36.7432H46.6353V37.3024H44.7633V38.2578H45.8495V38.817H44.7633V40.0287H46.7046V40.5879H44.1855Z" fill="#1D1D1B"/>
<path d="M50.6346 40.5882V38.5841C50.6208 38.3591 50.6208 38.1334 50.6346 37.9083L50.3573 38.5841L49.4329 40.728L48.5315 38.5841L48.2774 37.9782C48.2774 37.9782 48.2774 38.421 48.2774 38.654V40.6814H47.7227V36.7432H48.3004L49.1786 38.7939C49.1786 39.0036 49.3866 39.2832 49.4329 39.4463C49.4791 39.6095 49.5946 39.0269 49.687 38.7939L50.5191 36.7432H51.1199V40.5882H50.6346Z" fill="#1D1D1B"/>
<path d="M54.0327 37.3021H53.0159V38.5838H54.0327C54.1204 38.5952 54.2095 38.5862 54.2932 38.5574C54.3768 38.5287 54.4528 38.481 54.5153 38.418C54.5778 38.3549 54.6252 38.2783 54.6537 38.1939C54.6822 38.1095 54.6911 38.0197 54.6798 37.9313C54.6867 37.8438 54.6748 37.7559 54.6447 37.6735C54.6147 37.5912 54.5673 37.5164 54.5057 37.4543C54.4442 37.3923 54.37 37.3445 54.2884 37.3142C54.2067 37.2839 54.1194 37.2718 54.0327 37.2788V37.3021ZM54.0327 39.1197H53.039V40.5645H52.4844V36.7429H54.0789C54.2577 36.6914 54.4461 36.6824 54.6289 36.7167C54.8118 36.7511 54.9842 36.8277 55.1327 36.9407C55.2812 37.0536 55.4017 37.1998 55.4846 37.3676C55.5676 37.5355 55.6107 37.7205 55.6107 37.908C55.6107 38.0955 55.5676 38.2805 55.4846 38.4484C55.4017 38.6163 55.2812 38.7624 55.1327 38.8754C54.9842 38.9883 54.8118 39.0649 54.6289 39.0993C54.4461 39.1336 54.2577 39.1246 54.0789 39.0731" fill="#1D1D1B"/>
<path d="M57.9354 37.3022H56.8261V38.5839H57.9354C58.021 38.5946 58.1078 38.586 58.1895 38.5585C58.2713 38.531 58.346 38.4855 58.408 38.4251C58.4701 38.3648 58.518 38.2913 58.5482 38.2099C58.5784 38.1284 58.5901 38.0413 58.5825 37.9547C58.5865 37.87 58.5721 37.7855 58.5403 37.707C58.5086 37.6285 58.4602 37.5579 58.3986 37.5002C58.337 37.4425 58.2635 37.3991 58.1835 37.3729C58.1036 37.3468 58.0189 37.3386 57.9354 37.3488V37.3022ZM58.3283 39.0732L59.1141 40.6345H58.4439L57.6813 39.1198H56.8261V40.6345H56.2715V36.7429H57.9354C58.0925 36.7263 58.2513 36.7437 58.4011 36.7939C58.551 36.8441 58.6884 36.9259 58.8044 37.034C58.9203 37.1421 59.0121 37.274 59.0735 37.4207C59.1348 37.5674 59.1644 37.7256 59.1603 37.8848C59.1831 38.1446 59.1112 38.4039 58.9581 38.6141C58.8049 38.8243 58.581 38.9709 58.3283 39.0266" fill="#1D1D1B"/>
<path d="M60.3164 40.5879V36.7432H62.7661V37.3024H60.8942V38.2578H61.9804V38.817H60.8942V40.0287H62.8354V40.5879H60.3164Z" fill="#1D1D1B"/>
<path d="M64.9829 40.6346C64.7289 40.6403 64.4768 40.5889 64.2449 40.4841C64.0131 40.3793 63.8073 40.2238 63.6426 40.0287L64.0355 39.6326C64.1622 39.7711 64.3158 39.8819 64.4867 39.9581C64.6577 40.0342 64.8423 40.0741 65.0292 40.0753C65.5607 40.0753 65.8149 39.8889 65.8149 39.5161C65.8149 39.1432 65.5839 39.0733 64.9599 38.8869C64.3359 38.7005 63.7581 38.4442 63.7581 37.7684C63.7581 37.0927 64.3128 36.6965 65.0292 36.6965C65.2573 36.6927 65.4838 36.7363 65.6945 36.8245C65.9052 36.9127 66.0956 37.0436 66.254 37.2092L65.8611 37.6286C65.7514 37.5046 65.6157 37.4068 65.4638 37.3423C65.3119 37.2778 65.1476 37.2482 64.9829 37.2558C64.5438 37.2558 64.3359 37.4655 64.3359 37.7218C64.3359 37.9781 64.5208 38.1412 65.1679 38.3277C65.8149 38.5141 66.3927 38.7937 66.3927 39.4928C66.3927 40.1918 65.9536 40.6346 64.9829 40.6346Z" fill="#1D1D1B"/>
<path d="M69.099 38.2812C69.099 38.0016 68.8449 37.5589 68.7987 37.3957C68.7214 37.6955 68.6288 37.991 68.5213 38.2812L68.2209 39.1666H69.3995L69.099 38.2812ZM69.8848 40.6113L69.5613 39.7026H68.0591L67.7356 40.6113H67.1348L68.5213 36.7666H69.1222L70.5088 40.6113H69.8848Z" fill="#1D1D1B"/>
<path d="M73.8355 37.3024V38.3044H74.9217V38.8869H73.8355V40.5879H73.2578V36.7432H75.7074V37.3024H73.8355Z" fill="#1D1D1B"/>
<path d="M76.7012 40.5879V36.7432H79.1509V37.3024H77.2559V38.2578H78.3651V38.817H77.2559V40.0287H79.2202V40.5879H76.7012Z" fill="#1D1D1B"/>
<path d="M81.9699 37.3022H80.8607V38.5839H81.9699C82.0555 38.5946 82.1423 38.586 82.2241 38.5585C82.3059 38.531 82.3805 38.4855 82.4425 38.4251C82.5046 38.3648 82.5525 38.2913 82.5827 38.2099C82.6129 38.1284 82.6246 38.0413 82.617 37.9547C82.621 37.87 82.6066 37.7855 82.5748 37.707C82.5431 37.6285 82.4947 37.5579 82.4331 37.5002C82.3715 37.4425 82.2981 37.3991 82.2181 37.3729C82.1381 37.3468 82.0534 37.3386 81.9699 37.3488V37.3022ZM82.3628 39.0732L83.1254 40.6345H82.4784L81.7157 39.1198H80.8607V40.6345H80.3984V36.7429H82.0624C82.2194 36.7263 82.3782 36.7437 82.5281 36.7939C82.6779 36.8441 82.8154 36.9259 82.9313 37.034C83.0473 37.1421 83.139 37.274 83.2004 37.4207C83.2618 37.5674 83.2914 37.7256 83.2872 37.8848C83.3101 38.1446 83.2382 38.4039 83.085 38.6141C82.9319 38.8243 82.708 38.9709 82.4553 39.0266" fill="#1D1D1B"/>
<path d="M86.0151 37.3022H85.0214V38.5839H86.1307C86.2163 38.5946 86.3031 38.586 86.3849 38.5585C86.4666 38.531 86.5413 38.4855 86.6033 38.4251C86.6654 38.3648 86.7132 38.2913 86.7434 38.2099C86.7736 38.1284 86.7854 38.0413 86.7778 37.9547C86.7818 37.87 86.7674 37.7855 86.7356 37.707C86.7038 37.6285 86.6554 37.5579 86.5938 37.5002C86.5322 37.4425 86.4588 37.3991 86.3789 37.3729C86.2989 37.3468 86.2142 37.3386 86.1307 37.3488L86.0151 37.3022ZM86.5236 39.0732L87.2863 40.6345H86.6392L85.8765 39.1198H85.0214V40.6345H84.4668V36.7429H86.1307C86.2878 36.7263 86.4465 36.7437 86.5964 36.7939C86.7462 36.8441 86.8838 36.9259 86.9997 37.034C87.1157 37.1421 87.2074 37.274 87.2688 37.4207C87.3301 37.5674 87.3597 37.7256 87.3556 37.8848C87.3784 38.1446 87.3065 38.4039 87.1534 38.6141C87.0002 38.8243 86.7763 38.9709 86.5236 39.0266" fill="#1D1D1B"/>
<path d="M88.3965 40.5879V36.7432H90.8231V37.3024H88.9512V38.2578H90.0604V38.817H88.9512V40.0287H90.9155V40.5879H88.3965Z" fill="#1D1D1B"/>
<path d="M93.5506 39.0733V40.5879H92.9728V39.0733L91.6094 36.7432H92.2796L92.8804 37.815C93.019 38.048 93.204 38.4209 93.2733 38.5607L93.6661 37.815L94.267 36.7432H94.9141L93.5506 39.0733Z" fill="#1D1D1B"/>
<path d="M97.0376 40.6347C96.0439 40.6347 95.4199 39.8191 95.4199 38.6773C95.4199 37.5355 96.0439 36.6966 97.0376 36.6966C97.2962 36.682 97.5537 36.7395 97.782 36.8628C98.0103 36.9861 98.2006 37.1705 98.3318 37.3956L97.8234 37.7219C97.7493 37.5774 97.6362 37.4569 97.4972 37.3745C97.3582 37.292 97.1989 37.2509 97.0376 37.2558C96.3675 37.2558 96.0208 37.8151 96.0208 38.6773C96.0208 39.5395 96.3675 40.0754 97.0376 40.0754C97.208 40.0815 97.3766 40.0388 97.5238 39.9522C97.6711 39.8656 97.791 39.7386 97.8696 39.5861L98.3318 39.9123C98.2036 40.1418 98.0147 40.3308 97.7862 40.4584C97.5577 40.586 97.2985 40.647 97.0376 40.6347Z" fill="#1D1D1B"/>
<path d="M100.735 37.2555C100.065 37.2555 99.7184 37.8148 99.7184 38.6769C99.7184 39.5391 100.065 40.075 100.735 40.075C101.405 40.075 101.775 39.5158 101.775 38.6769C101.775 37.8381 101.405 37.2555 100.735 37.2555ZM100.735 40.6343C99.7415 40.6343 99.1406 39.8187 99.1406 38.6769C99.1406 37.5352 99.7415 36.6963 100.735 36.6963C101.729 36.6963 102.353 37.5119 102.353 38.6769C102.353 39.842 101.729 40.6343 100.735 40.6343Z" fill="#1D1D1B"/>
<path d="M105.102 37.3022H103.993V38.5839H105.102C105.193 38.6017 105.286 38.5991 105.375 38.5763C105.464 38.5534 105.548 38.511 105.619 38.452C105.69 38.393 105.747 38.3188 105.786 38.2348C105.825 38.1509 105.846 38.0592 105.846 37.9663C105.846 37.8735 105.825 37.7818 105.786 37.6979C105.747 37.6139 105.69 37.5397 105.619 37.4807C105.548 37.4217 105.464 37.3792 105.375 37.3564C105.286 37.3336 105.193 37.331 105.102 37.3488V37.3022ZM105.472 39.0732L106.258 40.6345H105.611L104.848 39.1198H103.993V40.6345H103.508V36.7429H105.172C105.329 36.7263 105.488 36.7437 105.637 36.7939C105.787 36.8441 105.925 36.9259 106.041 37.034C106.157 37.1421 106.248 37.274 106.31 37.4207C106.371 37.5674 106.401 37.7256 106.397 37.8848C106.418 38.1479 106.343 38.4099 106.186 38.6206C106.028 38.8313 105.798 38.9759 105.541 39.0266" fill="#1D1D1B"/>
<path d="M109.055 37.3021H108.131V38.5838H109.147C109.235 38.5952 109.324 38.5862 109.408 38.5574C109.492 38.5287 109.568 38.481 109.63 38.418C109.693 38.3549 109.74 38.2783 109.768 38.1939C109.797 38.1095 109.806 38.0197 109.794 37.9313C109.801 37.8438 109.789 37.7559 109.759 37.6735C109.729 37.5912 109.682 37.5164 109.62 37.4543C109.559 37.3923 109.485 37.3445 109.403 37.3142C109.321 37.2839 109.234 37.2718 109.147 37.2788L109.055 37.3021ZM109.147 39.1197H108.131V40.5645H107.553V36.7429H109.147C109.326 36.6914 109.515 36.6824 109.697 36.7167C109.88 36.7511 110.053 36.8277 110.201 36.9407C110.35 37.0536 110.47 37.1998 110.553 37.3676C110.636 37.5355 110.679 37.7205 110.679 37.908C110.679 38.0955 110.636 38.2805 110.553 38.4484C110.47 38.6163 110.35 38.7624 110.201 38.8754C110.053 38.9883 109.88 39.0649 109.697 39.0993C109.515 39.1336 109.326 39.1246 109.147 39.0731" fill="#1D1D1B"/>
</svg>
