<svg width="140" height="44" viewBox="0 0 140 44" fill="none" xmlns="http://www.w3.org/2000/svg">
<path d="M137.168 12.7499C137.168 12.4585 137.283 12.1791 137.487 11.9731C137.691 11.7671 137.968 11.6514 138.257 11.6514C138.546 11.6514 138.823 11.7671 139.028 11.9731C139.232 12.1791 139.347 12.4585 139.347 12.7499C139.347 13.0412 139.232 13.3206 139.028 13.5266C138.823 13.7327 138.546 13.8484 138.257 13.8484C137.968 13.8484 137.691 13.7327 137.487 13.5266C137.283 13.3206 137.168 13.0412 137.168 12.7499ZM139.107 12.7499C139.107 12.5168 139.015 12.2933 138.852 12.1285C138.688 11.9637 138.467 11.8711 138.236 11.8711C138.004 11.8711 137.783 11.9637 137.619 12.1285C137.456 12.2933 137.364 12.5168 137.364 12.7499C137.364 12.983 137.456 13.2065 137.619 13.3713C137.783 13.5361 138.004 13.6287 138.236 13.6287C138.467 13.6287 138.688 13.5361 138.852 13.3713C139.015 13.2065 139.107 12.983 139.107 12.7499ZM138.018 12.7499V13.2991H137.822V12.0468H138.301C138.541 12.0468 138.78 12.0468 138.78 12.3984C138.776 12.469 138.747 12.536 138.7 12.5881C138.652 12.6401 138.588 12.674 138.519 12.684C138.693 12.684 138.715 12.684 138.737 12.9476V13.2991H138.497V13.0794V12.8158H138.301L138.018 12.7499ZM138.214 12.5521C138.41 12.5521 138.453 12.5521 138.453 12.3764C138.453 12.2006 138.453 12.2446 138.236 12.2446H138.018V12.5521H138.214Z" fill="white"/>
<path d="M104.836 0.624023H0V35.8604H104.836V0.624023Z" fill="#FCBC00"/>
<path d="M139.781 0.624023H104.836V35.8604H139.781V0.624023Z" fill="#1D1D1B"/>
<path d="M115.839 24.1295C116.101 23.9047 116.308 23.6201 116.44 23.2994C116.573 22.9786 116.628 22.6307 116.601 22.2842V19.6041H113.028V23.119C113.022 23.3598 112.924 23.5889 112.753 23.7572C112.582 23.9255 112.352 24.0197 112.113 24.0197C111.997 24.0197 111.882 23.9963 111.775 23.9507C111.667 23.9052 111.57 23.8385 111.489 23.7546C111.408 23.6706 111.344 23.5711 111.302 23.462C111.259 23.3528 111.239 23.2362 111.242 23.119V13.2772C111.239 13.16 111.259 13.0434 111.302 12.9342C111.344 12.8251 111.408 12.7256 111.489 12.6416C111.57 12.5577 111.667 12.491 111.775 12.4455C111.882 12.4 111.997 12.3765 112.113 12.3766C112.232 12.3736 112.351 12.3948 112.462 12.4387C112.573 12.4827 112.674 12.5485 112.759 12.6325C112.844 12.7164 112.912 12.8167 112.958 12.9274C113.004 13.0382 113.028 13.1571 113.028 13.2772V16.8141H116.514V13.1454C116.514 11.1244 115.207 9.47677 112.004 9.4548C108.802 9.43283 107.473 11.1244 107.473 13.1454V23.5144C107.472 23.9854 107.566 24.4516 107.748 24.8853C107.93 25.3191 108.197 25.7116 108.532 26.0394C108.867 26.3673 109.264 26.6239 109.7 26.7939C110.136 26.964 110.601 27.044 111.067 27.0293H112.179L115.839 24.1295Z" fill="white"/>
<path d="M129.976 24.5472V13.1458H127.492V9.80664H136.468V13.1458H133.985V27.0076H132.917L129.976 24.5472Z" fill="white"/>
<path d="M125.36 9.82812H120.349L117.43 23.0093L122.855 18.6156L128.519 23.3828L125.36 9.82812ZM121.896 17.7149L122.855 12.75L123.813 17.7149H121.896Z" fill="white"/>
<path d="M131.915 27.0513L113.506 27.0293L122.852 19.5601L131.915 27.0513Z" fill="#FDC42E"/>
<path d="M71.8515 14.1782H69.6729V14.3979L68.1914 18.396L66.7971 14.4198V14.1782H63.9648L64.1391 14.6615L66.9496 21.5154C67.0088 21.6308 67.0397 21.7589 67.0397 21.8888C67.0397 22.0188 67.0088 22.1469 66.9496 22.2623C66.874 22.3854 66.768 22.4866 66.642 22.5559C66.5159 22.6252 66.3742 22.6603 66.2306 22.6577C66.0579 22.691 65.8805 22.691 65.7077 22.6577L65.2067 22.3941V24.5909H65.4463C65.8585 24.703 66.283 24.7621 66.7099 24.7666C68.0825 24.7666 68.7143 23.5584 69.4114 21.9987L72.3526 14.5077L72.5269 14.0244L71.8515 14.1782Z" fill="#1D1D1B"/>
<path d="M40.6322 19.8459H34.9024C34.9005 20.1559 34.9638 20.4628 35.0879 20.7464C35.2121 21.03 35.3944 21.2839 35.6228 21.4914C35.8512 21.6989 36.1206 21.8553 36.4132 21.9503C36.7058 22.0453 37.0151 22.0768 37.3207 22.0427C38.2834 22.011 39.2247 21.7474 40.0658 21.2738V23.4706C39.0843 23.846 38.0436 24.0395 36.9939 24.0418C36.3212 24.1094 35.6421 24.0236 35.0067 23.7908C34.3714 23.558 33.796 23.1842 33.3233 22.6969C32.8505 22.2097 32.4925 21.6215 32.2756 20.9759C32.0586 20.3303 31.9885 19.6438 32.0702 18.9672C32.0037 18.3446 32.066 17.7148 32.2534 17.1177C32.4407 16.5206 32.7489 15.9692 33.1585 15.4984C33.568 15.0277 34.07 14.6477 34.6327 14.3826C35.1954 14.1176 35.8066 13.9731 36.4275 13.9585C37.2989 13.9585 40.6322 13.9585 40.6322 19.0551V19.8459ZM37.9525 18.2203C37.9525 16.9901 37.6257 15.8258 36.4275 15.8258C34.9024 15.8258 34.9024 17.6931 34.9024 18.2203H37.9525Z" fill="#1D1D1B"/>
<path d="M41.8304 16.2212C41.8727 15.5336 41.8727 14.8439 41.8304 14.1562H44.5319C44.5319 14.7494 44.5319 15.3425 44.5319 15.9357C45.1201 14.8812 45.534 14.0244 47.2334 14.0244H47.6691V16.7485C47.3401 16.6746 47.004 16.6377 46.6669 16.6387C44.9458 16.6387 44.7497 18.1545 44.7497 19.5824V23.9761H41.8086L41.8304 16.2212Z" fill="#1D1D1B"/>
<path d="M48.9746 16.2212C48.9746 15.2766 48.9746 14.6835 48.9746 14.1562H51.6543C51.6543 14.7494 51.6543 15.3425 51.6543 15.9357C52.2643 14.8812 52.6783 14.0244 54.3776 14.0244H54.7916V16.7485C54.4702 16.6732 54.1411 16.6364 53.8112 16.6387C52.0901 16.6387 51.894 18.1545 51.894 19.5824V23.9761H48.9746V16.2212Z" fill="#1D1D1B"/>
<path d="M63.6794 19.8459H57.9496C57.9477 20.1559 58.011 20.4628 58.1351 20.7464C58.2593 21.03 58.4415 21.2839 58.67 21.4914C58.8984 21.6989 59.1677 21.8553 59.4604 21.9503C59.753 22.0453 60.0623 22.0768 60.3679 22.0427C61.3237 22.0109 62.2579 21.7472 63.0912 21.2738V23.4706C62.1097 23.846 61.069 24.0395 60.0193 24.0418C59.3466 24.1094 58.6675 24.0236 58.0321 23.7908C57.3968 23.558 56.8215 23.1842 56.3487 22.6969C55.876 22.2097 55.5179 21.6215 55.301 20.9759C55.0841 20.3303 55.0139 19.6438 55.0956 18.9672C55.0291 18.3446 55.0915 17.7148 55.2788 17.1177C55.4661 16.5206 55.7743 15.9692 56.1839 15.4984C56.5934 15.0277 57.0954 14.6477 57.6581 14.3826C58.2208 14.1176 58.8319 13.9731 59.4528 13.9585C60.3461 13.9585 63.6794 13.9585 63.6794 19.0551V19.8459ZM60.9997 18.2203C60.9997 16.9901 60.6729 15.8258 59.4528 15.8258C58.2328 15.8258 57.9496 17.6931 57.9496 18.2203H60.9997Z" fill="#1D1D1B"/>
<path d="M73.2233 16.2212C73.2233 15.2766 73.2233 14.6835 73.2233 14.1562H75.903C75.903 14.7494 75.903 15.3425 75.903 15.9357C76.513 14.8812 76.9052 14.0244 78.6045 14.0244H79.0402V16.7485C78.7188 16.6732 78.3898 16.6364 78.0598 16.6387C76.3387 16.6387 76.1426 18.1545 76.1426 19.5824V23.9761H73.1797L73.2233 16.2212Z" fill="#1D1D1B"/>
<path d="M83.9864 14.0241C84.63 13.9883 85.2734 14.0969 85.8703 14.3421C86.4672 14.5873 87.0027 14.963 87.4383 15.4421C87.8738 15.9212 88.1985 16.4918 88.389 17.1127C88.5795 17.7336 88.6309 18.3894 88.5397 19.0328C88.6171 19.6834 88.5568 20.3431 88.3627 20.9685C88.1687 21.5939 87.8453 22.1707 87.414 22.6609C86.9827 23.151 86.4532 23.5434 85.8605 23.8121C85.2678 24.0808 84.6253 24.2197 83.9755 24.2197C83.3256 24.2197 82.6831 24.0808 82.0904 23.8121C81.4977 23.5434 80.9683 23.151 80.5369 22.6609C80.1056 22.1707 79.7823 21.5939 79.5882 20.9685C79.3942 20.3431 79.3339 19.6834 79.4112 19.0328C79.3195 18.3874 79.3714 17.7296 79.5631 17.107C79.7548 16.4844 80.0815 15.9127 80.5195 15.4332C80.9575 14.9537 81.4958 14.5784 82.0955 14.3347C82.6951 14.091 83.341 13.9849 83.9864 14.0241ZM83.9864 22.0863C85.0103 22.0863 85.4896 20.944 85.4896 19.0328C85.4896 17.1216 85.0103 16.0451 83.9864 16.0451C82.9624 16.0451 82.4613 17.1216 82.4613 19.0328C82.4613 20.944 82.9406 22.0863 83.9864 22.0863Z" fill="#1D1D1B"/>
<path d="M95.5128 16.6384C94.7661 16.2984 93.9573 16.1188 93.1381 16.1111C92.3755 16.1111 92.0487 16.4846 92.0487 16.8141C92.0487 17.1436 92.4627 17.6269 94.0749 18.2201C94.6902 18.3826 95.2297 18.7571 95.5998 19.2788C95.9699 19.8004 96.1472 20.4362 96.101 21.0759C96.101 23.2727 94.4888 24.1075 92.528 24.1075C91.4501 24.1272 90.376 23.9714 89.3472 23.6461V21.3395C90.0786 21.7801 90.9136 22.0153 91.7655 22.0205C93.1598 22.0205 93.247 21.5372 93.247 21.0979C93.247 20.6585 92.4845 20.4828 91.2208 19.9555C90.6016 19.7462 90.0669 19.3393 89.6974 18.7963C89.3279 18.2533 89.1438 17.6038 89.1729 16.9459C89.1729 15.8915 89.9137 14.0242 92.8112 14.0242C93.7249 14.0173 94.6347 14.1431 95.5128 14.3977V16.6384Z" fill="#1D1D1B"/>
<path d="M31.1526 10.4873H22.2419V16.155H17.4707V19.8456H22.2419V24.5906H26.2289V19.8456H31.1526V16.155H26.2289V14.1779H31.1526V10.4873Z" fill="#1D1D1B"/>
<path d="M66.536 43.769C65.6645 43.769 65.207 43.1979 65.207 42.2094V40.1445H65.7517V42.2094C65.7517 42.8684 66.0132 43.2418 66.5578 43.2418C67.1025 43.2418 67.3639 42.8904 67.3639 42.2314V40.1445H67.9086V42.2314C67.9086 43.2199 67.4293 43.769 66.536 43.769Z" fill="#1D1D1B"/>
<path d="M71.2197 43.7688L69.8253 41.572L69.5639 41.1326V43.7688H69.041V40.1221H69.5857L70.9364 42.3189L71.2197 42.8242V40.1221H71.7207V43.7688H71.2197Z" fill="#1D1D1B"/>
<path d="M74.488 41.572L74.2265 40.7592L73.9651 41.572L73.6818 42.3848H74.7712L74.488 41.572ZM75.2287 43.7688L74.9455 42.912H73.5294L73.2243 43.7688H72.6797L73.9433 40.188H74.5097L75.7951 43.7688H75.2287Z" fill="#1D1D1B"/>
<path d="M78.3652 43.7029V40.1221H80.631V40.6493H78.8881V41.528H79.9121V42.0553H78.8881V43.1756H80.7182V43.7029H78.3652Z" fill="#1D1D1B"/>
<path d="M84.3558 43.7686V41.8794C84.3429 41.6673 84.3429 41.4545 84.3558 41.2424L84.1162 41.8135L83.2665 43.8125L82.4168 41.8135C82.3302 41.6289 82.2574 41.438 82.199 41.2424V43.7686H81.6543V40.1221H82.199L82.9833 42.0332C83.0746 42.2335 83.1546 42.4388 83.2229 42.6483C83.2229 42.4945 83.3754 42.2309 83.4626 42.0332L84.2469 40.1221H84.8133V43.7686H84.3558Z" fill="#1D1D1B"/>
<path d="M87.515 40.6273H86.5782V41.8576H87.515C87.5976 41.8683 87.6816 41.8598 87.7605 41.8327C87.8394 41.8056 87.911 41.7607 87.97 41.7012C88.0289 41.6418 88.0735 41.5696 88.1004 41.49C88.1273 41.4105 88.1357 41.3258 88.125 41.2424C88.1316 41.16 88.1203 41.0771 88.092 40.9994C88.0637 40.9218 88.0189 40.8513 87.9609 40.7928C87.9029 40.7343 87.833 40.6892 87.756 40.6606C87.679 40.6321 87.5968 40.6207 87.515 40.6273ZM87.515 42.3628H86.6V43.7688H86.0117V40.1221H87.4932C87.6544 40.0894 87.8209 40.0932 87.9805 40.1333C88.1401 40.1733 88.2889 40.2486 88.4161 40.3537C88.5434 40.4588 88.6459 40.5911 88.7163 40.7409C88.7867 40.8908 88.8232 41.0546 88.8232 41.2205C88.8232 41.3863 88.7867 41.5501 88.7163 41.7C88.6459 41.8499 88.5434 41.9822 88.4161 42.0873C88.2889 42.1923 88.1401 42.2676 87.9805 42.3077C87.8209 42.3477 87.6544 42.3516 87.4932 42.3189" fill="#1D1D1B"/>
<path d="M91.1546 40.6275H90.1088V41.7918H91.1546C91.2323 41.8021 91.3114 41.7945 91.3858 41.7697C91.4603 41.745 91.5283 41.7036 91.5848 41.6488C91.6413 41.5939 91.6848 41.527 91.7122 41.4529C91.7395 41.3788 91.75 41.2994 91.7428 41.2206C91.7494 41.1411 91.7387 41.061 91.7115 40.986C91.6843 40.911 91.6412 40.8429 91.5852 40.7864C91.5292 40.73 91.4616 40.6865 91.3873 40.659C91.3129 40.6316 91.2335 40.6208 91.1546 40.6275ZM91.5031 42.2312L92.2221 43.7031H91.6121L90.9149 42.2752H90.1088V43.769H89.5859V40.1222H91.1546C91.3016 40.1062 91.4504 40.1224 91.5906 40.1699C91.7309 40.2174 91.8593 40.295 91.9669 40.3973C92.0746 40.4996 92.159 40.6242 92.2143 40.7625C92.2697 40.9009 92.2946 41.0497 92.2875 41.1987C92.3075 41.4383 92.2383 41.6769 92.0933 41.8679C91.9482 42.0588 91.7378 42.1883 91.5031 42.2312Z" fill="#1D1D1B"/>
<path d="M93.3535 43.7029V40.1221H95.6193V40.6493H93.8764V41.528H94.9004V42.0553H93.8764V43.1756H95.7065V43.7029H93.3535Z" fill="#1D1D1B"/>
<path d="M97.6894 43.7688C97.4502 43.7727 97.213 43.7236 96.9946 43.6249C96.7763 43.5262 96.5821 43.3804 96.4258 43.1977L96.818 42.8242C96.9349 42.9522 97.0762 43.0551 97.2334 43.1268C97.3906 43.1985 97.5605 43.2375 97.733 43.2416C98.2341 43.2416 98.4737 43.0659 98.4737 42.7364C98.4737 42.4068 98.2559 42.319 97.6676 42.1432C97.0794 41.9675 96.5565 41.7259 96.5565 41.0888C96.5643 40.9441 96.6017 40.8026 96.6661 40.6731C96.7306 40.5436 96.8208 40.4289 96.9312 40.3362C97.0416 40.2434 97.1698 40.1746 97.3077 40.134C97.4457 40.0934 97.5904 40.0819 97.733 40.1003C97.9479 40.098 98.1609 40.1396 98.3594 40.2227C98.5579 40.3058 98.7376 40.4285 98.8877 40.5835L98.5173 40.957C98.4101 40.8464 98.2809 40.7599 98.1383 40.7031C97.9956 40.6463 97.8426 40.6205 97.6894 40.6275C97.2755 40.6275 97.1012 40.8252 97.1012 41.0668C97.1012 41.3085 97.2537 41.4403 97.8637 41.616C98.4737 41.7918 98.9966 42.0554 98.9966 42.6924C98.9966 43.3295 98.6044 43.7688 97.6894 43.7688Z" fill="#1D1D1B"/>
<path d="M101.502 41.572L101.24 40.7592L100.979 41.572L100.696 42.3848H101.785L101.502 41.572ZM102.242 43.7688L101.959 42.912H100.543L100.238 43.7688H99.6934L100.979 40.188H101.523L102.809 43.7688H102.242Z" fill="#1D1D1B"/>
<path d="M105.904 40.6493V41.5939H106.928V42.1212H105.904V43.7029H105.381V40.1221H107.668V40.6493H105.904Z" fill="#1D1D1B"/>
<path d="M108.562 43.7029V40.1221H110.85V40.6493H109.107V41.528H110.109V42.0553H109.107V43.1756H110.915V43.7029H108.562Z" fill="#1D1D1B"/>
<path d="M113.485 40.6275H112.439V41.7918H113.485C113.562 41.8021 113.641 41.7945 113.716 41.7697C113.79 41.745 113.858 41.7036 113.915 41.6488C113.971 41.5939 114.015 41.527 114.042 41.4529C114.07 41.3788 114.08 41.2994 114.073 41.2206C114.079 41.1411 114.069 41.061 114.042 40.986C114.014 40.911 113.971 40.8429 113.915 40.7864C113.859 40.73 113.792 40.6865 113.717 40.659C113.643 40.6316 113.564 40.6208 113.485 40.6275ZM113.833 42.2312L114.552 43.7031H113.942L113.245 42.2752H112.439V43.769H111.916V40.1222H113.485C113.632 40.1062 113.78 40.1224 113.921 40.1699C114.061 40.2174 114.189 40.295 114.297 40.3973C114.405 40.4996 114.489 40.6242 114.544 40.7625C114.6 40.9009 114.625 41.0497 114.618 41.1987C114.638 41.4383 114.568 41.6769 114.423 41.8679C114.278 42.0588 114.068 42.1883 113.833 42.2312Z" fill="#1D1D1B"/>
<path d="M117.23 40.6275H116.206V41.7918H117.23C117.309 41.8015 117.389 41.7938 117.464 41.7691C117.54 41.7445 117.609 41.7035 117.667 41.6491C117.725 41.5947 117.771 41.5282 117.801 41.4542C117.831 41.3802 117.844 41.3005 117.84 41.2206C117.844 41.14 117.83 41.0595 117.8 40.9845C117.771 40.9096 117.725 40.8418 117.668 40.7858C117.61 40.7297 117.541 40.6866 117.466 40.6593C117.391 40.6321 117.31 40.6212 117.23 40.6275ZM117.579 42.2312L118.32 43.7031H117.688L116.991 42.2752H116.206V43.769H115.684V40.1222H117.23C117.378 40.1062 117.526 40.1224 117.667 40.1699C117.807 40.2174 117.935 40.295 118.043 40.3973C118.15 40.4996 118.235 40.6242 118.29 40.7625C118.346 40.9009 118.371 41.0497 118.363 41.1987C118.383 41.4383 118.314 41.6769 118.169 41.8679C118.024 42.0588 117.814 42.1883 117.579 42.2312Z" fill="#1D1D1B"/>
<path d="M119.434 43.7029V40.1221H121.721V40.6493H119.978V41.528H120.98V42.0553H119.978V43.1756H121.787V43.7029H119.434Z" fill="#1D1D1B"/>
<path d="M124.248 42.2753V43.769H123.703V42.3412L122.439 40.1445H123.049L123.594 41.133C123.703 41.3527 123.899 41.7042 123.943 41.836L124.313 41.133L124.88 40.1445H125.49L124.248 42.2753Z" fill="#1D1D1B"/>
<path d="M127.408 43.7689C126.493 43.7689 125.904 43.0219 125.904 41.9454C125.904 40.8689 126.493 40.1 127.408 40.1C127.649 40.0853 127.889 40.1394 128.101 40.2559C128.313 40.3725 128.488 40.5469 128.606 40.7591L128.148 41.0667C128.083 40.9268 127.977 40.8101 127.845 40.7317C127.713 40.6533 127.561 40.6169 127.408 40.6273C126.798 40.6273 126.449 41.1326 126.449 41.9454C126.449 42.7583 126.798 43.2416 127.408 43.2416C127.566 43.247 127.722 43.2089 127.86 43.1315C127.998 43.0541 128.113 42.9403 128.192 42.8022L128.628 43.0878C128.505 43.3025 128.326 43.4794 128.111 43.5994C127.897 43.7194 127.653 43.778 127.408 43.7689Z" fill="#1D1D1B"/>
<path d="M130.915 40.6054C130.305 40.6054 129.957 41.1106 129.957 41.9235C129.957 42.7363 130.305 43.2196 130.915 43.2196C131.525 43.2196 131.874 42.7143 131.874 41.9235C131.874 41.1326 131.547 40.6054 130.915 40.6054ZM130.915 43.7468C130 43.7468 129.412 42.9999 129.412 41.9235C129.412 40.847 130 40.0781 130.915 40.0781C131.83 40.0781 132.419 40.825 132.419 41.9235C132.419 43.0219 131.83 43.7468 130.915 43.7468Z" fill="#1D1D1B"/>
<path d="M134.969 40.6275H133.945V41.7918H134.969C135.047 41.8015 135.127 41.7938 135.203 41.7691C135.278 41.7445 135.347 41.7035 135.405 41.6491C135.463 41.5947 135.509 41.5282 135.539 41.4542C135.569 41.3802 135.583 41.3005 135.579 41.2206C135.586 41.139 135.575 41.0568 135.546 40.9801C135.518 40.9033 135.473 40.834 135.414 40.7771C135.356 40.7203 135.285 40.6773 135.208 40.6514C135.131 40.6255 135.049 40.6173 134.969 40.6275ZM135.339 42.2312L136.123 43.769H135.513L134.794 42.3411H133.945V43.769H133.422V40.1222H134.969C135.116 40.1062 135.265 40.1224 135.405 40.1699C135.545 40.2174 135.673 40.295 135.781 40.3973C135.889 40.4996 135.973 40.6242 136.029 40.7625C136.084 40.9009 136.109 41.0497 136.102 41.1987C136.122 41.4352 136.056 41.6711 135.916 41.8616C135.775 42.052 135.57 42.1836 135.339 42.2312Z" fill="#1D1D1B"/>
<path d="M138.649 40.6273H137.691V41.8576H138.649C138.732 41.8683 138.816 41.8598 138.895 41.8327C138.974 41.8056 139.045 41.7607 139.104 41.7012C139.163 41.6418 139.208 41.5696 139.235 41.49C139.261 41.4105 139.27 41.3258 139.259 41.2424C139.266 41.16 139.254 41.0771 139.226 40.9994C139.198 40.9218 139.153 40.8513 139.095 40.7928C139.037 40.7343 138.967 40.6892 138.89 40.6606C138.813 40.6321 138.731 40.6207 138.649 40.6273ZM138.649 42.3628H137.712V43.7688H137.189V40.1221H138.671C138.832 40.0894 138.999 40.0932 139.158 40.1333C139.318 40.1733 139.467 40.2486 139.594 40.3537C139.721 40.4588 139.824 40.5911 139.894 40.7409C139.964 40.8908 140.001 41.0546 140.001 41.2205C140.001 41.3863 139.964 41.5501 139.894 41.7C139.824 41.8499 139.721 41.9822 139.594 42.0873C139.467 42.1923 139.318 42.2676 139.158 42.3077C138.999 42.3477 138.832 42.3516 138.671 42.3189" fill="#1D1D1B"/>
</svg>
