<svg width="99" height="99" viewBox="0 0 99 99" fill="none" xmlns="http://www.w3.org/2000/svg">
<path d="M49.5 99C76.8381 99 99 76.8381 99 49.5C99 22.1619 76.8381 0 49.5 0C22.1619 0 0 22.1619 0 49.5C0 76.8381 22.1619 99 49.5 99Z" fill="#EF5261"/>
<path d="M70.0818 44.226C70.1429 47.0421 69.6237 49.8407 68.5566 52.4475C67.4894 55.0543 65.8971 57.4135 63.8788 59.3784C62.1021 61.1033 60.6886 63.1663 59.7218 65.446C58.7549 67.7257 58.2541 70.1759 58.249 72.6521V72.8068H40.7507V72.663C40.7103 70.139 40.1731 67.6476 39.1699 65.3312C38.1666 63.0149 36.7169 60.9187 34.9036 59.1626C31.9821 56.2243 30.015 52.4731 29.2594 48.3991C28.5038 44.3251 28.9947 40.1179 30.6681 36.3274C32.3415 32.5368 35.1195 29.3393 38.6391 27.1527C42.1586 24.966 46.2559 23.892 50.3955 24.071C55.61 24.3399 60.5317 26.5635 64.1801 30.2987C67.8285 34.034 69.9357 39.0067 70.0818 44.226Z" fill="#FFDB2D"/>
<path d="M58.3945 70.4253V77.4713C58.3945 78.3015 58.0648 79.0976 57.4777 79.6846C56.8907 80.2716 56.0946 80.6014 55.2644 80.6014H43.7356C42.9054 80.6014 42.1093 80.2716 41.5223 79.6846C40.9352 79.0976 40.6055 78.3015 40.6055 77.4713V70.4253H58.3945Z" fill="#575B6D"/>
<path d="M58.4916 76.4351H40.5092C40.0068 76.4351 39.5996 76.8421 39.5996 77.3442C39.5996 77.8464 40.0068 78.2534 40.5092 78.2534H58.4916C58.9939 78.2534 59.4011 77.8464 59.4011 77.3442C59.4011 76.8421 58.9939 76.4351 58.4916 76.4351Z" fill="#414451"/>
<path d="M58.4916 72.4351H40.5092C40.0068 72.4351 39.5996 72.8421 39.5996 73.3442C39.5996 73.8464 40.0068 74.2534 40.5092 74.2534H58.4916C58.9939 74.2534 59.4011 73.8464 59.4011 73.3442C59.4011 72.8421 58.9939 72.4351 58.4916 72.4351Z" fill="#414451"/>
<path d="M45.8652 80.6016C46.045 81.4314 46.5036 82.1747 47.1645 82.7078C47.8254 83.2408 48.649 83.5315 49.4981 83.5315C50.3472 83.5315 51.1707 83.2408 51.8317 82.7078C52.4926 82.1747 52.9511 81.4314 53.1309 80.6016H45.8652Z" fill="#414451"/>
<path d="M50.3105 16.2832C50.3105 15.8334 49.9459 15.4688 49.4961 15.4688C49.0463 15.4688 48.6816 15.8334 48.6816 16.2832V20.3824C48.6816 20.8322 49.0463 21.1968 49.4961 21.1968C49.9459 21.1968 50.3105 20.8322 50.3105 20.3824V16.2832Z" fill="#F6C863"/>
<path d="M36.0678 19.6643C35.8429 19.2748 35.3448 19.1413 34.9553 19.3662C34.5658 19.5911 34.4323 20.0892 34.6572 20.4787L36.7068 24.0287C36.9317 24.4182 37.4298 24.5516 37.8193 24.3267C38.2089 24.1018 38.3423 23.6038 38.1174 23.2142L36.0678 19.6643Z" fill="#F6C863"/>
<path d="M25.424 29.7154C25.0345 29.4905 24.5364 29.6239 24.3115 30.0135C24.0866 30.403 24.2201 30.9011 24.6096 31.126L28.1595 33.1756C28.549 33.4005 29.0471 33.267 29.272 32.8775C29.4969 32.488 29.3635 31.9899 28.9739 31.765L25.424 29.7154Z" fill="#F6C863"/>
<path d="M21.2324 43.7403C20.7826 43.7403 20.418 44.1049 20.418 44.5547C20.418 45.0045 20.7826 45.3691 21.2324 45.3691H25.3316C25.7814 45.3691 26.146 45.0045 26.146 44.5547C26.146 44.1049 25.7814 43.7403 25.3316 43.7403H21.2324Z" fill="#F6C863"/>
<path d="M24.6116 57.9844C24.222 58.2093 24.0886 58.7074 24.3135 59.097C24.5384 59.4865 25.0365 59.6199 25.426 59.395L28.9759 57.3454C29.3655 57.1205 29.4989 56.6224 29.274 56.2329C29.0491 55.8434 28.551 55.7099 28.1615 55.9348L24.6116 57.9844Z" fill="#F6C863"/>
<path d="M73.576 59.3862C73.9655 59.6111 74.4636 59.4776 74.6885 59.0881C74.9134 58.6986 74.7799 58.2005 74.3904 57.9756L70.8405 55.926C70.451 55.7011 69.9529 55.8346 69.728 56.2241C69.5031 56.6136 69.6365 57.1117 70.0261 57.3366L73.576 59.3862Z" fill="#F6C863"/>
<path d="M77.7676 45.3627C78.2174 45.3627 78.582 44.9981 78.582 44.5483C78.582 44.0985 78.2174 43.7339 77.7676 43.7339H73.6684C73.2186 43.7339 72.854 44.0985 72.854 44.5483C72.854 44.9981 73.2186 45.3627 73.6684 45.3627H77.7676Z" fill="#F6C863"/>
<path d="M74.3865 31.1181C74.776 30.8932 74.9095 30.3951 74.6846 30.0056C74.4597 29.6161 73.9616 29.4826 73.572 29.7075L70.0221 31.7571C69.6326 31.982 69.4991 32.4801 69.724 32.8696C69.9489 33.2592 70.447 33.3926 70.8365 33.1677L74.3865 31.1181Z" fill="#F6C863"/>
<path d="M64.3354 20.4753C64.5603 20.0858 64.4269 19.5877 64.0373 19.3628C63.6478 19.1379 63.1497 19.2713 62.9248 19.6609L60.8752 23.2108C60.6503 23.6003 60.7838 24.0984 61.1733 24.3233C61.5628 24.5482 62.0609 24.4147 62.2858 24.0252L64.3354 20.4753Z" fill="#F6C863"/>
<path d="M63.7599 46.6163V42.5039L59.6189 41.6709C59.3999 40.8972 59.0908 40.1519 58.6978 39.4504L61.0382 35.9336L58.1262 33.0254L54.6094 35.3659C53.9078 34.9724 53.1622 34.6632 52.3881 34.4447L51.5559 30.3037H47.4427L46.6074 34.4447C45.8337 34.6637 45.0884 34.9728 44.3869 35.3659L40.8693 33.0254L37.9604 35.9336L40.2954 39.445C39.905 40.1488 39.5959 40.8948 39.3742 41.6686L35.2363 42.5016V46.614L39.3742 47.447C39.595 48.2218 39.904 48.9687 40.2954 49.6729L37.9581 53.1897L40.867 56.0986L44.3869 53.7613C45.0901 54.1528 45.8363 54.4616 46.6105 54.6817L47.4427 58.8196H51.5559L52.3881 54.6817C53.162 54.4608 53.9081 54.152 54.6117 53.7613L58.1262 56.0986L61.0382 53.1897L58.6978 49.6729C59.0902 48.9711 59.3994 48.2259 59.6189 47.4524L63.7599 46.6163ZM50.1002 50.4115C48.8918 50.5357 47.6745 50.2826 46.6156 49.6872C45.5567 49.0917 44.7082 48.183 44.1865 47.0859C43.6648 45.9888 43.4955 44.7571 43.7019 43.5599C43.9084 42.3627 44.4804 41.2588 45.3394 40.3998C46.1984 39.5408 47.3023 38.9688 48.4995 38.7624C49.6966 38.5559 50.9284 38.7252 52.0255 39.2469C53.1226 39.7686 54.0313 40.6172 54.6267 41.676C55.2222 42.7349 55.4753 43.9522 55.3511 45.1607C55.2126 46.506 54.6149 47.7626 53.6586 48.719C52.7022 49.6753 51.4456 50.2731 50.1002 50.4115Z" fill="#575B6D"/>
</svg>
