<svg width="140" height="53" viewBox="0 0 140 53" fill="none" xmlns="http://www.w3.org/2000/svg">
<path d="M100.617 0.311523H0V39.9685H100.617V0.311523Z" fill="#0D609A"/>
<path d="M139.972 0.311523H100.643V39.9685H139.972V0.311523Z" fill="#1C1C19"/>
<path d="M125.809 12.1909H115.782V18.5856H110.418V22.7308H115.782V28.064H120.269V22.7308H125.809V18.5856H120.269V16.3614H125.809V12.1909Z" fill="#D9D8D8"/>
<path d="M28.349 52.0503C27.0205 52.0503 26.3438 51.1657 26.3438 49.6745V46.6416H27.1459V49.7503C27.1459 50.7866 27.572 51.3173 28.3741 51.3173C29.1762 51.3173 29.6274 50.8119 29.6274 49.8009V46.6416H30.4296V49.8009C30.4296 51.3173 29.7026 52.0503 28.349 52.0503Z" fill="#1C1C19"/>
<path d="M35.4944 52.0503L33.3636 48.6635C33.2131 48.4465 33.0791 48.2184 32.9626 47.9811V52.0503H32.1855V46.6416H32.9877L35.043 49.9525C35.21 50.1949 35.3608 50.4482 35.4944 50.7108V46.6416H36.2714V52.0503H35.4944Z" fill="#1C1C19"/>
<path d="M41.61 52.0503L41.1587 50.7613H39.003L38.5518 52.0503H37.7246L39.6548 46.6416H40.5071L42.4622 52.0503H41.61ZM40.482 48.7899C40.3316 48.4108 40.131 47.7789 40.0558 47.5515C40.0558 47.7789 39.8052 48.4108 39.6799 48.7899L39.2538 50.0284H40.9081L40.482 48.7899Z" fill="#1C1C19"/>
<path d="M46.373 52.0503V46.6416H49.8322V47.4251H47.1752V48.7646H48.7293V49.5229H47.1752V51.2415H49.9575V52.0503H46.373Z" fill="#1C1C19"/>
<path d="M55.4969 52.0503V49.1943C55.4969 48.8657 55.4969 48.3855 55.4969 48.2339C55.3968 48.527 55.2796 48.814 55.146 49.0932L53.8675 52.0503L52.5891 48.9921C52.4555 48.7129 52.3384 48.4259 52.2383 48.1328V52.0503H51.4863V46.6416H52.3134L53.5167 49.5229C53.6612 49.8264 53.7867 50.1387 53.8926 50.458C53.8926 50.2305 54.1183 49.8514 54.2436 49.5229L55.4467 46.6416H56.2991V52.0503H55.4969Z" fill="#1C1C19"/>
<path d="M60.286 50.028H58.8822V52.0498H58.0801V46.6414H60.3362C60.5645 46.6188 60.795 46.6467 61.0116 46.7231C61.2282 46.7995 61.4258 46.9225 61.5904 47.0837C61.755 47.2449 61.8828 47.4403 61.9649 47.6563C62.047 47.8724 62.0814 48.1039 62.0658 48.3347C62.0781 48.5691 62.0397 48.8034 61.9532 49.0214C61.8667 49.2393 61.7342 49.4357 61.5649 49.5968C61.3955 49.758 61.1933 49.88 60.9725 49.9544C60.7516 50.0289 60.5174 50.054 60.286 50.028ZM60.286 47.5007H58.8322V49.3709H60.286C60.4097 49.3833 60.5347 49.3674 60.6515 49.3244C60.7683 49.2814 60.874 49.2124 60.9607 49.1225C61.0474 49.0327 61.113 48.9243 61.1524 48.8054C61.1918 48.6865 61.2042 48.5601 61.1885 48.4358C61.2203 48.3086 61.2218 48.1757 61.1931 48.0478C61.1643 47.9199 61.1061 47.8006 61.0231 47.6997C60.9401 47.5987 60.8345 47.5189 60.7151 47.4668C60.5958 47.4147 60.466 47.3916 60.3362 47.3996L60.286 47.5007Z" fill="#1C1C19"/>
<path d="M66.4018 49.8514L67.5047 52.0503H66.5773L65.4994 49.902H64.2963V52.0503H63.4941V46.6416H65.8253C66.0488 46.6114 66.2761 46.6314 66.491 46.7002C66.7059 46.7689 66.903 46.8847 67.0683 47.0393C67.2335 47.1939 67.3629 47.3834 67.4471 47.5943C67.5312 47.8052 67.568 48.0322 67.5549 48.2591C67.5825 48.6196 67.4815 48.9781 67.2701 49.27C67.0586 49.562 66.7507 49.7682 66.4018 49.8514ZM65.8504 47.324H64.2963V49.0679H65.8253C65.945 49.0874 66.0675 49.0792 66.1836 49.0441C66.2997 49.0089 66.4065 48.9477 66.4957 48.865C66.585 48.7823 66.6544 48.6802 66.6989 48.5666C66.7435 48.4529 66.7619 48.3305 66.7528 48.2086C66.7501 48.0922 66.7234 47.9776 66.6741 47.8722C66.6249 47.7668 66.5544 47.673 66.467 47.5969C66.3796 47.5207 66.2773 47.4638 66.1668 47.4298C66.0563 47.3959 65.94 47.3857 65.8253 47.3998L65.8504 47.324Z" fill="#1C1C19"/>
<path d="M69.209 52.0503V46.6416H72.6933V47.4251H70.0111V48.7646H71.5652V49.5229H70.0111V51.2415H72.7936V52.0503H69.209Z" fill="#1C1C19"/>
<path d="M75.8523 52.05C75.4903 52.0501 75.1324 51.971 74.8036 51.8183C74.4747 51.6656 74.1826 51.4429 73.9473 51.1655L74.5237 50.6094C74.7041 50.8038 74.9213 50.9598 75.1623 51.0683C75.4034 51.1768 75.6637 51.2356 75.9276 51.2413C76.6796 51.2413 77.0304 50.9885 77.0304 50.4578C77.0304 49.927 76.7045 49.8259 75.8021 49.5479C74.8998 49.2699 74.1227 48.9161 74.1227 47.9556C74.135 47.7361 74.1915 47.5214 74.2889 47.3246C74.3863 47.1279 74.5224 46.9532 74.689 46.8113C74.8555 46.6693 75.049 46.5632 75.2576 46.4992C75.4663 46.4352 75.6858 46.4148 75.9025 46.4392C76.5601 46.442 77.1901 46.7052 77.657 47.1721L77.1056 47.7534C76.941 47.5888 76.7452 47.4592 76.5299 47.3723C76.3146 47.2855 76.0842 47.2432 75.8523 47.248C75.2257 47.248 74.95 47.5513 74.95 47.9051C74.95 48.2589 75.2006 48.4864 76.128 48.7644C77.0555 49.0424 77.8576 49.4215 77.8576 50.4072C77.8576 51.3929 77.2059 52.05 75.8523 52.05Z" fill="#1C1C19"/>
<path d="M82.772 52.0503L82.3208 50.7613H80.165L79.7138 52.0503H78.8867L80.8167 46.6416H81.6691L83.6493 52.0503H82.772ZM81.644 48.7899C81.644 48.4108 81.2931 47.7789 81.243 47.5515C81.243 47.7789 80.9922 48.4108 80.8418 48.7899L80.4157 50.0284H82.0701L81.644 48.7899Z" fill="#1C1C19"/>
<path d="M88.3858 47.4251V48.8406H89.9149V49.6494H88.3858V52.177H87.5586V46.6416H91.0429V47.4251H88.3858Z" fill="#1C1C19"/>
<path d="M92.3965 52.0503V46.6416H95.9059V47.4251H93.2237V48.7646H94.7779V49.5229H93.2237V51.2415H95.9059V52.0503H92.3965Z" fill="#1C1C19"/>
<path d="M100.417 49.8511L101.52 52.05H100.592L99.5145 49.9017H98.4115V52.05H97.6094V46.6412H99.9656C100.19 46.6115 100.419 46.6317 100.635 46.7004C100.851 46.769 101.049 46.8844 101.216 47.0385C101.383 47.1925 101.515 47.3816 101.602 47.5924C101.689 47.8032 101.73 48.0306 101.72 48.2588C101.737 48.6398 101.613 49.0134 101.372 49.3074C101.131 49.6015 100.791 49.7952 100.417 49.8511ZM99.8654 47.3236H98.4115V49.0676H99.9656C100.085 49.087 100.208 49.0789 100.324 49.0437C100.44 49.0086 100.547 48.9473 100.636 48.8646C100.725 48.7819 100.795 48.6799 100.839 48.5662C100.884 48.4525 100.902 48.3301 100.893 48.2082C100.893 48.0815 100.864 47.9565 100.809 47.8426C100.754 47.7288 100.674 47.6291 100.575 47.5511C100.476 47.4732 100.36 47.419 100.238 47.3927C100.115 47.3664 99.9874 47.3687 99.8654 47.3994V47.3236Z" fill="#1C1C19"/>
<path d="M106.133 49.8509L107.236 52.0498H106.308L105.255 49.9015H104.027V52.0498H103.25V46.641H105.606C105.829 46.6153 106.054 46.6385 106.267 46.7089C106.48 46.7793 106.676 46.8953 106.84 47.049C107.004 47.2026 107.134 47.3903 107.219 47.5991C107.305 47.8078 107.345 48.0328 107.336 48.2586C107.361 48.6261 107.253 48.9903 107.032 49.2834C106.81 49.5764 106.491 49.7781 106.133 49.8509ZM105.606 47.3234H104.027V49.0674H105.606C105.724 49.0827 105.844 49.0714 105.957 49.0343C106.07 48.9973 106.173 48.9354 106.259 48.8532C106.346 48.771 106.413 48.6705 106.456 48.5589C106.499 48.4473 106.517 48.3275 106.509 48.208C106.506 48.094 106.48 47.9817 106.432 47.8782C106.384 47.7748 106.316 47.6823 106.231 47.6065C106.147 47.5306 106.048 47.4731 105.94 47.4375C105.833 47.4019 105.719 47.3888 105.606 47.3993V47.3234Z" fill="#1C1C19"/>
<path d="M108.967 52.0503V46.6416H112.426V47.4251H109.769V48.7646H111.323V49.5229H109.769V51.2415H112.551V52.0503H108.967Z" fill="#1C1C19"/>
<path d="M116.284 49.902V52.0503H115.456V49.902L113.451 46.6416H114.404L115.256 48.1328L115.807 49.1943C115.973 48.8309 116.157 48.4766 116.359 48.1328L117.186 46.6416H118.139L116.284 49.902Z" fill="#1C1C19"/>
<path d="M121.197 52.0502C119.818 52.0502 118.916 50.8875 118.916 49.2445C118.916 47.6015 119.818 46.4388 121.197 46.4388C121.566 46.4128 121.935 46.4943 122.259 46.6735C122.584 46.8528 122.85 47.1223 123.027 47.4499L122.325 47.9049C122.219 47.6977 122.057 47.5255 121.857 47.409C121.657 47.2925 121.428 47.2365 121.197 47.2477C120.27 47.2477 119.768 48.0312 119.768 49.2445C119.768 50.4578 120.27 51.216 121.197 51.216C121.435 51.2309 121.672 51.1769 121.881 51.0605C122.09 50.9441 122.261 50.7701 122.375 50.5589L123.052 51.0138C122.865 51.3403 122.594 51.6092 122.267 51.7918C121.941 51.9744 121.571 52.0637 121.197 52.0502Z" fill="#1C1C19"/>
<path d="M126.436 52.05C125.057 52.05 124.18 50.8874 124.18 49.2445C124.18 47.6016 125.057 46.439 126.436 46.439C127.814 46.439 128.742 47.6016 128.742 49.2445C128.742 50.8874 127.839 52.05 126.436 52.05ZM126.436 47.2478C125.508 47.2478 125.007 48.0313 125.007 49.2445C125.007 50.4577 125.508 51.216 126.436 51.216C127.363 51.216 127.915 50.4577 127.915 49.2445C127.915 48.0313 127.388 47.3489 126.436 47.3489V47.2478Z" fill="#1C1C19"/>
<path d="M133.181 49.8509L134.283 52.0498H133.331L132.278 49.9015H131V52.0498H130.223V46.641H132.579C132.802 46.6153 133.027 46.6385 133.24 46.7089C133.453 46.7793 133.648 46.8953 133.812 47.049C133.977 47.2026 134.106 47.3903 134.192 47.5991C134.277 47.8078 134.317 48.0328 134.309 48.2586C134.337 48.6156 134.24 48.9713 134.033 49.2627C133.827 49.5542 133.525 49.7625 133.181 49.8509ZM132.629 47.3234H131V49.0674H132.579C132.705 49.0891 132.834 49.0828 132.957 49.049C133.08 49.0151 133.195 48.9546 133.292 48.8716C133.39 48.7885 133.468 48.685 133.522 48.5682C133.576 48.4514 133.604 48.3242 133.604 48.1954C133.604 48.0666 133.576 47.9394 133.522 47.8226C133.468 47.7058 133.39 47.6023 133.292 47.5193C133.195 47.4362 133.08 47.3757 132.957 47.3418C132.834 47.308 132.705 47.3017 132.579 47.3234H132.629Z" fill="#1C1C19"/>
<path d="M138.191 50.028H136.787V52.0498H136.01V46.6414H138.266C138.494 46.6188 138.725 46.6467 138.941 46.7231C139.158 46.7995 139.355 46.9225 139.52 47.0837C139.685 47.2449 139.812 47.4403 139.894 47.6563C139.977 47.8724 140.011 48.1039 139.995 48.3347C140.008 48.5715 139.969 48.8083 139.881 49.0283C139.793 49.2482 139.659 49.446 139.486 49.6076C139.314 49.7692 139.109 49.8906 138.885 49.9632C138.661 50.0359 138.424 50.058 138.191 50.028ZM138.191 47.5007H136.762V49.3709H138.191C138.316 49.3874 138.444 49.3747 138.564 49.3335C138.684 49.2924 138.793 49.224 138.883 49.1336C138.972 49.0433 139.04 48.9333 139.081 48.8123C139.122 48.6913 139.134 48.5625 139.118 48.4358C139.146 48.3048 139.143 48.169 139.109 48.0394C139.076 47.9097 139.013 47.7898 138.925 47.6891C138.837 47.5884 138.728 47.5098 138.604 47.4595C138.481 47.4093 138.348 47.3887 138.216 47.3996L138.191 47.5007Z" fill="#1C1C19"/>
<path d="M22.0343 15.881C21.9446 14.2708 22.4475 12.6838 23.4466 11.4244C24.4458 10.1651 25.871 9.32192 27.4487 9.0567C29.1821 8.69655 30.9865 9.01497 32.4956 9.94734C34.0047 10.8797 35.1055 12.3562 35.5745 14.077C36.0434 15.7978 35.8453 17.6341 35.0205 19.2131C34.1957 20.7921 32.806 21.9955 31.1334 22.579C29.8331 23.0532 28.4217 23.1236 27.0813 22.7813C25.7409 22.4389 24.5329 21.6993 23.6134 20.658C22.4932 19.3321 21.9272 17.6195 22.0343 15.881ZM33.3643 15.881C33.3842 14.9922 33.1412 14.1175 32.6659 13.3686C32.1907 12.6197 31.5049 12.0306 30.6961 11.6765C29.8873 11.3223 28.9922 11.2192 28.125 11.3802C27.2579 11.5412 26.4581 11.9591 25.8275 12.5806C25.197 13.202 24.7642 13.9988 24.5848 14.8693C24.4053 15.7397 24.4871 16.6444 24.8198 17.4678C25.1524 18.2911 25.7209 18.9959 26.4525 19.4921C27.1841 19.9883 28.0459 20.2534 28.9276 20.2536C29.5025 20.2637 30.0737 20.159 30.6083 19.9456C31.1429 19.7323 31.6303 19.4144 32.0426 19.0104C32.4549 18.6064 32.7841 18.1241 33.0109 17.5914C33.2377 17.0587 33.3578 16.486 33.3643 15.9063V15.881Z" fill="white"/>
<path d="M64.4209 15.401C65.1594 15.6809 65.7808 16.207 66.1821 16.892C66.5833 17.577 66.7402 18.3797 66.6268 19.1669C66.5879 19.9594 66.2763 20.7134 65.7456 21.2993C65.2149 21.8851 64.4982 22.2661 63.719 22.3768C62.8897 22.5049 62.0513 22.5641 61.2123 22.5538H58.3047C57.9788 22.5538 57.8535 22.4274 57.8535 22.0988C57.8535 17.9537 57.8535 13.8086 57.8535 9.66356C57.8535 9.43608 57.8535 9.23389 58.1543 9.23389C59.6332 9.23389 61.1122 9.23389 62.566 9.23389C62.9733 9.25325 63.3727 9.35387 63.7412 9.52992C64.1096 9.70598 64.4398 9.95398 64.7126 10.2596C64.9853 10.5651 65.1952 10.9222 65.3302 11.3102C65.4652 11.6981 65.5224 12.1092 65.4988 12.5196C65.5641 13.052 65.5 13.5924 65.3123 14.0943C65.1245 14.5963 64.8187 15.0447 64.4209 15.401ZM60.8114 18.6109V20.0263C60.8114 20.3043 60.8114 20.4054 61.1874 20.3801C61.6383 20.4052 62.0901 20.4052 62.541 20.3801C62.7434 20.3645 62.9405 20.3078 63.1206 20.2133C63.3007 20.1188 63.46 19.9885 63.5888 19.8302C63.7176 19.672 63.8135 19.4891 63.8703 19.2926C63.9272 19.0961 63.9439 18.89 63.9196 18.6867C63.9476 18.4915 63.9357 18.2926 63.8844 18.1022C63.8331 17.9119 63.7434 17.7342 63.6212 17.5802C63.499 17.4262 63.3468 17.2991 63.1739 17.2069C63.001 17.1146 62.8111 17.0591 62.6161 17.0438C62.1485 17.0196 61.68 17.0196 61.2123 17.0438C60.9116 17.0438 60.7863 17.0438 60.8114 17.423V18.6109ZM60.8114 13.0504C60.8114 13.4801 60.8114 13.9097 60.8114 14.3141C60.8084 14.3869 60.8227 14.4593 60.8533 14.5252C60.8838 14.5912 60.9296 14.6488 60.9868 14.6933C61.3062 14.7706 61.6409 14.7546 61.9516 14.6472C62.2624 14.5398 62.5364 14.3454 62.7415 14.0867C62.9084 13.7854 62.996 13.446 62.996 13.1009C62.996 12.7559 62.9084 12.4165 62.7415 12.1152C62.5685 11.8645 62.3275 11.6693 62.0475 11.5527C61.7675 11.4362 61.4603 11.4034 61.1623 11.4581C61.0867 11.4761 61.017 11.5134 60.9599 11.5666C60.9028 11.6197 60.8603 11.6868 60.8364 11.7614C60.661 12.1911 60.8114 12.6207 60.8114 13.0504Z" fill="white"/>
<path d="M47.6009 17.0188L51.4612 22.5035H50.8846H48.5284C48.3853 22.5105 48.2433 22.4761 48.1189 22.4045C47.9946 22.3328 47.8932 22.2269 47.8266 22.0991L45.0191 17.6506L44.8186 17.3979C44.8186 17.6001 44.8186 17.7265 44.8186 17.8528V21.9474C44.8186 22.3518 44.8186 22.5288 44.2672 22.5035C43.6494 22.4656 43.0299 22.4656 42.4121 22.5035C42.0863 22.5035 41.9609 22.5035 41.9609 22.0485V9.66364C41.9609 9.41089 41.9609 9.23396 42.2868 9.25924C43.866 9.25924 45.4452 9.25924 46.9993 9.25924C47.7726 9.28835 48.5139 9.57809 49.1047 10.0821C49.6954 10.5861 50.1015 11.2753 50.2579 12.0395C50.5149 12.9223 50.4577 13.868 50.0961 14.7127C49.7344 15.5574 49.0912 16.248 48.2777 16.6649L47.6009 17.0188ZM44.7935 13.4044V14.9715C44.7935 15.2242 44.7935 15.3506 45.1695 15.3253H46.0719C47.0745 15.1484 47.5258 14.5165 47.5007 13.3791C47.5249 13.1692 47.5068 12.9565 47.4474 12.7539C47.3881 12.5512 47.2887 12.3628 47.1552 12.1999C47.0218 12.0369 46.8569 11.9029 46.6707 11.8059C46.4845 11.7088 46.2809 11.6507 46.0719 11.6351H45.2446C44.9188 11.6351 44.7684 11.6351 44.7935 12.0901C44.8185 12.545 44.7935 12.8989 44.7935 13.4044Z" fill="white"/>
<path d="M82.4967 18.5602L82.7975 19.091C83.0096 19.5156 83.336 19.8712 83.7395 20.1171C84.143 20.363 84.6071 20.4892 85.0785 20.4812C85.4343 20.4813 85.7802 20.3623 86.0615 20.1426C86.3429 19.923 86.5437 19.6153 86.6327 19.2679C86.7595 18.9387 86.7743 18.5762 86.6744 18.2376C86.5746 17.899 86.3659 17.6035 86.0813 17.3976C85.6229 17.1265 85.1454 16.8899 84.6524 16.6899L83.1483 16.0327C82.6101 15.7432 82.1523 15.3227 81.8164 14.8093C81.4804 14.2959 81.2769 13.706 81.2246 13.0932C81.1723 12.4804 81.2728 11.8642 81.5168 11.3004C81.7608 10.7367 82.1408 10.2435 82.622 9.86553C83.2358 9.35652 83.9758 9.02626 84.7621 8.91044C85.5485 8.79462 86.3513 8.89764 87.0838 9.20837C87.732 9.47624 88.3532 9.80634 88.9387 10.1941C88.9717 10.2517 88.9892 10.3171 88.9892 10.3837C88.9892 10.4502 88.9717 10.5156 88.9387 10.5732C88.5878 11.1546 88.1617 11.7106 87.7607 12.292L87.2593 11.8117C86.9559 11.5169 86.5742 11.317 86.1605 11.2363C85.7468 11.1556 85.3188 11.1974 84.9281 11.3568C84.6879 11.4396 84.4769 11.5914 84.3211 11.7934C84.1652 11.9955 84.0714 12.239 84.0509 12.4942C84.0224 12.7489 84.0782 13.006 84.2097 13.2254C84.3411 13.4448 84.5409 13.6142 84.7777 13.7074C85.1788 13.9349 85.63 14.1118 86.0562 14.314L87.1089 14.7689C88.0031 15.1016 88.7387 15.7643 89.1669 16.623C89.595 17.4816 89.6836 18.4722 89.415 19.3943C89.2531 20.3081 88.797 21.1425 88.1173 21.7685C87.4376 22.3944 86.5721 22.777 85.655 22.857C84.7189 22.986 83.7659 22.8456 82.9055 22.4521C82.0452 22.0586 81.3124 21.4279 80.7921 20.6328C80.7401 20.5927 80.698 20.5411 80.6691 20.4819C80.6401 20.4227 80.625 20.3576 80.625 20.2916C80.625 20.2256 80.6401 20.1605 80.6691 20.1013C80.698 20.0421 80.7401 19.9905 80.7921 19.9504C81.4939 19.5207 81.9703 19.1921 82.4967 18.5602Z" fill="white"/>
<path d="M13.3367 11.6098V14.3901H17.2471C17.2471 15.1483 17.2471 15.8307 17.2471 16.5132C17.2471 16.5132 16.9964 16.7406 16.8711 16.7406C15.8433 16.7406 14.8157 16.7406 13.813 16.7406C13.412 16.7406 13.3117 16.7407 13.3367 17.2209C13.3367 18.8385 13.3367 20.4561 13.3367 22.0484C13.3367 22.4529 13.3367 22.554 12.8354 22.554H10.9303C10.6546 22.554 10.5293 22.554 10.5293 22.1748V9.53722C10.5293 9.23391 10.5294 9.13281 10.9054 9.13281H17.172C17.4478 9.13281 17.5479 9.13281 17.5228 9.51193C17.4978 9.89106 17.5228 10.5229 17.5228 11.0285C17.5228 11.534 17.5228 11.5087 17.0466 11.5087H13.3117L13.3367 11.6098Z" fill="white"/>
<path d="M75.1249 15.9064C75.1249 17.9537 75.1249 20.001 75.1249 22.0483C75.1249 22.478 74.9744 22.5791 74.5984 22.5791C74.0058 22.5412 73.4113 22.5412 72.8187 22.5791C72.3675 22.5791 72.2422 22.4022 72.2422 21.9978C72.2422 18.9394 72.2422 15.8811 72.2422 12.8228C72.2422 11.8118 72.2422 10.7755 72.2422 9.73919C72.2422 9.36006 72.2422 9.23369 72.7435 9.25896H74.6486C75.0246 9.25896 75.1249 9.25896 75.1249 9.73919C75.1249 11.7865 75.1249 13.8338 75.1249 15.9064Z" fill="white"/>
<path d="M49.0557 26.4716C49.3785 26.4624 49.6994 26.5231 49.9969 26.6496C50.2944 26.7762 50.5615 26.9657 50.7801 27.2053C50.9987 27.445 51.1638 27.7291 51.2642 28.0386C51.3645 28.3481 51.3978 28.6757 51.3618 28.9992C51.3858 29.3203 51.3443 29.643 51.2395 29.9472C51.1348 30.2515 50.9691 30.5308 50.7529 30.7678C50.5366 31.0048 50.2743 31.1944 49.9824 31.325C49.6904 31.4556 49.375 31.5243 49.0557 31.5268C48.7341 31.532 48.4151 31.4685 48.1195 31.3405C47.8239 31.2125 47.5585 31.023 47.3408 30.7843C47.123 30.5456 46.9576 30.2632 46.8558 29.9555C46.7539 29.6479 46.7177 29.322 46.7496 28.9992C46.7047 28.674 46.7318 28.3428 46.8288 28.0294C46.9259 27.716 47.0905 27.4282 47.3109 27.1866C47.5314 26.9449 47.8022 26.7555 48.1039 26.6319C48.4055 26.5083 48.7306 26.4536 49.0557 26.4716ZM47.8023 28.8728C47.7633 29.2021 47.8467 29.5343 48.0366 29.8051C48.2264 30.0759 48.5091 30.2661 48.83 30.3388C49.6321 30.3388 50.0834 30.0608 50.2839 29.1761C50.3446 28.909 50.3299 28.63 50.2412 28.3708C50.1526 28.1117 49.9937 27.8828 49.7826 27.7101C49.6163 27.5639 49.4105 27.4713 49.1915 27.4443C48.9726 27.4172 48.7506 27.457 48.5543 27.5585C48.3119 27.6752 48.1102 27.8633 47.976 28.098C47.8417 28.3326 47.7812 28.6028 47.8023 28.8728Z" fill="white"/>
<path d="M58.1565 27.6089L57.3042 28.0891C57.296 28.0305 57.296 27.9709 57.3042 27.9122C57.2031 27.7189 57.0455 27.5618 56.8525 27.4623C56.6596 27.3628 56.4409 27.3257 56.2263 27.3561C56.0092 27.4016 55.8084 27.5055 55.6451 27.6568C55.4818 27.8081 55.3621 28.0012 55.2989 28.2155C55.175 28.5311 55.14 28.8751 55.1975 29.2096C55.2549 29.544 55.4028 29.856 55.6248 30.1112C55.7488 30.2635 55.9175 30.3723 56.1065 30.4223C56.2956 30.4722 56.4954 30.4606 56.6775 30.3892C56.8591 30.3365 57.0197 30.2276 57.1367 30.078C57.2536 29.9283 57.3209 29.7454 57.3293 29.5551H56.853C56.5522 29.5551 56.3767 29.5551 56.3767 29.1507C56.3767 28.7463 56.5272 28.6705 56.8781 28.6957H58.1565C58.1565 28.6957 58.4824 28.8727 58.4573 28.9738C58.4888 29.3727 58.4178 29.7731 58.2509 30.1361C58.0841 30.4992 57.827 30.8127 57.5048 31.0464C57.1797 31.2449 56.807 31.3499 56.4269 31.3499C56.0469 31.3499 55.6741 31.2449 55.3491 31.0464C54.7934 30.7222 54.3823 30.1955 54.2004 29.5748C54.0185 28.954 54.0797 28.2866 54.3714 27.71C54.5988 27.1797 55.0197 26.7579 55.547 26.5321C56.0744 26.3062 56.6677 26.2936 57.204 26.4968C57.4298 26.6065 57.631 26.7618 57.7948 26.9531C57.9587 27.1444 58.0818 27.3676 58.1565 27.6089Z" fill="white"/>
<path d="M89.5371 26.9265L89.0859 27.6089C88.8362 27.4979 88.5757 27.4132 88.3087 27.3562C88.2166 27.372 88.1297 27.4102 88.0555 27.4675C87.9813 27.5247 87.9219 27.5993 87.8826 27.6848C87.8826 27.6848 87.8827 28.0133 88.1083 28.1144C88.3512 28.2558 88.6023 28.3824 88.8603 28.4935C89.1415 28.6196 89.3717 28.8385 89.5129 29.1142C89.6542 29.3898 89.698 29.7058 89.6373 30.01C89.6073 30.3425 89.4675 30.6553 89.2403 30.8982C89.013 31.141 88.7115 31.3 88.384 31.3496C88.068 31.4085 87.7416 31.3673 87.4498 31.2315C87.158 31.0957 86.9151 30.872 86.7546 30.5913C86.7297 30.5357 86.7168 30.4754 86.7168 30.4144C86.7168 30.3534 86.7297 30.2931 86.7546 30.2375C86.7546 30.0858 87.0555 29.9595 87.2059 29.8078C87.3563 29.6562 87.4816 30.1617 87.632 30.288C87.6838 30.3472 87.7474 30.3946 87.8187 30.427C87.89 30.4595 87.9673 30.4763 88.0456 30.4763C88.1238 30.4763 88.2011 30.4595 88.2724 30.427C88.3438 30.3946 88.4075 30.3472 88.4593 30.288C88.5455 30.2344 88.6153 30.1579 88.6612 30.0669C88.7071 29.9759 88.7274 29.8739 88.7197 29.7721C88.7119 29.6702 88.6764 29.5725 88.6171 29.4897C88.5579 29.4068 88.4773 29.342 88.384 29.3023L87.8075 29.0243C87.6362 28.9738 87.4772 28.8877 87.3409 28.7716C87.2046 28.6554 87.094 28.5118 87.0161 28.3499C86.9381 28.188 86.8946 28.0114 86.8885 27.8316C86.8823 27.6517 86.9136 27.4726 86.9803 27.3056C87.0949 26.9582 87.3409 26.6705 87.6648 26.5049C87.9886 26.3392 88.3641 26.3091 88.7099 26.421C89.0011 26.5623 89.2782 26.7315 89.5371 26.9265Z" fill="white"/>
<path d="M67.7044 27.5837C67.4269 27.4849 67.1418 27.4088 66.8521 27.3562C66.7689 27.3723 66.692 27.4116 66.6299 27.4697C66.5679 27.5278 66.5233 27.6024 66.5013 27.6848C66.5013 27.6848 66.5013 28.0134 66.6768 28.0892C66.9003 28.2272 67.135 28.3455 67.3785 28.443C67.6697 28.5461 67.9152 28.75 68.0713 29.0185C68.2273 29.2869 68.2839 29.6024 68.2308 29.909C68.2266 30.2418 68.1101 30.5633 67.9005 30.8206C67.691 31.0778 67.4008 31.2555 67.0778 31.3243C66.7586 31.4076 66.4214 31.3863 66.115 31.2637C65.8086 31.141 65.5489 30.9232 65.3733 30.6419C65.3235 30.5031 65.3235 30.3511 65.3733 30.2123C65.473 30.0381 65.5818 29.8694 65.6991 29.7068C65.8711 29.9117 66.0551 30.1058 66.2505 30.2881C66.5263 30.4903 66.8271 30.5408 67.0527 30.2881C67.1072 30.2283 67.1467 30.1562 67.1677 30.0778C67.1888 29.9994 67.1909 29.917 67.1737 29.8377C67.1565 29.7583 67.1205 29.6843 67.0689 29.6219C67.0173 29.5596 66.9515 29.5106 66.8772 29.4793C66.6766 29.4793 66.451 29.2771 66.2254 29.1507C65.9637 29.0666 65.7375 28.8963 65.583 28.6672C65.4285 28.4381 65.3547 28.1634 65.3733 27.887C65.3741 27.6147 65.4556 27.3488 65.6075 27.1236C65.7594 26.8984 65.9745 26.7242 66.2254 26.6233C66.5085 26.5303 66.81 26.5093 67.103 26.5622C67.396 26.6151 67.6716 26.7403 67.905 26.9266C67.9358 26.9804 67.9519 27.0414 67.9519 27.1035C67.9519 27.1656 67.9358 27.2266 67.905 27.2804C67.8551 27.392 67.7873 27.4944 67.7044 27.5837Z" fill="white"/>
<path d="M83.6724 27.8366C82.8452 27.2805 82.2938 27.2805 81.8175 27.8366C81.5857 28.1315 81.4595 28.4967 81.4595 28.8729C81.4595 29.2492 81.5857 29.6144 81.8175 29.9092C82.2687 30.4906 82.7951 30.5159 83.6975 29.9092C84.0484 30.617 83.8479 31.0719 83.0959 31.2236C82.6967 31.2732 82.2915 31.219 81.919 31.0661C81.5464 30.9131 81.2188 30.6665 80.9675 30.3498C80.7162 30.033 80.5495 29.6567 80.4833 29.2566C80.4171 28.8565 80.4536 28.446 80.5893 28.0641C80.7261 27.5196 81.0578 27.0453 81.5206 26.7326C81.9834 26.42 82.5445 26.291 83.0959 26.3706C83.7727 26.5728 83.9481 26.9772 83.6724 27.8366Z" fill="white"/>
<path d="M70.8379 27.4064V26.5723C71.6902 26.5723 72.5424 26.5723 73.3445 26.5723C73.3445 26.5723 73.52 26.8503 73.52 27.0272C73.5153 27.104 73.4923 27.1786 73.453 27.2445C73.4137 27.3105 73.3593 27.366 73.2944 27.4064C73.0863 27.4328 72.8758 27.4328 72.6677 27.4064V31.1472H71.6651V28.0635C71.6651 27.3811 71.6651 27.4569 71.0385 27.4569L70.8379 27.4064Z" fill="white"/>
<path d="M44.1168 31.2231C43.4901 31.2231 42.8383 31.2231 42.1866 31.2231C42.1313 31.196 42.0825 31.157 42.0436 31.109C42.0046 31.061 41.9764 31.0051 41.9609 30.9451C41.9609 29.5802 41.9609 28.2153 41.9609 26.8504C41.9609 26.446 42.2869 26.5724 42.4874 26.5724C42.6879 26.5724 42.9888 26.5724 42.9888 26.901V29.5802C42.9888 30.4902 42.9887 30.3132 43.7407 30.3385C44.4927 30.3638 44.2672 30.4143 44.1168 31.2231Z" fill="white"/>
<path d="M77.5079 28.923C77.5079 29.555 77.5079 30.1869 77.5079 30.8441C77.5079 31.5014 77.3075 31.2486 77.0067 31.2233C76.7059 31.198 76.4552 31.2233 76.4802 30.8441V26.9766C76.4802 26.5722 76.6808 26.5469 76.9816 26.5469C77.2824 26.5469 77.533 26.5469 77.5079 26.9766C77.4828 27.4063 77.5079 28.2658 77.5079 28.923Z" fill="white"/>
<path d="M62.2667 31.1726C61.2891 31.3243 61.2891 31.3243 61.2891 30.4143C61.2891 29.5043 61.2891 28.1646 61.2891 27.0524C61.2891 26.6733 61.2891 26.5469 61.7654 26.5469C62.2416 26.5469 62.3419 26.5469 62.3419 27.0271C62.3419 28.291 62.3419 29.5549 62.3419 30.7935C62.3293 30.922 62.3042 31.0491 62.2667 31.1726Z" fill="white"/>
</svg>
