<svg width="140" height="44" viewBox="0 0 140 44" fill="none" xmlns="http://www.w3.org/2000/svg">
<path d="M115.963 23.505C116.227 23.2793 116.434 22.9937 116.567 22.6716C116.7 22.3496 116.755 22.0003 116.729 21.6525V19.0722H113.142V22.5787C113.136 22.8168 113.04 23.0435 112.873 23.2119C112.706 23.3803 112.481 23.4773 112.245 23.4829C112.128 23.483 112.013 23.4594 111.905 23.4137C111.797 23.368 111.7 23.3011 111.619 23.2168C111.537 23.1325 111.473 23.0327 111.43 22.9231C111.388 22.8135 111.367 22.6964 111.37 22.5787V12.6326C111.367 12.5149 111.388 12.3979 111.43 12.2883C111.473 12.1787 111.537 12.0788 111.619 11.9946C111.7 11.9103 111.797 11.8433 111.905 11.7976C112.013 11.7519 112.128 11.7284 112.245 11.7284C112.483 11.7284 112.711 11.8237 112.879 11.9933C113.047 12.1628 113.142 12.3928 113.142 12.6326V16.1612H116.729V12.5003C116.729 10.4714 115.416 8.81738 112.201 8.81738C108.986 8.81738 107.674 10.4934 107.674 12.5003V22.8875C107.673 23.3593 107.768 23.8264 107.951 24.2606C108.133 24.6949 108.401 25.0875 108.738 25.4149C109.075 25.7423 109.474 25.9978 109.911 26.166C110.349 26.3343 110.815 26.4118 111.283 26.394H112.398L115.963 23.505Z" fill="white"/>
<path d="M130.136 23.902V12.5001H127.643V9.14795H136.61V12.5001H134.138V26.3721H133.067L130.136 23.902Z" fill="white"/>
<path d="M122.042 17.0654L123.005 12.1034L123.989 17.0654H122.042ZM125.476 9.21436H120.489L117.559 22.4465L122.983 18.0358L128.604 22.667L125.476 9.21436Z" fill="white"/>
<path d="M138.38 9.94196C138.555 9.94196 138.599 9.94195 138.599 9.76552C138.599 9.58909 138.599 9.61114 138.402 9.61114H138.162V9.94196H138.38ZM138.162 10.1404V10.6918H137.965V9.41266H138.38C138.621 9.41266 138.861 9.41266 138.861 9.76552C138.858 9.8391 138.83 9.90943 138.783 9.96536C138.735 10.0213 138.671 10.0596 138.599 10.0743C138.752 10.0743 138.796 10.0743 138.818 10.3169V10.6918H138.555V10.4492V10.1845H138.38L138.162 10.1404ZM139.277 10.1404C139.281 9.95979 139.232 9.78199 139.135 9.62996C139.038 9.47793 138.898 9.35865 138.734 9.28749C138.569 9.21634 138.387 9.19658 138.211 9.23076C138.035 9.26495 137.873 9.3515 137.746 9.47927C137.62 9.60704 137.534 9.77016 137.5 9.94759C137.466 10.125 137.486 10.3086 137.556 10.4747C137.627 10.6408 137.745 10.7818 137.896 10.8794C138.047 10.9771 138.223 11.027 138.402 11.0226C138.634 11.0226 138.857 10.9297 139.021 10.7642C139.185 10.5988 139.277 10.3744 139.277 10.1404ZM137.309 10.1404C137.309 9.99665 137.337 9.8543 137.392 9.72173C137.448 9.58916 137.528 9.46905 137.63 9.36841C137.732 9.26777 137.853 9.18863 137.985 9.13564C138.118 9.08265 138.26 9.05686 138.402 9.0598C138.542 9.05976 138.68 9.08786 138.809 9.14244C138.938 9.19701 139.055 9.27695 139.152 9.3776C139.25 9.47825 139.327 9.59756 139.378 9.72855C139.43 9.85955 139.455 9.99957 139.452 10.1404C139.455 10.2803 139.43 10.4193 139.378 10.5491C139.327 10.6789 139.249 10.7968 139.151 10.8957C139.053 10.9946 138.936 11.0724 138.807 11.1246C138.679 11.1767 138.541 11.202 138.402 11.199C138.261 11.205 138.119 11.182 137.987 11.1315C137.855 11.0809 137.734 11.0039 137.631 10.905C137.529 10.8061 137.448 10.6874 137.393 10.556C137.337 10.4246 137.308 10.2832 137.309 10.1404Z" fill="white"/>
<path d="M105.004 0.0620117H0V35.3477H105.004V0.0620117Z" fill="#FCBC00"/>
<path d="M140 0.0620117H105.006V35.3477H140V0.0620117Z" fill="#1D1D1B"/>
<path d="M116.004 23.5928C116.268 23.3671 116.475 23.0815 116.608 22.7595C116.741 22.4375 116.797 22.0882 116.77 21.7404V19.1601H113.292V22.6666C113.292 22.9064 113.198 23.1364 113.03 23.306C112.861 23.4755 112.633 23.5708 112.395 23.5708C112.279 23.5708 112.163 23.5473 112.055 23.5016C111.948 23.4559 111.85 23.3889 111.769 23.3047C111.687 23.2204 111.623 23.1205 111.581 23.011C111.538 22.9014 111.518 22.7843 111.52 22.6666V12.7205C111.518 12.6028 111.538 12.4857 111.581 12.3762C111.623 12.2666 111.687 12.1667 111.769 12.0824C111.85 11.9982 111.948 11.9312 112.055 11.8855C112.163 11.8398 112.279 11.8163 112.395 11.8163C112.633 11.8163 112.861 11.9116 113.03 12.0812C113.198 12.2507 113.292 12.4807 113.292 12.7205V16.2491H116.879V12.5882C116.879 10.5813 115.567 8.90527 112.352 8.90527C109.137 8.90527 107.824 10.5813 107.824 12.5882V22.9754C107.824 23.4482 107.918 23.9162 108.101 24.3516C108.283 24.7871 108.551 25.1811 108.887 25.5102C109.224 25.8394 109.623 26.0969 110.06 26.2676C110.497 26.4383 110.964 26.5187 111.433 26.5039H112.548L116.004 23.5928Z" fill="white"/>
<path d="M130.177 23.9899V12.6105H127.684V9.23633H136.673V12.6105H134.179V26.4819H133.108L130.177 23.9899Z" fill="white"/>
<path d="M122.042 17.1536L123.026 12.1916L123.989 17.1536H122.042ZM125.542 9.21436H120.533L117.668 22.4464L123.092 18.0357L128.757 22.8213L125.542 9.21436Z" fill="white"/>
<path d="M138.425 10.0301C138.622 10.0301 138.666 10.0301 138.666 9.85371C138.666 9.67727 138.666 9.72138 138.447 9.72138H138.228V10.0301H138.425ZM138.228 10.2286V10.78H138.031V9.52288H138.425C138.666 9.52288 138.906 9.52289 138.906 9.85371C138.907 9.9285 138.881 10.001 138.833 10.0578C138.784 10.1146 138.717 10.1518 138.644 10.1625C138.819 10.1625 138.841 10.1625 138.862 10.4051V10.78H138.6V10.5595V10.2728H138.403L138.228 10.2286ZM139.322 10.2286C139.322 10.0542 139.27 9.88359 139.174 9.73851C139.078 9.59344 138.942 9.48036 138.782 9.41359C138.622 9.34682 138.446 9.32935 138.276 9.36339C138.106 9.39743 137.951 9.48146 137.828 9.60484C137.706 9.72821 137.623 9.88541 137.589 10.0565C137.555 10.2277 137.572 10.405 137.639 10.5662C137.705 10.7274 137.817 10.8652 137.961 10.9622C138.105 11.0591 138.274 11.1108 138.447 11.1108C138.679 11.1108 138.901 11.0179 139.066 10.8525C139.23 10.687 139.322 10.4626 139.322 10.2286ZM137.375 10.2286C137.375 10.0149 137.438 9.80596 137.556 9.62824C137.674 9.45052 137.841 9.312 138.037 9.23021C138.233 9.14841 138.448 9.12702 138.656 9.16872C138.864 9.21041 139.055 9.31334 139.205 9.46448C139.355 9.61561 139.457 9.80818 139.498 10.0178C139.539 10.2274 139.518 10.4447 139.437 10.6422C139.356 10.8397 139.219 11.0085 139.042 11.1272C138.866 11.246 138.659 11.3093 138.447 11.3093C138.305 11.3123 138.165 11.2864 138.033 11.2332C137.902 11.1799 137.783 11.1005 137.683 10.9995C137.582 10.8985 137.503 10.7782 137.451 10.6457C137.398 10.5133 137.372 10.3714 137.375 10.2286Z" fill="white"/>
<path d="M132.104 26.5042H113.666L123.027 19.0278L132.104 26.5042Z" fill="#FCBD0A"/>
<path d="M21.6969 9.21404C21.6969 8.55244 21.0845 8.55244 20.5596 8.55244C19.2692 8.55244 19.2474 8.9494 19.2255 10.03V11.1106C19.2255 12.3015 19.641 12.4118 20.5596 12.4118C21.4782 12.4118 21.6969 12.2133 21.6969 11.287H20.4722V10.0962H23.4685V11.265C23.4685 13.4703 22.9217 13.9114 20.5596 13.9114C18.1975 13.9114 17.4102 13.6247 17.4102 11.4194V9.69921C17.4102 7.49389 18.6131 7.16309 20.5596 7.16309C22.5061 7.16309 23.4685 7.16309 23.4685 9.36841L21.6969 9.21404Z" fill="#1D1D1B"/>
<path d="M26.3122 9.87613H29.1337V11.1112H26.3122V12.4124H29.3961V13.8679H24.5625V7.18555H29.3304V8.66316H26.3122V9.87613Z" fill="#1D1D1B"/>
<path d="M32.4373 13.8679H30.6875V7.18555H33.6621L35.5649 12.3241H35.6304L35.5211 7.18555H37.2927V13.8679H34.2744L32.4154 8.75138H32.3497L32.4373 13.8679Z" fill="#1D1D1B"/>
<path d="M40.3302 9.87613H43.1515V11.1112H40.3302V12.4124H43.3921V13.8679H38.5586V7.18555H43.3265V8.66316H40.3302V9.87613Z" fill="#1D1D1B"/>
<path d="M44.6597 7.18555H48.0716C49.6026 7.18555 50.2587 7.56045 50.2587 9.21444C50.2587 10.3171 50.2587 10.9787 48.9902 11.2654C49.1495 11.2524 49.3098 11.2742 49.46 11.3291C49.6103 11.3841 49.7472 11.471 49.8613 11.5839C49.9754 11.6968 50.0641 11.8332 50.1214 11.9837C50.1786 12.1342 50.2031 12.2954 50.1932 12.4563V13.8015H48.4216V12.8753C48.4216 12.368 48.2247 12.0372 47.6998 12.0372H46.3438V13.8015H44.5723L44.6597 7.18555ZM47.7873 10.5376C48.5528 10.5376 48.531 10.273 48.531 9.50113C48.531 8.72927 48.3778 8.75132 47.7873 8.75132H46.4313V10.5376H47.7873Z" fill="#1D1D1B"/>
<path d="M52.9306 12.7207L52.6025 13.8674H50.7871L52.7556 7.25146H55.4457L57.4578 13.8674H55.6426L55.3145 12.7207H52.9306ZM54.1335 8.53055L53.3243 11.4195H54.9646L54.1335 8.53055Z" fill="#1D1D1B"/>
<path d="M59.797 12.3241H62.5528V13.8679H58.0254V7.18555H59.797V12.3241Z" fill="#1D1D1B"/>
<path d="M66.666 7.18555H70.0124C71.8715 7.18555 72.6807 7.89127 72.6807 9.78792V11.1773C72.6807 13.0078 72.112 13.8679 70.253 13.8679H66.666V7.18555ZM68.4376 12.3241H69.9686C70.6248 12.3241 70.8653 11.8831 70.8653 11.1773V9.78792C70.8653 8.92781 70.6029 8.75138 69.9686 8.75138H68.4376V12.3241Z" fill="#1D1D1B"/>
<path d="M75.5427 9.87613H78.3641V11.1112H75.5427V12.4124H78.6266V13.8679H73.793V7.18555H78.5609V8.66316H75.5427V9.87613Z" fill="#1D1D1B"/>
<path d="M20.9741 19.8879H26.2451V22.2035H20.9741V24.6074H26.7043V27.342H17.6934V14.9038H26.595V17.6164H20.9741V19.8879Z" fill="#1D1D1B"/>
<path d="M38.9323 26.3718C37.6847 27.2152 36.1829 27.5898 34.6893 27.4304C30.8618 27.4304 28.959 26.5923 28.959 22.4241V19.8217C28.959 15.7417 30.9274 14.8154 34.6893 14.8154C38.4511 14.8154 40.3976 15.7417 40.3976 19.8217V22.9314C40.4227 23.4931 40.3411 24.0546 40.1571 24.5854L41.4912 25.5117L40.1571 27.3422L38.9323 26.3718ZM36.9857 22.4462V20.2407C36.9857 18.0353 36.7014 17.6163 34.6455 17.6163C32.5896 17.6163 32.3709 18.0353 32.3709 20.2407V22.4462C32.3709 24.3649 33.0708 24.4531 34.7112 24.4531C35.1991 24.4884 35.6892 24.4285 36.1546 24.2767L33.9675 22.8431L35.2579 20.9906L36.9857 22.4462Z" fill="#1D1D1B"/>
<path d="M53.1702 14.9038V23.1961C53.1702 26.5042 51.6393 27.4304 48.0086 27.4304C43.0875 27.4304 42.5625 26.1734 42.5625 23.1961V14.9038H45.8432V23.1299C45.8432 24.5414 46.6306 24.5414 48.0304 24.5414C49.4301 24.5414 49.9114 24.4311 49.9114 22.9755V14.9038H53.1702Z" fill="#1D1D1B"/>
<path d="M58.8354 14.9038H55.5547V27.3201H58.8354V14.9038Z" fill="#1D1D1B"/>
<path d="M61.1309 27.342V14.9038H67.3641C70.4261 14.9038 71.5853 16.205 71.5853 19.4689C71.5853 22.7328 70.7979 24.1443 67.3641 24.1443H64.4552V27.342H61.1309ZM66.6642 21.2773C67.9765 21.2773 68.1515 21.0788 68.1515 19.4689C68.1515 18.1898 67.9546 17.7928 66.6642 17.7928H64.4771V21.2773H66.6642Z" fill="#1D1D1B"/>
<path d="M72.7227 22.8871V19.3585C72.7227 15.5432 75.1066 14.8154 78.4311 14.8154C81.7555 14.8154 84.1395 15.5432 84.1395 19.3585V22.8871C84.1395 26.7024 81.7774 27.4302 78.4311 27.4302C75.0847 27.4302 72.7227 26.7024 72.7227 22.8871ZM80.7494 22.5122V19.7114C80.7494 17.8809 80.137 17.6824 78.4311 17.6824C76.7251 17.6824 76.2439 17.8809 76.1127 19.7114V22.446C76.1127 24.2985 76.7251 24.475 78.4311 24.475C80.137 24.475 80.7494 24.2985 80.7494 22.446" fill="#1D1D1B"/>
<path d="M91.6416 19.7782C95.2722 20.0429 96.1909 20.506 96.1909 23.3508C96.1909 25.4018 96.1908 27.4307 90.8323 27.4307C87.7047 27.4307 85.627 27.4307 85.627 23.2847H88.7764C88.7764 24.5858 89.2357 24.7181 90.8323 24.7181C92.429 24.7181 92.8883 24.6079 92.8883 23.5714C92.8883 22.5349 92.7133 22.5128 91.1605 22.4025H90.4606C87.3986 22.182 85.627 22.2041 85.627 18.6535C85.627 15.1029 87.6173 14.8604 90.8323 14.8604C93.5444 14.8604 95.841 14.8604 95.841 18.3227V18.852H92.6915C92.6915 17.5729 92.1665 17.5729 90.8323 17.5729C89.0608 17.5729 88.9295 17.9257 88.9295 18.6314C88.9295 19.3371 89.3888 19.6459 90.2637 19.712L91.6416 19.7782Z" fill="#1D1D1B"/>
<path d="M66.6427 43.2429C65.7679 43.2429 65.3086 42.6695 65.3086 41.6991V39.626H65.8554V41.677C65.8554 42.3387 66.1178 42.7136 66.6646 42.7136C67.2114 42.7136 67.4738 42.3607 67.4738 41.6991V39.626H67.9987V41.6991C67.9987 42.6916 67.5176 43.2429 66.6427 43.2429Z" fill="#1D1D1B"/>
<path d="M71.3453 43.177L69.9236 40.9714L69.6612 40.5303V43.177H69.1582V39.626H69.705L71.0391 41.8316L71.3234 42.3389V39.626H71.8483V43.177H71.3453Z" fill="#1D1D1B"/>
<path d="M74.6044 41.0377C74.6044 40.7951 74.3857 40.3761 74.342 40.2217L74.0795 41.0377L73.7952 41.8537H74.8887L74.6044 41.0377ZM75.3481 43.2432L75.0419 42.4051H73.6421L73.3358 43.2432H72.7891L74.0576 39.6924H74.6263L75.9166 43.2432H75.3481Z" fill="#1D1D1B"/>
<path d="M78.4746 43.199V39.626H80.7711V40.1333H79.0214V41.0155H80.0274V41.5448H79.0214V42.6696H80.8366V43.199H78.4746Z" fill="#1D1D1B"/>
<path d="M84.4887 43.1768V41.3021C84.4757 41.0891 84.4757 40.8755 84.4887 40.6625C84.4887 40.7728 84.3355 41.0375 84.248 41.236L83.3951 43.2429L82.5421 41.236C82.4552 41.0506 82.3821 40.8589 82.3234 40.6625V43.1768H81.8203V39.626H82.3671L83.1544 41.5227C83.2461 41.7238 83.3265 41.9299 83.3951 42.1402C83.3951 41.9858 83.5482 41.7212 83.6357 41.5227L84.423 39.626H84.9917V43.1768H84.4887Z" fill="#1D1D1B"/>
<path d="M87.6604 40.0889H86.698V41.3019H87.6604C87.8003 41.2748 87.9264 41.1995 88.0171 41.0888C88.1078 40.9781 88.1575 40.839 88.1575 40.6954C88.1575 40.5518 88.1078 40.4126 88.0171 40.302C87.9264 40.1913 87.8003 40.1159 87.6604 40.0889ZM87.6604 41.8091H86.7417V43.1323H86.2168V39.6258H87.7041C87.8536 39.6093 88.0051 39.6261 88.1475 39.675C88.29 39.724 88.4199 39.8038 88.5284 39.909C88.6369 40.0142 88.7211 40.1421 88.7752 40.2837C88.8293 40.4253 88.8519 40.5771 88.8414 40.7285C88.8524 40.8848 88.8289 41.0416 88.7724 41.1877C88.716 41.3337 88.628 41.4653 88.515 41.5729C88.402 41.6805 88.2668 41.7614 88.119 41.8099C87.9712 41.8584 87.8146 41.8732 87.6604 41.8532" fill="#1D1D1B"/>
<path d="M91.2912 40.0891H90.2632V41.2358H91.2912C91.442 41.2358 91.5866 41.1754 91.6933 41.0679C91.7999 40.9604 91.8599 40.8145 91.8599 40.6625C91.8599 40.5104 91.7999 40.3646 91.6933 40.2571C91.5866 40.1495 91.442 40.0891 91.2912 40.0891ZM91.6411 41.6769L92.3629 43.1323H91.7505L91.0506 41.721H90.2632V43.1323H89.7383V39.626H91.2912C91.4369 39.6103 91.5844 39.6261 91.7236 39.6725C91.8627 39.7189 91.9904 39.7947 92.0981 39.895C92.2059 39.9952 92.2911 40.1175 92.348 40.2537C92.405 40.3899 92.4325 40.5368 92.4285 40.6845C92.4487 40.9251 92.3791 41.1646 92.2335 41.3562C92.0879 41.5479 91.8767 41.678 91.6411 41.721" fill="#1D1D1B"/>
<path d="M93.5 43.199V39.626H95.7745V40.1333H94.0249V41.0155H95.0528V41.5448H94.0249V42.6696H95.8402V43.199H93.5Z" fill="#1D1D1B"/>
<path d="M97.8525 43.2427C97.6124 43.2466 97.3743 43.1973 97.1551 43.0982C96.9359 42.9991 96.7409 42.8527 96.584 42.6693L96.9559 42.2944C97.0733 42.4229 97.2151 42.5261 97.3729 42.5981C97.5307 42.6701 97.7013 42.7093 97.8744 42.7134C98.3775 42.7134 98.618 42.537 98.618 42.2062C98.618 41.8754 98.3993 41.7872 97.8088 41.6108C97.2182 41.4343 96.7152 41.1918 96.7152 40.5522C96.7201 40.408 96.7549 40.2663 96.8172 40.1364C96.8795 40.0065 96.9681 39.8911 97.0772 39.7977C97.1864 39.7042 97.3136 39.6348 97.4509 39.5939C97.5881 39.5529 97.7325 39.5413 97.8744 39.5598C98.0903 39.5563 98.3046 39.5975 98.504 39.6809C98.7034 39.7644 98.8836 39.8883 99.0335 40.045L98.6618 40.4199C98.5541 40.3089 98.4245 40.222 98.2813 40.165C98.1381 40.108 97.9845 40.0821 97.8307 40.0891C97.4151 40.0891 97.2401 40.2876 97.2401 40.5302C97.2401 40.7728 97.4152 40.9051 98.0276 41.0815C98.6399 41.2579 99.143 41.5226 99.143 42.1621C99.143 42.8016 98.7493 43.2427 97.8525 43.2427Z" fill="#1D1D1B"/>
<path d="M101.659 41.0377C101.659 40.7951 101.44 40.3761 101.397 40.2217L101.134 41.0377L100.85 41.8537H101.943L101.659 41.0377ZM102.403 43.2432L102.118 42.4051H100.697L100.412 43.2432H99.8438L101.134 39.6924H101.681L102.971 43.2432H102.403Z" fill="#1D1D1B"/>
<path d="M106.078 40.1333V41.0816H107.084V41.611H106.078V43.199H105.553V39.626H107.827V40.1333H106.078Z" fill="#1D1D1B"/>
<path d="M108.746 43.199V39.626H111.021V40.1333H109.271V41.0155H110.277V41.5448H109.271V42.6696H111.086V43.199H108.746Z" fill="#1D1D1B"/>
<path d="M113.643 40.0891H112.615V41.2358H113.643C113.722 41.2456 113.802 41.2378 113.878 41.213C113.953 41.1883 114.023 41.1472 114.081 41.0926C114.139 41.038 114.185 40.9712 114.215 40.8969C114.245 40.8226 114.259 40.7426 114.255 40.6625C114.259 40.5823 114.245 40.5023 114.215 40.428C114.185 40.3538 114.139 40.287 114.081 40.2324C114.023 40.1778 113.953 40.1367 113.878 40.1119C113.802 40.0872 113.722 40.0794 113.643 40.0891ZM114.015 41.6769L114.736 43.1323H114.124L113.424 41.721H112.615V43.1323H112.09V39.626H113.643C113.788 39.6103 113.936 39.6261 114.075 39.6725C114.214 39.7189 114.342 39.7947 114.45 39.895C114.557 39.9952 114.643 40.1175 114.699 40.2537C114.756 40.3899 114.784 40.5368 114.78 40.6845C114.801 40.9219 114.734 41.1588 114.593 41.3499C114.452 41.5411 114.246 41.6732 114.015 41.721" fill="#1D1D1B"/>
<path d="M117.406 40.0891H116.378V41.2358H117.406C117.485 41.2456 117.566 41.2378 117.641 41.213C117.717 41.1883 117.786 41.1472 117.845 41.0926C117.903 41.038 117.949 40.9712 117.979 40.8969C118.009 40.8226 118.023 40.7426 118.019 40.6625C118.023 40.5823 118.009 40.5023 117.979 40.428C117.949 40.3538 117.903 40.287 117.845 40.2324C117.786 40.1778 117.717 40.1367 117.641 40.1119C117.566 40.0872 117.485 40.0794 117.406 40.0891ZM117.778 41.6769L118.5 43.1323H117.888L117.188 41.721H116.378V43.1323H115.854V39.626H117.406C117.552 39.6103 117.7 39.6261 117.839 39.6725C117.978 39.7189 118.106 39.7947 118.213 39.895C118.321 39.9952 118.406 40.1175 118.463 40.2537C118.52 40.3899 118.548 40.5368 118.544 40.6845C118.565 40.9219 118.498 41.1588 118.357 41.3499C118.216 41.5411 118.01 41.6732 117.778 41.721" fill="#1D1D1B"/>
<path d="M119.615 43.199V39.626H121.89V40.1333H120.14V41.0155H121.168V41.5448H120.14V42.6696H121.977V43.199H119.615Z" fill="#1D1D1B"/>
<path d="M124.426 41.765V43.1765H123.901V41.765L122.633 39.5596H123.245L123.792 40.53C123.923 40.7505 124.098 41.1034 124.164 41.2357L124.536 40.53L125.082 39.5596H125.695L124.426 41.765Z" fill="#1D1D1B"/>
<path d="M127.663 43.243C126.744 43.243 126.176 42.4931 126.176 41.4125C126.176 40.3319 126.744 39.56 127.663 39.56C127.905 39.5452 128.146 39.5995 128.359 39.7165C128.571 39.8335 128.747 40.0086 128.866 40.2216L128.407 40.5304C128.336 40.3936 128.229 40.2796 128.098 40.2016C127.966 40.1235 127.816 40.0846 127.663 40.0893C127.051 40.0893 126.723 40.5965 126.723 41.4125C126.723 42.2285 127.051 42.7137 127.663 42.7137C127.822 42.7191 127.979 42.6809 128.117 42.6032C128.256 42.5255 128.371 42.4112 128.45 42.2726L128.888 42.5593C128.765 42.7748 128.585 42.9524 128.37 43.0728C128.154 43.1933 127.909 43.2521 127.663 43.243Z" fill="#1D1D1B"/>
<path d="M131.12 40.0889C130.508 40.0889 130.158 40.5961 130.158 41.4121C130.158 42.2282 130.508 42.7134 131.12 42.7134C131.733 42.7134 132.083 42.2061 132.083 41.4121C132.083 40.6182 131.733 40.0889 131.12 40.0889ZM131.12 43.2427C130.202 43.2427 129.611 42.4928 129.611 41.4121C129.611 40.3315 130.202 39.5596 131.12 39.5596C132.039 39.5596 132.608 40.3315 132.608 41.4121C132.608 42.4928 132.039 43.2427 131.12 43.2427Z" fill="#1D1D1B"/>
<path d="M135.164 40.0891H134.136V41.2358H135.164C135.243 41.2456 135.323 41.2378 135.399 41.213C135.475 41.1883 135.544 41.1472 135.602 41.0926C135.661 41.038 135.707 40.9712 135.737 40.8969C135.767 40.8226 135.78 40.7426 135.777 40.6625C135.78 40.5823 135.767 40.5023 135.737 40.428C135.707 40.3538 135.661 40.287 135.602 40.2324C135.544 40.1778 135.475 40.1367 135.399 40.1119C135.323 40.0872 135.243 40.0794 135.164 40.0891ZM135.536 41.6769L136.258 43.1323H135.645L134.946 41.721H134.136V43.1323H133.611V39.626H135.164C135.31 39.6103 135.457 39.6261 135.597 39.6725C135.736 39.7189 135.863 39.7947 135.971 39.895C136.079 39.9952 136.164 40.1175 136.221 40.2537C136.278 40.3899 136.306 40.5368 136.302 40.6845C136.323 40.9219 136.256 41.1588 136.115 41.3499C135.974 41.5411 135.768 41.6732 135.536 41.721" fill="#1D1D1B"/>
<path d="M138.861 40.0889H137.898V41.3019H138.861C139.001 41.2748 139.127 41.1995 139.218 41.0888C139.308 40.9781 139.358 40.839 139.358 40.6954C139.358 40.5518 139.308 40.4126 139.218 40.302C139.127 40.1913 139.001 40.1159 138.861 40.0889ZM138.861 41.8091H137.942V43.1323H137.352V39.6258H138.839C138.988 39.6093 139.14 39.6261 139.282 39.675C139.425 39.724 139.555 39.8038 139.663 39.909C139.772 40.0142 139.856 40.1421 139.91 40.2837C139.964 40.4253 139.987 40.5771 139.976 40.7285C139.987 40.8848 139.964 41.0416 139.907 41.1877C139.851 41.3337 139.763 41.4653 139.65 41.5729C139.537 41.6805 139.401 41.7614 139.254 41.8099C139.106 41.8584 138.949 41.8732 138.795 41.8532" fill="#1D1D1B"/>
</svg>
