<svg width="140" height="44" viewBox="0 0 140 44" fill="none" xmlns="http://www.w3.org/2000/svg">
<path d="M104.976 0.0620117H0V35.353H104.976V0.0620117Z" fill="#FCBC00"/>
<path d="M139.998 0.0620117H104.998V35.353H139.998V0.0620117Z" fill="#1D1D1B"/>
<path d="M116.002 23.5891C116.265 23.3638 116.472 23.0794 116.606 22.7589C116.74 22.4383 116.798 22.0905 116.774 21.7434V19.1639H113.179V22.6551C113.179 22.8969 113.084 23.1288 112.915 23.2998C112.745 23.4708 112.515 23.5669 112.275 23.5669C112.157 23.5669 112.041 23.5432 111.932 23.4971C111.824 23.451 111.726 23.3835 111.643 23.2985C111.561 23.2136 111.497 23.1129 111.454 23.0024C111.411 22.8919 111.39 22.7738 111.393 22.6551V12.7374C111.39 12.6187 111.411 12.5007 111.454 12.3902C111.497 12.2797 111.561 12.179 111.643 12.094C111.726 12.009 111.824 11.9415 111.932 11.8954C112.041 11.8493 112.157 11.8256 112.275 11.8257C112.515 11.8257 112.745 11.9217 112.915 12.0927C113.084 12.2637 113.179 12.4956 113.179 12.7374V16.2508H116.774V12.604C116.774 10.5804 115.451 8.9126 112.231 8.9126C109.011 8.9126 107.82 10.5804 107.82 12.604V22.9665C107.82 23.4403 107.914 23.9093 108.097 24.3457C108.28 24.7821 108.549 25.1769 108.886 25.5067C109.223 25.8365 109.623 26.0946 110.061 26.2656C110.499 26.4366 110.967 26.5171 111.437 26.5022H112.54L116.002 23.5891Z" fill="white"/>
<path d="M130.162 24.0121V12.604H127.67V9.24609H136.668V12.604H134.176V26.4805H133.095L130.162 24.0121Z" fill="white"/>
<path d="M125.529 9.26807H120.523L117.59 22.4108L123.037 17.9632L128.683 22.7222L125.529 9.26807ZM122.067 17.1626L123.037 12.1813L123.985 17.1626H122.067Z" fill="white"/>
<path d="M137.35 10.1579C137.35 10.0159 137.378 9.87523 137.432 9.74426C137.487 9.61329 137.567 9.49462 137.667 9.39521C137.768 9.2958 137.887 9.21765 138.018 9.16534C138.149 9.11302 138.289 9.0876 138.43 9.09056C138.723 9.09056 139.003 9.2077 139.21 9.41621C139.417 9.62472 139.533 9.90752 139.533 10.2024C139.533 10.4973 139.417 10.7801 139.21 10.9886C139.003 11.1971 138.723 11.3142 138.43 11.3142C138.289 11.3172 138.149 11.2918 138.018 11.2394C137.887 11.1871 137.768 11.109 137.667 11.0096C137.567 10.9102 137.487 10.7915 137.432 10.6605C137.378 10.5296 137.35 10.3889 137.35 10.2469V10.1579ZM139.312 10.2469C139.312 10.0709 139.261 9.89898 139.164 9.75271C139.067 9.60643 138.929 9.49243 138.768 9.42511C138.607 9.35779 138.429 9.34017 138.258 9.37449C138.087 9.40881 137.93 9.49352 137.806 9.61792C137.683 9.74231 137.599 9.9008 137.565 10.0733C137.531 10.2459 137.549 10.4247 137.615 10.5872C137.682 10.7498 137.795 10.8887 137.94 10.9864C138.085 11.0842 138.256 11.1363 138.43 11.1363C138.664 11.1363 138.889 11.0426 139.054 10.8758C139.22 10.709 139.312 10.4828 139.312 10.2469ZM138.21 10.2469V10.8028H138.011V9.5353H138.364C138.607 9.5353 138.849 9.5353 138.849 9.89108C138.841 9.96133 138.811 10.0272 138.764 10.0791C138.716 10.1311 138.653 10.1665 138.585 10.1802C138.761 10.1802 138.783 10.1802 138.805 10.4248V10.8028H138.563V10.5804V10.3136H138.386L138.21 10.2469ZM138.408 10.0467C138.607 10.0467 138.629 10.0467 138.629 9.86884C138.629 9.69095 138.629 9.73543 138.43 9.73543H138.21V10.0467H138.408Z" fill="white"/>
<path d="M132.103 26.5024H113.666L123.017 19.0308L132.103 26.5024Z" fill="#FDC42E"/>
<path d="M20.2227 14.983C20.2227 13.9823 20.1125 12.4257 18.7893 12.4257C17.466 12.4257 17.1573 13.9156 17.1573 18.0073C17.1573 22.099 17.3558 23.5444 18.7893 23.5444C20.2228 23.5444 20.4433 22.4325 20.4433 20.32V19.8308H18.7452V17.4291H23.6852V25.657H21.2373V24.1893C20.9468 24.7934 20.4754 25.2902 19.8897 25.6094C19.304 25.9287 18.6336 26.0542 17.9733 25.9683C14.158 25.9683 13.5625 23.0997 13.5625 18.2964C13.5625 13.4931 13.8933 10.024 18.9657 10.024C19.6233 9.93768 20.2919 10.0083 20.9175 10.2302C21.5431 10.4521 22.1083 10.8191 22.5675 11.3016C23.0267 11.7841 23.3671 12.3686 23.5613 13.0081C23.7554 13.6475 23.7979 14.324 23.6852 14.983H20.2227Z" fill="#1D1D1B"/>
<path d="M26.0664 10.3135H34.8659V13.2266H29.6392V16.3176H34.5352V19.2308H29.6392V22.7443H35.1085V25.6575H26.0664V10.3135Z" fill="#1D1D1B"/>
<path d="M37.1387 10.3135H41.2627L44.1959 20.276H44.24V10.3135H47.5701V25.6575H43.5122L40.3806 15.0946H40.3364V25.6575H37.1387V10.3135Z" fill="#1D1D1B"/>
<path d="M52.4205 13.2266H49.2227V10.3135H59.2131V13.2266H55.9932V25.6575H52.4205V13.2266Z" fill="#1D1D1B"/>
<path d="M60.8672 10.3135H66.8658C67.4094 10.2446 67.9613 10.2996 68.481 10.4744C69.0006 10.6492 69.4748 10.9393 69.8684 11.3234C70.2621 11.7076 70.5652 12.1759 70.7555 12.6939C70.9458 13.2118 71.0184 13.7663 70.9679 14.3163C70.9679 16.5401 70.0637 17.6519 68.4096 18.0522C70.615 18.3635 70.8135 19.809 70.8577 21.8771C70.8577 24.9014 71.0341 25.2128 71.5413 25.4129V25.613H67.7921C67.4369 24.6168 67.3087 23.5527 67.4172 22.4998C67.4172 19.8312 67.0423 19.2753 65.9175 19.2753H64.5502V25.613H60.9775L60.8672 10.3135ZM64.44 16.7847H65.5427C65.8014 16.7998 66.0603 16.7573 66.301 16.6602C66.5416 16.563 66.758 16.4136 66.9349 16.2225C67.1118 16.0314 67.2447 15.8034 67.3242 15.5547C67.4038 15.3059 67.428 15.0425 67.3952 14.7833C67.3952 13.6269 66.9541 12.8486 65.5206 12.8486H64.44V16.7847Z" fill="#1D1D1B"/>
<path d="M76.3266 10.3135H80.7374L84.5307 25.6575H80.8256L80.2742 22.7443H76.6133L76.084 25.6575H72.3789L76.3266 10.3135ZM78.532 13.1154L77.2749 19.9424H79.8773L78.532 13.1154Z" fill="#1D1D1B"/>
<path d="M92.162 15.6505C92.162 13.4268 91.9194 12.4261 90.7285 12.4261C89.5376 12.4261 89.1627 13.8048 89.1627 17.8076C89.1627 22.3663 89.317 23.5449 90.8167 23.5449C92.3164 23.5449 92.2722 22.0327 92.2943 19.631H95.7567V20.187C95.7567 23.4781 94.8305 25.9688 90.3977 25.9688C85.9648 25.9688 85.4355 22.4997 85.4355 17.8743C85.4355 13.9382 85.6561 10.0244 90.7285 10.0244C93.8822 10.0244 95.6024 11.3809 95.6024 15.0056V15.6505H92.162Z" fill="#1D1D1B"/>
<path d="M66.6441 43.2473C65.762 43.2473 65.2988 42.6691 65.2988 41.6907V39.6226H65.8281V41.6684C65.8281 42.3356 66.1148 42.6914 66.6441 42.6914C67.1734 42.6914 67.4601 42.3578 67.4601 41.7129V39.6226H67.9894V41.6907C67.9894 42.6914 67.5263 43.2473 66.6441 43.2473Z" fill="#1D1D1B"/>
<path d="M71.3222 43.114L69.999 40.89L69.7344 40.4675C69.7344 40.6009 69.7344 41.0902 69.7344 41.2904V43.114H69.2051V39.5557H69.7564L71.1017 41.7796L71.3884 42.2911V39.6224H71.8956V43.114H71.3222Z" fill="#1D1D1B"/>
<path d="M74.6078 41.0457C74.6078 40.7789 74.3652 40.3786 74.3211 40.2229C74.2558 40.5016 74.1748 40.7763 74.0785 41.0457L73.7918 41.8463H74.8724L74.6078 41.0457ZM75.3356 43.2695L75.0489 42.4245H73.6374L73.3287 43.2695H72.7773L74.0564 39.7114H74.6298L75.9089 43.2695H75.3356Z" fill="#1D1D1B"/>
<path d="M78.4688 43.1807V39.6226H80.7624V40.134H78.998V41.0236H80.0346V41.535H78.998V42.6692H80.8286V43.1807H78.4688Z" fill="#1D1D1B"/>
<path d="M84.4889 43.1139V40.6676L84.2683 41.2236L83.4083 43.2473L82.5481 41.2236C82.5481 41.0234 82.3718 40.7788 82.3276 40.6676C82.2835 40.5564 82.3276 41.0901 82.3276 41.2903V43.1139H81.8203V39.5557H82.3496L83.1656 41.446C83.1656 41.6461 83.3642 41.913 83.4083 42.0686C83.4691 41.8567 83.5427 41.6488 83.6287 41.446L84.4227 39.5557H84.974V43.1139H84.4889Z" fill="#1D1D1B"/>
<path d="M87.641 40.1117H86.6927V41.3349H87.641C87.7227 41.3452 87.8056 41.3369 87.8836 41.3107C87.9616 41.2845 88.0328 41.241 88.092 41.1834C88.1512 41.1258 88.197 41.0556 88.2258 40.9779C88.2546 40.9003 88.2658 40.8171 88.2586 40.7344C88.2653 40.651 88.2538 40.567 88.2251 40.4884C88.1964 40.4098 88.1512 40.3384 88.0925 40.2792C88.0338 40.22 87.9629 40.1744 87.8849 40.1454C87.807 40.1165 87.7238 40.105 87.641 40.1117ZM87.641 41.8464H86.7148V43.114H86.1855V39.5558H87.641C87.7901 39.5426 87.9403 39.5621 88.0812 39.613C88.2221 39.6639 88.3504 39.745 88.4573 39.8506C88.5642 39.9563 88.6471 40.084 88.7004 40.2251C88.7536 40.3661 88.7759 40.5171 88.7658 40.6677C88.773 40.8215 88.7472 40.9749 88.69 41.1177C88.6329 41.2604 88.5458 41.389 88.4348 41.4946C88.3238 41.6002 88.1914 41.6804 88.0467 41.7296C87.9021 41.7788 87.7487 41.7959 87.5969 41.7797" fill="#1D1D1B"/>
<path d="M91.2807 40.1121H90.2441V41.2685H91.2807C91.3594 41.2788 91.4394 41.2712 91.5148 41.2461C91.5902 41.2211 91.659 41.1792 91.7162 41.1237C91.7733 41.0682 91.8174 41.0004 91.8451 40.9254C91.8728 40.8504 91.8834 40.77 91.8761 40.6903C91.8795 40.6116 91.8662 40.533 91.8372 40.4598C91.8081 40.3866 91.764 40.3205 91.7077 40.2658C91.6514 40.2111 91.5842 40.1691 91.5106 40.1427C91.437 40.1162 91.3586 40.1058 91.2807 40.1121ZM91.6335 41.7132L92.3613 43.1809H91.7438L91.038 41.78H90.2441V43.1142H89.7148V39.5562H91.2807C91.4274 39.5359 91.5768 39.5489 91.7179 39.5943C91.859 39.6398 91.9882 39.7165 92.096 39.8189C92.2039 39.9212 92.2876 40.0466 92.3411 40.1859C92.3947 40.3251 92.4166 40.4747 92.4053 40.6236C92.4257 40.8603 92.358 41.0962 92.2153 41.2853C92.0726 41.4744 91.8652 41.6032 91.6335 41.6465" fill="#1D1D1B"/>
<path d="M93.4863 43.1807V39.6226H95.7578V40.134H94.0156V41.0236H95.03V41.535H94.0156V42.6692H95.846V43.1807H93.4863Z" fill="#1D1D1B"/>
<path d="M97.8313 43.2473C97.5935 43.2438 97.359 43.1906 97.1427 43.0911C96.9263 42.9916 96.7327 42.8479 96.5742 42.6692L96.9491 42.2911C97.0675 42.4206 97.2106 42.5248 97.3697 42.5974C97.5289 42.6699 97.7008 42.7095 97.8755 42.7136C98.3606 42.7136 98.6031 42.5357 98.6031 42.2022C98.6031 41.8686 98.4047 41.7797 97.8092 41.6018C97.2138 41.4239 96.7065 41.1793 96.7065 40.5566C96.7115 40.4112 96.7465 40.2684 96.8094 40.1374C96.8722 40.0063 96.9616 39.89 97.0716 39.7958C97.1816 39.7016 97.3099 39.6316 97.4483 39.5903C97.5868 39.549 97.7323 39.5373 97.8755 39.556C98.0896 39.5541 98.3018 39.5966 98.4991 39.6807C98.6963 39.7649 98.8744 39.8889 99.0222 40.0452L98.6473 40.4232C98.543 40.3118 98.4162 40.2244 98.2754 40.1669C98.1346 40.1093 97.9831 40.083 97.8313 40.0897C97.4123 40.0897 97.2358 40.2898 97.2358 40.5344C97.2358 40.779 97.3903 40.8902 98.0078 41.0903C98.6253 41.2905 99.1545 41.5128 99.1545 42.1577C99.1545 42.8026 98.7355 43.2473 97.8313 43.2473Z" fill="#1D1D1B"/>
<path d="M101.646 41.0457L101.382 40.2229C101.382 40.3786 101.227 40.7789 101.139 41.0457L100.852 41.8463H101.933L101.646 41.0457ZM102.396 43.2695L102.109 42.4245H100.698L100.389 43.2695H99.8379L101.117 39.7114H101.668L103.08 43.1139L102.396 43.2695Z" fill="#1D1D1B"/>
<path d="M106.057 40.134V41.068H107.071V41.6018H106.057V43.1807H105.527V39.6226H107.799V40.134H106.057Z" fill="#1D1D1B"/>
<path d="M108.727 43.1807V39.6226H110.998V40.134H109.256V41.0236H110.27V41.535H109.256V42.6692H111.086V43.1807H108.727Z" fill="#1D1D1B"/>
<path d="M113.642 40.1121H112.605V41.2685H113.642C113.721 41.2788 113.801 41.2712 113.876 41.2461C113.952 41.2211 114.02 41.1792 114.077 41.1237C114.135 41.0682 114.179 41.0004 114.206 40.9254C114.234 40.8504 114.245 40.77 114.237 40.6903C114.241 40.6116 114.228 40.533 114.199 40.4598C114.169 40.3866 114.125 40.3205 114.069 40.2658C114.013 40.2111 113.945 40.1691 113.872 40.1427C113.798 40.1162 113.72 40.1058 113.642 40.1121ZM113.995 41.7132L114.723 43.1809H114.105L113.399 41.78H112.605V43.1142H112.076V39.5562H113.642C113.789 39.5359 113.938 39.5489 114.079 39.5943C114.22 39.6398 114.349 39.7165 114.457 39.8189C114.565 39.9212 114.649 40.0466 114.702 40.1859C114.756 40.3251 114.778 40.4747 114.767 40.6236C114.787 40.8603 114.719 41.0962 114.577 41.2853C114.434 41.4744 114.227 41.6032 113.995 41.6465" fill="#1D1D1B"/>
<path d="M117.393 40.1117H116.312V41.2681H117.348C117.428 41.2779 117.509 41.27 117.585 41.2451C117.662 41.2201 117.732 41.1787 117.79 41.1236C117.849 41.0686 117.895 41.0012 117.926 40.9263C117.956 40.8514 117.97 40.7707 117.966 40.6899C117.966 40.6101 117.95 40.5311 117.918 40.4579C117.887 40.3847 117.841 40.3188 117.783 40.2645C117.725 40.2102 117.656 40.1686 117.581 40.1423C117.507 40.116 117.427 40.1056 117.348 40.1117H117.393ZM117.701 41.7128L118.517 43.1138H117.922L117.216 41.7128H116.312V43.1138H115.805V39.5558H117.348C117.496 39.536 117.646 39.5492 117.788 39.5946C117.93 39.6399 118.061 39.7163 118.17 39.8181C118.28 39.92 118.366 40.045 118.422 40.1841C118.478 40.3233 118.503 40.4732 118.495 40.6232C118.51 40.8621 118.437 41.0981 118.291 41.2867C118.145 41.4752 117.935 41.603 117.701 41.6461" fill="#1D1D1B"/>
<path d="M119.598 43.1807V39.6226H121.891V40.134H120.127V41.0236H121.164V41.535H120.127V42.6692H121.957V43.1807H119.598Z" fill="#1D1D1B"/>
<path d="M124.405 41.7796V43.114H123.876V41.7796L122.619 39.5557H123.237L123.788 40.5342C123.898 40.7566 124.097 41.1124 124.141 41.2459C124.185 41.3793 124.383 40.7566 124.516 40.5342L125.067 39.5557H125.685L124.405 41.7796Z" fill="#1D1D1B"/>
<path d="M127.648 43.2475C126.744 43.2475 126.148 42.4692 126.148 41.4018C126.148 40.3344 126.744 39.5561 127.648 39.5561C127.892 39.5412 128.135 39.5959 128.35 39.7139C128.564 39.8319 128.741 40.0084 128.861 40.2232L128.376 40.5123C128.31 40.3767 128.206 40.264 128.076 40.1887C127.946 40.1134 127.797 40.0789 127.648 40.0898C127.031 40.0898 126.7 40.6013 126.7 41.4018C126.7 42.2024 127.031 42.6916 127.648 42.6916C127.806 42.7017 127.964 42.6676 128.104 42.5931C128.244 42.5185 128.361 42.4064 128.442 42.2691L128.861 42.5582C128.744 42.7771 128.568 42.9582 128.354 43.0802C128.139 43.2023 127.894 43.2603 127.648 43.2475Z" fill="#1D1D1B"/>
<path d="M131.109 40.0894C130.492 40.0894 130.139 40.6009 130.139 41.4015C130.139 42.2021 130.492 42.6913 131.109 42.6913C131.727 42.6913 132.057 42.2021 132.057 41.4015C132.057 40.6009 131.727 40.0894 131.109 40.0894ZM131.109 43.2473C130.183 43.2473 129.609 42.469 129.609 41.4015C129.609 40.334 130.183 39.5557 131.109 39.5557C132.035 39.5557 132.609 40.3118 132.609 41.4015C132.609 42.4912 132.013 43.2473 131.109 43.2473Z" fill="#1D1D1B"/>
<path d="M135.168 40.1119H134.131V41.2683H135.168C135.246 41.2786 135.327 41.271 135.402 41.2459C135.477 41.2209 135.546 41.179 135.603 41.1235C135.66 41.068 135.705 41.0002 135.732 40.9252C135.76 40.8502 135.771 40.7698 135.763 40.6901C135.767 40.6114 135.753 40.5328 135.724 40.4596C135.695 40.3864 135.651 40.3203 135.595 40.2656C135.539 40.2109 135.471 40.1689 135.398 40.1425C135.324 40.116 135.246 40.1056 135.168 40.1119ZM135.521 41.713L136.16 43.114H135.543L134.837 41.713H134.043V43.114H133.514V39.556H135.08C135.226 39.5397 135.373 39.5556 135.513 39.6025C135.652 39.6495 135.779 39.7263 135.886 39.8278C135.993 39.9293 136.077 40.053 136.132 40.1904C136.187 40.3278 136.212 40.4755 136.204 40.6234C136.225 40.8601 136.157 41.096 136.014 41.2851C135.872 41.4743 135.664 41.603 135.432 41.6463" fill="#1D1D1B"/>
<path d="M138.828 40.1117H137.88V41.3349H138.828C138.91 41.3452 138.992 41.3369 139.071 41.3107C139.149 41.2845 139.22 41.241 139.279 41.1834C139.338 41.1258 139.384 41.0556 139.413 40.9779C139.441 40.9003 139.453 40.8171 139.446 40.7344C139.452 40.651 139.441 40.567 139.412 40.4884C139.383 40.4098 139.338 40.3384 139.279 40.2792C139.221 40.22 139.15 40.1744 139.072 40.1454C138.994 40.1165 138.911 40.105 138.828 40.1117ZM138.828 41.8464H137.902V43.114H137.395V39.5558H138.872C139.021 39.5426 139.171 39.5621 139.312 39.613C139.453 39.6639 139.581 39.745 139.688 39.8506C139.795 39.9563 139.878 40.084 139.931 40.2251C139.985 40.3661 140.007 40.5171 139.997 40.6677C140.004 40.8215 139.978 40.9749 139.921 41.1177C139.864 41.2604 139.777 41.389 139.666 41.4946C139.555 41.6002 139.423 41.6804 139.278 41.7296C139.133 41.7788 138.98 41.7959 138.828 41.7797" fill="#1D1D1B"/>
</svg>
