<svg width="100" height="101" viewBox="0 0 100 101" fill="none" xmlns="http://www.w3.org/2000/svg">
<g clip-path="url(#clip0)">
<path d="M50 100.954C77.6142 100.954 100 78.5683 100 50.9541C100 23.3399 77.6142 0.954102 50 0.954102C22.3858 0.954102 0 23.3399 0 50.9541C0 78.5683 22.3858 100.954 50 100.954Z" fill="#E93E11"/>
<path d="M22.377 33.0126V66.3915H77.6238V33.0126C77.6238 32.4753 77.4104 31.9601 77.0305 31.5802C76.6506 31.2002 76.1353 30.9868 75.598 30.9868H24.4027C23.8655 30.9868 23.3502 31.2002 22.9703 31.5802C22.5904 31.9601 22.377 32.4753 22.377 33.0126Z" fill="#575B6D"/>
<path d="M25.0898 33.7002H74.9086V63.6783H25.0898V33.7002Z" fill="#28B7CD"/>
<path d="M80.4945 66.3916H19.2047C18.5219 66.3916 17.9688 67.133 17.9688 68.0478V69.001H81.7312V68.0478C81.7312 67.133 81.1773 66.3916 80.4945 66.3916Z" fill="#DBD8DD"/>
<path d="M24.7383 70.9213C22.3497 70.9047 20.0103 70.2411 17.9688 69.001H81.7312C79.6895 70.2403 77.3501 70.9031 74.9617 70.9189L24.7383 70.9213Z" fill="#DBD8DD"/>
<path d="M19.5062 66.3916H80.7961C81.4789 66.3916 82.032 67.133 82.032 68.0478V69.001H18.2695V68.0478C18.2695 67.133 18.8234 66.3916 19.5062 66.3916Z" fill="#EEEFEE"/>
<path d="M54.7465 46.6353C55.2526 46.6353 55.6629 46.1263 55.6629 45.4985C55.6629 44.8707 55.2526 44.3618 54.7465 44.3618C54.2404 44.3618 53.8301 44.8707 53.8301 45.4985C53.8301 46.1263 54.2404 46.6353 54.7465 46.6353Z" fill="#F4BB87"/>
<path d="M45.3441 44.3616C45.1089 44.3109 44.8638 44.3343 44.6424 44.4287C44.4211 44.5231 44.2345 44.6839 44.1083 44.8887C43.9821 45.0936 43.9226 45.3326 43.9379 45.5728C43.9532 45.8129 44.0426 46.0424 44.1938 46.2296C44.345 46.4168 44.5505 46.5525 44.782 46.618C45.0136 46.6836 45.2597 46.6757 45.4866 46.5955C45.7135 46.5153 45.9099 46.3667 46.0488 46.1702C46.1877 45.9737 46.2622 45.739 46.2621 45.4983C46.2885 45.2264 46.2071 44.9549 46.0354 44.7424C45.8638 44.5298 45.6155 44.3931 45.3441 44.3616Z" fill="#F4BB87"/>
<path d="M60.5676 55.2796C60.4536 54.676 60.1723 54.1167 59.7556 53.6654C59.339 53.2141 58.8039 52.889 58.2113 52.7272C56.2653 52.0579 54.364 51.2649 52.5191 50.353C51.7648 50.8285 50.8913 51.0808 49.9996 51.0808C49.1079 51.0808 48.2344 50.8285 47.4801 50.353C45.6352 51.2649 43.7339 52.0579 41.7879 52.7272C41.1954 52.889 40.6602 53.2141 40.2436 53.6654C39.827 54.1167 39.5456 54.676 39.4316 55.2796V59.385H60.5676V55.2796Z" fill="#62667C"/>
<path d="M50.9379 59.3854C52.0884 57.2002 52.9195 54.8612 53.4059 52.44L50.0004 52.0322L46.5918 52.44C47.0788 54.8612 47.9101 57.2001 49.0605 59.3854H50.9379Z" fill="#DBD8DD"/>
<path d="M52.5195 49.5073V50.3534L50 52.0323L47.4805 50.3534V49.5073H52.5195Z" fill="#F4BB87"/>
<path d="M54.7415 44.3618C54.7962 46.993 53.8173 49.4532 51.0743 50.2571C50.4047 50.4509 49.6939 50.4509 49.0243 50.2571C46.2814 49.4532 45.29 46.993 45.3447 44.3618C45.3447 44.3618 44.6361 39.1118 47.629 39.0134C50.622 38.9149 54.6462 40.8759 54.6462 40.8759C54.9276 42.0175 54.9601 43.2064 54.7415 44.3618Z" fill="#FED19A"/>
<path d="M48.6699 52.0415L49.5207 53.3806H50.4777L51.3285 52.0415H48.6699Z" fill="#DA364C"/>
<path d="M50.5336 59.3851L51.2367 58.5944L50.4797 53.3804H49.5219L48.7656 58.5944L49.4688 59.3851H50.5336Z" fill="#EF5261"/>
<path d="M47.4809 50.353L50.0004 52.0319L47.3418 53.7108L47.4809 50.353Z" fill="#EEEFEE"/>
<path d="M52.5195 50.353L50 52.0319L52.6586 53.7108L52.5195 50.353Z" fill="#EEEFEE"/>
<path d="M45.1367 53.3827L46.4648 53.2429L46.0414 54.7874C46.8119 56.395 47.7194 57.9332 48.7539 59.385H50.0008C48.7727 56.2335 47.3992 53.1999 47.4813 50.353C46.4444 51.1366 45.6351 52.1824 45.1367 53.3827Z" fill="#575B6D"/>
<path d="M54.8641 53.3827L53.5359 53.2429L53.9594 54.7874C53.1889 56.395 52.2814 57.9332 51.2469 59.385H50C51.2281 56.2335 52.6016 53.1999 52.5195 50.353C53.5564 51.1366 54.3657 52.1824 54.8641 53.3827Z" fill="#575B6D"/>
<path d="M55.6463 40.9976C55.5049 39.839 54.897 38.9038 53.4697 38.9663C53.4697 38.9663 53.3439 37.1694 50.0853 37.1694C48.9078 37.1868 47.7591 37.5361 46.7713 38.1772L46.7431 38.1952C45.8897 38.823 45.2621 39.71 44.9542 40.7238C44.6462 41.7376 44.6744 42.8238 45.0345 43.8202C45.1134 44.0141 45.2186 44.1963 45.347 44.3616L45.5353 43.471C45.6122 43.1389 45.7684 42.8304 45.9906 42.5719C46.2128 42.3134 46.4943 42.1125 46.8111 41.9866C47.922 41.5296 48.7408 40.6585 49.7509 41.0163C50.2069 41.181 50.6908 41.2546 51.1752 41.2327C51.7182 41.1549 52.272 41.2148 52.7858 41.4069C53.2996 41.599 53.7569 41.9171 54.1158 42.3319C54.5401 42.9232 54.7623 43.6356 54.7494 44.3632L55.0908 43.7054C55.5439 42.8791 55.7375 41.9355 55.6463 40.9976Z" fill="#414451"/>
</g>
<defs>
<clipPath id="clip0">
<rect width="100" height="100" fill="white" transform="translate(0 0.954102)"/>
</clipPath>
</defs>
</svg>
