<svg width="100" height="101" viewBox="0 0 100 101" fill="none" xmlns="http://www.w3.org/2000/svg">
<g clip-path="url(#clip0)">
<path d="M50 100.954C77.6142 100.954 100 78.5683 100 50.9541C100 23.3399 77.6142 0.954102 50 0.954102C22.3858 0.954102 0 23.3399 0 50.9541C0 78.5683 22.3858 100.954 50 100.954Z" fill="#69B0EE"/>
<path d="M80.9094 51.3157C81.3019 50.9235 81.6045 50.4507 81.7962 49.93C81.9879 49.4093 82.0641 48.8531 82.0195 48.3001C81.9129 47.3082 81.4384 46.3922 80.6897 45.7329C79.941 45.0736 78.9724 44.7187 77.975 44.7383H58.1922C61.7352 42.693 65.3695 37.1602 66.3031 30.9836C66.3749 30.4257 66.3329 29.8589 66.1794 29.3177C66.026 28.7764 65.7644 28.2719 65.4104 27.8346C65.0565 27.3973 64.6175 27.0364 64.1201 26.7736C63.6227 26.5107 63.0771 26.3515 62.5164 26.3055L62.3008 26.286C61.3631 26.2067 60.4259 26.4438 59.6388 26.9596C58.8518 27.4753 58.2602 28.2399 57.9586 29.1313C55.8367 32.9688 53.2336 36.1508 49.6773 38.0305C47.0618 39.3692 44.654 41.0796 42.5289 43.1086C39.657 45.9211 35.5945 49.3391 32.4961 49.8508V73.0469C34.8008 73.4477 37.3398 74.0024 39.3234 74.4618C41.7097 75.0149 44.1497 75.3031 46.5992 75.3211L69.3336 75.5297C70.3545 75.5297 71.3335 75.1242 72.0554 74.4023C72.7773 73.6805 73.1828 72.7014 73.1828 71.6805C73.1828 70.6596 72.7773 69.6806 72.0554 68.9587C71.3335 68.2368 70.3545 67.8313 69.3336 67.8313H72.2922C72.7971 67.8336 73.2975 67.7357 73.7643 67.5432C74.2311 67.3508 74.6551 67.0677 75.0117 66.7102C75.5474 66.1705 75.9117 65.4846 76.0589 64.7386C76.2062 63.9925 76.1297 63.2196 75.8392 62.5169C75.5487 61.8142 75.057 61.2129 74.426 60.7886C73.7949 60.3644 73.0526 60.1359 72.2922 60.1321H75.2336C76.2559 60.1276 77.2364 59.7259 77.968 59.0118C78.5049 58.4713 78.8699 57.784 79.0168 57.0365C79.1637 56.2889 79.0861 55.5146 78.7937 54.8112C78.5013 54.1077 78.0071 53.5065 77.3736 53.0834C76.7401 52.6603 75.9954 52.4342 75.2336 52.4336H78.1914C78.6959 52.4363 79.1958 52.3388 79.6624 52.1469C80.1289 51.955 80.5528 51.6725 80.9094 51.3157Z" fill="#FED19A"/>
<path d="M30.6891 47.8188H19.775C18.7774 47.8188 17.9688 48.6275 17.9688 49.6251V73.8345C17.9688 74.832 18.7774 75.6407 19.775 75.6407H30.6891C31.6866 75.6407 32.4953 74.832 32.4953 73.8345V49.6251C32.4953 48.6275 31.6866 47.8188 30.6891 47.8188Z" fill="#575B6D"/>
<path d="M25.2348 67.6836C24.7985 67.6836 24.3721 67.813 24.0094 68.0553C23.6467 68.2977 23.364 68.6422 23.1971 69.0452C23.0302 69.4483 22.9866 69.8918 23.0717 70.3196C23.1569 70.7475 23.367 71.1404 23.6755 71.4488C23.9841 71.7572 24.3771 71.9672 24.805 72.0522C25.2328 72.1373 25.6763 72.0935 26.0793 71.9264C26.4823 71.7594 26.8267 71.4766 27.0689 71.1138C27.3112 70.751 27.4404 70.3245 27.4402 69.8883C27.44 69.3035 27.2076 68.7427 26.794 68.3293C26.3804 67.9158 25.8196 67.6836 25.2348 67.6836Z" fill="#DBD8DD"/>
</g>
<defs>
<clipPath id="clip0">
<rect width="100" height="100" fill="white" transform="translate(0 0.954102)"/>
</clipPath>
</defs>
</svg>
