<svg width="100" height="101" viewBox="0 0 100 101" fill="none" xmlns="http://www.w3.org/2000/svg">
<g clip-path="url(#clip0)">
<path d="M50 100.954C77.6142 100.954 100 78.5683 100 50.9541C100 23.3399 77.6142 0.954102 50 0.954102C22.3858 0.954102 0 23.3399 0 50.9541C0 78.5683 22.3858 100.954 50 100.954Z" fill="#28B7CD"/>
<path d="M82.0312 44.2003V79.9964H17.9828L40.8266 61.9581L17.9688 44.2003L50 16.187L82.0312 44.2003Z" fill="#E38D06"/>
<path d="M24.1465 22.8042H75.5019V65.2878H24.1465V22.8042Z" fill="#EEEFEE"/>
<path d="M28.4844 55.7358H71.1648V56.9022H28.4844V55.7358Z" fill="#9B9B9B"/>
<path d="M45.6426 26.5552H71.1645V27.7216H45.6426V26.5552Z" fill="#9B9B9B"/>
<path d="M45.6426 32.3911H71.1645V33.5575H45.6426V32.3911Z" fill="#9B9B9B"/>
<path d="M45.6426 38.2271H71.1645V39.3935H45.6426V38.2271Z" fill="#9B9B9B"/>
<path d="M28.4844 44.063H71.1648V45.2294H28.4844V44.063Z" fill="#9B9B9B"/>
<path d="M28.4844 49.8989H71.1648V51.0653H28.4844V49.8989Z" fill="#9B9B9B"/>
<path d="M59.1738 61.958L82.0176 79.9963H82.0316V44.2002L59.1738 61.958Z" fill="#FF9E06"/>
<path d="M40.8266 61.958L17.9828 79.9963H17.9688V44.2002L40.8266 61.958Z" fill="#FF9E06"/>
<path d="M82.0168 79.9963H17.9824L40.8254 61.958H59.1738L82.0168 79.9963Z" fill="#E38D06"/>
<path d="M35.1711 33.5067C37.0907 33.5067 38.6469 31.9506 38.6469 30.031C38.6469 28.1113 37.0907 26.5552 35.1711 26.5552C33.2515 26.5552 31.6953 28.1113 31.6953 30.031C31.6953 31.9506 33.2515 33.5067 35.1711 33.5067Z" fill="#9B9B9B"/>
<path d="M41.7184 39.3919H28.6348C28.6348 37.6574 29.3238 35.994 30.5502 34.7675C31.7767 33.5411 33.4401 32.8521 35.1746 32.8521C36.9091 32.8521 38.5725 33.5411 39.799 34.7675C41.0254 35.994 41.7145 37.6574 41.7145 39.3919H41.7184Z" fill="#9B9B9B"/>
</g>
<defs>
<clipPath id="clip0">
<rect width="100" height="100" fill="white" transform="translate(0 0.954102)"/>
</clipPath>
</defs>
</svg>
