<svg width="100" height="101" viewBox="0 0 100 101" fill="none" xmlns="http://www.w3.org/2000/svg">
<g clip-path="url(#clip0)">
<path d="M50 100.954C77.6142 100.954 100 78.5683 100 50.9541C100 23.3399 77.6142 0.954102 50 0.954102C22.3858 0.954102 0 23.3399 0 50.9541C0 78.5683 22.3858 100.954 50 100.954Z" fill="#3B5059"/>
<path d="M49.9996 78.9401C44.4645 78.9401 39.0537 77.2988 34.4515 74.2237C29.8492 71.1485 26.2622 66.7777 24.144 61.664C22.0258 56.5502 21.4716 50.9232 22.5514 45.4944C23.6313 40.0657 26.2967 35.0791 30.2106 31.1652C34.1245 27.2513 39.1111 24.5859 44.5398 23.506C49.9686 22.4262 55.5956 22.9804 60.7094 25.0986C65.8231 27.2168 70.1939 30.8038 73.2691 35.4061C76.3442 40.0083 77.9856 45.4191 77.9856 50.9542C77.9771 58.3739 75.0258 65.4874 69.7793 70.7339C64.5328 75.9804 57.4194 78.9317 49.9996 78.9401ZM49.9996 25.6589C44.9976 25.6589 40.1079 27.1421 35.9489 29.921C31.7898 32.6999 28.5481 36.6496 26.6338 41.2708C24.7194 45.892 24.2183 50.977 25.1939 55.883C26.1695 60.7889 28.5778 65.2954 32.1145 68.8326C35.6512 72.3699 40.1573 74.779 45.0631 75.7553C49.9689 76.7316 55.0541 76.2313 59.6755 74.3176C64.297 72.404 68.2472 69.1629 71.0268 65.0043C73.8063 60.8457 75.2903 55.9562 75.291 50.9542C75.2836 44.2488 72.6166 37.8202 67.8751 33.0787C63.1337 28.3373 56.705 25.6703 49.9996 25.6628V25.6589Z" fill="#EEEFEE"/>
<path d="M23.6648 58.3682C27.4579 58.3682 30.5328 55.2934 30.5328 51.5003C30.5328 47.7072 27.4579 44.6323 23.6648 44.6323C19.8718 44.6323 16.7969 47.7072 16.7969 51.5003C16.7969 55.2934 19.8718 58.3682 23.6648 58.3682Z" fill="#EF5261"/>
<path d="M23.6645 56.1902C26.2546 56.1902 28.3543 54.0905 28.3543 51.5004C28.3543 48.9103 26.2546 46.8105 23.6645 46.8105C21.0743 46.8105 18.9746 48.9103 18.9746 51.5004C18.9746 54.0905 21.0743 56.1902 23.6645 56.1902Z" fill="#DA364C"/>
<path d="M76.3348 57.276C80.1278 57.276 83.2027 54.2011 83.2027 50.408C83.2027 46.6149 80.1278 43.54 76.3348 43.54C72.5417 43.54 69.4668 46.6149 69.4668 50.408C69.4668 54.2011 72.5417 57.276 76.3348 57.276Z" fill="#2CBFAE"/>
<path d="M76.3344 55.098C78.9245 55.098 81.0242 52.9982 81.0242 50.4081C81.0242 47.818 78.9245 45.7183 76.3344 45.7183C73.7442 45.7183 71.6445 47.818 71.6445 50.4081C71.6445 52.9982 73.7442 55.098 76.3344 55.098Z" fill="#16A897"/>
<path d="M50.5457 84.1573C54.3388 84.1573 57.4137 81.0824 57.4137 77.2894C57.4137 73.4963 54.3388 70.4214 50.5457 70.4214C46.7526 70.4214 43.6777 73.4963 43.6777 77.2894C43.6777 81.0824 46.7526 84.1573 50.5457 84.1573Z" fill="#F6C863"/>
<path d="M50.5453 81.9793C53.1354 81.9793 55.2352 79.8796 55.2352 77.2895C55.2352 74.6993 53.1354 72.5996 50.5453 72.5996C47.9552 72.5996 45.8555 74.6993 45.8555 77.2895C45.8555 79.8796 47.9552 81.9793 50.5453 81.9793Z" fill="#EAB54E"/>
<path d="M49.4539 31.4869C53.247 31.4869 56.3219 28.412 56.3219 24.6189C56.3219 20.8259 53.247 17.751 49.4539 17.751C45.6608 17.751 42.5859 20.8259 42.5859 24.6189C42.5859 28.412 45.6608 31.4869 49.4539 31.4869Z" fill="#69B0EE"/>
<path d="M49.4535 29.3089C52.0437 29.3089 54.1434 27.2092 54.1434 24.619C54.1434 22.0289 52.0437 19.9292 49.4535 19.9292C46.8634 19.9292 44.7637 22.0289 44.7637 24.619C44.7637 27.2092 46.8634 29.3089 49.4535 29.3089Z" fill="#419BE9"/>
<path d="M63.4336 60.3838V63.3135C63.4336 63.7279 63.269 64.1253 62.976 64.4183C62.6829 64.7114 62.2855 64.876 61.8711 64.876H38.1289C37.7145 64.876 37.3171 64.7114 37.0241 64.4183C36.731 64.1253 36.5664 63.7279 36.5664 63.3135V60.3838C36.5653 59.6184 36.7861 58.869 37.2021 58.2265C37.6181 57.584 38.2114 57.0758 38.9102 56.7635L46.3688 53.6768L53.6234 53.6814L61.0938 56.7635C61.7918 57.0764 62.3843 57.5848 62.7995 58.2273C63.2148 58.8698 63.435 59.6188 63.4336 60.3838Z" fill="#2CBFAE"/>
<path d="M46.3906 51.6572V54.6861C46.8453 55.2541 47.1008 55.5721 47.5555 55.7354H52.4844C52.9391 55.5721 53.1937 55.2541 53.6492 54.6861V51.6572H46.3906Z" fill="#F4BB87"/>
<path d="M48.1973 55.7363L49.3043 57.5738H50.6887L51.7949 55.7363H48.1973Z" fill="#DA364C"/>
<path d="M51.5219 63.7126L49.9938 64.8759L48.4648 63.7126L49.3031 57.5767H50.6844L51.5219 63.7126Z" fill="#EF5261"/>
<path d="M53.6203 53.6816C53.7972 54.445 53.7485 55.2434 53.4803 55.9797C53.2121 56.716 52.7358 57.3585 52.1094 57.8293L50.0195 55.7395L53.6203 53.6816Z" fill="#EEEFEE"/>
<path d="M46.3661 53.6768C46.1995 54.4454 46.2584 55.2458 46.5355 55.9818C46.8127 56.7178 47.2964 57.3582 47.9286 57.826L50.0185 55.7361L46.3661 53.6768Z" fill="#EEEFEE"/>
<path d="M56.3184 46.2822C56.6246 46.3233 56.9055 46.4741 57.1089 46.7067C57.3124 46.9392 57.4245 47.2377 57.4245 47.5467C57.4245 47.8557 57.3124 48.1541 57.1089 48.3867C56.9055 48.6192 56.6246 48.77 56.3184 48.8111H55.2129V46.2822H56.3184Z" fill="#F4BB87"/>
<path d="M43.8776 46.2822C43.5714 46.3233 43.2905 46.4741 43.087 46.7067C42.8836 46.9392 42.7715 47.2377 42.7715 47.5467C42.7715 47.8557 42.8836 48.1541 43.087 48.3867C43.2905 48.6192 43.5714 48.77 43.8776 48.8111H44.9831V46.2822H43.8776Z" fill="#F4BB87"/>
<path d="M43.877 48.5259C43.877 49.2699 44.0465 50.0042 44.3728 50.673C44.699 51.3417 45.1733 51.9273 45.7598 52.3853L47.0152 53.3657C47.876 54.038 48.9368 54.4031 50.0289 54.4031C51.121 54.4031 52.1818 54.038 53.0426 53.3657L54.2965 52.3853C54.8829 51.9273 55.3572 51.3417 55.6835 50.673C56.0097 50.0042 56.1793 49.2699 56.1793 48.5259V41.4165H43.877V48.5259Z" fill="#FED19A"/>
<path d="M45.5527 42.4468C45.3003 43.847 44.7267 45.1697 43.877 46.3109C43.0723 45.5624 42.6871 40.4226 45.5113 38.5671C47.8059 36.8624 52.0082 36.0085 54.4473 39.0945C57.0254 40.4343 57.1231 43.439 56.1817 46.282L55.2629 45.3046L55.2481 45.2827C53.5304 44.5865 51.7454 44.0694 49.9215 43.7398C48.4083 43.532 46.9353 43.0961 45.5527 42.4468Z" fill="#62667C"/>
</g>
<defs>
<clipPath id="clip0">
<rect width="100" height="100" fill="white" transform="translate(0 0.954102)"/>
</clipPath>
</defs>
</svg>
