<svg width="100" height="101" viewBox="0 0 100 101" fill="none" xmlns="http://www.w3.org/2000/svg">
<g clip-path="url(#clip0)">
<path d="M50 100.915C77.6142 100.915 100 78.3427 100 50.4985C100 22.6542 77.6142 0.0820312 50 0.0820312C22.3858 0.0820312 0 22.6542 0 50.4985C0 78.3427 22.3858 100.915 50 100.915Z" fill="#F6C863"/>
<path d="M36.057 63.0127H37.4219C37.6291 63.0127 37.8278 63.0957 37.9743 63.2435C38.1208 63.3912 38.2031 63.5916 38.2031 63.8005V66.8058C38.2031 67.0147 38.1208 67.2151 37.9743 67.3628C37.8278 67.5105 37.6291 67.5935 37.4219 67.5935H36.0547V63.0088L36.057 63.0127Z" fill="#DA364C"/>
<path d="M36.3496 56.9766V78.3713C36.3497 78.7793 36.2701 79.1834 36.1153 79.5605C35.9605 79.9375 35.7335 80.2801 35.4474 80.5687C35.1613 80.8573 34.8216 81.0862 34.4477 81.2424C34.0738 81.3986 33.6731 81.479 33.2684 81.479H30.509C30.1043 81.479 29.7035 81.3986 29.3297 81.2424C28.9558 81.0862 28.6161 80.8573 28.3299 80.5687C28.0438 80.2801 27.8169 79.9375 27.6621 79.5605C27.5073 79.1834 27.4276 78.7793 27.4277 78.3713V56.9766H36.3496Z" fill="#EF5261"/>
<path d="M76.0953 21.8472V66.1916C76.0976 66.4991 76.0396 66.8041 75.9244 67.0888C75.8093 67.3736 75.6394 67.6325 75.4244 67.8507C75.2095 68.0689 74.9539 68.242 74.6722 68.36C74.3906 68.478 74.0886 68.5386 73.7836 68.5383H73.7625C73.4576 68.5382 73.1557 68.4772 72.8742 68.3589C72.5927 68.2406 72.3373 68.0672 72.1226 67.8488C71.9079 67.6304 71.7382 67.3714 71.6233 67.0865C71.5085 66.8017 71.4506 66.4967 71.4532 66.1892V21.8472C71.4528 21.5413 71.5122 21.2383 71.6282 20.9556C71.7441 20.6729 71.9141 20.416 72.1287 20.1997C72.3432 19.9834 72.5979 19.8119 72.8783 19.695C73.1587 19.5781 73.4591 19.5181 73.7625 19.5186H73.7836C74.0872 19.5177 74.388 19.5774 74.6687 19.6941C74.9494 19.8108 75.2044 19.9822 75.4192 20.1986C75.634 20.415 75.8043 20.672 75.9203 20.9549C76.0363 21.2378 76.0958 21.541 76.0953 21.8472Z" fill="#EF5261"/>
<path d="M82.0312 44.0354C82.0312 45.6232 81.4057 47.146 80.2922 48.2688C79.1787 49.3915 77.6685 50.0223 76.0938 50.0223V38.0405C77.6685 38.0449 79.1774 38.6782 80.2902 39.8017C81.4029 40.9252 82.029 42.4475 82.0312 44.0354Z" fill="#EEEFEE"/>
<path d="M80.9766 41.6823C80.9743 43.0841 80.4844 44.4406 79.5921 45.5155C78.6998 46.5904 77.4618 47.3156 76.0938 47.5645V38.0405C77.0173 38.0395 77.9282 38.2569 78.7533 38.6753C79.5783 39.0937 80.2946 39.7014 80.8445 40.4495C80.9312 40.8547 80.9755 41.2679 80.9766 41.6823Z" fill="#EEEFEE"/>
<path d="M71.452 21.9912C71.3199 22.0464 62.9473 31.3434 39.1504 30.1334V57.9278C62.9473 55.3833 71.3199 66.018 71.452 66.07" fill="#EEEFEE"/>
<path d="M39.1406 30.1421V57.9143H26.2156C24.0284 57.9143 21.9308 57.0382 20.3842 55.4788C18.8376 53.9193 17.9688 51.8042 17.9688 49.5988V38.4584C17.9686 37.3663 18.1819 36.2849 18.5963 35.2759C19.0107 34.267 19.6181 33.3502 20.3839 32.5779C21.1497 31.8057 22.0589 31.1931 23.0595 30.7751C24.0601 30.3572 25.1326 30.1421 26.2156 30.1421H39.1406Z" fill="#EF5261"/>
<path d="M27.4277 57.9141H36.3504V60.8083H27.4277V57.9141Z" fill="#DA364C"/>
</g>
<defs>
<clipPath id="clip0">
<rect width="100" height="100.833" fill="white" transform="translate(0 0.0820312)"/>
</clipPath>
</defs>
</svg>
