<svg width="100" height="100" viewBox="0 0 100 100" fill="none" xmlns="http://www.w3.org/2000/svg">
<path d="M50 100C77.6142 100 100 77.6142 100 50C100 22.3858 77.6142 0 50 0C22.3858 0 0 22.3858 0 50C0 77.6142 22.3858 100 50 100Z" fill="#9DC31F"/>
<path d="M59.5754 73.5332L57.3551 65.7012H42.6441L40.4238 73.5332H59.5754Z" fill="#414451"/>
<path d="M65.7277 75.6974C65.6277 73.588 65.0074 72.9341 64.2246 72.9341H35.7738C34.9926 72.9341 34.3715 73.5849 34.2715 75.6974H65.7277Z" fill="#575B6D"/>
<path d="M79.6336 24.3022H20.3664C19.0422 24.3022 17.9688 25.3757 17.9688 26.6999V64.7007C17.9688 66.0249 19.0422 67.0983 20.3664 67.0983H79.6336C80.9578 67.0983 82.0312 66.0249 82.0312 64.7007V26.6999C82.0312 25.3757 80.9578 24.3022 79.6336 24.3022Z" fill="#575B6D"/>
<path d="M78.5816 26.5649H21.4199C20.9884 26.5649 20.6387 26.9147 20.6387 27.3462V58.972C20.6387 59.4034 20.9884 59.7532 21.4199 59.7532H78.5816C79.0131 59.7532 79.3629 59.4034 79.3629 58.972V27.3462C79.3629 26.9147 79.0131 26.5649 78.5816 26.5649Z" fill="#69B0EE"/>
<path d="M49.9992 62.1943C49.7089 62.1943 49.425 62.2804 49.1836 62.4418C48.9422 62.6031 48.754 62.8324 48.6429 63.1007C48.5318 63.369 48.5028 63.6642 48.5595 63.949C48.6162 64.2337 48.7561 64.4953 48.9615 64.7006C49.1669 64.9058 49.4285 65.0456 49.7133 65.1021C49.9981 65.1587 50.2933 65.1295 50.5615 65.0183C50.8298 64.9071 51.059 64.7188 51.2202 64.4773C51.3814 64.2358 51.4674 63.9519 51.4672 63.6615C51.467 63.2723 51.3122 62.8991 51.037 62.624C50.7617 62.3489 50.3884 62.1943 49.9992 62.1943Z" fill="#828A9E"/>
<path d="M36.2383 34.481V54.6044C36.2383 54.7038 36.2579 54.8022 36.2959 54.894C36.334 54.9858 36.3897 55.0692 36.4601 55.1394C36.5304 55.2097 36.6138 55.2653 36.7057 55.3033C36.7975 55.3413 36.8959 55.3607 36.9953 55.3606H63.0273C63.2279 55.3606 63.4203 55.281 63.5621 55.1391C63.7039 54.9973 63.7836 54.805 63.7836 54.6044V34.481H36.2383Z" fill="#EEEFEE"/>
<path d="M63.0051 30.957H36.973C36.8737 30.957 36.7753 30.9766 36.6835 31.0147C36.5917 31.0527 36.5083 31.1085 36.438 31.1788C36.3678 31.2491 36.3121 31.3326 36.2741 31.4244C36.2362 31.5163 36.2167 31.6147 36.2168 31.7141V37.1469H63.7621V31.7141C63.7621 31.5133 63.6824 31.3207 63.5404 31.1788C63.3984 31.0368 63.2059 30.957 63.0051 30.957Z" fill="#62667C"/>
<path d="M60.8219 34.8703C61.2736 34.8703 61.6398 34.5041 61.6398 34.0523C61.6398 33.6006 61.2736 33.2344 60.8219 33.2344C60.3701 33.2344 60.0039 33.6006 60.0039 34.0523C60.0039 34.5041 60.3701 34.8703 60.8219 34.8703Z" fill="#EF5261"/>
<path d="M53.9215 34.8703C54.3732 34.8703 54.7395 34.5041 54.7395 34.0523C54.7395 33.6006 54.3732 33.2344 53.9215 33.2344C53.4697 33.2344 53.1035 33.6006 53.1035 34.0523C53.1035 34.5041 53.4697 34.8703 53.9215 34.8703Z" fill="#F6C863"/>
<path d="M57.3727 34.8703C57.8244 34.8703 58.1906 34.5041 58.1906 34.0523C58.1906 33.6006 57.8244 33.2344 57.3727 33.2344C56.9209 33.2344 56.5547 33.6006 56.5547 34.0523C56.5547 34.5041 56.9209 34.8703 57.3727 34.8703Z" fill="#2CBFAE"/>
<path d="M50.6406 33.4628H39.1211C39.0419 33.4599 38.9629 33.473 38.8888 33.5013C38.8148 33.5297 38.7472 33.5726 38.6902 33.6276C38.6331 33.6827 38.5877 33.7486 38.5567 33.8216C38.5257 33.8945 38.5098 33.973 38.5098 34.0522C38.5098 34.1315 38.5257 34.21 38.5567 34.2829C38.5877 34.3559 38.6331 34.4218 38.6902 34.4769C38.7472 34.5319 38.8148 34.5748 38.8888 34.6032C38.9629 34.6315 39.0419 34.6446 39.1211 34.6417H50.6406C50.7198 34.6446 50.7988 34.6315 50.8728 34.6032C50.9469 34.5748 51.0144 34.5319 51.0715 34.4769C51.1286 34.4218 51.1739 34.3559 51.2049 34.2829C51.2359 34.21 51.2519 34.1315 51.2519 34.0522C51.2519 33.973 51.2359 33.8945 51.2049 33.8216C51.1739 33.7486 51.1286 33.6827 51.0715 33.6276C51.0144 33.5726 50.9469 33.5297 50.8728 33.5013C50.7988 33.473 50.7198 33.4599 50.6406 33.4628Z" fill="#EEEFEE"/>
<path d="M39.0977 39.8662H44.1891V44.9576H39.0977V39.8662Z" fill="#DBD8DD"/>
<path d="M46.7188 39.8662H60.9024V44.9576H46.7188V39.8662Z" fill="#DBD8DD"/>
<path d="M39.0977 47.207H60.9016V52.6422H39.0977V47.207Z" fill="#DBD8DD"/>
</svg>
