<svg width="140" height="40" viewBox="0 0 140 40" fill="none" xmlns="http://www.w3.org/2000/svg">
<path d="M108.018 0.0786133H0V32.2598H108.018V0.0786133Z" fill="#E30613"/>
<path d="M139.998 0.0786133H108.039V32.2598H139.998V0.0786133Z" fill="#1D1D1B"/>
<path d="M130.854 9.12207H121.929V14.7907H117.16V18.4743H121.929V23.2166H125.91V18.4743H130.854V14.7907H125.91V12.8277H130.854V9.12207Z" fill="#DADADA"/>
<path d="M19.7316 11.1953H17.041L20.3441 23.2825H23.0347L19.7316 11.1953Z" fill="white"/>
<path d="M53.307 11.2617H44.8633L44.0977 13.4012H47.4445V23.2827H49.9601V13.4012H52.5195L53.307 11.2617Z" fill="white"/>
<path d="M40.5335 15.717C40.5335 13.9745 40.1835 13.2466 38.1929 13.2466H37.996C36.0054 13.2466 35.6554 13.9745 35.6554 15.717V18.8492C35.6554 20.5697 36.0054 21.2976 37.996 21.2976H38.1929C40.1835 21.2976 40.5335 20.5697 40.5335 18.8492V15.717ZM37.996 23.4592C34.693 23.4592 33.0742 22.3122 33.0742 18.8492V15.717C33.0742 12.2099 34.6492 11.085 37.996 11.085H38.1929C41.5179 11.085 43.1147 12.2099 43.1147 15.717V18.8492C43.1147 22.3122 41.5179 23.4592 38.1929 23.4592H37.996Z" fill="white"/>
<path d="M61.2055 15.717C61.2055 13.9745 60.8554 13.2466 58.8648 13.2466H58.668C56.6773 13.2466 56.3273 13.9745 56.3273 15.717V18.8492C56.3273 20.5697 56.6773 21.2976 58.668 21.2976H58.8648C60.8554 21.2976 61.2055 20.5697 61.2055 18.8492V15.717ZM58.668 23.4592C55.3648 23.4592 53.7461 22.3122 53.7461 18.8492V15.717C53.7461 12.2099 55.3211 11.085 58.668 11.085H58.8648C62.1898 11.085 63.7867 12.2099 63.7867 15.717V18.8492C63.7867 22.3122 62.1898 23.4592 58.8648 23.4592H58.668Z" fill="white"/>
<path d="M70.3476 16.8862C71.9007 16.8862 72.2289 16.5554 72.2289 15.1437C72.2289 13.7321 71.9007 13.4012 70.3476 13.4012H68.4226V16.8862H70.3476ZM65.9727 23.2827V11.2617H70.3476C73.3663 11.2617 74.832 11.9455 74.832 15.1437C74.832 17.3494 74.1539 18.342 72.6445 18.7611L74.832 23.1724H72.1414L70.1945 18.9155H68.3351V23.1724L65.9727 23.2827Z" fill="white"/>
<path d="M76.8672 23.2827V11.2617H84.8516V13.4012H79.3828V16.026H83.9984V18.1655H79.3828V21.1432H84.8516V23.2827H76.8672Z" fill="white"/>
<path d="M93.8644 15.7613C93.8644 14.1732 93.5581 13.4012 91.3925 13.4012H89.4894V21.1432H91.3488C93.5363 21.1432 93.8206 20.3712 93.8206 18.7831L93.8644 15.7613ZM87.0176 23.2827V11.2617H91.8082C95.9206 11.2617 96.4456 12.7616 96.4456 15.6731V18.6949C96.4456 22.0696 95.6144 23.1063 91.8082 23.1063L87.0176 23.2827Z" fill="white"/>
<path d="M28.4582 11.1953H25.7676L29.0707 23.2825H31.7613L28.4582 11.1953Z" fill="white"/>
<path d="M25.4625 9.12207L20.3438 23.2827H24.1062L29.2031 9.12207H25.4625Z" fill="white"/>
<path d="M16.732 9.12207L11.6133 23.2827H15.3758L20.4726 9.12207H16.732Z" fill="white"/>
<path d="M73.1054 39.45C72.3179 39.45 71.9023 38.9427 71.9023 38.0384V36.1416H72.3836V38.0163C72.3836 38.6339 72.6242 38.9647 73.1273 38.9647C73.6304 38.9647 73.871 38.6559 73.871 38.0604V36.1416H74.3523V38.0384C74.3523 38.9647 73.9148 39.45 73.1054 39.45Z" fill="#1D1D1B"/>
<path d="M77.393 39.3403L76.1024 37.289L75.8617 36.892V39.3403H75.4023V36.1641H75.8836L77.1086 38.1272L77.3711 38.5904V36.1641H77.8524V39.3403H77.393Z" fill="#1D1D1B"/>
<path d="M80.3675 37.4432C80.2672 37.2003 80.1867 36.9495 80.1269 36.6934C80.1269 36.8477 79.9738 37.2227 79.8863 37.4432L79.6238 38.193H80.7394L80.3675 37.4432ZM81.0457 39.406L80.7613 38.6341H79.4925L79.2082 39.406H78.7051L79.8644 36.1641H80.3894L81.5488 39.406H81.0457Z" fill="#1D1D1B"/>
<path d="M83.8887 39.406V36.1641H85.9668V36.6272H84.3918V37.4211H85.3105V37.9063H84.3918V38.9208H86.0543V39.406H83.8887Z" fill="#1D1D1B"/>
<path d="M89.4883 39.3401V37.1345C89.4883 37.1345 89.3571 37.4654 89.2914 37.6418L88.5039 39.4724L87.7383 37.6418C87.7383 37.4654 87.5633 37.2227 87.5196 37.1345V39.3401H87.082V36.1641H87.5633L88.2852 37.8844C88.3756 38.0635 88.456 38.2476 88.5258 38.4358L88.7227 37.8844L89.4445 36.1641H89.9477V39.3401H89.4883Z" fill="#1D1D1B"/>
<path d="M92.268 36.605H91.3929V37.7299H92.268C92.3423 37.741 92.4183 37.7345 92.4897 37.7107C92.5611 37.687 92.626 37.6467 92.6791 37.593C92.7323 37.5394 92.7722 37.474 92.7958 37.402C92.8194 37.33 92.8259 37.2534 92.8148 37.1784C92.8251 37.1026 92.8182 37.0254 92.7946 36.9527C92.7711 36.8799 92.7316 36.8135 92.679 36.7583C92.6264 36.7031 92.5621 36.6607 92.4909 36.6341C92.4197 36.6076 92.3435 36.5976 92.268 36.605ZM92.268 38.1931H91.4148V39.3401H90.9336V36.1638H92.2898C92.4272 36.151 92.5656 36.1681 92.6958 36.2139C92.826 36.2598 92.9449 36.3333 93.0445 36.4295C93.1441 36.5257 93.2219 36.6424 93.2729 36.7716C93.3239 36.9008 93.3467 37.0396 93.3398 37.1784C93.3471 37.3194 93.3238 37.4602 93.2716 37.5912C93.2194 37.7221 93.1395 37.84 93.0374 37.9366C92.9354 38.0332 92.8137 38.1062 92.6808 38.1505C92.5479 38.1948 92.407 38.2093 92.268 38.1931Z" fill="#1D1D1B"/>
<path d="M95.5695 36.6048H94.6289V37.6634H95.5695C95.6366 37.6637 95.703 37.6499 95.7644 37.6228C95.8258 37.5957 95.881 37.5559 95.9263 37.5061C95.9716 37.4563 96.0061 37.3974 96.0275 37.3334C96.049 37.2693 96.0569 37.2015 96.0508 37.1341C96.0542 37.0618 96.0422 36.9896 96.0156 36.9223C95.989 36.8551 95.9485 36.7943 95.8967 36.7442C95.8449 36.694 95.783 36.6556 95.7153 36.6316C95.6475 36.6076 95.5755 36.5984 95.5039 36.6048H95.5695ZM95.832 38.0825L96.4883 39.4058H96.0508L95.3945 38.1266H94.6727V39.3396H94.1914V36.1637H95.6133C95.7476 36.1478 95.8836 36.1613 96.0122 36.2032C96.1409 36.245 96.2591 36.3144 96.3587 36.4065C96.4584 36.4986 96.5371 36.6113 96.5897 36.7368C96.6423 36.8624 96.6674 36.9979 96.6633 37.1341C96.6735 37.3527 96.6065 37.5678 96.4744 37.7414C96.3423 37.915 96.1535 38.0358 95.9414 38.0825" fill="#1D1D1B"/>
<path d="M97.582 39.406V36.1641H99.6601V36.6272H98.0633V37.4211H99.0039V37.9063H98.0633V38.9208H99.7258V39.406H97.582Z" fill="#1D1D1B"/>
<path d="M101.542 39.4502C101.325 39.4538 101.11 39.4081 100.913 39.3165C100.716 39.2248 100.542 39.0896 100.404 38.9209L100.754 38.5901C100.859 38.7099 100.986 38.807 101.129 38.8752C101.272 38.9435 101.427 38.9816 101.586 38.9871C102.045 38.9871 102.264 38.8106 102.264 38.5019C102.264 38.1931 102.067 38.1269 101.52 37.9725C100.973 37.8181 100.514 37.5976 100.514 37.0021C100.522 36.8705 100.556 36.7419 100.615 36.6242C100.674 36.5065 100.756 36.4021 100.857 36.3175C100.957 36.2329 101.073 36.1697 101.199 36.132C101.324 36.0942 101.456 36.0826 101.586 36.0978C101.98 36.0988 102.357 36.2574 102.636 36.5389L102.286 36.8918C102.194 36.7855 102.079 36.7022 101.95 36.6486C101.821 36.595 101.681 36.5726 101.542 36.583C101.17 36.583 101.017 36.7595 101.017 36.98C101.017 37.2006 101.148 37.3329 101.717 37.4873C102.286 37.6417 102.745 37.8843 102.745 38.4798C102.745 39.0753 102.373 39.4502 101.542 39.4502Z" fill="#1D1D1B"/>
<path d="M105.041 37.4432C104.941 37.2003 104.861 36.9495 104.801 36.6934C104.801 36.8477 104.648 37.2227 104.56 37.4432L104.298 38.193H105.282L105.041 37.4432ZM105.72 39.406L105.435 38.6341H104.145L103.882 39.406H103.379L104.538 36.1641H105.041L106.223 39.406H105.72Z" fill="#1D1D1B"/>
<path d="M109.046 36.6272V37.4873H109.986V37.9725H109.046V39.406H108.564V36.1641H110.643V36.6272H109.046Z" fill="#1D1D1B"/>
<path d="M111.473 39.406V36.1641H113.551V36.6272H111.954V37.4211H112.895V37.9063H111.954V38.9208H113.638V39.406H111.473Z" fill="#1D1D1B"/>
<path d="M115.957 36.6048H115.016V37.6634H115.957C116.029 37.6739 116.103 37.6675 116.173 37.645C116.242 37.6224 116.306 37.5841 116.358 37.5331C116.411 37.4821 116.452 37.4197 116.477 37.3505C116.502 37.2814 116.511 37.2074 116.504 37.1341C116.507 37.0618 116.495 36.9896 116.469 36.9223C116.442 36.8551 116.402 36.7943 116.35 36.7442C116.298 36.694 116.236 36.6556 116.168 36.6316C116.101 36.6076 116.029 36.5984 115.957 36.6048ZM116.285 38.0825L116.941 39.4058H116.394L115.738 38.1266H115.016V39.3396H114.535V36.1637H115.957C116.091 36.1478 116.227 36.1613 116.356 36.2032C116.485 36.245 116.603 36.3144 116.702 36.4065C116.802 36.4986 116.881 36.6113 116.933 36.7368C116.986 36.8624 117.011 36.9979 117.007 37.1341C117.017 37.3527 116.95 37.5678 116.818 37.7414C116.686 37.915 116.497 38.0358 116.285 38.0825Z" fill="#1D1D1B"/>
<path d="M119.391 36.6051H118.451V37.6637H119.391C119.464 37.6741 119.537 37.6678 119.607 37.6452C119.677 37.6226 119.74 37.5844 119.793 37.5334C119.845 37.4824 119.886 37.4199 119.911 37.3508C119.936 37.2817 119.946 37.2077 119.938 37.1344C119.942 37.0621 119.93 36.9898 119.903 36.9226C119.877 36.8553 119.836 36.7946 119.784 36.7444C119.732 36.6943 119.67 36.6559 119.603 36.6319C119.535 36.6078 119.463 36.5987 119.391 36.6051ZM119.72 38.0827L120.376 39.406H119.807L119.173 38.1268H118.451V39.3398H117.926V36.164H119.348C119.481 36.1477 119.616 36.161 119.744 36.203C119.871 36.2451 119.988 36.3148 120.086 36.4073C120.184 36.4998 120.261 36.6129 120.311 36.7385C120.361 36.8641 120.383 36.9992 120.376 37.1344C120.391 37.3508 120.329 37.5658 120.201 37.7399C120.072 37.914 119.886 38.0357 119.676 38.0827" fill="#1D1D1B"/>
<path d="M121.404 39.406V36.1641H123.482V36.6272H121.886V37.4211H122.804V37.9063H121.886V38.9208H123.548V39.406H121.404Z" fill="#1D1D1B"/>
<path d="M125.779 38.1269V39.3401H125.298V38.0608L124.139 36.0977H124.707L125.211 36.98C125.32 37.1785 125.495 37.5093 125.539 37.6196L125.867 36.98L126.392 36.0977H126.939L125.779 38.1269Z" fill="#1D1D1B"/>
<path d="M128.733 39.4505C127.902 39.4505 127.377 38.7667 127.377 37.7742C127.377 36.7816 127.902 36.0979 128.733 36.0979C128.955 36.0843 129.176 36.1353 129.37 36.2447C129.564 36.3542 129.722 36.5176 129.827 36.7154L129.411 36.9801C129.348 36.8551 129.251 36.7511 129.13 36.6807C129.01 36.6102 128.872 36.5764 128.733 36.5831C128.164 36.5831 127.88 37.0463 127.88 37.7742C127.88 38.502 128.164 38.9652 128.733 38.9652C128.878 38.9751 129.024 38.943 129.151 38.8727C129.279 38.8024 129.385 38.6967 129.455 38.5682L129.849 38.8329C129.737 39.029 129.574 39.1903 129.377 39.2992C129.18 39.4081 128.957 39.4604 128.733 39.4505Z" fill="#1D1D1B"/>
<path d="M131.884 36.5829C131.315 36.5829 131.009 37.0461 131.009 37.7739C131.009 38.5018 131.315 38.965 131.884 38.965C132.452 38.965 132.759 38.5018 132.759 37.7739C132.759 37.0461 132.452 36.5829 131.884 36.5829ZM131.884 39.4502C131.052 39.4502 130.527 38.7665 130.527 37.7739C130.527 36.7814 131.052 36.0977 131.884 36.0977C132.715 36.0977 133.262 36.8035 133.262 37.7739C133.262 38.7444 132.715 39.4502 131.884 39.4502Z" fill="#1D1D1B"/>
<path d="M135.582 36.6048H134.641V37.6634H135.582C135.654 37.6739 135.728 37.6675 135.798 37.645C135.867 37.6224 135.931 37.5841 135.983 37.5331C136.036 37.4821 136.077 37.4197 136.102 37.3505C136.127 37.2814 136.136 37.2074 136.129 37.1341C136.132 37.0618 136.12 36.9896 136.094 36.9223C136.067 36.8551 136.027 36.7943 135.975 36.7442C135.923 36.694 135.861 36.6556 135.793 36.6316C135.726 36.6076 135.654 36.5984 135.582 36.6048ZM135.91 38.0825L136.566 39.4058H136.019L135.363 38.1266H134.641V39.3396H134.16V36.1637H135.582C135.716 36.1478 135.852 36.1613 135.981 36.2032C136.11 36.245 136.228 36.3144 136.327 36.4065C136.427 36.4986 136.506 36.6113 136.558 36.7368C136.611 36.8624 136.636 36.9979 136.632 37.1341C136.642 37.3527 136.575 37.5678 136.443 37.7414C136.311 37.915 136.122 38.0358 135.91 38.0825Z" fill="#1D1D1B"/>
<path d="M138.926 36.6047H138.073V37.7296H138.926C139.001 37.74 139.077 37.733 139.15 37.7093C139.222 37.6856 139.288 37.6457 139.342 37.5927C139.397 37.5396 139.439 37.4748 139.466 37.403C139.492 37.3312 139.502 37.2544 139.494 37.1782C139.501 37.1012 139.491 37.0236 139.465 36.951C139.439 36.8784 139.397 36.8124 139.343 36.7577C139.289 36.7031 139.223 36.661 139.151 36.6346C139.079 36.6082 139.002 36.598 138.926 36.6047ZM138.926 38.1929H138.095V39.3398H137.613V36.1635H138.969C139.106 36.1503 139.243 36.1673 139.373 36.2133C139.502 36.2593 139.62 36.3332 139.717 36.4298C139.815 36.5265 139.891 36.6435 139.94 36.7728C139.988 36.902 140.008 37.0404 139.998 37.1782C140.005 37.3191 139.982 37.46 139.929 37.5909C139.877 37.7219 139.797 37.8397 139.695 37.9363C139.593 38.0329 139.471 38.1059 139.339 38.1502C139.206 38.1945 139.065 38.2091 138.926 38.1929Z" fill="#1D1D1B"/>
<path d="M73.1054 39.45C72.3179 39.45 71.9023 38.9427 71.9023 38.0384V36.1416H72.3836V38.0163C72.3836 38.6339 72.6242 38.9647 73.1273 38.9647C73.6304 38.9647 73.871 38.6559 73.871 38.0604V36.1416H74.3523V38.0384C74.3523 38.9647 73.9148 39.45 73.1054 39.45Z" fill="#1D1D1B"/>
<path d="M77.393 39.3403L76.1024 37.289L75.8617 36.892V39.3403H75.4023V36.1641H75.8836L77.1086 38.1272L77.3711 38.5904V36.1641H77.8524V39.3403H77.393Z" fill="#1D1D1B"/>
<path d="M80.3675 37.4432C80.2672 37.2003 80.1867 36.9495 80.1269 36.6934C80.1269 36.8477 79.9738 37.2227 79.8863 37.4432L79.6238 38.193H80.7394L80.3675 37.4432ZM81.0457 39.406L80.7613 38.6341H79.4925L79.2082 39.406H78.7051L79.8644 36.1641H80.3894L81.5488 39.406H81.0457Z" fill="#1D1D1B"/>
<path d="M83.8887 39.406V36.1641H85.9668V36.6272H84.3918V37.4211H85.3105V37.9063H84.3918V38.9208H86.0543V39.406H83.8887Z" fill="#1D1D1B"/>
<path d="M89.4883 39.3401V37.1345C89.4883 37.1345 89.3571 37.4654 89.2914 37.6418L88.5039 39.4724L87.7383 37.6418C87.7383 37.4654 87.5633 37.2227 87.5196 37.1345V39.3401H87.082V36.1641H87.5633L88.2852 37.8844C88.3756 38.0635 88.456 38.2476 88.5258 38.4358L88.7227 37.8844L89.4445 36.1641H89.9477V39.3401H89.4883Z" fill="#1D1D1B"/>
<path d="M92.268 36.605H91.3929V37.7299H92.268C92.3423 37.741 92.4183 37.7345 92.4897 37.7107C92.5611 37.687 92.626 37.6467 92.6791 37.593C92.7323 37.5394 92.7722 37.474 92.7958 37.402C92.8194 37.33 92.8259 37.2534 92.8148 37.1784C92.8251 37.1026 92.8182 37.0254 92.7946 36.9527C92.7711 36.8799 92.7316 36.8135 92.679 36.7583C92.6264 36.7031 92.5621 36.6607 92.4909 36.6341C92.4197 36.6076 92.3435 36.5976 92.268 36.605ZM92.268 38.1931H91.4148V39.3401H90.9336V36.1638H92.2898C92.4272 36.151 92.5656 36.1681 92.6958 36.2139C92.826 36.2598 92.9449 36.3333 93.0445 36.4295C93.1441 36.5257 93.2219 36.6424 93.2729 36.7716C93.3239 36.9008 93.3467 37.0396 93.3398 37.1784C93.3471 37.3194 93.3238 37.4602 93.2716 37.5912C93.2194 37.7221 93.1395 37.84 93.0374 37.9366C92.9354 38.0332 92.8137 38.1062 92.6808 38.1505C92.5479 38.1948 92.407 38.2093 92.268 38.1931Z" fill="#1D1D1B"/>
<path d="M95.5695 36.6048H94.6289V37.6634H95.5695C95.6366 37.6637 95.703 37.6499 95.7644 37.6228C95.8258 37.5957 95.881 37.5559 95.9263 37.5061C95.9716 37.4563 96.0061 37.3974 96.0275 37.3334C96.049 37.2693 96.0569 37.2015 96.0508 37.1341C96.0542 37.0618 96.0422 36.9896 96.0156 36.9223C95.989 36.8551 95.9485 36.7943 95.8967 36.7442C95.8449 36.694 95.783 36.6556 95.7153 36.6316C95.6475 36.6076 95.5755 36.5984 95.5039 36.6048H95.5695ZM95.832 38.0825L96.4883 39.4058H96.0508L95.3945 38.1266H94.6727V39.3396H94.1914V36.1637H95.6133C95.7476 36.1478 95.8836 36.1613 96.0122 36.2032C96.1409 36.245 96.2591 36.3144 96.3587 36.4065C96.4584 36.4986 96.5371 36.6113 96.5897 36.7368C96.6423 36.8624 96.6674 36.9979 96.6633 37.1341C96.6735 37.3527 96.6065 37.5678 96.4744 37.7414C96.3423 37.915 96.1535 38.0358 95.9414 38.0825" fill="#1D1D1B"/>
<path d="M97.582 39.406V36.1641H99.6601V36.6272H98.0633V37.4211H99.0039V37.9063H98.0633V38.9208H99.7258V39.406H97.582Z" fill="#1D1D1B"/>
<path d="M101.542 39.4502C101.325 39.4538 101.11 39.4081 100.913 39.3165C100.716 39.2248 100.542 39.0896 100.404 38.9209L100.754 38.5901C100.859 38.7099 100.986 38.807 101.129 38.8752C101.272 38.9435 101.427 38.9816 101.586 38.9871C102.045 38.9871 102.264 38.8106 102.264 38.5019C102.264 38.1931 102.067 38.1269 101.52 37.9725C100.973 37.8181 100.514 37.5976 100.514 37.0021C100.522 36.8705 100.556 36.7419 100.615 36.6242C100.674 36.5065 100.756 36.4021 100.857 36.3175C100.957 36.2329 101.073 36.1697 101.199 36.132C101.324 36.0942 101.456 36.0826 101.586 36.0978C101.98 36.0988 102.357 36.2574 102.636 36.5389L102.286 36.8918C102.194 36.7855 102.079 36.7022 101.95 36.6486C101.821 36.595 101.681 36.5726 101.542 36.583C101.17 36.583 101.017 36.7595 101.017 36.98C101.017 37.2006 101.148 37.3329 101.717 37.4873C102.286 37.6417 102.745 37.8843 102.745 38.4798C102.745 39.0753 102.373 39.4502 101.542 39.4502Z" fill="#1D1D1B"/>
<path d="M105.041 37.4432C104.941 37.2003 104.861 36.9495 104.801 36.6934C104.801 36.8477 104.648 37.2227 104.56 37.4432L104.298 38.193H105.282L105.041 37.4432ZM105.72 39.406L105.435 38.6341H104.145L103.882 39.406H103.379L104.538 36.1641H105.041L106.223 39.406H105.72Z" fill="#1D1D1B"/>
<path d="M109.046 36.6272V37.4873H109.986V37.9725H109.046V39.406H108.564V36.1641H110.643V36.6272H109.046Z" fill="#1D1D1B"/>
<path d="M111.473 39.406V36.1641H113.551V36.6272H111.954V37.4211H112.895V37.9063H111.954V38.9208H113.638V39.406H111.473Z" fill="#1D1D1B"/>
<path d="M115.957 36.6048H115.016V37.6634H115.957C116.029 37.6739 116.103 37.6675 116.173 37.645C116.242 37.6224 116.306 37.5841 116.358 37.5331C116.411 37.4821 116.452 37.4197 116.477 37.3505C116.502 37.2814 116.511 37.2074 116.504 37.1341C116.507 37.0618 116.495 36.9896 116.469 36.9223C116.442 36.8551 116.402 36.7943 116.35 36.7442C116.298 36.694 116.236 36.6556 116.168 36.6316C116.101 36.6076 116.029 36.5984 115.957 36.6048ZM116.285 38.0825L116.941 39.4058H116.394L115.738 38.1266H115.016V39.3396H114.535V36.1637H115.957C116.091 36.1478 116.227 36.1613 116.356 36.2032C116.485 36.245 116.603 36.3144 116.702 36.4065C116.802 36.4986 116.881 36.6113 116.933 36.7368C116.986 36.8624 117.011 36.9979 117.007 37.1341C117.017 37.3527 116.95 37.5678 116.818 37.7414C116.686 37.915 116.497 38.0358 116.285 38.0825Z" fill="#1D1D1B"/>
<path d="M119.391 36.6051H118.451V37.6637H119.391C119.464 37.6741 119.537 37.6678 119.607 37.6452C119.677 37.6226 119.74 37.5844 119.793 37.5334C119.845 37.4824 119.886 37.4199 119.911 37.3508C119.936 37.2817 119.946 37.2077 119.938 37.1344C119.942 37.0621 119.93 36.9898 119.903 36.9226C119.877 36.8553 119.836 36.7946 119.784 36.7444C119.732 36.6943 119.67 36.6559 119.603 36.6319C119.535 36.6078 119.463 36.5987 119.391 36.6051ZM119.72 38.0827L120.376 39.406H119.807L119.173 38.1268H118.451V39.3398H117.926V36.164H119.348C119.481 36.1477 119.616 36.161 119.744 36.203C119.871 36.2451 119.988 36.3148 120.086 36.4073C120.184 36.4998 120.261 36.6129 120.311 36.7385C120.361 36.8641 120.383 36.9992 120.376 37.1344C120.391 37.3508 120.329 37.5658 120.201 37.7399C120.072 37.914 119.886 38.0357 119.676 38.0827" fill="#1D1D1B"/>
<path d="M121.404 39.406V36.1641H123.482V36.6272H121.886V37.4211H122.804V37.9063H121.886V38.9208H123.548V39.406H121.404Z" fill="#1D1D1B"/>
<path d="M125.779 38.1269V39.3401H125.298V38.0608L124.139 36.0977H124.707L125.211 36.98C125.32 37.1785 125.495 37.5093 125.539 37.6196L125.867 36.98L126.392 36.0977H126.939L125.779 38.1269Z" fill="#1D1D1B"/>
<path d="M128.733 39.4505C127.902 39.4505 127.377 38.7667 127.377 37.7742C127.377 36.7816 127.902 36.0979 128.733 36.0979C128.955 36.0843 129.176 36.1353 129.37 36.2447C129.564 36.3542 129.722 36.5176 129.827 36.7154L129.411 36.9801C129.348 36.8551 129.251 36.7511 129.13 36.6807C129.01 36.6102 128.872 36.5764 128.733 36.5831C128.164 36.5831 127.88 37.0463 127.88 37.7742C127.88 38.502 128.164 38.9652 128.733 38.9652C128.878 38.9751 129.024 38.943 129.151 38.8727C129.279 38.8024 129.385 38.6967 129.455 38.5682L129.849 38.8329C129.737 39.029 129.574 39.1903 129.377 39.2992C129.18 39.4081 128.957 39.4604 128.733 39.4505Z" fill="#1D1D1B"/>
<path d="M131.884 36.5829C131.315 36.5829 131.009 37.0461 131.009 37.7739C131.009 38.5018 131.315 38.965 131.884 38.965C132.452 38.965 132.759 38.5018 132.759 37.7739C132.759 37.0461 132.452 36.5829 131.884 36.5829ZM131.884 39.4502C131.052 39.4502 130.527 38.7665 130.527 37.7739C130.527 36.7814 131.052 36.0977 131.884 36.0977C132.715 36.0977 133.262 36.8035 133.262 37.7739C133.262 38.7444 132.715 39.4502 131.884 39.4502Z" fill="#1D1D1B"/>
<path d="M135.582 36.6048H134.641V37.6634H135.582C135.654 37.6739 135.728 37.6675 135.798 37.645C135.867 37.6224 135.931 37.5841 135.983 37.5331C136.036 37.4821 136.077 37.4197 136.102 37.3505C136.127 37.2814 136.136 37.2074 136.129 37.1341C136.132 37.0618 136.12 36.9896 136.094 36.9223C136.067 36.8551 136.027 36.7943 135.975 36.7442C135.923 36.694 135.861 36.6556 135.793 36.6316C135.726 36.6076 135.654 36.5984 135.582 36.6048ZM135.91 38.0825L136.566 39.4058H136.019L135.363 38.1266H134.641V39.3396H134.16V36.1637H135.582C135.716 36.1478 135.852 36.1613 135.981 36.2032C136.11 36.245 136.228 36.3144 136.327 36.4065C136.427 36.4986 136.506 36.6113 136.558 36.7368C136.611 36.8624 136.636 36.9979 136.632 37.1341C136.642 37.3527 136.575 37.5678 136.443 37.7414C136.311 37.915 136.122 38.0358 135.91 38.0825Z" fill="#1D1D1B"/>
<path d="M138.926 36.6047H138.073V37.7296H138.926C139.001 37.74 139.077 37.733 139.15 37.7093C139.222 37.6856 139.288 37.6457 139.342 37.5927C139.397 37.5396 139.439 37.4748 139.466 37.403C139.492 37.3312 139.502 37.2544 139.494 37.1782C139.501 37.1012 139.491 37.0236 139.465 36.951C139.439 36.8784 139.397 36.8124 139.343 36.7577C139.289 36.7031 139.223 36.661 139.151 36.6346C139.079 36.6082 139.002 36.598 138.926 36.6047ZM138.926 38.1929H138.095V39.3398H137.613V36.1635H138.969C139.106 36.1503 139.243 36.1673 139.373 36.2133C139.502 36.2593 139.62 36.3332 139.717 36.4298C139.815 36.5265 139.891 36.6435 139.94 36.7728C139.988 36.902 140.008 37.0404 139.998 37.1782C140.005 37.3191 139.982 37.46 139.929 37.5909C139.877 37.7219 139.797 37.8397 139.695 37.9363C139.593 38.0329 139.471 38.1059 139.339 38.1502C139.206 38.1945 139.065 38.2091 138.926 38.1929Z" fill="#1D1D1B"/>
</svg>
