<svg width="140" height="40" viewBox="0 0 140 40" fill="none" xmlns="http://www.w3.org/2000/svg">
<path d="M108.018 0.577148H0V32.7583H108.018V0.577148Z" fill="#E30613"/>
<path d="M139.998 0.577148H108.039V32.7583H139.998V0.577148Z" fill="#1D1D1B"/>
<path d="M130.854 9.62061H121.929V15.2893H117.16V18.9728H121.929V23.7151H125.91V18.9728H130.854V15.2893H125.91V13.3262H130.854V9.62061Z" fill="#DADADA"/>
<path d="M19.7316 11.6943H17.041L20.3441 23.7817H23.0347L19.7316 11.6943Z" fill="white"/>
<path d="M53.307 11.7598H44.8633L44.0977 13.8993H47.4445V23.781H49.9601V13.8993H52.5195L53.307 11.7598Z" fill="white"/>
<path d="M40.5335 16.2159C40.5335 14.4734 40.1835 13.7455 38.1929 13.7455H37.996C36.0054 13.7455 35.6554 14.4734 35.6554 16.2159V19.3479C35.6554 21.0683 36.0054 21.7962 37.996 21.7962H38.1929C40.1835 21.7962 40.5335 21.0683 40.5335 19.3479V16.2159ZM37.996 23.9578C34.693 23.9578 33.0742 22.8108 33.0742 19.3479V16.2159C33.0742 12.7089 34.6492 11.584 37.996 11.584H38.1929C41.5179 11.584 43.1147 12.7089 43.1147 16.2159V19.3479C43.1147 22.8108 41.5179 23.9578 38.1929 23.9578H37.996Z" fill="white"/>
<path d="M61.2055 16.2159C61.2055 14.4734 60.8554 13.7455 58.8648 13.7455H58.668C56.6773 13.7455 56.3273 14.4734 56.3273 16.2159V19.3479C56.3273 21.0683 56.6773 21.7962 58.668 21.7962H58.8648C60.8554 21.7962 61.2055 21.0683 61.2055 19.3479V16.2159ZM58.668 23.9578C55.3648 23.9578 53.7461 22.8108 53.7461 19.3479V16.2159C53.7461 12.7089 55.3211 11.584 58.668 11.584H58.8648C62.1898 11.584 63.7867 12.7089 63.7867 16.2159V19.3479C63.7867 22.8108 62.1898 23.9578 58.8648 23.9578H58.668Z" fill="white"/>
<path d="M70.3476 17.3844C71.9007 17.3844 72.2289 17.0535 72.2289 15.6419C72.2289 14.2302 71.9007 13.8993 70.3476 13.8993H68.4226V17.3844H70.3476ZM65.9727 23.781V11.7598H70.3476C73.3663 11.7598 74.832 12.4435 74.832 15.6419C74.832 17.8476 74.1539 18.8402 72.6445 19.2593L74.832 23.6707H72.1414L70.1945 19.4137H68.3351V23.6707L65.9727 23.781Z" fill="white"/>
<path d="M76.8672 23.781V11.7598H84.8516V13.8993H79.3828V16.5242H83.9984V18.6637H79.3828V21.6414H84.8516V23.781H76.8672Z" fill="white"/>
<path d="M93.8644 16.2595C93.8644 14.6713 93.5581 13.8993 91.3925 13.8993H89.4894V21.6414H91.3488C93.5363 21.6414 93.8206 20.8694 93.8206 19.2813L93.8644 16.2595ZM87.0176 23.781V11.7598H91.8082C95.9206 11.7598 96.4456 13.2597 96.4456 16.1712V19.1931C96.4456 22.5678 95.6144 23.6045 91.8082 23.6045L87.0176 23.781Z" fill="white"/>
<path d="M28.4582 11.6943H25.7676L29.0707 23.7817H31.7613L28.4582 11.6943Z" fill="white"/>
<path d="M25.4625 9.62061L20.3438 23.7815H24.1062L29.2031 9.62061H25.4625Z" fill="white"/>
<path d="M16.732 9.62061L11.6133 23.7815H15.3758L20.4726 9.62061H16.732Z" fill="white"/>
<path d="M73.1054 39.9492C72.3179 39.9492 71.9023 39.4419 71.9023 38.5376V36.6406H72.3836V38.5155C72.3836 39.1331 72.6242 39.464 73.1273 39.464C73.6304 39.464 73.871 39.1551 73.871 38.5596V36.6406H74.3523V38.5376C74.3523 39.464 73.9148 39.9492 73.1054 39.9492Z" fill="#1D1D1B"/>
<path d="M77.393 39.8389L76.1024 37.7875L75.8617 37.3905V39.8389H75.4023V36.6626H75.8836L77.1086 38.6257L77.3711 39.0889V36.6626H77.8524V39.8389H77.393Z" fill="#1D1D1B"/>
<path d="M80.3675 37.9419C80.2672 37.699 80.1867 37.4482 80.1269 37.192C80.1269 37.3464 79.9738 37.7214 79.8863 37.9419L79.6238 38.6919H80.7394L80.3675 37.9419ZM81.0457 39.905L80.7613 39.133H79.4925L79.2082 39.905H78.7051L79.8644 36.6626H80.3894L81.5488 39.905H81.0457Z" fill="#1D1D1B"/>
<path d="M83.8887 39.905V36.6626H85.9668V37.1258H84.3918V37.9199H85.3105V38.4051H84.3918V39.4198H86.0543V39.905H83.8887Z" fill="#1D1D1B"/>
<path d="M89.4883 39.8389V37.6331C89.4883 37.6331 89.3571 37.964 89.2914 38.1404L88.5039 39.9712L87.7383 38.1404C87.7383 37.964 87.5633 37.7214 87.5196 37.6331V39.8389H87.082V36.6626H87.5633L88.2852 38.3831C88.3756 38.5621 88.456 38.7462 88.5258 38.9345L88.7227 38.3831L89.4445 36.6626H89.9477V39.8389H89.4883Z" fill="#1D1D1B"/>
<path d="M92.268 37.1035H91.3929V38.2283H92.268C92.3423 38.2395 92.4183 38.2329 92.4897 38.2091C92.5611 38.1854 92.626 38.1451 92.6791 38.0915C92.7323 38.0379 92.7722 37.9724 92.7958 37.9004C92.8194 37.8285 92.8259 37.7519 92.8148 37.6769C92.8251 37.6011 92.8182 37.5239 92.7946 37.4511C92.7711 37.3784 92.7316 37.312 92.679 37.2568C92.6264 37.2016 92.5621 37.1592 92.4909 37.1326C92.4197 37.1061 92.3435 37.0961 92.268 37.1035ZM92.268 38.6915H91.4148V39.8384H90.9336V36.6623H92.2898C92.4272 36.6495 92.5656 36.6666 92.6958 36.7124C92.826 36.7583 92.9449 36.8318 93.0445 36.928C93.1441 37.0242 93.2219 37.1409 93.2729 37.2701C93.3239 37.3993 93.3467 37.538 93.3398 37.6769C93.3471 37.8178 93.3238 37.9587 93.2716 38.0896C93.2194 38.2205 93.1395 38.3384 93.0374 38.435C92.9354 38.5316 92.8137 38.6046 92.6808 38.6489C92.5479 38.6932 92.407 38.7077 92.268 38.6915Z" fill="#1D1D1B"/>
<path d="M95.5695 37.1039H94.6289V38.1627H95.5695C95.6366 38.163 95.703 38.1491 95.7644 38.122C95.8258 38.0949 95.881 38.0552 95.9263 38.0053C95.9716 37.9555 96.0061 37.8967 96.0275 37.8326C96.049 37.7685 96.0569 37.7006 96.0508 37.6333C96.0542 37.561 96.0422 37.4887 96.0156 37.4215C95.989 37.3542 95.9485 37.2934 95.8967 37.2433C95.8449 37.1931 95.783 37.1547 95.7153 37.1307C95.6475 37.1067 95.5755 37.0975 95.5039 37.1039H95.5695ZM95.832 38.5818L96.4883 39.9053H96.0508L95.3945 38.6259H94.6727V39.8391H94.1914V36.6627H95.6133C95.7476 36.6468 95.8836 36.6603 96.0122 36.7022C96.1409 36.7441 96.2591 36.8135 96.3587 36.9056C96.4584 36.9977 96.5371 37.1103 96.5897 37.2359C96.6423 37.3615 96.6674 37.497 96.6633 37.6333C96.6735 37.8519 96.6065 38.0671 96.4744 38.2407C96.3423 38.4143 96.1535 38.5351 95.9414 38.5818" fill="#1D1D1B"/>
<path d="M97.582 39.905V36.6626H99.6601V37.1258H98.0633V37.9199H99.0039V38.4051H98.0633V39.4198H99.7258V39.905H97.582Z" fill="#1D1D1B"/>
<path d="M101.542 39.949C101.325 39.9526 101.11 39.9069 100.913 39.8152C100.716 39.7236 100.542 39.5884 100.404 39.4196L100.754 39.0888C100.859 39.2087 100.986 39.3057 101.129 39.374C101.272 39.4423 101.427 39.4803 101.586 39.4858C102.045 39.4858 102.264 39.3094 102.264 39.0006C102.264 38.6918 102.067 38.6256 101.52 38.4712C100.973 38.3168 100.514 38.0962 100.514 37.5007C100.522 37.3691 100.556 37.2405 100.615 37.1227C100.674 37.005 100.756 36.9007 100.857 36.816C100.957 36.7314 101.073 36.6683 101.199 36.6305C101.324 36.5927 101.456 36.5811 101.586 36.5963C101.98 36.5973 102.357 36.756 102.636 37.0375L102.286 37.3904C102.194 37.2841 102.079 37.2008 101.95 37.1472C101.821 37.0936 101.681 37.0711 101.542 37.0816C101.17 37.0816 101.017 37.2581 101.017 37.4786C101.017 37.6992 101.148 37.8315 101.717 37.9859C102.286 38.1403 102.745 38.383 102.745 38.9785C102.745 39.574 102.373 39.949 101.542 39.949Z" fill="#1D1D1B"/>
<path d="M105.041 37.9419C104.941 37.699 104.861 37.4482 104.801 37.192C104.801 37.3464 104.648 37.7214 104.56 37.9419L104.298 38.6919H105.282L105.041 37.9419ZM105.72 39.905L105.435 39.133H104.145L103.882 39.905H103.379L104.538 36.6626H105.041L106.223 39.905H105.72Z" fill="#1D1D1B"/>
<path d="M109.046 37.1258V37.9861H109.986V38.4713H109.046V39.905H108.564V36.6626H110.643V37.1258H109.046Z" fill="#1D1D1B"/>
<path d="M111.473 39.905V36.6626H113.551V37.1258H111.954V37.9199H112.895V38.4051H111.954V39.4198H113.638V39.905H111.473Z" fill="#1D1D1B"/>
<path d="M115.957 37.1039H115.016V38.1627H115.957C116.029 38.1731 116.103 38.1668 116.173 38.1442C116.242 38.1216 116.306 38.0834 116.358 38.0324C116.411 37.9813 116.452 37.9189 116.477 37.8497C116.502 37.7806 116.511 37.7066 116.504 37.6333C116.507 37.561 116.495 37.4887 116.469 37.4215C116.442 37.3542 116.402 37.2934 116.35 37.2433C116.298 37.1931 116.236 37.1547 116.168 37.1307C116.101 37.1067 116.029 37.0975 115.957 37.1039ZM116.285 38.5818L116.941 39.9053H116.394L115.738 38.6259H115.016V39.8391H114.535V36.6627H115.957C116.091 36.6468 116.227 36.6603 116.356 36.7022C116.485 36.7441 116.603 36.8135 116.702 36.9056C116.802 36.9977 116.881 37.1103 116.933 37.2359C116.986 37.3615 117.011 37.497 117.007 37.6333C117.017 37.8519 116.95 38.0671 116.818 38.2407C116.686 38.4143 116.497 38.5351 116.285 38.5818Z" fill="#1D1D1B"/>
<path d="M119.391 37.1041H118.451V38.1628H119.391C119.464 38.1733 119.537 38.1669 119.607 38.1444C119.677 38.1218 119.74 38.0835 119.793 38.0325C119.845 37.9815 119.886 37.9191 119.911 37.8499C119.936 37.7808 119.946 37.7068 119.938 37.6335C119.942 37.5612 119.93 37.4889 119.903 37.4217C119.877 37.3544 119.836 37.2937 119.784 37.2435C119.732 37.1934 119.67 37.155 119.603 37.1309C119.535 37.1069 119.463 37.0978 119.391 37.1041ZM119.72 38.5819L120.376 39.9053H119.807L119.173 38.626H118.451V39.8391H117.926V36.663H119.348C119.481 36.6467 119.616 36.66 119.744 36.7021C119.871 36.7441 119.988 36.8138 120.086 36.9063C120.184 36.9989 120.261 37.1119 120.311 37.2375C120.361 37.3632 120.383 37.4983 120.376 37.6335C120.391 37.85 120.329 38.0649 120.201 38.239C120.072 38.4131 119.886 38.5348 119.676 38.5819" fill="#1D1D1B"/>
<path d="M121.404 39.905V36.6626H123.482V37.1258H121.886V37.9199H122.804V38.4051H121.886V39.4198H123.548V39.905H121.404Z" fill="#1D1D1B"/>
<path d="M125.779 38.6258V39.8389H125.298V38.5596L124.139 36.5967H124.707L125.211 37.4789C125.32 37.6774 125.495 38.0082 125.539 38.1185L125.867 37.4789L126.392 36.5967H126.939L125.779 38.6258Z" fill="#1D1D1B"/>
<path d="M128.733 39.949C127.902 39.949 127.377 39.2652 127.377 38.2727C127.377 37.2801 127.902 36.5964 128.733 36.5964C128.955 36.5828 129.176 36.6338 129.37 36.7433C129.564 36.8528 129.722 37.0162 129.827 37.214L129.411 37.4787C129.348 37.3536 129.251 37.2496 129.13 37.1792C129.01 37.1088 128.872 37.0749 128.733 37.0816C128.164 37.0816 127.88 37.5448 127.88 38.2727C127.88 39.0006 128.164 39.4637 128.733 39.4637C128.878 39.4737 129.024 39.4416 129.151 39.3712C129.279 39.3009 129.385 39.1953 129.455 39.0667L129.849 39.3314C129.737 39.5275 129.574 39.6888 129.377 39.7977C129.18 39.9067 128.957 39.959 128.733 39.949Z" fill="#1D1D1B"/>
<path d="M131.884 37.082C131.315 37.082 131.009 37.5452 131.009 38.2731C131.009 39.001 131.315 39.4642 131.884 39.4642C132.452 39.4642 132.759 39.001 132.759 38.2731C132.759 37.5452 132.452 37.082 131.884 37.082ZM131.884 39.9495C131.052 39.9495 130.527 39.2657 130.527 38.2731C130.527 37.2805 131.052 36.5967 131.884 36.5967C132.715 36.5967 133.262 37.3025 133.262 38.2731C133.262 39.2436 132.715 39.9495 131.884 39.9495Z" fill="#1D1D1B"/>
<path d="M135.582 37.1039H134.641V38.1627H135.582C135.654 38.1731 135.728 38.1668 135.798 38.1442C135.867 38.1216 135.931 38.0834 135.983 38.0324C136.036 37.9813 136.077 37.9189 136.102 37.8497C136.127 37.7806 136.136 37.7066 136.129 37.6333C136.132 37.561 136.12 37.4887 136.094 37.4215C136.067 37.3542 136.027 37.2934 135.975 37.2433C135.923 37.1931 135.861 37.1547 135.793 37.1307C135.726 37.1067 135.654 37.0975 135.582 37.1039ZM135.91 38.5818L136.566 39.9053H136.019L135.363 38.6259H134.641V39.8391H134.16V36.6627H135.582C135.716 36.6468 135.852 36.6603 135.981 36.7022C136.11 36.7441 136.228 36.8135 136.327 36.9056C136.427 36.9977 136.506 37.1103 136.558 37.2359C136.611 37.3615 136.636 37.497 136.632 37.6333C136.642 37.8519 136.575 38.0671 136.443 38.2407C136.311 38.4143 136.122 38.5351 135.91 38.5818Z" fill="#1D1D1B"/>
<path d="M138.926 37.1037H138.073V38.2285H138.926C139.001 38.2389 139.077 38.2319 139.15 38.2082C139.222 38.1845 139.288 38.1446 139.342 38.0916C139.397 38.0385 139.439 37.9737 139.466 37.9019C139.492 37.8302 139.502 37.7533 139.494 37.6771C139.501 37.6001 139.491 37.5226 139.465 37.45C139.439 37.3773 139.397 37.3114 139.343 37.2567C139.289 37.2021 139.223 37.16 139.151 37.1336C139.079 37.1072 139.002 37.097 138.926 37.1037ZM138.926 38.6917H138.095V39.8386H137.613V36.6626H138.969C139.106 36.6493 139.243 36.6663 139.373 36.7123C139.502 36.7583 139.62 36.8322 139.717 36.9288C139.815 37.0255 139.891 37.1425 139.94 37.2717C139.988 37.401 140.008 37.5394 139.998 37.6771C140.005 37.8181 139.982 37.9589 139.929 38.0898C139.877 38.2208 139.797 38.3386 139.695 38.4352C139.593 38.5318 139.471 38.6048 139.339 38.6491C139.206 38.6934 139.065 38.708 138.926 38.6917Z" fill="#1D1D1B"/>
<path d="M73.1054 39.9492C72.3179 39.9492 71.9023 39.4419 71.9023 38.5376V36.6406H72.3836V38.5155C72.3836 39.1331 72.6242 39.464 73.1273 39.464C73.6304 39.464 73.871 39.1551 73.871 38.5596V36.6406H74.3523V38.5376C74.3523 39.464 73.9148 39.9492 73.1054 39.9492Z" fill="#1D1D1B"/>
<path d="M77.393 39.8389L76.1024 37.7875L75.8617 37.3905V39.8389H75.4023V36.6626H75.8836L77.1086 38.6257L77.3711 39.0889V36.6626H77.8524V39.8389H77.393Z" fill="#1D1D1B"/>
<path d="M80.3675 37.9419C80.2672 37.699 80.1867 37.4482 80.1269 37.192C80.1269 37.3464 79.9738 37.7214 79.8863 37.9419L79.6238 38.6919H80.7394L80.3675 37.9419ZM81.0457 39.905L80.7613 39.133H79.4925L79.2082 39.905H78.7051L79.8644 36.6626H80.3894L81.5488 39.905H81.0457Z" fill="#1D1D1B"/>
<path d="M83.8887 39.905V36.6626H85.9668V37.1258H84.3918V37.9199H85.3105V38.4051H84.3918V39.4198H86.0543V39.905H83.8887Z" fill="#1D1D1B"/>
<path d="M89.4883 39.8389V37.6331C89.4883 37.6331 89.3571 37.964 89.2914 38.1404L88.5039 39.9712L87.7383 38.1404C87.7383 37.964 87.5633 37.7214 87.5196 37.6331V39.8389H87.082V36.6626H87.5633L88.2852 38.3831C88.3756 38.5621 88.456 38.7462 88.5258 38.9345L88.7227 38.3831L89.4445 36.6626H89.9477V39.8389H89.4883Z" fill="#1D1D1B"/>
<path d="M92.268 37.1035H91.3929V38.2283H92.268C92.3423 38.2395 92.4183 38.2329 92.4897 38.2091C92.5611 38.1854 92.626 38.1451 92.6791 38.0915C92.7323 38.0379 92.7722 37.9724 92.7958 37.9004C92.8194 37.8285 92.8259 37.7519 92.8148 37.6769C92.8251 37.6011 92.8182 37.5239 92.7946 37.4511C92.7711 37.3784 92.7316 37.312 92.679 37.2568C92.6264 37.2016 92.5621 37.1592 92.4909 37.1326C92.4197 37.1061 92.3435 37.0961 92.268 37.1035ZM92.268 38.6915H91.4148V39.8384H90.9336V36.6623H92.2898C92.4272 36.6495 92.5656 36.6666 92.6958 36.7124C92.826 36.7583 92.9449 36.8318 93.0445 36.928C93.1441 37.0242 93.2219 37.1409 93.2729 37.2701C93.3239 37.3993 93.3467 37.538 93.3398 37.6769C93.3471 37.8178 93.3238 37.9587 93.2716 38.0896C93.2194 38.2205 93.1395 38.3384 93.0374 38.435C92.9354 38.5316 92.8137 38.6046 92.6808 38.6489C92.5479 38.6932 92.407 38.7077 92.268 38.6915Z" fill="#1D1D1B"/>
<path d="M95.5695 37.1039H94.6289V38.1627H95.5695C95.6366 38.163 95.703 38.1491 95.7644 38.122C95.8258 38.0949 95.881 38.0552 95.9263 38.0053C95.9716 37.9555 96.0061 37.8967 96.0275 37.8326C96.049 37.7685 96.0569 37.7006 96.0508 37.6333C96.0542 37.561 96.0422 37.4887 96.0156 37.4215C95.989 37.3542 95.9485 37.2934 95.8967 37.2433C95.8449 37.1931 95.783 37.1547 95.7153 37.1307C95.6475 37.1067 95.5755 37.0975 95.5039 37.1039H95.5695ZM95.832 38.5818L96.4883 39.9053H96.0508L95.3945 38.6259H94.6727V39.8391H94.1914V36.6627H95.6133C95.7476 36.6468 95.8836 36.6603 96.0122 36.7022C96.1409 36.7441 96.2591 36.8135 96.3587 36.9056C96.4584 36.9977 96.5371 37.1103 96.5897 37.2359C96.6423 37.3615 96.6674 37.497 96.6633 37.6333C96.6735 37.8519 96.6065 38.0671 96.4744 38.2407C96.3423 38.4143 96.1535 38.5351 95.9414 38.5818" fill="#1D1D1B"/>
<path d="M97.582 39.905V36.6626H99.6601V37.1258H98.0633V37.9199H99.0039V38.4051H98.0633V39.4198H99.7258V39.905H97.582Z" fill="#1D1D1B"/>
<path d="M101.542 39.949C101.325 39.9526 101.11 39.9069 100.913 39.8152C100.716 39.7236 100.542 39.5884 100.404 39.4196L100.754 39.0888C100.859 39.2087 100.986 39.3057 101.129 39.374C101.272 39.4423 101.427 39.4803 101.586 39.4858C102.045 39.4858 102.264 39.3094 102.264 39.0006C102.264 38.6918 102.067 38.6256 101.52 38.4712C100.973 38.3168 100.514 38.0962 100.514 37.5007C100.522 37.3691 100.556 37.2405 100.615 37.1227C100.674 37.005 100.756 36.9007 100.857 36.816C100.957 36.7314 101.073 36.6683 101.199 36.6305C101.324 36.5927 101.456 36.5811 101.586 36.5963C101.98 36.5973 102.357 36.756 102.636 37.0375L102.286 37.3904C102.194 37.2841 102.079 37.2008 101.95 37.1472C101.821 37.0936 101.681 37.0711 101.542 37.0816C101.17 37.0816 101.017 37.2581 101.017 37.4786C101.017 37.6992 101.148 37.8315 101.717 37.9859C102.286 38.1403 102.745 38.383 102.745 38.9785C102.745 39.574 102.373 39.949 101.542 39.949Z" fill="#1D1D1B"/>
<path d="M105.041 37.9419C104.941 37.699 104.861 37.4482 104.801 37.192C104.801 37.3464 104.648 37.7214 104.56 37.9419L104.298 38.6919H105.282L105.041 37.9419ZM105.72 39.905L105.435 39.133H104.145L103.882 39.905H103.379L104.538 36.6626H105.041L106.223 39.905H105.72Z" fill="#1D1D1B"/>
<path d="M109.046 37.1258V37.9861H109.986V38.4713H109.046V39.905H108.564V36.6626H110.643V37.1258H109.046Z" fill="#1D1D1B"/>
<path d="M111.473 39.905V36.6626H113.551V37.1258H111.954V37.9199H112.895V38.4051H111.954V39.4198H113.638V39.905H111.473Z" fill="#1D1D1B"/>
<path d="M115.957 37.1039H115.016V38.1627H115.957C116.029 38.1731 116.103 38.1668 116.173 38.1442C116.242 38.1216 116.306 38.0834 116.358 38.0324C116.411 37.9813 116.452 37.9189 116.477 37.8497C116.502 37.7806 116.511 37.7066 116.504 37.6333C116.507 37.561 116.495 37.4887 116.469 37.4215C116.442 37.3542 116.402 37.2934 116.35 37.2433C116.298 37.1931 116.236 37.1547 116.168 37.1307C116.101 37.1067 116.029 37.0975 115.957 37.1039ZM116.285 38.5818L116.941 39.9053H116.394L115.738 38.6259H115.016V39.8391H114.535V36.6627H115.957C116.091 36.6468 116.227 36.6603 116.356 36.7022C116.485 36.7441 116.603 36.8135 116.702 36.9056C116.802 36.9977 116.881 37.1103 116.933 37.2359C116.986 37.3615 117.011 37.497 117.007 37.6333C117.017 37.8519 116.95 38.0671 116.818 38.2407C116.686 38.4143 116.497 38.5351 116.285 38.5818Z" fill="#1D1D1B"/>
<path d="M119.391 37.1041H118.451V38.1628H119.391C119.464 38.1733 119.537 38.1669 119.607 38.1444C119.677 38.1218 119.74 38.0835 119.793 38.0325C119.845 37.9815 119.886 37.9191 119.911 37.8499C119.936 37.7808 119.946 37.7068 119.938 37.6335C119.942 37.5612 119.93 37.4889 119.903 37.4217C119.877 37.3544 119.836 37.2937 119.784 37.2435C119.732 37.1934 119.67 37.155 119.603 37.1309C119.535 37.1069 119.463 37.0978 119.391 37.1041ZM119.72 38.5819L120.376 39.9053H119.807L119.173 38.626H118.451V39.8391H117.926V36.663H119.348C119.481 36.6467 119.616 36.66 119.744 36.7021C119.871 36.7441 119.988 36.8138 120.086 36.9063C120.184 36.9989 120.261 37.1119 120.311 37.2375C120.361 37.3632 120.383 37.4983 120.376 37.6335C120.391 37.85 120.329 38.0649 120.201 38.239C120.072 38.4131 119.886 38.5348 119.676 38.5819" fill="#1D1D1B"/>
<path d="M121.404 39.905V36.6626H123.482V37.1258H121.886V37.9199H122.804V38.4051H121.886V39.4198H123.548V39.905H121.404Z" fill="#1D1D1B"/>
<path d="M125.779 38.6258V39.8389H125.298V38.5596L124.139 36.5967H124.707L125.211 37.4789C125.32 37.6774 125.495 38.0082 125.539 38.1185L125.867 37.4789L126.392 36.5967H126.939L125.779 38.6258Z" fill="#1D1D1B"/>
<path d="M128.733 39.949C127.902 39.949 127.377 39.2652 127.377 38.2727C127.377 37.2801 127.902 36.5964 128.733 36.5964C128.955 36.5828 129.176 36.6338 129.37 36.7433C129.564 36.8528 129.722 37.0162 129.827 37.214L129.411 37.4787C129.348 37.3536 129.251 37.2496 129.13 37.1792C129.01 37.1088 128.872 37.0749 128.733 37.0816C128.164 37.0816 127.88 37.5448 127.88 38.2727C127.88 39.0006 128.164 39.4637 128.733 39.4637C128.878 39.4737 129.024 39.4416 129.151 39.3712C129.279 39.3009 129.385 39.1953 129.455 39.0667L129.849 39.3314C129.737 39.5275 129.574 39.6888 129.377 39.7977C129.18 39.9067 128.957 39.959 128.733 39.949Z" fill="#1D1D1B"/>
<path d="M131.884 37.082C131.315 37.082 131.009 37.5452 131.009 38.2731C131.009 39.001 131.315 39.4642 131.884 39.4642C132.452 39.4642 132.759 39.001 132.759 38.2731C132.759 37.5452 132.452 37.082 131.884 37.082ZM131.884 39.9495C131.052 39.9495 130.527 39.2657 130.527 38.2731C130.527 37.2805 131.052 36.5967 131.884 36.5967C132.715 36.5967 133.262 37.3025 133.262 38.2731C133.262 39.2436 132.715 39.9495 131.884 39.9495Z" fill="#1D1D1B"/>
<path d="M135.582 37.1039H134.641V38.1627H135.582C135.654 38.1731 135.728 38.1668 135.798 38.1442C135.867 38.1216 135.931 38.0834 135.983 38.0324C136.036 37.9813 136.077 37.9189 136.102 37.8497C136.127 37.7806 136.136 37.7066 136.129 37.6333C136.132 37.561 136.12 37.4887 136.094 37.4215C136.067 37.3542 136.027 37.2934 135.975 37.2433C135.923 37.1931 135.861 37.1547 135.793 37.1307C135.726 37.1067 135.654 37.0975 135.582 37.1039ZM135.91 38.5818L136.566 39.9053H136.019L135.363 38.6259H134.641V39.8391H134.16V36.6627H135.582C135.716 36.6468 135.852 36.6603 135.981 36.7022C136.11 36.7441 136.228 36.8135 136.327 36.9056C136.427 36.9977 136.506 37.1103 136.558 37.2359C136.611 37.3615 136.636 37.497 136.632 37.6333C136.642 37.8519 136.575 38.0671 136.443 38.2407C136.311 38.4143 136.122 38.5351 135.91 38.5818Z" fill="#1D1D1B"/>
<path d="M138.926 37.1037H138.073V38.2285H138.926C139.001 38.2389 139.077 38.2319 139.15 38.2082C139.222 38.1845 139.288 38.1446 139.342 38.0916C139.397 38.0385 139.439 37.9737 139.466 37.9019C139.492 37.8302 139.502 37.7533 139.494 37.6771C139.501 37.6001 139.491 37.5226 139.465 37.45C139.439 37.3773 139.397 37.3114 139.343 37.2567C139.289 37.2021 139.223 37.16 139.151 37.1336C139.079 37.1072 139.002 37.097 138.926 37.1037ZM138.926 38.6917H138.095V39.8386H137.613V36.6626H138.969C139.106 36.6493 139.243 36.6663 139.373 36.7123C139.502 36.7583 139.62 36.8322 139.717 36.9288C139.815 37.0255 139.891 37.1425 139.94 37.2717C139.988 37.401 140.008 37.5394 139.998 37.6771C140.005 37.8181 139.982 37.9589 139.929 38.0898C139.877 38.2208 139.797 38.3386 139.695 38.4352C139.593 38.5318 139.471 38.6048 139.339 38.6491C139.206 38.6934 139.065 38.708 138.926 38.6917Z" fill="#1D1D1B"/>
</svg>
