<svg width="140" height="44" viewBox="0 0 140 44" fill="none" xmlns="http://www.w3.org/2000/svg">
<path d="M104.981 0.624023H0V35.9092H104.981V0.624023Z" fill="#FCBC00"/>
<path d="M139.974 0.624023H104.98V35.9092H139.974V0.624023Z" fill="#1D1D1B"/>
<path d="M115.968 24.1032C116.236 23.8796 116.447 23.5949 116.584 23.2725C116.721 22.9501 116.78 22.5995 116.756 22.2496V19.6899H113.166V23.1985C113.161 23.4405 113.061 23.6706 112.89 23.8396C112.718 24.0087 112.487 24.1033 112.247 24.1032C112.132 24.1004 112.019 24.0747 111.914 24.0277C111.809 23.9807 111.714 23.9132 111.635 23.8292C111.555 23.7452 111.493 23.6462 111.452 23.538C111.411 23.4298 111.391 23.3144 111.394 23.1985V13.2906C111.391 13.1746 111.411 13.0593 111.452 12.9511C111.493 12.8428 111.555 12.7439 111.635 12.6599C111.714 12.5759 111.809 12.5084 111.914 12.4614C112.019 12.4144 112.132 12.3887 112.247 12.3858C112.487 12.3858 112.718 12.4804 112.89 12.6494C113.061 12.8185 113.161 13.0486 113.166 13.2906V16.8212H116.756V13.0699C116.756 11.0618 115.443 9.38477 112.225 9.38477C109.008 9.38477 107.695 11.0618 107.695 13.092V23.4412C107.695 23.9143 107.789 24.3826 107.972 24.8183C108.155 25.2541 108.422 25.6483 108.759 25.9776C109.096 26.307 109.495 26.5647 109.933 26.7355C110.37 26.9063 110.837 26.9867 111.306 26.9719H112.422L115.968 24.1032Z" fill="white"/>
<path d="M130.147 24.5668V13.1803H127.652V9.82617H136.625V13.1803H134.152V27.0383H133.08L130.147 24.5668Z" fill="white"/>
<path d="M122.03 17.726L123.015 12.761L123.978 17.726H122.03ZM125.51 9.82617H120.499L117.588 23.0661L123.015 18.6528L128.683 23.4192L125.51 9.82617Z" fill="white"/>
<path d="M138.355 10.5981C138.552 10.5981 138.596 10.5981 138.596 10.4216C138.596 10.245 138.596 10.2892 138.399 10.2892H138.158V10.5981H138.355ZM138.158 10.7967V11.3484H137.961V10.0906H138.355C138.596 10.0906 138.837 10.0906 138.837 10.4436C138.833 10.5115 138.808 10.5764 138.764 10.6282C138.721 10.6801 138.662 10.716 138.596 10.7305C138.749 10.7305 138.771 10.8408 138.793 10.9732V11.3484H138.53V11.1277V10.8629H138.355L138.158 10.7967ZM139.252 10.7967C139.255 10.68 139.235 10.5638 139.192 10.4554C139.149 10.3469 139.085 10.2484 139.003 10.1658C138.921 10.0833 138.823 10.0184 138.716 9.97507C138.608 9.93179 138.493 9.91103 138.377 9.91406C138.145 9.91406 137.922 10.0071 137.758 10.1726C137.594 10.3381 137.502 10.5626 137.502 10.7967C137.502 11.0308 137.594 11.2553 137.758 11.4208C137.922 11.5864 138.145 11.6793 138.377 11.6793C138.493 11.6824 138.608 11.6616 138.716 11.6183C138.823 11.5751 138.921 11.5102 139.003 11.4276C139.085 11.345 139.149 11.2465 139.192 11.138C139.235 11.0296 139.255 10.9134 139.252 10.7967ZM137.305 10.7967C137.305 10.6557 137.333 10.5162 137.387 10.3862C137.441 10.2563 137.52 10.1385 137.62 10.0398C137.72 9.9412 137.838 9.86365 137.968 9.81174C138.098 9.75982 138.237 9.7346 138.377 9.73753C138.517 9.7346 138.656 9.75982 138.786 9.81174C138.916 9.86365 139.034 9.9412 139.134 10.0398C139.234 10.1385 139.313 10.2563 139.367 10.3862C139.421 10.5162 139.449 10.6557 139.449 10.7967C139.452 10.9395 139.427 11.0815 139.374 11.214C139.321 11.3465 139.242 11.4669 139.142 11.568C139.042 11.669 138.922 11.7485 138.791 11.8018C138.659 11.855 138.519 11.8809 138.377 11.8779C138.093 11.8779 137.82 11.764 137.619 11.5613C137.418 11.3585 137.305 11.0835 137.305 10.7967Z" fill="white"/>
<path d="M132.075 27.0823H113.648L122.993 19.6016L132.075 27.0823Z" fill="#FCBD0A"/>
<path d="M23.3284 22.2713C25.2104 22.2713 25.8888 20.0646 25.8888 17.4166C25.8888 14.7686 25.2104 12.5399 23.3284 12.5399C21.4463 12.5399 20.7897 14.7465 20.7897 17.4166C20.7897 20.0867 21.4463 22.2713 23.3284 22.2713ZM23.3284 10.1787C27.3114 10.1787 29.2372 13.3122 29.2372 17.4166C29.2372 21.5211 27.3114 24.6545 23.3284 24.6545C19.3454 24.6545 17.4414 21.5211 17.4414 17.4166C17.4414 13.3122 19.3235 10.1787 23.3284 10.1787Z" fill="#1D1D1B"/>
<path d="M36.1086 16.137C36.1086 15.144 36.1086 14.5041 36.1086 13.9303H38.9536C38.9536 14.5703 38.9536 15.2102 38.9536 15.8281C39.5883 14.7027 40.026 13.7759 41.8424 13.7759H42.2802V16.7108C41.938 16.6164 41.5843 16.5718 41.2297 16.5784C39.4132 16.5784 39.1944 18.1892 39.1944 19.7118V24.3679H36.043L36.1086 16.137Z" fill="#1D1D1B"/>
<path d="M47.707 13.9746H50.9679L52.8719 21.3891H52.9156L54.7977 13.9746H57.8616L54.6226 24.3901H50.9241L47.707 13.9746Z" fill="#1D1D1B"/>
<path d="M67.1432 10.1787H64.0137V12.981H67.1432V10.1787Z" fill="#1D1D1B"/>
<path d="M67.1432 13.9746H64.0137V24.4121H67.1432V13.9746Z" fill="#1D1D1B"/>
<path d="M80.4932 16.5783C79.6902 16.2313 78.8282 16.0439 77.9546 16.0266C77.1449 16.0266 76.7947 16.4238 76.7947 16.7989C76.7947 17.1741 77.2543 17.6375 78.9832 18.2995C79.6483 18.4604 80.2344 18.8558 80.6357 19.4143C81.037 19.9727 81.2271 20.6574 81.1717 21.3448C81.1717 23.5515 79.4428 24.5666 77.3419 24.5666C76.1917 24.5782 75.047 24.4069 73.9498 24.059V21.6096C74.7307 22.0803 75.6223 22.3317 76.5321 22.3378C77.9984 22.3378 78.1078 21.8082 78.1078 21.3448C78.1078 20.8814 77.2981 20.6828 75.9194 20.1311C75.2608 19.9076 74.6918 19.4751 74.2973 18.8983C73.9028 18.3215 73.7041 17.6315 73.7309 16.9314C73.7309 15.8059 74.5187 13.7978 77.6045 13.7978C78.5758 13.7882 79.5427 13.9297 80.4713 14.2171L80.4932 16.5783Z" fill="#1D1D1B"/>
<path d="M93.339 19.3806C92.0697 19.3806 90.1219 19.3806 90.1219 21.19C90.101 21.3748 90.1217 21.562 90.1825 21.7376C90.2432 21.9132 90.3425 22.0727 90.473 22.2042C90.6034 22.3357 90.7616 22.4359 90.9357 22.4971C91.1099 22.5584 91.2955 22.5793 91.4788 22.5582C91.7414 22.5582 93.339 22.5582 93.339 19.9764V19.3806ZM88.3931 14.4598C89.4755 14.0915 90.6013 13.869 91.7415 13.7979C95.3743 13.7979 96.1184 15.3204 96.1184 17.6374V21.4548C96.1184 22.9995 96.1184 23.6615 96.1184 24.3897H93.2515V22.9553C92.976 23.4668 92.5626 23.8894 92.0593 24.1744C91.556 24.4594 90.983 24.5952 90.4065 24.5662C89.9832 24.5949 89.5588 24.5327 89.1612 24.3838C88.7636 24.2349 88.4018 24.0026 88.0998 23.7022C87.7978 23.4019 87.5625 23.0404 87.4093 22.6416C87.2562 22.2428 87.1887 21.8157 87.2113 21.3886C87.2113 17.9022 91.26 17.8801 92.3323 17.8801H93.2953C93.2953 15.8941 91.829 15.8941 91.3694 15.8941C90.3413 15.916 89.3401 16.2295 88.4806 16.7989L88.3931 14.4598Z" fill="#1D1D1B"/>
<path d="M66.6178 43.8088C65.7424 43.8088 65.3047 43.2351 65.3047 42.2421V40.1899H65.8299V42.2421C65.8299 42.9041 66.1145 43.2792 66.6397 43.2792C67.1649 43.2792 67.4494 42.9262 67.4494 42.2642V40.1899H67.9746V42.2642C67.9746 43.2572 67.4932 43.8088 66.6178 43.8088Z" fill="#1D1D1B"/>
<path d="M71.3213 43.7427L69.8988 41.536L69.6362 41.0947V43.7427H69.1328V40.1899H69.6799L71.0149 42.3966L71.2994 42.9041V40.1899H71.8246V43.7427H71.3213Z" fill="#1D1D1B"/>
<path d="M74.5813 41.6019C74.5813 41.3592 74.3624 40.9399 74.3187 40.7855L74.0561 41.6019L73.7716 42.4184H74.8658L74.5813 41.6019ZM75.3254 43.8086L75.019 42.9701H73.6184L73.312 43.8086H72.6992L73.9685 40.2559H74.5375L75.8287 43.8086H75.3254Z" fill="#1D1D1B"/>
<path d="M78.457 43.7427V40.1899H80.7331V40.6975H79.0042V41.5801H80.0108V42.1097H79.0042V43.2351H80.8206V43.7427H78.457Z" fill="#1D1D1B"/>
<path d="M84.4746 43.7426V41.2271C84.4746 41.3374 84.3433 41.6022 84.2557 41.8008L83.3804 43.8088L82.5488 41.7567L82.3081 41.1829C82.3081 41.2933 82.3081 41.6022 82.3081 41.8229V43.6985H81.8047V40.1899H82.3518L83.1396 42.0877C83.2313 42.2889 83.3118 42.4951 83.3804 42.7055C83.449 42.4951 83.5293 42.2889 83.6211 42.0877L84.387 40.1899H84.9561V43.7426H84.4746Z" fill="#1D1D1B"/>
<path d="M87.626 40.6974H86.685V41.9111H87.626C87.7091 41.9219 87.7934 41.9134 87.8727 41.8861C87.9519 41.8589 88.0239 41.8137 88.0831 41.754C88.1422 41.6944 88.1871 41.6218 88.2141 41.5419C88.2411 41.462 88.2495 41.3769 88.2388 41.2932C88.246 41.2112 88.2348 41.1286 88.2062 41.0516C88.1776 40.9745 88.1323 40.9048 88.0736 40.8477C88.0148 40.7905 87.9441 40.7474 87.8667 40.7214C87.7892 40.6954 87.707 40.6872 87.626 40.6974ZM87.626 42.4186H86.7069V43.7427H86.1816V40.1898H87.6698C87.8187 40.1771 87.9685 40.1966 88.1094 40.2469C88.2502 40.2972 88.3788 40.3773 88.4865 40.4817C88.5942 40.5862 88.6785 40.7126 88.734 40.8525C88.7894 40.9924 88.8145 41.1427 88.8078 41.2932C88.8149 41.4486 88.7887 41.6038 88.7309 41.7481C88.6731 41.8924 88.5851 42.0224 88.4729 42.1292C88.3607 42.236 88.2269 42.3172 88.0808 42.3672C87.9346 42.4171 87.7795 42.4347 87.626 42.4186Z" fill="#1D1D1B"/>
<path d="M91.2612 40.6976H90.2108V41.7568H91.2393C91.3902 41.7568 91.535 41.6963 91.6417 41.5887C91.7484 41.4811 91.8084 41.3352 91.8084 41.183C91.8084 41.0309 91.7484 40.8849 91.6417 40.7773C91.535 40.6697 91.3902 40.6093 91.2393 40.6093L91.2612 40.6976ZM91.5895 42.1981L92.3336 43.6545H91.7208L91.0205 42.2422H90.2108V43.6545H89.6855V40.19H91.2393C91.3852 40.1742 91.5326 40.1901 91.6719 40.2365C91.8112 40.2829 91.939 40.3588 92.0468 40.4591C92.1546 40.5594 92.2398 40.6818 92.2968 40.8181C92.3538 40.9544 92.3813 41.1014 92.3773 41.2492C92.3975 41.4899 92.328 41.7296 92.1823 41.9214C92.0366 42.1132 91.8252 42.2433 91.5895 42.2864" fill="#1D1D1B"/>
<path d="M93.4688 43.7427V40.1899H95.7448V40.6975H93.994V41.5801H95.0226V42.1097H93.994V43.2351H95.8323V43.7427H93.4688Z" fill="#1D1D1B"/>
<path d="M97.824 43.8091C97.5837 43.813 97.3455 43.7637 97.1261 43.6645C96.9068 43.5654 96.7117 43.4189 96.5547 43.2353L96.9268 42.8602C97.0467 42.9914 97.1922 43.0963 97.3541 43.1684C97.5159 43.2406 97.6908 43.2784 97.8678 43.2795C98.3493 43.2795 98.59 43.1029 98.59 42.7719C98.59 42.4409 98.3711 42.3526 97.7802 42.1761C97.1893 41.9996 96.686 41.7568 96.686 41.1168C96.6909 40.9725 96.7257 40.8308 96.788 40.7007C96.8504 40.5707 96.9391 40.4553 97.0482 40.3618C97.1574 40.2683 97.2848 40.1988 97.4222 40.1579C97.5595 40.1169 97.7038 40.1053 97.8459 40.1238C98.0619 40.1202 98.2763 40.1615 98.4759 40.245C98.6754 40.3285 98.8558 40.4525 99.0058 40.6093L98.6338 40.9844C98.5261 40.8733 98.3963 40.7864 98.253 40.7294C98.1097 40.6723 97.9561 40.6465 97.8021 40.6534C97.3863 40.6534 97.2113 40.852 97.2113 41.0948C97.2113 41.3375 97.3863 41.4699 97.9991 41.6465C98.6119 41.823 99.1152 42.0878 99.1152 42.7278C99.1152 43.3678 98.7213 43.8091 97.824 43.8091Z" fill="#1D1D1B"/>
<path d="M101.633 41.6019C101.633 41.3592 101.414 40.9399 101.37 40.7855L101.108 41.6019L100.823 42.4184H101.917L101.633 41.6019ZM102.377 43.8086L102.07 42.9701H100.67L100.385 43.8086H99.8164L101.108 40.2559H101.655L102.946 43.8086H102.377Z" fill="#1D1D1B"/>
<path d="M106.053 40.6975V41.6463H107.06V42.1759H106.053V43.7427H105.506V40.1899H107.804V40.6975H106.053Z" fill="#1D1D1B"/>
<path d="M108.701 43.7427V40.1899H110.999V40.6975H109.226V41.5801H110.255V42.1097H109.226V43.2351H111.065V43.7427H108.701Z" fill="#1D1D1B"/>
<path d="M113.626 40.6976H112.597V41.7568H113.626C113.777 41.7568 113.921 41.6963 114.028 41.5887C114.135 41.4811 114.195 41.3352 114.195 41.183C114.195 41.0309 114.135 40.8849 114.028 40.7773C113.921 40.6697 113.777 40.6093 113.626 40.6093V40.6976ZM113.976 42.1981L114.698 43.6545H114.085L113.385 42.2422H112.597V43.6545H112.094V40.19H113.648C113.793 40.1742 113.941 40.1901 114.08 40.2365C114.219 40.2829 114.347 40.3588 114.455 40.4591C114.563 40.5594 114.648 40.6818 114.705 40.8181C114.762 40.9544 114.79 41.1014 114.786 41.2492C114.806 41.4899 114.736 41.7296 114.59 41.9214C114.445 42.1132 114.233 42.2433 113.998 42.2864" fill="#1D1D1B"/>
<path d="M117.368 40.6977H116.339V41.757H117.368C117.519 41.757 117.664 41.6965 117.77 41.5889C117.877 41.4813 117.937 41.3354 117.937 41.1832C117.937 41.0311 117.877 40.8851 117.77 40.7775C117.664 40.6699 117.519 40.6095 117.368 40.6095V40.6977ZM117.74 42.1983L118.462 43.6548H117.849L117.149 42.2425H116.339V43.6548H115.836V40.1902H117.368C117.515 40.171 117.665 40.1843 117.807 40.2291C117.949 40.274 118.08 40.3494 118.19 40.4501C118.3 40.5507 118.388 40.6744 118.446 40.8124C118.504 40.9504 118.532 41.0995 118.528 41.2494C118.548 41.4902 118.478 41.7298 118.333 41.9216C118.187 42.1134 117.976 42.2435 117.74 42.2866" fill="#1D1D1B"/>
<path d="M119.58 43.7427V40.1899H121.878V40.6975H120.127V41.5801H121.134V42.1097H120.127V43.2351H121.944V43.7427H119.58Z" fill="#1D1D1B"/>
<path d="M124.392 42.3307V43.7429H123.867V42.3307L122.598 40.124H123.21L123.758 41.095C123.889 41.3156 124.064 41.6687 124.13 41.8011L124.502 41.095L125.049 40.124H125.662L124.392 42.3307Z" fill="#1D1D1B"/>
<path d="M127.633 43.8084C126.714 43.8084 126.145 43.0582 126.145 41.977C126.145 40.8958 126.714 40.1235 127.633 40.1235C127.875 40.1087 128.116 40.163 128.329 40.2801C128.542 40.3971 128.718 40.5723 128.836 40.7854L128.377 41.0943C128.307 40.9575 128.2 40.8435 128.068 40.7654C127.936 40.6873 127.785 40.6483 127.633 40.653C127.02 40.653 126.692 41.1605 126.692 41.977C126.692 42.7934 127.02 43.2788 127.633 43.2788C127.791 43.2842 127.948 43.246 128.087 43.1683C128.226 43.0905 128.341 42.9762 128.42 42.8375L128.858 43.1244C128.735 43.34 128.556 43.5176 128.34 43.6382C128.124 43.7587 127.879 43.8176 127.633 43.8084Z" fill="#1D1D1B"/>
<path d="M131.09 40.6536C130.455 40.6536 130.127 41.1611 130.127 41.9776C130.127 42.794 130.455 43.2795 131.09 43.2795C131.725 43.2795 132.053 42.772 132.053 41.9776C132.053 41.1832 131.703 40.6536 131.09 40.6536ZM131.09 43.8091C130.171 43.8091 129.58 43.0368 129.58 41.9776C129.58 40.9184 130.171 40.124 131.09 40.124C132.009 40.124 132.578 40.8963 132.578 41.9776C132.578 43.0588 132.009 43.8091 131.09 43.8091Z" fill="#1D1D1B"/>
<path d="M135.138 40.6976H134.109V41.7568H135.138C135.289 41.7568 135.433 41.6963 135.54 41.5887C135.647 41.4811 135.707 41.3352 135.707 41.183C135.707 41.0309 135.647 40.8849 135.54 40.7773C135.433 40.6697 135.289 40.6093 135.138 40.6093V40.6976ZM135.488 42.1981L136.232 43.6545H135.619L134.897 42.2422H134.109V43.6545H133.584V40.19H135.138C135.284 40.1742 135.431 40.1901 135.57 40.2365C135.71 40.2829 135.837 40.3588 135.945 40.4591C136.053 40.5594 136.138 40.6818 136.195 40.8181C136.252 40.9544 136.28 41.1014 136.276 41.2492C136.296 41.4899 136.226 41.7296 136.081 41.9214C135.935 42.1132 135.724 42.2433 135.488 42.2864" fill="#1D1D1B"/>
<path d="M138.815 40.6973H137.874V41.9109H138.815C138.898 41.9217 138.983 41.9132 139.062 41.886C139.141 41.8588 139.213 41.8136 139.273 41.7539C139.332 41.6942 139.377 41.6216 139.404 41.5417C139.431 41.4618 139.439 41.3768 139.428 41.2931C139.435 41.2111 139.424 41.1285 139.396 41.0514C139.367 40.9744 139.322 40.9047 139.263 40.8476C139.204 40.7905 139.134 40.7473 139.056 40.7213C138.979 40.6953 138.896 40.6871 138.815 40.6973ZM138.815 42.4184H137.896V43.7424H137.371V40.1898H138.859C139.009 40.1732 139.16 40.19 139.303 40.239C139.445 40.288 139.576 40.3679 139.684 40.4731C139.793 40.5784 139.877 40.7063 139.931 40.848C139.985 40.9897 140.008 41.1416 139.997 41.2931C140.008 41.4495 139.985 41.6064 139.928 41.7525C139.872 41.8986 139.784 42.0303 139.671 42.1379C139.558 42.2456 139.422 42.3266 139.274 42.3751C139.126 42.4237 138.97 42.4384 138.815 42.4184Z" fill="#1D1D1B"/>
</svg>
