<svg width="100" height="101" viewBox="0 0 100 101" fill="none" xmlns="http://www.w3.org/2000/svg">
<g clip-path="url(#clip0)">
<path d="M50 100.833C77.6142 100.833 100 78.2607 100 50.4164C100 22.5722 77.6142 0 50 0C22.3858 0 0 22.5722 0 50.4164C0 78.2607 22.3858 100.833 50 100.833Z" fill="#28B7CD"/>
<path d="M25.0156 18.1182H74.9844V82.7142H25.0156V18.1182Z" fill="#EEEFEE"/>
<path d="M42.5996 25.6279H60.6176V27.5658H42.5996V25.6279Z" fill="#DBD8DD"/>
<path d="M42.5996 31.1182H70.7207V33.056H42.5996V31.1182Z" fill="#DBD8DD"/>
<path d="M29.2793 23.6904H38.5684V33.0569H29.2793V23.6904Z" fill="#DBD8DD"/>
<path d="M42.5996 40.3242H60.6176V42.2621H42.5996V40.3242Z" fill="#DBD8DD"/>
<path d="M42.5996 45.8145H70.7207V47.7523H42.5996V45.8145Z" fill="#DBD8DD"/>
<path d="M29.2793 38.3857H38.5684V47.7522H29.2793V38.3857Z" fill="#DBD8DD"/>
<path d="M42.5996 55.0186H60.6176V56.9564H42.5996V55.0186Z" fill="#DBD8DD"/>
<path d="M42.5996 60.5098H70.7207V62.4477H42.5996V60.5098Z" fill="#DBD8DD"/>
<path d="M29.2793 53.0811H38.5684V62.4475H29.2793V53.0811Z" fill="#DBD8DD"/>
<path d="M42.5996 69.7139H60.6176V71.6518H42.5996V69.7139Z" fill="#DBD8DD"/>
<path d="M42.5996 75.2051H70.7207V77.143H42.5996V75.2051Z" fill="#DBD8DD"/>
<path d="M29.2793 67.7764H38.5684V77.1428H29.2793V67.7764Z" fill="#DBD8DD"/>
</g>
<defs>
<clipPath id="clip0">
<rect width="100" height="100.833" fill="white"/>
</clipPath>
</defs>
</svg>
