<svg width="100" height="101" viewBox="0 0 100 101" fill="none" xmlns="http://www.w3.org/2000/svg">
<g clip-path="url(#clip0)">
<path d="M50 100.915C77.6142 100.915 100 78.3427 100 50.4985C100 22.6542 77.6142 0.0820312 50 0.0820312C22.3858 0.0820312 0 22.6542 0 50.4985C0 78.3427 22.3858 100.915 50 100.915Z" fill="#EF5261"/>
<path d="M74.7877 27.3952V82.0088H25.1875V18.9883H66.4626L74.7877 27.3952Z" fill="#EEEFEE"/>
<path d="M38.1875 46.562H42.3875V70.3239H38.1875V46.562Z" fill="#69B0EE"/>
<path d="M46.4062 61.627H50.6063V70.3238H46.4062V61.627Z" fill="#2CBFAE"/>
<path d="M54.627 50.4985H58.827V70.324H54.627V50.4985Z" fill="#EF5261"/>
<path d="M62.8457 57.2944H67.0457V70.3239H62.8457V57.2944Z" fill="#F6C863"/>
<path d="M67.2285 75.1671H32.748V43.9121H34.4895V73.4112H67.2285V75.1671Z" fill="#575B6D"/>
<path d="M32.748 24.6675H52.9965V26.4399H32.748V24.6675Z" fill="#DBD8DD"/>
<path d="M32.748 30.4771H52.9965V32.2495H32.748V30.4771Z" fill="#DBD8DD"/>
<path d="M74.8133 27.3952H66.4883V18.9883L74.8133 27.3952Z" fill="#DBD8DD"/>
</g>
<defs>
<clipPath id="clip0">
<rect width="100" height="100.833" fill="white" transform="translate(0 0.0820312)"/>
</clipPath>
</defs>
</svg>
