<svg width="100" height="101" viewBox="0 0 100 101" fill="none" xmlns="http://www.w3.org/2000/svg">
<g clip-path="url(#clip0)">
<path d="M50 100.997C77.6142 100.997 100 78.4252 100 50.581C100 22.7368 77.6142 0.164551 50 0.164551C22.3858 0.164551 0 22.7368 0 50.581C0 78.4252 22.3858 100.997 50 100.997Z" fill="#3B5059"/>
<path d="M79.8695 52.7529C79.8693 60.7428 76.7215 68.4054 71.1184 74.0551C65.5154 79.7048 57.9161 82.8789 49.9922 82.8791C45.3529 82.8898 40.7763 81.799 36.6328 79.695L50.6859 53.2949L50.7555 53.1728C50.8242 53.0437 50.8599 52.8994 50.8594 52.7529V22.644C58.6297 22.8698 66.0067 26.141 71.4234 31.7629C76.8402 37.3849 79.8701 44.9146 79.8695 52.7529Z" fill="#F6C863"/>
<path d="M48.5672 44.8235L36.4219 21.257C40.2157 19.4095 44.3556 18.3959 48.5672 18.2832V44.8235Z" fill="#EF5261"/>
<path d="M48.5512 52.7612L35.1043 78.0065C30.6719 75.4453 26.9668 71.7784 24.3447 67.3575C21.7226 62.9367 20.2716 57.9104 20.1309 52.7612H48.5512Z" fill="#2CBFAE"/>
<path d="M48.5684 50.7516H20.1309C20.2799 45.5365 21.7704 40.45 24.4561 35.9906C27.1418 31.5313 30.9306 27.8522 35.4512 25.314L48.5684 50.7516Z" fill="#69B0EE"/>
</g>
<defs>
<clipPath id="clip0">
<rect width="100" height="100.833" fill="white" transform="translate(0 0.164551)"/>
</clipPath>
</defs>
</svg>
