<svg width="140" height="49" viewBox="0 0 140 49" fill="none" xmlns="http://www.w3.org/2000/svg">
<path d="M135.184 44.6904H43.5078V48.1152H135.184V44.6904Z" fill="#F59B00"/>
<path d="M1.22084 34.3943C3.60091 35.5746 6.20544 36.2235 8.85681 36.2968C12.0977 36.2968 13.2963 35.6477 13.2963 33.7899C13.2963 31.9322 12.586 31.5517 8.85681 30.3878C3.66258 28.7315 0.377342 27.2542 0.39954 22.0839C0.39954 17.294 4.83907 13.6681 12.2087 13.6681C14.6756 13.4739 17.1556 13.8017 19.4895 14.6305L19.201 20.45C16.9283 19.5983 14.5222 19.1661 12.0977 19.1742C9.03444 19.1742 7.94677 20.1142 7.94677 21.4124C7.94677 23.203 9.72263 23.6507 13.8292 24.9712C20.4885 27.2095 21.4429 29.4477 21.4429 33.9242C21.4429 38.4007 17.4473 42.6086 8.87903 42.6086C5.83279 42.6373 2.81236 42.0434 0 40.8628L1.22084 34.3943Z" fill="#0E406A"/>
<path d="M32.9631 14.3174H25.9043V40.9075H32.9631V14.3174Z" fill="#0E406A"/>
<path d="M57.6021 14.3174H50.5655H43.5067H36.7363V19.7115H43.5067V40.9075H50.5655V19.7115H57.6021V14.3174Z" fill="#0E406A"/>
<path d="M67.8147 35.5134V30.1864H79.2243V24.9042H67.8147V19.7115H80.1788V14.3174H67.8147H60.7559V19.7115V24.9042V30.1864V35.5134V40.9075H67.8147H80.8226V35.5134H67.8147Z" fill="#0E406A"/>
<path d="M128.125 14.3174V24.2775H119.024V14.3174H111.965V40.9075H119.024V29.694H128.125V40.9075H135.184V14.3174H128.125Z" fill="#0E406A"/>
<path d="M108.37 40.0342C105.509 41.0189 102.514 41.5548 99.4914 41.6233C89.8355 41.6233 83.9531 35.8487 83.9531 28.194C83.9531 19.0397 91.5891 13.9365 100.046 13.9365C102.849 14.0022 105.616 14.5785 108.215 15.6376V21.2107C105.792 19.83 103.073 19.062 100.291 18.9725C99.0222 18.7684 97.7251 18.8441 96.4886 19.1946C95.2521 19.545 94.1058 20.1617 93.1286 21.0022C92.1515 21.8427 91.3668 22.8869 90.8288 24.0628C90.2907 25.2388 90.0121 26.5184 90.0121 27.8135C90.0121 29.1085 90.2907 30.3882 90.8288 31.5641C91.3668 32.7401 92.1515 33.7843 93.1286 34.6248C94.1058 35.4653 95.2521 36.082 96.4886 36.4324C97.7251 36.7828 99.0222 36.8586 100.291 36.6545C103.002 36.4184 105.677 35.8625 108.26 34.9982L108.37 40.0342Z" fill="#0E406A"/>
<path d="M136.893 14.6307H136.404V14.2949H137.803V14.6307H137.314V16.0632H136.893V14.6307Z" fill="#0E406A"/>
<path d="M139.601 15.3917C139.601 15.1903 139.601 14.9217 139.601 14.6531C139.601 14.8993 139.446 15.1455 139.379 15.347L139.157 16.0408H138.846L138.647 15.347C138.572 15.12 138.512 14.8882 138.469 14.6531C138.469 14.8993 138.469 15.1679 138.469 15.3917V16.0632H138.092L138.203 14.2949H138.758L138.935 14.8993C139 15.1047 139.052 15.314 139.091 15.526L139.246 14.8769L139.446 14.2949H140.001V16.0632H139.601V15.3917Z" fill="#0E406A"/>
<path d="M40.9991 0.328125C23.0856 0.328125 7.70267 4.60323 1.82031 10.9599H23.019C28.0134 7.60253 36.3375 5.61046 48.8125 5.61046C61.2876 5.61046 72.6972 7.71443 80.3776 11.1614C74.5396 4.80467 59.1123 0.328125 40.9991 0.328125Z" fill="#F59B00"/>
</svg>
