<svg width="140" height="42" viewBox="0 0 140 42" fill="none" xmlns="http://www.w3.org/2000/svg">
<path d="M69.1043 41.6099C68.296 41.6099 67.8809 41.1032 67.8809 40.2V38.3276H68.3615V40.2C68.3615 40.7948 68.6237 41.1252 69.1043 41.1252C69.585 41.1252 69.8471 40.8168 69.8471 40.2221V38.3276H70.3278V40.2221C70.3278 41.1252 69.8908 41.6099 69.1043 41.6099Z" fill="#1D1D1B"/>
<path d="M73.3655 41.5659L72.0765 39.5392L71.8361 39.1207C71.8361 39.2529 71.8361 39.6934 71.8361 39.8917V41.5659H71.3555V38.3276H71.858L73.0814 40.3103L73.3436 40.7508V38.3276H73.8024V41.5659H73.3655Z" fill="#1D1D1B"/>
<path d="M76.3358 39.6053L76.0955 38.8563C76.0955 39.0105 75.9426 39.385 75.877 39.6273L75.6149 40.3543H76.598L76.3358 39.6053ZM77.035 41.5659L76.7509 40.7949H75.4619L75.1998 41.5659H74.6973L75.8552 38.3276H76.3577L77.5375 41.5659H77.035Z" fill="#1D1D1B"/>
<path d="M79.877 41.5659V38.3276H81.9525V38.7902H80.3576V39.5833H81.297V40.0679H80.3576V41.1033H82.0181V41.5659H79.877Z" fill="#1D1D1B"/>
<path d="M85.3372 41.5658V39.8476C85.3239 39.6569 85.3239 39.4655 85.3372 39.2749C85.3372 39.2749 85.2061 39.6053 85.1187 39.7815L84.3322 41.6099L83.5675 39.7815C83.4882 39.6184 83.4224 39.4489 83.3709 39.2749V41.4777H82.9121V38.3276H83.4146L84.1356 40.0458C84.1356 40.2441 84.3104 40.4644 84.3541 40.5966C84.3978 40.7287 84.4851 40.2441 84.5725 40.0458L85.2716 38.3276H85.796V41.5658H85.3372Z" fill="#1D1D1B"/>
<path d="M88.1546 38.7902H87.3025V39.8917H88.1546C88.2289 39.9028 88.3047 39.8963 88.3761 39.8726C88.4474 39.8488 88.5122 39.8086 88.5653 39.755C88.6184 39.7015 88.6583 39.6361 88.6818 39.5642C88.7054 39.4923 88.7119 39.4158 88.7008 39.3409C88.7075 39.2669 88.698 39.1923 88.673 39.1224C88.6479 39.0525 88.6079 38.9891 88.5557 38.9365C88.5036 38.8839 88.4406 38.8436 88.3713 38.8183C88.302 38.793 88.228 38.7834 88.1546 38.7902ZM88.1546 40.3543H87.3244V41.5659H86.8438V38.3276H88.1546C88.2909 38.3144 88.4283 38.3313 88.5573 38.3773C88.6864 38.4232 88.8039 38.497 88.9017 38.5935C88.9995 38.69 89.0752 38.8069 89.1235 38.936C89.1719 39.0652 89.1917 39.2033 89.1815 39.3409C89.1888 39.4817 89.1655 39.6224 89.1133 39.7532C89.0612 39.8839 88.9814 40.0016 88.8794 40.0981C88.7775 40.1946 88.6559 40.2675 88.5232 40.3117C88.3905 40.356 88.2498 40.3705 88.111 40.3543" fill="#1D1D1B"/>
<path d="M91.5412 38.7902H90.6018V39.8256H91.5412C91.6127 39.8319 91.6846 39.8228 91.7523 39.7988C91.82 39.7748 91.8818 39.7365 91.9335 39.6864C91.9853 39.6363 92.0257 39.5756 92.0523 39.5084C92.0788 39.4412 92.0908 39.3691 92.0874 39.2969C92.0913 39.2254 92.0795 39.154 92.0528 39.0877C92.0261 39.0215 91.9851 38.962 91.9329 38.9135C91.8807 38.8651 91.8185 38.8289 91.7508 38.8076C91.683 38.7863 91.6115 38.7803 91.5412 38.7902ZM91.869 40.2441L92.5244 41.5659H91.9563L91.3228 40.2882H90.6018V41.5659H90.1211V38.3275H91.5412C91.6743 38.3112 91.8094 38.3246 91.9369 38.3666C92.0643 38.4085 92.1811 38.4782 92.279 38.5706C92.3769 38.663 92.4535 38.7759 92.5035 38.9014C92.5534 39.0269 92.5754 39.1619 92.5681 39.2969C92.5837 39.5131 92.5217 39.7277 92.3933 39.9016C92.265 40.0756 92.0789 40.1971 91.869 40.2441Z" fill="#1D1D1B"/>
<path d="M93.5527 41.5659V38.3276H95.6283V38.7902H94.0334V39.5833H94.951V40.0679H94.0334V41.1033H95.6938V41.5659H93.5527Z" fill="#1D1D1B"/>
<path d="M97.5056 41.6098C97.2882 41.6119 97.0727 41.5679 96.8732 41.4806C96.6737 41.3933 96.4947 41.2647 96.3477 41.1031L96.6972 40.7507C96.8056 40.871 96.9369 40.9681 97.0833 41.0363C97.2297 41.1044 97.3881 41.1421 97.5493 41.1472C97.9862 41.1472 98.2048 40.971 98.2048 40.6625C98.2048 40.3541 98.0081 40.2881 97.4837 40.1339C96.9594 39.9797 96.4787 39.7594 96.4787 39.1646C96.4839 39.0341 96.5157 38.9061 96.5723 38.7886C96.6288 38.6711 96.7088 38.5667 96.8073 38.4819C96.9058 38.3971 97.0206 38.3337 97.1446 38.2957C97.2685 38.2578 97.3988 38.2461 97.5275 38.2614C97.9278 38.2613 98.3121 38.4195 98.598 38.702L98.2484 39.0544C98.1523 38.9543 98.0367 38.8752 97.9089 38.8221C97.7811 38.7691 97.6438 38.7432 97.5056 38.746C97.1123 38.746 96.9594 38.9223 96.9594 39.1426C96.9594 39.3628 97.1124 39.495 97.6586 39.6492C98.2048 39.8034 98.6854 40.0457 98.6854 40.6405C98.6854 41.2353 98.3358 41.6098 97.5056 41.6098Z" fill="#1D1D1B"/>
<path d="M100.978 39.6053L100.738 38.8563C100.738 39.0105 100.585 39.385 100.498 39.6273L100.257 40.3543H101.262L100.978 39.6053ZM101.656 41.5659L101.394 40.7949H100.105L99.8424 41.5659H99.3398L100.498 38.3276H101L102.18 41.5659H101.656Z" fill="#1D1D1B"/>
<path d="M105 38.7902V39.6494H105.918V40.134H105V41.5659H104.52V38.3276H106.595V38.7902H105Z" fill="#1D1D1B"/>
<path d="M107.424 41.5659V38.3276H109.499V38.7902H107.904V39.5833H108.822V40.0679H107.904V41.1033H109.565V41.5659H107.424Z" fill="#1D1D1B"/>
<path d="M111.904 38.7902H110.965V39.8256H111.904C111.976 39.8319 112.048 39.8228 112.116 39.7988C112.183 39.7748 112.245 39.7365 112.297 39.6864C112.348 39.6363 112.389 39.5756 112.416 39.5084C112.442 39.4412 112.454 39.3691 112.451 39.2969C112.455 39.2254 112.443 39.154 112.416 39.0877C112.389 39.0215 112.348 38.962 112.296 38.9135C112.244 38.8651 112.182 38.8289 112.114 38.8076C112.046 38.7863 111.975 38.7803 111.904 38.7902ZM112.232 40.2441L112.888 41.5659H112.32L111.686 40.2882H110.965V41.5659H110.484V38.3275H111.904C112.038 38.3112 112.173 38.3246 112.3 38.3666C112.428 38.4085 112.544 38.4782 112.642 38.5706C112.74 38.663 112.817 38.7759 112.867 38.9014C112.917 39.0269 112.939 39.1619 112.931 39.2969C112.947 39.5131 112.885 39.7277 112.757 39.9016C112.628 40.0756 112.442 40.1971 112.232 40.2441Z" fill="#1D1D1B"/>
<path d="M115.31 38.7904H114.371V39.8258H115.31C115.383 39.8362 115.456 39.8299 115.526 39.8073C115.595 39.7848 115.659 39.7466 115.711 39.6956C115.764 39.6447 115.804 39.5823 115.829 39.5133C115.855 39.4442 115.864 39.3703 115.856 39.2971C115.86 39.2257 115.849 39.1542 115.822 39.088C115.795 39.0217 115.754 38.9622 115.702 38.9137C115.65 38.8653 115.588 38.8291 115.52 38.8078C115.452 38.7865 115.381 38.7805 115.31 38.7904ZM115.638 40.2444L116.293 41.5662H115.747L115.114 40.2884H114.371V41.5662H113.912V38.3278H115.31C115.444 38.3119 115.58 38.3253 115.709 38.3672C115.837 38.409 115.955 38.4783 116.055 38.5703C116.154 38.6623 116.233 38.7748 116.285 38.9002C116.338 39.0256 116.363 39.161 116.359 39.2971C116.369 39.5154 116.302 39.7303 116.17 39.9037C116.038 40.0771 115.85 40.1978 115.638 40.2444Z" fill="#1D1D1B"/>
<path d="M117.322 41.5659V38.3276H119.398V38.7902H117.803V39.5833H118.742V40.0679H117.803V41.1033H119.463V41.5659H117.322Z" fill="#1D1D1B"/>
<path d="M121.713 40.2882V41.5659H121.232V40.2882L120.074 38.3276H120.642L121.145 39.2088L121.473 39.8697C121.473 39.7375 121.691 39.4291 121.8 39.2088L122.303 38.3276H122.871L121.713 40.2882Z" fill="#1D1D1B"/>
<path d="M124.662 41.6096C123.831 41.6096 123.285 40.9268 123.285 39.9355C123.285 38.9443 123.831 38.2614 124.662 38.2614C124.883 38.2479 125.104 38.2988 125.298 38.4081C125.491 38.5175 125.65 38.6806 125.754 38.8782L125.317 39.1425C125.26 39.0176 125.167 38.9129 125.05 38.8421C124.933 38.7714 124.798 38.7379 124.662 38.746C124.094 38.746 123.788 39.2086 123.788 39.9355C123.788 40.6624 124.094 41.125 124.662 41.125C124.797 41.1169 124.928 41.0716 125.039 40.9939C125.151 40.9163 125.24 40.8092 125.295 40.6845L125.71 40.9488C125.597 41.143 125.433 41.3028 125.237 41.4113C125.041 41.5198 124.82 41.5731 124.596 41.5656" fill="#1D1D1B"/>
<path d="M127.786 38.7459C127.24 38.7459 126.934 39.2085 126.934 39.9354C126.934 40.6624 127.24 41.125 127.786 41.125C128.332 41.125 128.682 40.6844 128.682 39.9354C128.682 39.1864 128.354 38.7459 127.786 38.7459ZM127.786 41.6096C126.956 41.6096 126.432 40.9267 126.432 39.9354C126.432 38.9441 126.956 38.2612 127.786 38.2612C128.616 38.2612 129.163 38.9662 129.163 39.9354C129.163 40.9047 128.638 41.6096 127.786 41.6096Z" fill="#1D1D1B"/>
<path d="M131.499 38.7902H130.56V39.8256H131.499C131.571 39.8319 131.643 39.8228 131.71 39.7988C131.778 39.7748 131.84 39.7365 131.892 39.6864C131.943 39.6363 131.984 39.5756 132.01 39.5084C132.037 39.4412 132.049 39.3691 132.046 39.2969C132.049 39.2254 132.038 39.154 132.011 39.0877C131.984 39.0215 131.943 38.962 131.891 38.9135C131.839 38.8651 131.777 38.8289 131.709 38.8076C131.641 38.7863 131.57 38.7803 131.499 38.7902ZM131.827 40.2441L132.483 41.5659H131.849L131.215 40.2882H130.494V41.5659H130.014V38.3275H131.434C131.567 38.3112 131.702 38.3246 131.829 38.3666C131.957 38.4085 132.074 38.4782 132.172 38.5706C132.269 38.663 132.346 38.7759 132.396 38.9014C132.446 39.0269 132.468 39.1619 132.461 39.2969C132.476 39.5131 132.414 39.7277 132.286 39.9016C132.158 40.0756 131.971 40.1971 131.762 40.2441" fill="#1D1D1B"/>
<path d="M134.843 38.7902H134.035V39.8917H134.909C134.983 39.9028 135.059 39.8963 135.13 39.8725C135.202 39.8488 135.266 39.8085 135.319 39.755C135.373 39.7015 135.413 39.6361 135.436 39.5642C135.46 39.4923 135.466 39.4158 135.455 39.3409C135.462 39.2669 135.452 39.1923 135.427 39.1224C135.402 39.0525 135.362 38.989 135.31 38.9365C135.258 38.8839 135.195 38.8436 135.126 38.8183C135.056 38.793 134.982 38.7834 134.909 38.7902H134.843ZM134.909 40.3543H134.035V41.5659H133.576V38.3276H134.909C135.047 38.3109 135.187 38.3252 135.318 38.3696C135.45 38.4139 135.571 38.4872 135.671 38.5842C135.771 38.6811 135.849 38.7992 135.898 38.9301C135.948 39.0609 135.968 39.2013 135.958 39.3409C135.965 39.4817 135.942 39.6224 135.889 39.7531C135.837 39.8839 135.757 40.0016 135.656 40.0981C135.554 40.1946 135.432 40.2675 135.299 40.3117C135.167 40.356 135.026 40.3705 134.887 40.3543" fill="#1D1D1B"/>
<path d="M69.1043 41.6099C68.296 41.6099 67.8809 41.1032 67.8809 40.2V38.3276H68.3615V40.2C68.3615 40.7948 68.6237 41.1252 69.1043 41.1252C69.585 41.1252 69.8471 40.8168 69.8471 40.2221V38.3276H70.3278V40.2221C70.3278 41.1252 69.8908 41.6099 69.1043 41.6099Z" fill="#1D1D1B"/>
<path d="M73.3655 41.5659L72.0765 39.5392L71.8361 39.1207C71.8361 39.2529 71.8361 39.6934 71.8361 39.8917V41.5659H71.3555V38.3276H71.858L73.0814 40.3103L73.3436 40.7508V38.3276H73.8024V41.5659H73.3655Z" fill="#1D1D1B"/>
<path d="M76.3358 39.6053L76.0955 38.8563C76.0955 39.0105 75.9426 39.385 75.877 39.6273L75.6149 40.3543H76.598L76.3358 39.6053ZM77.035 41.5659L76.7509 40.7949H75.4619L75.1998 41.5659H74.6973L75.8552 38.3276H76.3577L77.5375 41.5659H77.035Z" fill="#1D1D1B"/>
<path d="M79.877 41.5659V38.3276H81.9525V38.7902H80.3576V39.5833H81.297V40.0679H80.3576V41.1033H82.0181V41.5659H79.877Z" fill="#1D1D1B"/>
<path d="M85.3372 41.5658V39.8476C85.3239 39.6569 85.3239 39.4655 85.3372 39.2749C85.3372 39.2749 85.2061 39.6053 85.1187 39.7815L84.3322 41.6099L83.5675 39.7815C83.4882 39.6184 83.4224 39.4489 83.3709 39.2749V41.4777H82.9121V38.3276H83.4146L84.1356 40.0458C84.1356 40.2441 84.3104 40.4644 84.3541 40.5966C84.3978 40.7287 84.4851 40.2441 84.5725 40.0458L85.2716 38.3276H85.796V41.5658H85.3372Z" fill="#1D1D1B"/>
<path d="M88.1546 38.7902H87.3025V39.8917H88.1546C88.2289 39.9028 88.3047 39.8963 88.3761 39.8726C88.4474 39.8488 88.5122 39.8086 88.5653 39.755C88.6184 39.7015 88.6583 39.6361 88.6818 39.5642C88.7054 39.4923 88.7119 39.4158 88.7008 39.3409C88.7075 39.2669 88.698 39.1923 88.673 39.1224C88.6479 39.0525 88.6079 38.9891 88.5557 38.9365C88.5036 38.8839 88.4406 38.8436 88.3713 38.8183C88.302 38.793 88.228 38.7834 88.1546 38.7902ZM88.1546 40.3543H87.3244V41.5659H86.8438V38.3276H88.1546C88.2909 38.3144 88.4283 38.3313 88.5573 38.3773C88.6864 38.4232 88.8039 38.497 88.9017 38.5935C88.9995 38.69 89.0752 38.8069 89.1235 38.936C89.1719 39.0652 89.1917 39.2033 89.1815 39.3409C89.1888 39.4817 89.1655 39.6224 89.1133 39.7532C89.0612 39.8839 88.9814 40.0016 88.8794 40.0981C88.7775 40.1946 88.6559 40.2675 88.5232 40.3117C88.3905 40.356 88.2498 40.3705 88.111 40.3543" fill="#1D1D1B"/>
<path d="M91.5412 38.7902H90.6018V39.8256H91.5412C91.6127 39.8319 91.6846 39.8228 91.7523 39.7988C91.82 39.7748 91.8818 39.7365 91.9335 39.6864C91.9853 39.6363 92.0257 39.5756 92.0523 39.5084C92.0788 39.4412 92.0908 39.3691 92.0874 39.2969C92.0913 39.2254 92.0795 39.154 92.0528 39.0877C92.0261 39.0215 91.9851 38.962 91.9329 38.9135C91.8807 38.8651 91.8185 38.8289 91.7508 38.8076C91.683 38.7863 91.6115 38.7803 91.5412 38.7902ZM91.869 40.2441L92.5244 41.5659H91.9563L91.3228 40.2882H90.6018V41.5659H90.1211V38.3275H91.5412C91.6743 38.3112 91.8094 38.3246 91.9369 38.3666C92.0643 38.4085 92.1811 38.4782 92.279 38.5706C92.3769 38.663 92.4535 38.7759 92.5035 38.9014C92.5534 39.0269 92.5754 39.1619 92.5681 39.2969C92.5837 39.5131 92.5217 39.7277 92.3933 39.9016C92.265 40.0756 92.0789 40.1971 91.869 40.2441Z" fill="#1D1D1B"/>
<path d="M93.5527 41.5659V38.3276H95.6283V38.7902H94.0334V39.5833H94.951V40.0679H94.0334V41.1033H95.6938V41.5659H93.5527Z" fill="#1D1D1B"/>
<path d="M97.5056 41.6098C97.2882 41.6119 97.0727 41.5679 96.8732 41.4806C96.6737 41.3933 96.4947 41.2647 96.3477 41.1031L96.6972 40.7507C96.8056 40.871 96.9369 40.9681 97.0833 41.0363C97.2297 41.1044 97.3881 41.1421 97.5493 41.1472C97.9862 41.1472 98.2048 40.971 98.2048 40.6625C98.2048 40.3541 98.0081 40.2881 97.4837 40.1339C96.9594 39.9797 96.4787 39.7594 96.4787 39.1646C96.4839 39.0341 96.5157 38.9061 96.5723 38.7886C96.6288 38.6711 96.7088 38.5667 96.8073 38.4819C96.9058 38.3971 97.0206 38.3337 97.1446 38.2957C97.2685 38.2578 97.3988 38.2461 97.5275 38.2614C97.9278 38.2613 98.3121 38.4195 98.598 38.702L98.2484 39.0544C98.1523 38.9543 98.0367 38.8752 97.9089 38.8221C97.7811 38.7691 97.6438 38.7432 97.5056 38.746C97.1123 38.746 96.9594 38.9223 96.9594 39.1426C96.9594 39.3628 97.1124 39.495 97.6586 39.6492C98.2048 39.8034 98.6854 40.0457 98.6854 40.6405C98.6854 41.2353 98.3358 41.6098 97.5056 41.6098Z" fill="#1D1D1B"/>
<path d="M100.978 39.6053L100.738 38.8563C100.738 39.0105 100.585 39.385 100.498 39.6273L100.257 40.3543H101.262L100.978 39.6053ZM101.656 41.5659L101.394 40.7949H100.105L99.8424 41.5659H99.3398L100.498 38.3276H101L102.18 41.5659H101.656Z" fill="#1D1D1B"/>
<path d="M105 38.7902V39.6494H105.918V40.134H105V41.5659H104.52V38.3276H106.595V38.7902H105Z" fill="#1D1D1B"/>
<path d="M107.424 41.5659V38.3276H109.499V38.7902H107.904V39.5833H108.822V40.0679H107.904V41.1033H109.565V41.5659H107.424Z" fill="#1D1D1B"/>
<path d="M111.904 38.7902H110.965V39.8256H111.904C111.976 39.8319 112.048 39.8228 112.116 39.7988C112.183 39.7748 112.245 39.7365 112.297 39.6864C112.348 39.6363 112.389 39.5756 112.416 39.5084C112.442 39.4412 112.454 39.3691 112.451 39.2969C112.455 39.2254 112.443 39.154 112.416 39.0877C112.389 39.0215 112.348 38.962 112.296 38.9135C112.244 38.8651 112.182 38.8289 112.114 38.8076C112.046 38.7863 111.975 38.7803 111.904 38.7902ZM112.232 40.2441L112.888 41.5659H112.32L111.686 40.2882H110.965V41.5659H110.484V38.3275H111.904C112.038 38.3112 112.173 38.3246 112.3 38.3666C112.428 38.4085 112.544 38.4782 112.642 38.5706C112.74 38.663 112.817 38.7759 112.867 38.9014C112.917 39.0269 112.939 39.1619 112.931 39.2969C112.947 39.5131 112.885 39.7277 112.757 39.9016C112.628 40.0756 112.442 40.1971 112.232 40.2441Z" fill="#1D1D1B"/>
<path d="M115.31 38.7904H114.371V39.8258H115.31C115.383 39.8362 115.456 39.8299 115.526 39.8073C115.595 39.7848 115.659 39.7466 115.711 39.6956C115.764 39.6447 115.804 39.5823 115.829 39.5133C115.855 39.4442 115.864 39.3703 115.856 39.2971C115.86 39.2257 115.849 39.1542 115.822 39.088C115.795 39.0217 115.754 38.9622 115.702 38.9137C115.65 38.8653 115.588 38.8291 115.52 38.8078C115.452 38.7865 115.381 38.7805 115.31 38.7904ZM115.638 40.2444L116.293 41.5662H115.747L115.114 40.2884H114.371V41.5662H113.912V38.3278H115.31C115.444 38.3119 115.58 38.3253 115.709 38.3672C115.837 38.409 115.955 38.4783 116.055 38.5703C116.154 38.6623 116.233 38.7748 116.285 38.9002C116.338 39.0256 116.363 39.161 116.359 39.2971C116.369 39.5154 116.302 39.7303 116.17 39.9037C116.038 40.0771 115.85 40.1978 115.638 40.2444Z" fill="#1D1D1B"/>
<path d="M117.322 41.5659V38.3276H119.398V38.7902H117.803V39.5833H118.742V40.0679H117.803V41.1033H119.463V41.5659H117.322Z" fill="#1D1D1B"/>
<path d="M121.713 40.2882V41.5659H121.232V40.2882L120.074 38.3276H120.642L121.145 39.2088L121.473 39.8697C121.473 39.7375 121.691 39.4291 121.8 39.2088L122.303 38.3276H122.871L121.713 40.2882Z" fill="#1D1D1B"/>
<path d="M124.662 41.6096C123.831 41.6096 123.285 40.9268 123.285 39.9355C123.285 38.9443 123.831 38.2614 124.662 38.2614C124.883 38.2479 125.104 38.2988 125.298 38.4081C125.491 38.5175 125.65 38.6806 125.754 38.8782L125.317 39.1425C125.26 39.0176 125.167 38.9129 125.05 38.8421C124.933 38.7714 124.798 38.7379 124.662 38.746C124.094 38.746 123.788 39.2086 123.788 39.9355C123.788 40.6624 124.094 41.125 124.662 41.125C124.797 41.1169 124.928 41.0716 125.039 40.9939C125.151 40.9163 125.24 40.8092 125.295 40.6845L125.71 40.9488C125.597 41.143 125.433 41.3028 125.237 41.4113C125.041 41.5198 124.82 41.5731 124.596 41.5656" fill="#1D1D1B"/>
<path d="M127.786 38.7459C127.24 38.7459 126.934 39.2085 126.934 39.9354C126.934 40.6624 127.24 41.125 127.786 41.125C128.332 41.125 128.682 40.6844 128.682 39.9354C128.682 39.1864 128.354 38.7459 127.786 38.7459ZM127.786 41.6096C126.956 41.6096 126.432 40.9267 126.432 39.9354C126.432 38.9441 126.956 38.2612 127.786 38.2612C128.616 38.2612 129.163 38.9662 129.163 39.9354C129.163 40.9047 128.638 41.6096 127.786 41.6096Z" fill="#1D1D1B"/>
<path d="M131.499 38.7902H130.56V39.8256H131.499C131.571 39.8319 131.643 39.8228 131.71 39.7988C131.778 39.7748 131.84 39.7365 131.892 39.6864C131.943 39.6363 131.984 39.5756 132.01 39.5084C132.037 39.4412 132.049 39.3691 132.046 39.2969C132.049 39.2254 132.038 39.154 132.011 39.0877C131.984 39.0215 131.943 38.962 131.891 38.9135C131.839 38.8651 131.777 38.8289 131.709 38.8076C131.641 38.7863 131.57 38.7803 131.499 38.7902ZM131.827 40.2441L132.483 41.5659H131.849L131.215 40.2882H130.494V41.5659H130.014V38.3275H131.434C131.567 38.3112 131.702 38.3246 131.829 38.3666C131.957 38.4085 132.074 38.4782 132.172 38.5706C132.269 38.663 132.346 38.7759 132.396 38.9014C132.446 39.0269 132.468 39.1619 132.461 39.2969C132.476 39.5131 132.414 39.7277 132.286 39.9016C132.158 40.0756 131.971 40.1971 131.762 40.2441" fill="#1D1D1B"/>
<path d="M134.843 38.7902H134.035V39.8917H134.909C134.983 39.9028 135.059 39.8963 135.13 39.8725C135.202 39.8488 135.266 39.8085 135.319 39.755C135.373 39.7015 135.413 39.6361 135.436 39.5642C135.46 39.4923 135.466 39.4158 135.455 39.3409C135.462 39.2669 135.452 39.1923 135.427 39.1224C135.402 39.0525 135.362 38.989 135.31 38.9365C135.258 38.8839 135.195 38.8436 135.126 38.8183C135.056 38.793 134.982 38.7834 134.909 38.7902H134.843ZM134.909 40.3543H134.035V41.5659H133.576V38.3276H134.909C135.047 38.3109 135.187 38.3252 135.318 38.3696C135.45 38.4139 135.571 38.4872 135.671 38.5842C135.771 38.6811 135.849 38.7992 135.898 38.9301C135.948 39.0609 135.968 39.2013 135.958 39.3409C135.965 39.4817 135.942 39.6224 135.889 39.7531C135.837 39.8839 135.757 40.0016 135.656 40.0981C135.554 40.1946 135.432 40.2675 135.299 40.3117C135.167 40.356 135.026 40.3705 134.887 40.3543" fill="#1D1D1B"/>
<path d="M106.747 0.568848H0V34.0979H106.747V0.568848Z" fill="#E30613"/>
<path d="M140 0.568848H106.748V34.0979H140V0.568848Z" fill="#1D1D1B"/>
<path d="M130.125 9.84375H120.556V15.9458H115.443V19.911H120.556V24.9998H124.838V19.911H130.125V15.9458H124.838V13.831H130.125V9.84375Z" fill="#DADADA"/>
<path d="M12.1271 25.2642C11.0671 25.3058 10.0125 25.0917 9.05108 24.6395C8.08967 24.1874 7.24922 23.5104 6.59961 22.6647L8.65324 20.8142C9.10141 21.3442 9.66202 21.7659 10.2936 22.0481C10.9251 22.3302 11.6114 22.4657 12.3018 22.4444C13.9841 22.4444 14.7706 21.9818 14.7706 20.9023C14.7706 19.8229 14.29 19.5585 11.6027 18.9417C8.91542 18.3249 7.23315 17.4878 7.23315 14.668C7.27286 14.0489 7.43806 13.4445 7.71853 12.8923C7.99901 12.3401 8.38883 11.8517 8.86386 11.4574C9.33889 11.0631 9.88904 10.7711 10.4804 10.5997C11.0717 10.4282 11.6916 10.3808 12.3018 10.4604C13.2712 10.431 14.2354 10.6126 15.129 10.9927C16.0225 11.3729 16.8242 11.9427 17.4797 12.6633L15.4261 14.668C15.0195 14.2076 14.5217 13.8383 13.9647 13.5841C13.4077 13.3298 12.804 13.1962 12.1926 13.192C10.6851 13.192 10.1607 13.8309 10.1607 14.4697C10.1607 15.1086 10.7725 15.6593 13.0228 16.188C15.2731 16.7167 17.7856 17.5098 17.7856 20.5939C17.7856 23.3256 16.0815 25.1761 12.1926 25.1761" fill="white"/>
<path d="M26.261 13.2139C23.967 13.2139 23.0057 15.1965 23.0057 17.7519C23.0057 20.3073 23.967 22.29 26.261 22.29C28.555 22.29 29.4944 20.3073 29.4944 17.7519C29.4944 15.1965 28.555 13.2139 26.261 13.2139ZM26.261 25.1538C22.3722 25.1538 20.0781 22.1137 20.0781 17.7519C20.0781 13.3901 22.3722 10.3501 26.261 10.3501C30.1499 10.3501 32.422 13.3901 32.422 17.7519C32.422 22.1137 30.1281 25.2639 26.261 25.2639" fill="white"/>
<path d="M35.5469 24.9119V10.5703H38.387V22.092H45.5094V24.9119H35.5469Z" fill="white"/>
<path d="M51.6717 13.4122V24.9119H48.8315V13.4122H44.7461V10.5703H55.7572V13.4122H51.6717Z" fill="white"/>
<path d="M65.2593 13.3682H61.5453V17.0472H65.2593C66.5702 17.0472 67.2912 16.4304 67.2912 15.1967C67.2912 13.963 66.5265 13.3682 65.2593 13.3682ZM66.9416 24.9119L64.4073 19.7569H61.5453V24.9119H58.7051V10.5704H65.2593C65.8887 10.4931 66.5272 10.5548 67.1305 10.7513C67.7338 10.9478 68.2875 11.2743 68.7531 11.7082C69.2187 12.1421 69.5851 12.6729 69.8269 13.2639C70.0686 13.8549 70.18 14.4919 70.1532 15.1306C70.2342 16.0395 70.0086 16.9495 69.513 17.7131C69.0174 18.4767 68.2807 19.0493 67.4222 19.3383L70.1532 24.9119H66.9416Z" fill="white"/>
<path d="M79.5694 16.4522C79.2854 15.593 79.0013 14.7339 78.8484 14.2492C78.7173 14.7779 78.4333 15.6371 78.1493 16.4522L77.2317 19.0076H80.4869L79.5694 16.4522ZM82.5625 24.9556L81.4482 21.7613H76.2485L75.0469 24.9115H71.9883L77.4502 10.5923H80.2029L85.5992 24.9115L82.5625 24.9556Z" fill="white"/>
<path d="M97.5287 24.9114L93.6616 17.994L91.4769 20.7037V24.9114H88.6367V10.57H91.4769V14.6675C91.4769 15.1963 91.4769 16.474 91.4769 16.8705C91.8178 16.3629 92.19 15.8773 92.5911 15.4165L96.5674 10.5039H99.9975L95.8464 15.4606L101.068 24.8453L97.5287 24.9114Z" fill="white"/>
</svg>
