<svg width="140" height="42" viewBox="0 0 140 42" fill="none" xmlns="http://www.w3.org/2000/svg">
<path d="M69.1043 41.1116C68.296 41.1116 67.8809 40.6049 67.8809 39.7017V37.8291H68.3615V39.7017C68.3615 40.2965 68.6237 40.6269 69.1043 40.6269C69.585 40.6269 69.8471 40.3185 69.8471 39.7237V37.8291H70.3278V39.7237C70.3278 40.6269 69.8908 41.1116 69.1043 41.1116Z" fill="#1D1D1B"/>
<path d="M73.3655 41.0674L72.0765 39.0407L71.8361 38.6222C71.8361 38.7543 71.8361 39.1949 71.8361 39.3932V41.0674H71.3555V37.8291H71.858L73.0814 39.8117L73.3436 40.2523V37.8291H73.8024V41.0674H73.3655Z" fill="#1D1D1B"/>
<path d="M76.3358 39.1068L76.0955 38.3578C76.0955 38.512 75.9426 38.8865 75.877 39.1288L75.6149 39.8558H76.598L76.3358 39.1068ZM77.035 41.0674L76.7509 40.2964H75.4619L75.1998 41.0674H74.6973L75.8552 37.8291H76.3577L77.5375 41.0674H77.035Z" fill="#1D1D1B"/>
<path d="M79.877 41.0674V37.8291H81.9525V38.2917H80.3576V39.0848H81.297V39.5694H80.3576V40.6048H82.0181V41.0674H79.877Z" fill="#1D1D1B"/>
<path d="M85.3372 41.0675V39.3492C85.3239 39.1585 85.3239 38.9671 85.3372 38.7764C85.3372 38.7764 85.2061 39.1068 85.1187 39.2831L84.3322 41.1116L83.5675 39.2831C83.4882 39.12 83.4224 38.9505 83.3709 38.7764V40.9794H82.9121V37.8291H83.4146L84.1356 39.5474C84.1356 39.7457 84.3104 39.966 84.3541 40.0982C84.3978 40.2304 84.4851 39.7457 84.5725 39.5474L85.2716 37.8291H85.796V41.0675H85.3372Z" fill="#1D1D1B"/>
<path d="M88.1546 38.2916H87.3025V39.393H88.1546C88.2289 39.4042 88.3047 39.3976 88.3761 39.3739C88.4474 39.3502 88.5122 39.3099 88.5653 39.2564C88.6184 39.2028 88.6583 39.1375 88.6818 39.0656C88.7054 38.9937 88.7119 38.9172 88.7008 38.8423C88.7075 38.7683 88.698 38.6937 88.673 38.6238C88.6479 38.554 88.6079 38.4905 88.5557 38.4379C88.5036 38.3854 88.4406 38.345 88.3713 38.3197C88.302 38.2945 88.228 38.2849 88.1546 38.2916ZM88.1546 39.8556H87.3244V41.0671H86.8438V37.8291H88.1546C88.2909 37.8158 88.4283 37.8328 88.5573 37.8787C88.6864 37.9247 88.8039 37.9985 88.9017 38.095C88.9995 38.1915 89.0752 38.3084 89.1235 38.4375C89.1719 38.5666 89.1917 38.7047 89.1815 38.8423C89.1888 38.9831 89.1655 39.1238 89.1133 39.2545C89.0612 39.3853 88.9814 39.503 88.8794 39.5995C88.7775 39.6959 88.6559 39.7688 88.5232 39.8131C88.3905 39.8573 88.2498 39.8718 88.111 39.8556" fill="#1D1D1B"/>
<path d="M91.5412 38.2916H90.6018V39.327H91.5412C91.6127 39.3334 91.6846 39.3243 91.7523 39.3003C91.82 39.2763 91.8818 39.2379 91.9335 39.1878C91.9853 39.1377 92.0257 39.0771 92.0523 39.0099C92.0788 38.9427 92.0908 38.8706 92.0874 38.7983C92.0913 38.7269 92.0795 38.6555 92.0528 38.5892C92.0261 38.5229 91.9851 38.4634 91.9329 38.415C91.8807 38.3665 91.8185 38.3304 91.7508 38.309C91.683 38.2877 91.6115 38.2818 91.5412 38.2916ZM91.869 39.7456L92.5244 41.0674H91.9563L91.3228 39.7897H90.6018V41.0674H90.1211V37.829H91.5412C91.6743 37.8127 91.8094 37.826 91.9369 37.868C92.0643 37.91 92.1811 37.9797 92.279 38.0721C92.3769 38.1645 92.4535 38.2774 92.5035 38.4028C92.5534 38.5283 92.5754 38.6633 92.5681 38.7983C92.5837 39.0145 92.5217 39.2292 92.3933 39.4031C92.265 39.577 92.0789 39.6986 91.869 39.7456Z" fill="#1D1D1B"/>
<path d="M93.5527 41.0674V37.8291H95.6283V38.2917H94.0334V39.0848H94.951V39.5694H94.0334V40.6048H95.6938V41.0674H93.5527Z" fill="#1D1D1B"/>
<path d="M97.5056 41.1115C97.2882 41.1136 97.0727 41.0696 96.8732 40.9823C96.6737 40.895 96.4947 40.7664 96.3477 40.6048L96.6972 40.2523C96.8056 40.3727 96.9369 40.4698 97.0833 40.5379C97.2297 40.6061 97.3881 40.6438 97.5493 40.6489C97.9862 40.6489 98.2048 40.4726 98.2048 40.1642C98.2048 39.8558 98.0081 39.7897 97.4837 39.6355C96.9594 39.4812 96.4787 39.2609 96.4787 38.6661C96.4839 38.5356 96.5157 38.4076 96.5723 38.2901C96.6288 38.1726 96.7088 38.0682 96.8073 37.9834C96.9058 37.8985 97.0206 37.8351 97.1446 37.7972C97.2685 37.7593 97.3988 37.7476 97.5275 37.7629C97.9278 37.7628 98.3121 37.921 98.598 38.2035L98.2484 38.556C98.1523 38.4558 98.0367 38.3767 97.9089 38.3236C97.7811 38.2706 97.6438 38.2447 97.5056 38.2475C97.1123 38.2475 96.9594 38.4238 96.9594 38.6441C96.9594 38.8644 97.1124 38.9966 97.6586 39.1508C98.2048 39.305 98.6854 39.5473 98.6854 40.1422C98.6854 40.737 98.3358 41.1115 97.5056 41.1115Z" fill="#1D1D1B"/>
<path d="M100.978 39.1068L100.738 38.3578C100.738 38.512 100.585 38.8865 100.498 39.1288L100.257 39.8558H101.262L100.978 39.1068ZM101.656 41.0674L101.394 40.2964H100.105L99.8424 41.0674H99.3398L100.498 37.8291H101L102.18 41.0674H101.656Z" fill="#1D1D1B"/>
<path d="M105 38.2917V39.1508H105.918V39.6355H105V41.0674H104.52V37.8291H106.595V38.2917H105Z" fill="#1D1D1B"/>
<path d="M107.424 41.0674V37.8291H109.499V38.2917H107.904V39.0848H108.822V39.5694H107.904V40.6048H109.565V41.0674H107.424Z" fill="#1D1D1B"/>
<path d="M111.904 38.2916H110.965V39.327H111.904C111.976 39.3334 112.048 39.3243 112.116 39.3003C112.183 39.2763 112.245 39.2379 112.297 39.1878C112.348 39.1377 112.389 39.0771 112.416 39.0099C112.442 38.9427 112.454 38.8706 112.451 38.7983C112.455 38.7269 112.443 38.6555 112.416 38.5892C112.389 38.5229 112.348 38.4634 112.296 38.415C112.244 38.3665 112.182 38.3304 112.114 38.309C112.046 38.2877 111.975 38.2818 111.904 38.2916ZM112.232 39.7456L112.888 41.0674H112.32L111.686 39.7897H110.965V41.0674H110.484V37.829H111.904C112.038 37.8127 112.173 37.826 112.3 37.868C112.428 37.91 112.544 37.9797 112.642 38.0721C112.74 38.1645 112.817 38.2774 112.867 38.4028C112.917 38.5283 112.939 38.6633 112.931 38.7983C112.947 39.0145 112.885 39.2292 112.757 39.4031C112.628 39.577 112.442 39.6986 112.232 39.7456Z" fill="#1D1D1B"/>
<path d="M115.31 38.2914H114.371V39.3268H115.31C115.383 39.3372 115.456 39.3309 115.526 39.3083C115.595 39.2858 115.659 39.2476 115.711 39.1966C115.764 39.1457 115.804 39.0833 115.829 39.0142C115.855 38.9452 115.864 38.8713 115.856 38.7981C115.86 38.7266 115.849 38.6552 115.822 38.5889C115.795 38.5227 115.754 38.4632 115.702 38.4147C115.65 38.3663 115.588 38.3301 115.52 38.3088C115.452 38.2875 115.381 38.2815 115.31 38.2914ZM115.638 39.7453L116.293 41.0671H115.747L115.114 39.7894H114.371V41.0671H113.912V37.8287H115.31C115.444 37.8129 115.58 37.8263 115.709 37.8681C115.837 37.91 115.955 37.9793 116.055 38.0713C116.154 38.1632 116.233 38.2758 116.285 38.4012C116.338 38.5266 116.363 38.662 116.359 38.7981C116.369 39.0164 116.302 39.2313 116.17 39.4047C116.038 39.5781 115.85 39.6988 115.638 39.7453Z" fill="#1D1D1B"/>
<path d="M117.322 41.0674V37.8291H119.398V38.2917H117.803V39.0848H118.742V39.5694H117.803V40.6048H119.463V41.0674H117.322Z" fill="#1D1D1B"/>
<path d="M121.713 39.7897V41.0674H121.232V39.7897L120.074 37.8291H120.642L121.145 38.7103L121.473 39.3711C121.473 39.239 121.691 38.9306 121.8 38.7103L122.303 37.8291H122.871L121.713 39.7897Z" fill="#1D1D1B"/>
<path d="M124.662 41.1111C123.831 41.1111 123.285 40.4282 123.285 39.437C123.285 38.4458 123.831 37.7629 124.662 37.7629C124.883 37.7493 125.104 37.8002 125.298 37.9096C125.491 38.0189 125.65 38.1821 125.754 38.3797L125.317 38.644C125.26 38.5191 125.167 38.4144 125.05 38.3436C124.933 38.2729 124.798 38.2394 124.662 38.2475C124.094 38.2475 123.788 38.7101 123.788 39.437C123.788 40.1639 124.094 40.6265 124.662 40.6265C124.797 40.6184 124.928 40.5731 125.039 40.4954C125.151 40.4177 125.24 40.3107 125.295 40.1859L125.71 40.4503C125.597 40.6445 125.433 40.8042 125.237 40.9128C125.041 41.0213 124.82 41.0746 124.596 41.067" fill="#1D1D1B"/>
<path d="M127.786 38.2474C127.24 38.2474 126.934 38.71 126.934 39.437C126.934 40.164 127.24 40.6267 127.786 40.6267C128.332 40.6267 128.682 40.1861 128.682 39.437C128.682 38.688 128.354 38.2474 127.786 38.2474ZM127.786 41.1113C126.956 41.1113 126.432 40.4284 126.432 39.437C126.432 38.4456 126.956 37.7627 127.786 37.7627C128.616 37.7627 129.163 38.4677 129.163 39.437C129.163 40.4064 128.638 41.1113 127.786 41.1113Z" fill="#1D1D1B"/>
<path d="M131.499 38.2916H130.56V39.327H131.499C131.571 39.3334 131.643 39.3243 131.71 39.3003C131.778 39.2763 131.84 39.2379 131.892 39.1878C131.943 39.1377 131.984 39.0771 132.01 39.0099C132.037 38.9427 132.049 38.8706 132.046 38.7983C132.049 38.7269 132.038 38.6555 132.011 38.5892C131.984 38.5229 131.943 38.4634 131.891 38.415C131.839 38.3665 131.777 38.3304 131.709 38.309C131.641 38.2877 131.57 38.2818 131.499 38.2916ZM131.827 39.7456L132.483 41.0674H131.849L131.215 39.7897H130.494V41.0674H130.014V37.829H131.434C131.567 37.8127 131.702 37.826 131.829 37.868C131.957 37.91 132.074 37.9797 132.172 38.0721C132.269 38.1645 132.346 38.2774 132.396 38.4028C132.446 38.5283 132.468 38.6633 132.461 38.7983C132.476 39.0145 132.414 39.2292 132.286 39.4031C132.158 39.577 131.971 39.6986 131.762 39.7456" fill="#1D1D1B"/>
<path d="M134.843 38.2916H134.035V39.3931H134.909C134.983 39.4043 135.059 39.3977 135.13 39.374C135.202 39.3503 135.266 39.31 135.319 39.2565C135.373 39.2029 135.413 39.1376 135.436 39.0657C135.46 38.9937 135.466 38.9173 135.455 38.8424C135.462 38.7684 135.452 38.6938 135.427 38.6239C135.402 38.554 135.362 38.4905 135.31 38.4379C135.258 38.3854 135.195 38.345 135.126 38.3197C135.056 38.2945 134.982 38.2849 134.909 38.2916H134.843ZM134.909 39.8557H134.035V41.0674H133.576V37.829H134.909C135.047 37.8123 135.187 37.8267 135.318 37.871C135.45 37.9154 135.571 37.9887 135.671 38.0856C135.771 38.1825 135.849 38.3007 135.898 38.4315C135.948 38.5624 135.968 38.7027 135.958 38.8424C135.965 38.9831 135.942 39.1238 135.889 39.2546C135.837 39.3854 135.757 39.5031 135.656 39.5996C135.554 39.696 135.432 39.7689 135.299 39.8132C135.167 39.8574 135.026 39.872 134.887 39.8557" fill="#1D1D1B"/>
<path d="M69.1043 41.1116C68.296 41.1116 67.8809 40.6049 67.8809 39.7017V37.8291H68.3615V39.7017C68.3615 40.2965 68.6237 40.6269 69.1043 40.6269C69.585 40.6269 69.8471 40.3185 69.8471 39.7237V37.8291H70.3278V39.7237C70.3278 40.6269 69.8908 41.1116 69.1043 41.1116Z" fill="#1D1D1B"/>
<path d="M73.3655 41.0674L72.0765 39.0407L71.8361 38.6222C71.8361 38.7543 71.8361 39.1949 71.8361 39.3932V41.0674H71.3555V37.8291H71.858L73.0814 39.8117L73.3436 40.2523V37.8291H73.8024V41.0674H73.3655Z" fill="#1D1D1B"/>
<path d="M76.3358 39.1068L76.0955 38.3578C76.0955 38.512 75.9426 38.8865 75.877 39.1288L75.6149 39.8558H76.598L76.3358 39.1068ZM77.035 41.0674L76.7509 40.2964H75.4619L75.1998 41.0674H74.6973L75.8552 37.8291H76.3577L77.5375 41.0674H77.035Z" fill="#1D1D1B"/>
<path d="M79.877 41.0674V37.8291H81.9525V38.2917H80.3576V39.0848H81.297V39.5694H80.3576V40.6048H82.0181V41.0674H79.877Z" fill="#1D1D1B"/>
<path d="M85.3372 41.0675V39.3492C85.3239 39.1585 85.3239 38.9671 85.3372 38.7764C85.3372 38.7764 85.2061 39.1068 85.1187 39.2831L84.3322 41.1116L83.5675 39.2831C83.4882 39.12 83.4224 38.9505 83.3709 38.7764V40.9794H82.9121V37.8291H83.4146L84.1356 39.5474C84.1356 39.7457 84.3104 39.966 84.3541 40.0982C84.3978 40.2304 84.4851 39.7457 84.5725 39.5474L85.2716 37.8291H85.796V41.0675H85.3372Z" fill="#1D1D1B"/>
<path d="M88.1546 38.2916H87.3025V39.393H88.1546C88.2289 39.4042 88.3047 39.3976 88.3761 39.3739C88.4474 39.3502 88.5122 39.3099 88.5653 39.2564C88.6184 39.2028 88.6583 39.1375 88.6818 39.0656C88.7054 38.9937 88.7119 38.9172 88.7008 38.8423C88.7075 38.7683 88.698 38.6937 88.673 38.6238C88.6479 38.554 88.6079 38.4905 88.5557 38.4379C88.5036 38.3854 88.4406 38.345 88.3713 38.3197C88.302 38.2945 88.228 38.2849 88.1546 38.2916ZM88.1546 39.8556H87.3244V41.0671H86.8438V37.8291H88.1546C88.2909 37.8158 88.4283 37.8328 88.5573 37.8787C88.6864 37.9247 88.8039 37.9985 88.9017 38.095C88.9995 38.1915 89.0752 38.3084 89.1235 38.4375C89.1719 38.5666 89.1917 38.7047 89.1815 38.8423C89.1888 38.9831 89.1655 39.1238 89.1133 39.2545C89.0612 39.3853 88.9814 39.503 88.8794 39.5995C88.7775 39.6959 88.6559 39.7688 88.5232 39.8131C88.3905 39.8573 88.2498 39.8718 88.111 39.8556" fill="#1D1D1B"/>
<path d="M91.5412 38.2916H90.6018V39.327H91.5412C91.6127 39.3334 91.6846 39.3243 91.7523 39.3003C91.82 39.2763 91.8818 39.2379 91.9335 39.1878C91.9853 39.1377 92.0257 39.0771 92.0523 39.0099C92.0788 38.9427 92.0908 38.8706 92.0874 38.7983C92.0913 38.7269 92.0795 38.6555 92.0528 38.5892C92.0261 38.5229 91.9851 38.4634 91.9329 38.415C91.8807 38.3665 91.8185 38.3304 91.7508 38.309C91.683 38.2877 91.6115 38.2818 91.5412 38.2916ZM91.869 39.7456L92.5244 41.0674H91.9563L91.3228 39.7897H90.6018V41.0674H90.1211V37.829H91.5412C91.6743 37.8127 91.8094 37.826 91.9369 37.868C92.0643 37.91 92.1811 37.9797 92.279 38.0721C92.3769 38.1645 92.4535 38.2774 92.5035 38.4028C92.5534 38.5283 92.5754 38.6633 92.5681 38.7983C92.5837 39.0145 92.5217 39.2292 92.3933 39.4031C92.265 39.577 92.0789 39.6986 91.869 39.7456Z" fill="#1D1D1B"/>
<path d="M93.5527 41.0674V37.8291H95.6283V38.2917H94.0334V39.0848H94.951V39.5694H94.0334V40.6048H95.6938V41.0674H93.5527Z" fill="#1D1D1B"/>
<path d="M97.5056 41.1115C97.2882 41.1136 97.0727 41.0696 96.8732 40.9823C96.6737 40.895 96.4947 40.7664 96.3477 40.6048L96.6972 40.2523C96.8056 40.3727 96.9369 40.4698 97.0833 40.5379C97.2297 40.6061 97.3881 40.6438 97.5493 40.6489C97.9862 40.6489 98.2048 40.4726 98.2048 40.1642C98.2048 39.8558 98.0081 39.7897 97.4837 39.6355C96.9594 39.4812 96.4787 39.2609 96.4787 38.6661C96.4839 38.5356 96.5157 38.4076 96.5723 38.2901C96.6288 38.1726 96.7088 38.0682 96.8073 37.9834C96.9058 37.8985 97.0206 37.8351 97.1446 37.7972C97.2685 37.7593 97.3988 37.7476 97.5275 37.7629C97.9278 37.7628 98.3121 37.921 98.598 38.2035L98.2484 38.556C98.1523 38.4558 98.0367 38.3767 97.9089 38.3236C97.7811 38.2706 97.6438 38.2447 97.5056 38.2475C97.1123 38.2475 96.9594 38.4238 96.9594 38.6441C96.9594 38.8644 97.1124 38.9966 97.6586 39.1508C98.2048 39.305 98.6854 39.5473 98.6854 40.1422C98.6854 40.737 98.3358 41.1115 97.5056 41.1115Z" fill="#1D1D1B"/>
<path d="M100.978 39.1068L100.738 38.3578C100.738 38.512 100.585 38.8865 100.498 39.1288L100.257 39.8558H101.262L100.978 39.1068ZM101.656 41.0674L101.394 40.2964H100.105L99.8424 41.0674H99.3398L100.498 37.8291H101L102.18 41.0674H101.656Z" fill="#1D1D1B"/>
<path d="M105 38.2917V39.1508H105.918V39.6355H105V41.0674H104.52V37.8291H106.595V38.2917H105Z" fill="#1D1D1B"/>
<path d="M107.424 41.0674V37.8291H109.499V38.2917H107.904V39.0848H108.822V39.5694H107.904V40.6048H109.565V41.0674H107.424Z" fill="#1D1D1B"/>
<path d="M111.904 38.2916H110.965V39.327H111.904C111.976 39.3334 112.048 39.3243 112.116 39.3003C112.183 39.2763 112.245 39.2379 112.297 39.1878C112.348 39.1377 112.389 39.0771 112.416 39.0099C112.442 38.9427 112.454 38.8706 112.451 38.7983C112.455 38.7269 112.443 38.6555 112.416 38.5892C112.389 38.5229 112.348 38.4634 112.296 38.415C112.244 38.3665 112.182 38.3304 112.114 38.309C112.046 38.2877 111.975 38.2818 111.904 38.2916ZM112.232 39.7456L112.888 41.0674H112.32L111.686 39.7897H110.965V41.0674H110.484V37.829H111.904C112.038 37.8127 112.173 37.826 112.3 37.868C112.428 37.91 112.544 37.9797 112.642 38.0721C112.74 38.1645 112.817 38.2774 112.867 38.4028C112.917 38.5283 112.939 38.6633 112.931 38.7983C112.947 39.0145 112.885 39.2292 112.757 39.4031C112.628 39.577 112.442 39.6986 112.232 39.7456Z" fill="#1D1D1B"/>
<path d="M115.31 38.2914H114.371V39.3268H115.31C115.383 39.3372 115.456 39.3309 115.526 39.3083C115.595 39.2858 115.659 39.2476 115.711 39.1966C115.764 39.1457 115.804 39.0833 115.829 39.0142C115.855 38.9452 115.864 38.8713 115.856 38.7981C115.86 38.7266 115.849 38.6552 115.822 38.5889C115.795 38.5227 115.754 38.4632 115.702 38.4147C115.65 38.3663 115.588 38.3301 115.52 38.3088C115.452 38.2875 115.381 38.2815 115.31 38.2914ZM115.638 39.7453L116.293 41.0671H115.747L115.114 39.7894H114.371V41.0671H113.912V37.8287H115.31C115.444 37.8129 115.58 37.8263 115.709 37.8681C115.837 37.91 115.955 37.9793 116.055 38.0713C116.154 38.1632 116.233 38.2758 116.285 38.4012C116.338 38.5266 116.363 38.662 116.359 38.7981C116.369 39.0164 116.302 39.2313 116.17 39.4047C116.038 39.5781 115.85 39.6988 115.638 39.7453Z" fill="#1D1D1B"/>
<path d="M117.322 41.0674V37.8291H119.398V38.2917H117.803V39.0848H118.742V39.5694H117.803V40.6048H119.463V41.0674H117.322Z" fill="#1D1D1B"/>
<path d="M121.713 39.7897V41.0674H121.232V39.7897L120.074 37.8291H120.642L121.145 38.7103L121.473 39.3711C121.473 39.239 121.691 38.9306 121.8 38.7103L122.303 37.8291H122.871L121.713 39.7897Z" fill="#1D1D1B"/>
<path d="M124.662 41.1111C123.831 41.1111 123.285 40.4282 123.285 39.437C123.285 38.4458 123.831 37.7629 124.662 37.7629C124.883 37.7493 125.104 37.8002 125.298 37.9096C125.491 38.0189 125.65 38.1821 125.754 38.3797L125.317 38.644C125.26 38.5191 125.167 38.4144 125.05 38.3436C124.933 38.2729 124.798 38.2394 124.662 38.2475C124.094 38.2475 123.788 38.7101 123.788 39.437C123.788 40.1639 124.094 40.6265 124.662 40.6265C124.797 40.6184 124.928 40.5731 125.039 40.4954C125.151 40.4177 125.24 40.3107 125.295 40.1859L125.71 40.4503C125.597 40.6445 125.433 40.8042 125.237 40.9128C125.041 41.0213 124.82 41.0746 124.596 41.067" fill="#1D1D1B"/>
<path d="M127.786 38.2474C127.24 38.2474 126.934 38.71 126.934 39.437C126.934 40.164 127.24 40.6267 127.786 40.6267C128.332 40.6267 128.682 40.1861 128.682 39.437C128.682 38.688 128.354 38.2474 127.786 38.2474ZM127.786 41.1113C126.956 41.1113 126.432 40.4284 126.432 39.437C126.432 38.4456 126.956 37.7627 127.786 37.7627C128.616 37.7627 129.163 38.4677 129.163 39.437C129.163 40.4064 128.638 41.1113 127.786 41.1113Z" fill="#1D1D1B"/>
<path d="M131.499 38.2916H130.56V39.327H131.499C131.571 39.3334 131.643 39.3243 131.71 39.3003C131.778 39.2763 131.84 39.2379 131.892 39.1878C131.943 39.1377 131.984 39.0771 132.01 39.0099C132.037 38.9427 132.049 38.8706 132.046 38.7983C132.049 38.7269 132.038 38.6555 132.011 38.5892C131.984 38.5229 131.943 38.4634 131.891 38.415C131.839 38.3665 131.777 38.3304 131.709 38.309C131.641 38.2877 131.57 38.2818 131.499 38.2916ZM131.827 39.7456L132.483 41.0674H131.849L131.215 39.7897H130.494V41.0674H130.014V37.829H131.434C131.567 37.8127 131.702 37.826 131.829 37.868C131.957 37.91 132.074 37.9797 132.172 38.0721C132.269 38.1645 132.346 38.2774 132.396 38.4028C132.446 38.5283 132.468 38.6633 132.461 38.7983C132.476 39.0145 132.414 39.2292 132.286 39.4031C132.158 39.577 131.971 39.6986 131.762 39.7456" fill="#1D1D1B"/>
<path d="M134.843 38.2916H134.035V39.3931H134.909C134.983 39.4043 135.059 39.3977 135.13 39.374C135.202 39.3503 135.266 39.31 135.319 39.2565C135.373 39.2029 135.413 39.1376 135.436 39.0657C135.46 38.9937 135.466 38.9173 135.455 38.8424C135.462 38.7684 135.452 38.6938 135.427 38.6239C135.402 38.554 135.362 38.4905 135.31 38.4379C135.258 38.3854 135.195 38.345 135.126 38.3197C135.056 38.2945 134.982 38.2849 134.909 38.2916H134.843ZM134.909 39.8557H134.035V41.0674H133.576V37.829H134.909C135.047 37.8123 135.187 37.8267 135.318 37.871C135.45 37.9154 135.571 37.9887 135.671 38.0856C135.771 38.1825 135.849 38.3007 135.898 38.4315C135.948 38.5624 135.968 38.7027 135.958 38.8424C135.965 38.9831 135.942 39.1238 135.889 39.2546C135.837 39.3854 135.757 39.5031 135.656 39.5996C135.554 39.696 135.432 39.7689 135.299 39.8132C135.167 39.8574 135.026 39.872 134.887 39.8557" fill="#1D1D1B"/>
<path d="M106.747 0.0703125H0V33.5991H106.747V0.0703125Z" fill="#E30613"/>
<path d="M140 0.0703125H106.748V33.5991H140V0.0703125Z" fill="#1D1D1B"/>
<path d="M130.125 9.34473H120.556V15.447H115.443V19.4123H120.556V24.5012H124.838V19.4123H130.125V15.447H124.838V13.3321H130.125V9.34473Z" fill="#DADADA"/>
<path d="M12.1271 24.7654C11.0671 24.8071 10.0125 24.5929 9.05108 24.1407C8.08967 23.6886 7.24922 23.0116 6.59961 22.1659L8.65324 20.3154C9.10141 20.8454 9.66202 21.2671 10.2936 21.5492C10.9251 21.8314 11.6114 21.9669 12.3018 21.9456C13.9841 21.9456 14.7706 21.483 14.7706 20.4035C14.7706 19.324 14.29 19.0597 11.6027 18.4428C8.91542 17.826 7.23315 16.9889 7.23315 14.169C7.27286 13.5499 7.43806 12.9456 7.71853 12.3933C7.99901 11.8411 8.38883 11.3527 8.86386 10.9584C9.33889 10.5641 9.88904 10.2721 10.4804 10.1006C11.0717 9.92914 11.6916 9.88173 12.3018 9.96134C13.2712 9.93198 14.2354 10.1136 15.129 10.4937C16.0225 10.8739 16.8242 11.4437 17.4797 12.1643L15.4261 14.169C15.0195 13.7086 14.5217 13.3393 13.9647 13.0851C13.4077 12.8308 12.804 12.6973 12.1926 12.693C10.6851 12.693 10.1607 13.3319 10.1607 13.9708C10.1607 14.6096 10.7725 15.1604 13.0228 15.6891C15.2731 16.2178 17.7856 17.0109 17.7856 20.0951C17.7856 22.8268 16.0815 24.6773 12.1926 24.6773" fill="white"/>
<path d="M26.261 12.7154C23.967 12.7154 23.0057 14.6981 23.0057 17.2535C23.0057 19.8089 23.967 21.7916 26.261 21.7916C28.555 21.7916 29.4944 19.8089 29.4944 17.2535C29.4944 14.6981 28.555 12.7154 26.261 12.7154ZM26.261 24.6555C22.3722 24.6555 20.0781 21.6154 20.0781 17.2535C20.0781 12.8916 22.3722 9.85156 26.261 9.85156C30.1499 9.85156 32.422 12.8916 32.422 17.2535C32.422 21.6154 30.1281 24.7656 26.261 24.7656" fill="white"/>
<path d="M35.5469 24.4128V10.0718H38.387V21.5931H45.5094V24.4128H35.5469Z" fill="white"/>
<path d="M51.6717 12.9136V24.4128H48.8315V12.9136H44.7461V10.0718H55.7572V12.9136H51.6717Z" fill="white"/>
<path d="M65.2593 12.8692H61.5453V16.5482H65.2593C66.5702 16.5482 67.2912 15.9313 67.2912 14.6977C67.2912 13.464 66.5265 12.8692 65.2593 12.8692ZM66.9416 24.4128L64.4073 19.2579H61.5453V24.4128H58.7051V10.0714H65.2593C65.8887 9.99409 66.5272 10.0558 67.1305 10.2523C67.7338 10.4488 68.2875 10.7753 68.7531 11.2092C69.2187 11.6431 69.5851 12.1739 69.8269 12.7649C70.0686 13.3559 70.18 13.9929 70.1532 14.6316C70.2342 15.5405 70.0086 16.4504 69.513 17.2141C69.0174 17.9777 68.2807 18.5503 67.4222 18.8393L70.1532 24.4128H66.9416Z" fill="white"/>
<path d="M79.5694 15.9535C79.2854 15.0944 79.0013 14.2352 78.8484 13.7506C78.7173 14.2793 78.4333 15.1384 78.1493 15.9535L77.2317 18.5089H80.4869L79.5694 15.9535ZM82.5625 24.4568L81.4482 21.2626H76.2485L75.0469 24.4127H71.9883L77.4502 10.0938H80.2029L85.5992 24.4127L82.5625 24.4568Z" fill="white"/>
<path d="M97.5287 24.4131L93.6616 17.4958L91.4769 20.2055V24.4131H88.6367V10.0719H91.4769V14.1694C91.4769 14.6981 91.4769 15.9758 91.4769 16.3724C91.8178 15.8647 92.19 15.3791 92.5911 14.9184L96.5674 10.0059H99.9975L95.8464 14.9625L101.068 24.347L97.5287 24.4131Z" fill="white"/>
</svg>
