<svg width="140" height="55" viewBox="0 0 140 55" fill="none" xmlns="http://www.w3.org/2000/svg">
<path d="M47.8138 54.061C46.7052 54.061 46.1367 53.3445 46.1367 52.1121V49.5039H46.8189V52.0834C46.8189 52.9432 47.16 53.4018 47.8422 53.4018C48.5245 53.4018 48.8655 52.9433 48.8655 52.1407V49.5039H49.5195V52.1121C49.5195 53.3732 48.9224 54.061 47.8138 54.061Z" fill="#1B1516"/>
<path d="M53.6986 54.0039L51.9362 51.1377L51.5951 50.5931C51.5951 50.7651 51.5951 51.3956 51.5951 51.6249V53.9753H50.9414V49.5039H51.7657L53.4429 52.3701L53.8123 53.0007V49.5039H54.4662V54.0039H53.6986Z" fill="#1B1516"/>
<path d="M57.819 51.3097L57.4779 50.2778C57.4779 50.4498 57.2789 50.9657 57.1652 51.3097L56.7957 52.3128H58.1601L57.819 51.3097ZM58.7571 54.0039L58.3875 52.9147H56.5967L56.2271 54.0039H55.5449L57.1368 49.5039H57.8474L59.4677 54.0039H58.7571Z" fill="#1B1516"/>
<path d="M62.6816 53.9749V49.5039H65.5525V50.1631H63.3638V51.2808H64.643V51.9113H63.3638V53.3443H65.6379V53.9749H62.6816Z" fill="#1B1516"/>
<path d="M70.2418 54.0037V50.8223C70.2418 50.8223 70.0713 51.2809 69.9576 51.5388L68.8774 54.061L67.8257 51.5388C67.7136 51.3074 67.6185 51.0679 67.5413 50.8223V54.0037H66.916V49.5039H67.5982L68.5931 51.9115C68.6843 52.1743 68.7603 52.4422 68.8205 52.714C68.8205 52.542 69.0194 52.2267 69.1047 51.9688L70.0997 49.5612H70.8104V54.061L70.2418 54.0037Z" fill="#1B1516"/>
<path d="M74.2225 50.1339H73.0285V51.6818H74.2225C74.3244 51.6913 74.4269 51.6775 74.5228 51.6416C74.6187 51.6056 74.7055 51.5483 74.7765 51.474C74.8475 51.3996 74.9009 51.3102 74.933 51.2122C74.965 51.1142 74.9746 51.0102 74.9614 50.9079C74.9746 50.8056 74.965 50.7016 74.933 50.6036C74.9009 50.5056 74.8475 50.4161 74.7765 50.3418C74.7055 50.2675 74.6187 50.2102 74.5228 50.1742C74.4269 50.1382 74.3244 50.1245 74.2225 50.1339ZM74.2225 52.3125H73.0854V54.0037H72.4316V49.5033H74.2792C74.4677 49.4863 74.6576 49.5107 74.8358 49.5748C75.014 49.639 75.1762 49.7413 75.3114 49.8749C75.4465 50.0084 75.5513 50.1699 75.6185 50.3483C75.6857 50.5266 75.7136 50.7176 75.7005 50.9079C75.7099 51.1023 75.6773 51.2965 75.6051 51.477C75.5329 51.6575 75.4229 51.8201 75.2824 51.9535C75.1419 52.087 74.9744 52.1882 74.7914 52.2502C74.6084 52.3122 74.4144 52.3334 74.2225 52.3125Z" fill="#1B1516"/>
<path d="M78.7689 50.1341H77.4897V51.5959H78.7689C78.8761 51.6174 78.9866 51.6147 79.0926 51.5879C79.1986 51.5612 79.2975 51.511 79.382 51.4411C79.4665 51.3712 79.5345 51.2833 79.5812 51.1837C79.6279 51.084 79.6521 50.9752 79.6521 50.865C79.6521 50.7548 79.6279 50.646 79.5812 50.5463C79.5345 50.4467 79.4665 50.3588 79.382 50.2889C79.2975 50.219 79.1986 50.1688 79.0926 50.1421C78.9866 50.1153 78.8761 50.1126 78.7689 50.1341ZM79.2236 52.1692L80.1333 54.0037H79.3659L78.4847 52.2265H77.4897V54.0037H76.8359V49.5035H78.7689C78.9546 49.4829 79.1424 49.5027 79.3199 49.5616C79.4974 49.6204 79.6603 49.7169 79.7977 49.8446C79.9351 49.9722 80.0436 50.1281 80.1163 50.3016C80.1889 50.4752 80.2238 50.6624 80.2186 50.8507C80.2327 51.1533 80.1408 51.4512 79.9589 51.6923C79.777 51.9334 79.5166 52.1022 79.2236 52.1692Z" fill="#1B1516"/>
<path d="M81.5547 53.9749V49.5039H84.4257V50.1631H82.2086V51.2808H83.4876V51.9113H82.2086V53.3443H84.5111V53.9749H81.5547Z" fill="#1B1516"/>
<path d="M87.0157 54.0603C86.7153 54.0607 86.418 53.9971 86.1437 53.8736C85.8693 53.7501 85.6241 53.5696 85.4238 53.3438L85.907 52.8566C86.0531 53.024 86.2322 53.1589 86.4329 53.2526C86.6336 53.3464 86.8513 53.397 87.0724 53.4011C87.6978 53.4011 87.9821 53.1718 87.9821 52.7419C87.9821 52.312 87.7263 52.2261 86.9872 51.9968C86.2482 51.7675 85.5944 51.4809 85.5944 50.6784C85.5944 49.8759 86.2481 49.446 87.0724 49.446C87.3424 49.4387 87.611 49.4884 87.8606 49.5921C88.1103 49.6958 88.3357 49.851 88.5222 50.0479L88.039 50.5351C87.9078 50.3952 87.7489 50.2847 87.5726 50.2107C87.3964 50.1366 87.2066 50.1007 87.0157 50.1052C86.504 50.1052 86.2766 50.3631 86.2766 50.6497C86.2766 50.9363 86.4755 51.1083 87.243 51.3376C88.0105 51.5669 88.6643 51.9108 88.6643 52.7133C88.6643 53.5158 88.1528 54.0603 87.0157 54.0603Z" fill="#1B1516"/>
<path d="M91.8172 51.3097L91.4759 50.2778C91.4759 50.4498 91.277 50.9657 91.1633 51.3097L90.7937 52.3128H92.1866L91.8172 51.3097ZM92.7551 54.0039L92.3856 52.9147H90.5947L90.2253 54.0039H89.543L91.1348 49.5039H91.8455L93.4658 54.0039H92.7551Z" fill="#1B1516"/>
<path d="M97.3619 50.1631V51.3381H98.6411V51.9973H97.3619V53.9749H96.6797V49.5039H99.5507V50.1631H97.3619Z" fill="#1B1516"/>
<path d="M100.715 53.9749V49.5039H103.557V50.1631H101.369V51.2808H102.648V51.9113H101.369V53.3443H103.671V53.9749H100.715Z" fill="#1B1516"/>
<path d="M106.881 50.1339H105.574V51.5957H106.881C106.981 51.6045 107.08 51.5912 107.174 51.5568C107.268 51.5225 107.353 51.4679 107.423 51.3968C107.494 51.3258 107.548 51.2401 107.582 51.1457C107.616 51.0513 107.629 50.9505 107.62 50.8505C107.63 50.7515 107.617 50.6516 107.583 50.5583C107.549 50.4651 107.494 50.3808 107.423 50.3119C107.352 50.243 107.266 50.1911 107.172 50.1603C107.079 50.1295 106.979 50.1205 106.881 50.1339ZM107.336 52.169L108.246 54.0034H107.478L106.597 52.2263H105.574V54.0034H104.92V49.5033H106.881C107.066 49.4823 107.252 49.5019 107.429 49.561C107.605 49.62 107.766 49.717 107.901 49.8452C108.036 49.9733 108.142 50.1296 108.212 50.3032C108.281 50.4768 108.312 50.6636 108.303 50.8505C108.324 51.1503 108.238 51.448 108.061 51.6897C107.884 51.9315 107.627 52.1014 107.336 52.169Z" fill="#1B1516"/>
<path d="M111.602 50.1339H110.295V51.5957H111.602C111.709 51.6172 111.82 51.6145 111.926 51.5877C112.032 51.5609 112.131 51.5108 112.215 51.4409C112.3 51.371 112.368 51.2831 112.414 51.1835C112.461 51.0838 112.485 50.975 112.485 50.8648C112.485 50.7546 112.461 50.6458 112.414 50.5461C112.368 50.4465 112.3 50.3586 112.215 50.2887C112.131 50.2188 112.032 50.1687 111.926 50.1419C111.82 50.1151 111.709 50.1124 111.602 50.1339ZM112.057 52.169L112.967 54.0034H112.199L111.318 52.2263H110.295V54.0034H109.641V49.5033H111.602C111.786 49.4823 111.973 49.5019 112.149 49.561C112.326 49.62 112.487 49.717 112.622 49.8452C112.757 49.9733 112.863 50.1296 112.932 50.3032C113.002 50.4768 113.033 50.6636 113.023 50.8505C113.045 51.1503 112.959 51.448 112.782 51.6897C112.604 51.9315 112.347 52.1014 112.057 52.169Z" fill="#1B1516"/>
<path d="M114.387 53.9749V49.5039H117.229V50.1631H115.04V51.2808H116.32V51.9113H115.04V53.3443H117.343V53.9749H114.387Z" fill="#1B1516"/>
<path d="M120.414 52.2266V54.0037H119.76V52.2266L118.168 49.3604H118.936L119.618 50.5928C119.791 50.8771 119.943 51.1741 120.073 51.4814L120.556 50.5928L121.238 49.3604H122.006L120.414 52.2266Z" fill="#1B1516"/>
<path d="M124.48 54.0608C123.343 54.0608 122.604 53.1149 122.604 51.7391C122.604 50.3632 123.343 49.446 124.48 49.446C124.788 49.4227 125.095 49.4886 125.367 49.6358C125.639 49.7831 125.864 50.0056 126.015 50.2772L125.418 50.6498C125.33 50.4774 125.195 50.3343 125.029 50.2376C124.862 50.141 124.672 50.095 124.48 50.1052C123.712 50.1052 123.286 50.7358 123.286 51.7391C123.286 52.7423 123.712 53.4015 124.48 53.4015C124.683 53.4132 124.885 53.3653 125.061 53.2635C125.238 53.1618 125.381 53.0106 125.475 52.8283L126.015 53.2009C125.86 53.4711 125.636 53.6939 125.365 53.8453C125.095 53.9968 124.789 54.0713 124.48 54.0608Z" fill="#1B1516"/>
<path d="M128.827 50.1055C128.031 50.1055 127.605 50.7361 127.605 51.7393C127.605 52.7425 128.031 53.4018 128.827 53.4018C129.623 53.4018 130.021 52.7425 130.021 51.7393C130.021 50.7361 129.595 50.1055 128.827 50.1055ZM128.827 54.061C127.662 54.061 126.951 53.1152 126.951 51.7393C126.951 50.3635 127.662 49.4463 128.827 49.4463C129.993 49.4463 130.703 50.3922 130.703 51.7393C130.703 53.0865 129.964 54.061 128.827 54.061Z" fill="#1B1516"/>
<path d="M133.917 50.1339H132.638V51.5957H133.917C134.025 51.6172 134.135 51.6145 134.241 51.5877C134.347 51.5609 134.446 51.5108 134.53 51.4409C134.615 51.371 134.683 51.2831 134.73 51.1835C134.777 51.0838 134.801 50.975 134.801 50.8648C134.801 50.7546 134.777 50.6458 134.73 50.5461C134.683 50.4465 134.615 50.3586 134.53 50.2887C134.446 50.2188 134.347 50.1687 134.241 50.1419C134.135 50.1151 134.025 50.1124 133.917 50.1339ZM134.372 52.169L135.282 54.0034H134.514L133.633 52.2263H132.638V54.0034H131.984V49.5033H133.917C134.102 49.4823 134.289 49.5019 134.465 49.561C134.641 49.62 134.802 49.717 134.937 49.8452C135.073 49.9733 135.179 50.1296 135.248 50.3032C135.317 50.4768 135.348 50.6636 135.339 50.8505C135.36 51.1503 135.274 51.448 135.097 51.6897C134.92 51.9315 134.663 52.1014 134.372 52.169Z" fill="#1B1516"/>
<path d="M138.55 50.1345H137.356V51.6823H138.55C138.654 51.6965 138.76 51.6862 138.859 51.6523C138.959 51.6185 139.049 51.5619 139.124 51.487C139.198 51.4121 139.254 51.3209 139.287 51.2205C139.321 51.1202 139.331 51.0134 139.317 50.9084C139.326 50.8046 139.312 50.7001 139.276 50.6022C139.241 50.5044 139.185 50.4155 139.112 50.3419C139.038 50.2682 138.95 50.2115 138.853 50.1757C138.756 50.1398 138.653 50.1258 138.55 50.1345ZM138.55 52.3128H137.384V54.0039H136.73V49.5039H138.578C138.955 49.5039 139.317 49.6549 139.583 49.9237C139.85 50.1924 139.999 50.5569 139.999 50.937C139.999 51.3171 139.85 51.6816 139.583 51.9504C139.317 52.2192 138.955 52.3701 138.578 52.3701" fill="#1B1516"/>
<path d="M96.6487 0.518555H0V44.1433H96.6487V0.518555Z" fill="#E30613"/>
<path d="M139.97 0.518555H96.6484V44.1433H139.97V0.518555Z" fill="#1D1D1B"/>
<path d="M17.7399 32.22H13.6465L17.1144 15.7103H11.2871L11.9693 12.4141H27.6606L26.9499 15.7103H21.2078L17.7399 32.22Z" fill="white"/>
<path d="M32.604 21.1847H34.7075C36.1768 21.2658 37.6501 21.1404 39.0851 20.8121C39.7613 20.579 40.3546 20.1504 40.7907 19.5796C41.1758 19.0793 41.3856 18.4644 41.3876 17.8311C41.408 17.5028 41.3363 17.1753 41.1804 16.8863C41.0245 16.5973 40.7908 16.3585 40.5064 16.1974C39.764 15.9122 38.9661 15.8043 38.1754 15.8821H33.6558L32.604 21.1847ZM30.2446 32.363H26.1797L30.33 12.5572H39.1989C40.3997 12.5236 41.5984 12.6784 42.7521 13.0158C43.6011 13.3504 44.3193 13.9539 44.7987 14.7356C45.2998 15.6065 45.5645 16.595 45.5663 17.6018C45.613 19.1396 45.0738 20.6371 44.0596 21.7866C42.8049 22.9783 41.1752 23.6884 39.4546 23.793C40.0236 24.3484 40.5203 24.9744 40.9328 25.656C42.1116 27.7623 43.1285 29.9566 43.9744 32.2197H39.5967C39.2272 31.1019 38.545 29.3535 37.4932 27.0031C37.1468 25.9916 36.5264 25.098 35.7024 24.4235C35.0793 24.1042 34.3808 23.9653 33.6842 24.0222H31.8649L30.2446 32.363Z" fill="white"/>
<path d="M46.1641 32.22L50.3142 12.4141H65.0673L64.3851 15.7103H53.7253L52.7588 20.239H63.0775L62.3953 23.5352H52.0766L50.8258 28.8951H62.4237L61.7131 32.22H46.1641Z" fill="white"/>
<path d="M68.0255 32.22H62.7383L71.6641 22.2167L66.718 12.4141H70.9819L72.9433 16.1402L74.2508 19.0065L74.4498 19.3791C75.5584 18.0319 76.4681 16.9428 77.2924 16.0829L80.4194 12.5574H85.5645L76.4397 22.9906L81.3573 32.3633H76.724L75.2458 29.497C74.4783 27.9206 73.9383 26.6307 73.6824 26.1148C72.7937 27.2546 71.8448 28.3454 70.8398 29.3824L68.0255 32.22Z" fill="white"/>
<path d="M127.861 12.4707H115.411V20.3817H108.73V25.541H115.411V32.1621H120.982V25.541H127.861V20.3817H120.982V17.63H127.861V12.4707Z" fill="#DADADA"/>
</svg>
