<svg width="140" height="43" viewBox="0 0 140 43" fill="none" xmlns="http://www.w3.org/2000/svg">
<path d="M139.973 0.631836H87.7441V34.6631H139.973V0.631836Z" fill="#FCBC00"/>
<path d="M87.7457 0.631836H0V34.6631H87.7457V0.631836Z" fill="#C01818"/>
<path d="M33.6636 13.6113H31.8965V22.5864H33.6636V13.6113Z" fill="white"/>
<path d="M21.1621 22.3438V13.3906H22.8638L26.4416 19.374V13.3906H28.0997V22.3438H26.3108L22.7983 16.4923V22.3438H21.1621Z" fill="white"/>
<path d="M11.5837 13.3906H13.0672V18.2303C13.0672 19.0223 13.0672 19.5062 13.0672 19.7482C13.1208 20.084 13.2817 20.393 13.5253 20.6281C13.8079 20.8339 14.1476 20.9447 14.4962 20.9447C14.8447 20.9447 15.1845 20.8339 15.467 20.6281C15.6827 20.4189 15.8146 20.1371 15.8379 19.8362C15.8731 19.3309 15.8731 18.8236 15.8379 18.3183V13.3906H17.3214V18.0983C17.3366 18.834 17.2928 19.5696 17.1905 20.2982C17.1257 20.6991 16.977 21.0816 16.7542 21.4201C16.5261 21.73 16.2265 21.9791 15.8815 22.146C15.4339 22.3386 14.9497 22.4287 14.4634 22.41C13.9175 22.4452 13.3712 22.3471 12.8708 22.1241C12.5239 21.9403 12.2248 21.6765 11.9982 21.3541C11.8055 21.0501 11.6653 20.7154 11.5837 20.3642C11.4858 19.6352 11.442 18.8999 11.4528 18.1643L11.5837 13.3906Z" fill="white"/>
<path d="M37.1328 22.5864L38.5945 13.6113H40.2526L41.8452 19.6827L43.3941 13.6113H45.1613L46.3176 22.6304L44.6813 22.5864L44.1577 16.867L42.107 22.5864H41.387L39.7508 16.867L38.7472 22.5864H37.1328Z" fill="white"/>
<path d="M64.1176 14.7107C64.7679 14.7708 65.3725 15.0737 65.8126 15.5601C66.2528 16.0464 66.4969 16.6811 66.4969 17.3396C66.4969 17.998 66.2528 18.6327 65.8126 19.119C65.3725 19.6054 64.7679 19.9083 64.1176 19.9684V23.4001H64.8376V21.8383C65.8218 21.6147 66.6989 21.0542 67.3194 20.252C67.9399 19.4498 68.2656 18.4556 68.2409 17.4386C68.2826 16.2861 67.8739 15.1631 67.1028 14.3115C66.3316 13.4598 65.2596 12.9475 64.1176 12.8849V14.7107ZM64.1176 19.9684C63.4674 19.9083 62.8628 19.6054 62.4226 19.119C61.9825 18.6327 61.7384 17.998 61.7384 17.3396C61.7384 16.6811 61.9825 16.0464 62.4226 15.5601C62.8628 15.0737 63.4674 14.7708 64.1176 14.7107V12.7969C62.9717 12.854 61.8943 13.3638 61.1185 14.2161C60.3427 15.0684 59.931 16.1945 59.9725 17.3506C59.9479 18.3676 60.2735 19.3618 60.894 20.164C61.5146 20.9662 62.3916 21.5267 63.3759 21.7503V23.3122H64.1395L64.1176 19.9684ZM53.6894 20.5403V19.0225H54.8893L53.6894 15.7447V13.5448H54.6275L58.1181 22.5202H56.1983L55.4347 20.4744L53.6894 20.5403ZM53.6894 13.6108V15.8107L52.5113 19.1324H53.7112V20.6503H52.0314L51.3114 22.6962H49.457L52.8385 13.7208L53.6894 13.6108Z" fill="white"/>
<path d="M87.6593 27.8874C89.7098 27.8918 91.7156 27.2827 93.4226 26.1371C95.1296 24.9916 96.4612 23.3612 97.2489 21.4523C98.0366 19.5434 98.2449 17.4417 97.8475 15.4133C97.4501 13.385 96.4649 11.5211 95.0165 10.0575C93.5681 8.59399 91.7217 7.59662 89.7109 7.19165C87.7001 6.78669 85.6154 6.99232 83.7206 7.78254C81.8257 8.57276 80.206 9.91203 79.0663 11.6308C77.9267 13.3497 77.3184 15.3708 77.3184 17.4383C77.3184 20.2058 78.4071 22.8602 80.3458 24.8192C82.2845 26.7782 84.9147 27.8816 87.6593 27.8874Z" fill="#1D1D1B"/>
<path d="M91.0603 20.2763V15.1068H89.9258V13.5669H94.0054V15.1068H92.871V21.3982H92.391L91.0603 20.2763Z" fill="white"/>
<path d="M84.756 20.1005C84.8746 19.9982 84.968 19.8693 85.0286 19.7242C85.0892 19.5791 85.1154 19.4217 85.105 19.2646V18.0767H83.4907V19.6386C83.4851 19.7456 83.4389 19.8463 83.3618 19.92C83.2846 19.9937 83.1824 20.0347 83.0762 20.0345C83.0163 20.0579 82.9513 20.0652 82.8878 20.0557C82.8243 20.0462 82.7643 20.0202 82.7137 19.9803C82.6631 19.9404 82.6237 19.8879 82.5993 19.828C82.5748 19.7681 82.5662 19.7028 82.5744 19.6386V15.2389C82.5714 15.185 82.5793 15.1312 82.5977 15.0806C82.6161 15.0299 82.6446 14.9837 82.6813 14.9445C82.7181 14.9054 82.7624 14.8742 82.8116 14.853C82.8607 14.8317 82.9136 14.8208 82.967 14.8209C83.077 14.8209 83.1824 14.8649 83.2602 14.9433C83.3379 15.0217 83.3815 15.128 83.3815 15.2389V16.8228H84.9959V15.1729C84.9959 14.2489 84.4069 13.501 82.9453 13.479C81.4836 13.457 80.8945 14.2489 80.8945 15.1729V19.8806C80.8945 20.0952 80.937 20.3077 81.0198 20.5054C81.1025 20.7032 81.2238 20.8822 81.3763 21.0319C81.5288 21.1817 81.7096 21.299 81.9078 21.3771C82.1061 21.4551 82.318 21.4923 82.5307 21.4865H83.0325L84.756 20.1005Z" fill="white"/>
<path d="M91.7808 21.4199L87.832 18.0762L83.7305 21.4199H91.7808Z" fill="#FCBD00"/>
<path d="M88.9669 13.5889H86.7852L85.3672 19.6382L87.8325 17.6364L90.3849 19.8362L88.9669 13.5889ZM87.3961 17.1745L87.8325 14.9747L88.2687 17.1745H87.3961Z" fill="white"/>
<path d="M108.276 21.4423H105.898L104.131 17.9885H103.236V20.1884H104.218V21.5303H100.16V20.1884H101.229V14.9088H100.16V13.5889H105.003C105.302 13.5677 105.603 13.609 105.885 13.71C106.168 13.811 106.427 13.9697 106.646 14.1761C106.865 14.3825 107.039 14.6323 107.158 14.9097C107.277 15.1872 107.339 15.4864 107.338 15.7887C107.344 16.2111 107.219 16.6248 106.98 16.972C106.742 17.3191 106.401 17.5823 106.007 17.7246L107.251 20.1004H108.276V21.4423ZM104.065 16.7346C104.96 16.7346 105.222 16.2067 105.222 15.8107C105.229 15.6866 105.209 15.5625 105.163 15.4468C105.118 15.3312 105.048 15.2269 104.959 15.1411C104.87 15.0554 104.763 14.9901 104.647 14.95C104.53 14.9099 104.406 14.8958 104.283 14.9088H103.236V16.7346H104.065Z" fill="#1D1D1B"/>
<path d="M114.384 20.21C114.097 20.6502 113.7 21.0061 113.232 21.2417C112.765 21.4773 112.244 21.5843 111.722 21.5519C111.337 21.6025 110.946 21.5688 110.575 21.4531C110.203 21.3375 109.861 21.1426 109.571 20.8817C109.281 20.6208 109.051 20.3 108.895 19.9412C108.739 19.5823 108.662 19.1938 108.668 18.8022C108.653 18.4099 108.718 18.0188 108.859 17.653C109.001 17.2873 109.215 16.9547 109.489 16.6762C109.764 16.3976 110.092 16.1789 110.453 16.0338C110.815 15.8886 111.202 15.8201 111.592 15.8325C111.997 15.8241 112.399 15.9057 112.77 16.0713C113.141 16.2369 113.471 16.4826 113.738 16.791C114.004 17.0994 114.2 17.463 114.312 17.8561C114.423 18.2493 114.448 18.6623 114.384 19.0661H110.414C110.404 19.2458 110.432 19.4254 110.496 19.5936C110.559 19.7618 110.656 19.9149 110.781 20.0432C110.907 20.1714 111.057 20.272 111.223 20.3386C111.388 20.4052 111.566 20.4363 111.744 20.43C111.989 20.4228 112.228 20.3621 112.447 20.2519C112.665 20.1417 112.857 19.9848 113.01 19.792L114.384 20.21ZM112.682 18.0102C112.68 17.86 112.647 17.7118 112.588 17.5741C112.528 17.4364 112.442 17.312 112.335 17.2078C112.227 17.1036 112.101 17.0218 111.962 16.967C111.823 16.9121 111.675 16.8854 111.526 16.8884C110.915 16.8884 110.523 17.2623 110.414 18.0102H112.682Z" fill="#1D1D1B"/>
<path d="M115.299 15.9647H117.873V16.4706C118.315 16.0983 118.869 15.8888 119.444 15.8767C119.681 15.8675 119.918 15.9113 120.137 16.0049C120.355 16.0986 120.551 16.2397 120.709 16.4183C120.868 16.5969 120.985 16.8086 121.053 17.0382C121.121 17.2678 121.137 17.5097 121.102 17.7466V20.1665H121.844V21.4424H119.291V17.9666C119.291 17.5266 119.117 17.3506 118.789 17.3506C118.443 17.375 118.111 17.497 117.83 17.7026V20.1665H118.571V21.4424H115.299V20.1665H116.128V17.2186H115.299V15.9647Z" fill="#1D1D1B"/>
<path d="M122.193 15.9648H122.892V15.1069L124.637 13.853V16.0528H125.619V17.3067H124.637V19.6384C124.637 20.1224 124.637 20.2103 125.095 20.2103C125.275 20.2104 125.453 20.173 125.619 20.1004V21.2882C125.21 21.4581 124.773 21.5477 124.331 21.5522C124.149 21.5778 123.964 21.5632 123.788 21.5092C123.612 21.4553 123.45 21.3633 123.313 21.2398C123.176 21.1163 123.067 20.9641 122.995 20.7939C122.922 20.6238 122.887 20.4396 122.892 20.2543V17.2187H122.193V15.9648Z" fill="#1D1D1B"/>
<path d="M132.468 21.4423H129.828V21.0023C129.409 21.3275 128.895 21.5052 128.366 21.5083C128.123 21.5324 127.878 21.5067 127.645 21.4327C127.412 21.3586 127.196 21.2378 127.01 21.0775C126.825 20.9172 126.674 20.7207 126.565 20.4999C126.457 20.279 126.394 20.0384 126.381 19.7924C126.403 19.5271 126.477 19.2688 126.599 19.0328C126.721 18.7967 126.888 18.5875 127.091 18.4175C127.295 18.2474 127.529 18.12 127.782 18.0426C128.035 17.9651 128.3 17.9393 128.562 17.9665C128.982 17.9659 129.397 18.0481 129.784 18.2085V17.9005C129.785 17.7685 129.758 17.6379 129.705 17.517C129.653 17.3961 129.576 17.2876 129.479 17.1985C129.383 17.1094 129.269 17.0417 129.145 16.9996C129.021 16.9576 128.889 16.9423 128.759 16.9546C128.575 16.948 128.392 16.9821 128.222 17.0543C128.053 17.1264 127.901 17.2351 127.777 17.3725L126.381 17.1306C126.638 16.6746 127.025 16.3072 127.492 16.0757C127.959 15.8443 128.484 15.7596 128.999 15.8326C130.788 15.8326 131.551 16.4706 131.551 17.9225V20.1224H132.424L132.468 21.4423ZM128.846 19.0225C128.748 19.0102 128.649 19.0185 128.554 19.0467C128.459 19.0749 128.371 19.1225 128.296 19.1865C128.22 19.2504 128.158 19.3294 128.114 19.4185C128.07 19.5076 128.044 19.6049 128.039 19.7044C128.039 19.8969 128.115 20.0816 128.25 20.2177C128.385 20.3539 128.568 20.4304 128.759 20.4304C129.108 20.4304 129.37 20.2764 129.828 19.8584V19.4184C129.548 19.1897 129.205 19.0517 128.846 19.0225Z" fill="#1D1D1B"/>
<path d="M133.014 20.1663H133.865V14.8428H133.014V13.5889H135.61V20.1663H136.395V21.4202H133.014V20.1663Z" fill="#1D1D1B"/>
<path d="M101.599 30.3294C101.599 30.5934 101.599 30.7914 102.101 30.7914C102.603 30.7914 102.603 30.6594 102.603 30.3074V29.0095C102.608 28.6669 102.533 28.3279 102.385 28.0196L101.512 26.3477C101.334 26.0319 101.237 25.6767 101.229 25.3138V24.1918C101.229 23.6859 101.556 23.3999 102.101 23.3999C102.647 23.3999 102.952 23.6199 102.952 24.1038V25.4678H102.581V24.1478C102.581 23.8399 102.428 23.7079 102.123 23.7079C102.064 23.7078 102.005 23.7199 101.951 23.7434C101.896 23.7668 101.847 23.8012 101.806 23.8444C101.766 23.8876 101.734 23.9388 101.713 23.9947C101.693 24.0507 101.684 24.1102 101.687 24.1699V25.3578C101.682 25.6108 101.742 25.8609 101.861 26.0837L102.712 27.7336C102.9 28.0941 103.004 28.4926 103.017 28.8995V30.3294C103.017 30.8134 102.777 31.1213 102.123 31.1213C101.469 31.1213 101.229 30.8134 101.229 30.3074V28.9435H101.599V30.3294Z" fill="#1D1D1B"/>
<path d="M109.236 23.4443V23.7523H110V31.0776H110.414V23.7523H111.156V23.4443H109.236Z" fill="#1D1D1B"/>
<path d="M119.249 30.2855C119.256 30.4031 119.238 30.5209 119.195 30.6304C119.151 30.7398 119.084 30.8382 118.999 30.9183C118.913 30.9984 118.811 31.0582 118.699 31.0933C118.588 31.1285 118.47 31.1381 118.354 31.1215C117.765 31.1215 117.416 30.8135 117.416 30.2855V24.2139C117.416 23.6859 117.765 23.3999 118.354 23.3999C118.943 23.3999 119.249 23.6859 119.249 24.2139V30.2855ZM118.834 24.2359C118.84 24.1687 118.832 24.101 118.811 24.0371C118.789 23.9732 118.755 23.9145 118.71 23.8648C118.665 23.8151 118.61 23.7755 118.548 23.7485C118.487 23.7214 118.421 23.7076 118.354 23.7079C118.285 23.7048 118.215 23.7163 118.15 23.7417C118.085 23.7671 118.026 23.8059 117.977 23.8556C117.928 23.9052 117.889 23.9647 117.864 24.0302C117.839 24.0956 117.827 24.1657 117.831 24.2359V30.2855C117.827 30.3548 117.838 30.424 117.864 30.4884C117.889 30.5528 117.928 30.611 117.978 30.659C118.027 30.707 118.087 30.7436 118.152 30.7665C118.217 30.7894 118.286 30.7979 118.354 30.7915C118.42 30.795 118.486 30.7841 118.547 30.7596C118.608 30.7351 118.664 30.6975 118.709 30.6495C118.755 30.6014 118.789 30.5441 118.811 30.4813C118.833 30.4184 118.84 30.3517 118.834 30.2855V24.2359Z" fill="#1D1D1B"/>
<path d="M126.207 23.4443H127.145C127.647 23.4443 128.018 23.6643 128.018 24.1483V26.3481C128.018 26.766 128.018 27.074 127.363 27.118C127.452 27.1147 127.54 27.1303 127.623 27.1637C127.705 27.1971 127.78 27.2475 127.841 27.3119C127.903 27.3762 127.951 27.4529 127.981 27.537C128.011 27.6211 128.024 27.7106 128.018 27.7999V31.0776H127.603V27.8659C127.607 27.7889 127.594 27.7119 127.565 27.6404C127.536 27.569 127.492 27.5048 127.436 27.4523C127.38 27.3999 127.313 27.3605 127.24 27.337C127.167 27.3134 127.09 27.3062 127.014 27.316H126.622V31.0776H126.207V23.4443ZM127.036 26.986C127.407 26.986 127.603 26.832 127.603 26.4801V24.2803C127.603 23.9503 127.407 23.7963 127.08 23.7963H126.622V27.03L127.036 26.986Z" fill="#1D1D1B"/>
<path d="M100.463 4.41553V4.7235H101.205V12.0488H101.641V4.7235H102.383V4.41553H100.463Z" fill="#1D1D1B"/>
<path d="M118.77 4.41553V7.9572H117.766V4.41553H117.352V12.0488H117.766V8.28717H118.77V12.0488H119.184V4.41553H118.77Z" fill="#1D1D1B"/>
<path d="M134.084 4.41553V12.0488H135.589V11.7189H134.499V8.28717H135.458V7.9572H134.499V4.7235H135.524V4.41553H134.084Z" fill="#1D1D1B"/>
<path d="M134.15 23.4443V31.0776H135.678V30.7697H134.587V27.316H135.525V27.008H134.587V23.7743H135.59V23.4443H134.15Z" fill="#1D1D1B"/>
<path d="M137.619 30.3074V29.9774H137.793C137.99 29.9774 138.055 29.9774 138.055 30.1314C138.055 30.2854 138.055 30.3074 137.771 30.3074H137.619ZM137.51 29.8894V30.7694H137.619V30.3954C137.815 30.3954 137.881 30.3954 138.011 30.7694H138.142C138.011 30.4614 137.99 30.4174 137.859 30.3734C137.892 30.3765 137.926 30.3725 137.957 30.3617C137.989 30.3509 138.018 30.3336 138.043 30.3108C138.067 30.288 138.087 30.2603 138.1 30.2294C138.114 30.1985 138.121 30.1651 138.12 30.1314C138.12 29.9774 137.99 29.8894 137.815 29.8894H137.51ZM137.859 29.4935C137.694 29.4891 137.531 29.5344 137.392 29.6235C137.253 29.7127 137.143 29.8416 137.077 29.994C137.011 30.1463 136.992 30.315 137.021 30.4786C137.051 30.6421 137.128 30.7931 137.243 30.9123C137.358 31.0314 137.506 31.1132 137.667 31.1473C137.828 31.1814 137.996 31.1661 138.149 31.1036C138.302 31.041 138.432 30.9339 138.525 30.796C138.617 30.6581 138.666 30.4956 138.666 30.3294C138.666 30.1114 138.582 29.9021 138.431 29.7459C138.28 29.5898 138.075 29.4992 137.859 29.4935ZM137.859 31.0553C137.668 31.0553 137.485 30.9789 137.35 30.8427C137.215 30.7066 137.139 30.5219 137.139 30.3294C137.169 30.1558 137.258 29.9984 137.392 29.8849C137.526 29.7715 137.695 29.7092 137.87 29.7092C138.044 29.7092 138.213 29.7715 138.347 29.8849C138.481 29.9984 138.571 30.1558 138.6 30.3294C138.595 30.5239 138.514 30.7086 138.376 30.8441C138.237 30.9796 138.052 31.0554 137.859 31.0553Z" fill="#1D1D1B"/>
<path d="M69.2676 42.2747C68.4168 42.2747 67.9805 41.7247 67.9805 40.7567V38.7769H68.5041V40.7567C68.5041 41.3947 68.7659 41.7467 69.2676 41.7467C69.7694 41.7467 70.0749 41.4167 70.0749 40.7787V38.7769H70.5767V40.7787C70.5767 41.7467 70.1185 42.2747 69.2676 42.2747Z" fill="#1D1D1B"/>
<path d="M73.8476 42.2085L72.495 40.0087L72.2332 39.5908C72.2332 39.7228 72.2332 40.1847 72.2332 40.3827V42.1645H71.666V38.7769H72.1896L73.4768 40.8666L73.7604 41.3506V38.7769H74.2403V42.2085H73.8476Z" fill="#1D1D1B"/>
<path d="M76.9481 40.1407C76.9481 39.8987 76.7299 39.5028 76.6863 39.3488C76.6157 39.6181 76.5282 39.8826 76.4245 40.1407L76.1627 40.9326H77.2099L76.9481 40.1407ZM77.668 42.2085L77.3626 41.3946H76.0318L75.7482 42.2085H75.2246L76.4463 38.7769H76.9917L78.2353 42.2085H77.668Z" fill="#1D1D1B"/>
<path d="M80.6777 42.2085V38.7769H82.8812V39.2828H81.2013V40.1187H82.1612V40.6247H81.2013V41.7025H82.9467V42.2085H80.6777Z" fill="#1D1D1B"/>
<path d="M86.4594 42.2087V40.3828C86.4594 40.1848 86.4594 39.8768 86.4594 39.7888C86.4594 39.7008 86.3285 40.1408 86.2413 40.3388L85.4122 42.2747L84.5833 40.3388C84.5833 40.1408 84.4087 39.8768 84.3651 39.7888C84.3214 39.7008 84.3651 40.1848 84.3651 40.3828V42.2087H83.8633V38.7769H84.4087L85.1723 40.6027C85.2571 40.796 85.3299 40.9944 85.3905 41.1967L85.6304 40.6027L86.3721 38.7769H86.9394V42.2087H86.4594Z" fill="#1D1D1B"/>
<path d="M89.5115 39.2604H88.5952V40.4483H89.5115C89.6677 40.4483 89.8175 40.3857 89.928 40.2743C90.0385 40.1629 90.1006 40.0119 90.1006 39.8543C90.1006 39.6968 90.0385 39.5458 89.928 39.4344C89.8175 39.323 89.6677 39.2604 89.5115 39.2604ZM89.5115 40.9322H88.617V42.208H88.1152V38.7765H89.5551C89.6998 38.7634 89.8455 38.7821 89.9822 38.8314C90.119 38.8806 90.2435 38.9592 90.3472 39.0616C90.4509 39.1641 90.5313 39.2881 90.5829 39.4249C90.6345 39.5618 90.656 39.7083 90.646 39.8543C90.6531 40.0035 90.6281 40.1525 90.5727 40.291C90.5173 40.4296 90.4328 40.5543 90.325 40.6568C90.2172 40.7592 90.0886 40.8369 89.9482 40.8844C89.8077 40.932 89.6587 40.9483 89.5115 40.9322Z" fill="#1D1D1B"/>
<path d="M93.0246 39.2606H92.021V40.3605H93.0246C93.1693 40.3605 93.3079 40.3025 93.4102 40.1994C93.5125 40.0963 93.57 39.9564 93.57 39.8105C93.57 39.6647 93.5125 39.5248 93.4102 39.4217C93.3079 39.3186 93.1693 39.2606 93.0246 39.2606ZM93.3737 40.8004L94.0718 42.2083H93.4827L92.8064 40.8444H92.0428V42.2083H91.541V38.7767H93.0464C93.186 38.7609 93.3274 38.7755 93.461 38.8195C93.5945 38.8636 93.7172 38.936 93.8206 39.0319C93.924 39.1278 94.0058 39.245 94.0604 39.3756C94.115 39.5061 94.1412 39.6469 94.1372 39.7886C94.1582 40.0196 94.0942 40.2503 93.9574 40.4369C93.8207 40.6235 93.6207 40.7528 93.3955 40.8004" fill="#1D1D1B"/>
<path d="M95.1426 42.2085V38.7769H97.346V39.2828H95.6662V40.1187H96.6479V40.6247H95.6662V41.7025H97.4114V42.2085H95.1426Z" fill="#1D1D1B"/>
<path d="M99.3307 42.2749C99.1012 42.2752 98.8745 42.224 98.6669 42.1251C98.4594 42.0262 98.2763 41.882 98.1309 41.7029L98.4799 41.351C98.714 41.6006 99.0342 41.7502 99.3744 41.7689C99.8544 41.7689 100.094 41.5929 100.094 41.263C100.094 40.933 99.8762 40.867 99.309 40.691C98.7417 40.515 98.2399 40.295 98.2399 39.6791C98.248 39.5392 98.2842 39.4024 98.3463 39.277C98.4084 39.1516 98.4951 39.0403 98.6012 38.9497C98.7073 38.8592 98.8306 38.7914 98.9635 38.7503C99.0964 38.7093 99.2362 38.696 99.3744 38.7111C99.5809 38.7106 99.7854 38.7512 99.9763 38.8304C100.167 38.9097 100.341 39.0261 100.487 39.1731L100.138 39.5471C100.035 39.4369 99.9093 39.3504 99.77 39.2934C99.6307 39.2365 99.4809 39.2105 99.3307 39.2171C98.938 39.2171 98.7636 39.4151 98.7636 39.6571C98.7636 39.8991 98.9163 40.0091 99.5053 40.185C100.094 40.361 100.596 40.603 100.596 41.219C100.596 41.8349 100.203 42.2749 99.3307 42.2749Z" fill="#1D1D1B"/>
<path d="M103.017 40.1407C103.017 39.8987 102.799 39.5028 102.755 39.3488C102.693 39.618 102.613 39.8826 102.515 40.1407L102.253 40.9326H103.3L103.017 40.1407ZM103.737 42.2085L103.453 41.3946H102.079L101.795 42.2085H101.271L102.493 38.7769H103.039L104.282 42.2085H103.737Z" fill="#1D1D1B"/>
<path d="M107.272 39.2828V40.1847H108.253V40.6907H107.272V42.2085H106.748V38.7769H108.952V39.2828H107.272Z" fill="#1D1D1B"/>
<path d="M109.846 42.2085V38.7769H112.027V39.2828H110.348V40.1187H111.329V40.6247H110.348V41.7025H112.115V42.2085H109.846Z" fill="#1D1D1B"/>
<path d="M114.579 39.2606H113.575V40.3605H114.579C114.724 40.3605 114.862 40.3025 114.965 40.1994C115.067 40.0963 115.124 39.9564 115.124 39.8105C115.124 39.6647 115.067 39.5248 114.965 39.4217C114.862 39.3186 114.724 39.2606 114.579 39.2606ZM114.928 40.8004L115.626 42.2083H115.037L114.339 40.8444H113.575V42.2083H113.117V38.7767H114.623C114.762 38.7609 114.904 38.7755 115.037 38.8195C115.171 38.8636 115.293 38.936 115.397 39.0319C115.5 39.1278 115.582 39.245 115.636 39.3756C115.691 39.5061 115.717 39.6469 115.713 39.7886C115.734 40.0196 115.67 40.2503 115.534 40.4369C115.397 40.6235 115.197 40.7528 114.972 40.8004" fill="#1D1D1B"/>
<path d="M118.201 39.2606H117.197V40.3605H118.201C118.276 40.3702 118.354 40.3631 118.427 40.3395C118.499 40.316 118.566 40.2766 118.622 40.2241C118.679 40.1717 118.723 40.1075 118.752 40.0361C118.78 39.9646 118.793 39.8876 118.79 39.8105C118.793 39.7335 118.78 39.6565 118.752 39.585C118.723 39.5136 118.679 39.4494 118.622 39.397C118.566 39.3445 118.499 39.3051 118.427 39.2816C118.354 39.258 118.276 39.2509 118.201 39.2606ZM118.55 40.8004L119.248 42.2083H118.659L117.982 40.8444H117.197V42.2083H116.695V38.7767H118.201C118.34 38.7609 118.482 38.7755 118.615 38.8195C118.749 38.8636 118.871 38.936 118.975 39.0319C119.078 39.1278 119.16 39.245 119.215 39.3756C119.269 39.5061 119.295 39.6469 119.291 39.7886C119.312 40.0196 119.248 40.2503 119.112 40.4369C118.975 40.6235 118.775 40.7528 118.55 40.8004Z" fill="#1D1D1B"/>
<path d="M120.34 42.2085V38.7769H122.521V39.2828H120.842V40.1187H121.823V40.6247H120.842V41.7025H122.609V42.2085H120.34Z" fill="#1D1D1B"/>
<path d="M124.966 40.8446V42.2085H124.442V40.8446L123.221 38.7769H123.832L124.355 39.7228C124.493 39.9385 124.609 40.1668 124.704 40.4047L125.053 39.7228L125.599 38.7769H126.21L124.966 40.8446Z" fill="#1D1D1B"/>
<path d="M128.084 42.2749C127.212 42.2749 126.645 41.5269 126.645 40.493C126.645 39.4591 127.212 38.7111 128.084 38.7111C128.32 38.694 128.556 38.7476 128.761 38.865C128.967 38.9824 129.134 39.1585 129.241 39.3711L128.783 39.6571C128.724 39.5227 128.625 39.4102 128.5 39.3352C128.375 39.2603 128.229 39.2267 128.084 39.2391C127.495 39.2391 127.168 39.7231 127.168 40.493C127.168 41.263 127.495 41.7469 128.084 41.7469C128.236 41.7484 128.386 41.7108 128.52 41.6377C128.654 41.5646 128.766 41.4583 128.848 41.3289L129.263 41.6149C129.144 41.8223 128.972 41.9933 128.764 42.1095C128.557 42.2258 128.322 42.2829 128.084 42.2749Z" fill="#1D1D1B"/>
<path d="M131.401 39.2389C130.812 39.2389 130.485 39.7229 130.485 40.4929C130.485 41.2629 130.812 41.7469 131.401 41.7469C131.99 41.7469 132.339 41.2629 132.339 40.4929C132.339 39.7229 132.012 39.2389 131.401 39.2389ZM131.401 42.2749C130.528 42.2749 129.961 41.5269 129.961 40.4929C129.961 39.4589 130.528 38.7109 131.401 38.7109C132.273 38.7109 132.862 39.4589 132.862 40.4929C132.862 41.5269 132.295 42.2749 131.401 42.2749Z" fill="#1D1D1B"/>
<path d="M135.328 39.2606H134.324V40.3605H135.328C135.472 40.3605 135.611 40.3025 135.713 40.1994C135.816 40.0963 135.873 39.9564 135.873 39.8105C135.873 39.6647 135.816 39.5248 135.713 39.4217C135.611 39.3186 135.472 39.2606 135.328 39.2606ZM135.677 40.8004L136.375 42.2083H135.786L135.088 40.8444H134.324V42.2083H133.822V38.7767H135.328C135.467 38.7609 135.609 38.7755 135.742 38.8195C135.876 38.8636 135.998 38.936 136.102 39.0319C136.205 39.1278 136.287 39.245 136.342 39.3756C136.396 39.5061 136.422 39.6469 136.418 39.7886C136.439 40.0196 136.375 40.2503 136.239 40.4369C136.102 40.6235 135.902 40.7528 135.677 40.8004Z" fill="#1D1D1B"/>
<path d="M138.861 39.2606H137.945V40.4485H138.861C138.94 40.4551 139.02 40.4444 139.094 40.4169C139.169 40.3894 139.236 40.3459 139.292 40.2893C139.348 40.2328 139.392 40.1646 139.419 40.0895C139.446 40.0144 139.457 39.9342 139.45 39.8545C139.461 39.774 139.453 39.692 139.427 39.615C139.402 39.5379 139.358 39.468 139.301 39.4105C139.244 39.353 139.175 39.3096 139.099 39.2836C139.022 39.2576 138.941 39.2497 138.861 39.2606ZM138.861 40.9324H137.967V42.2083H137.465V38.7767H138.905C139.05 38.7596 139.198 38.7755 139.336 38.8233C139.475 38.8711 139.601 38.9496 139.705 39.0529C139.81 39.1563 139.89 39.2819 139.941 39.4206C139.991 39.5593 140.01 39.7076 139.996 39.8545C140.003 40.0037 139.978 40.1527 139.922 40.2912C139.867 40.4298 139.782 40.5545 139.675 40.657C139.567 40.7594 139.438 40.8371 139.298 40.8846C139.157 40.9322 139.008 40.9485 138.861 40.9324Z" fill="#1D1D1B"/>
</svg>
