<svg width="100" height="101" viewBox="0 0 100 101" fill="none" xmlns="http://www.w3.org/2000/svg">
<g clip-path="url(#clip0)">
<path d="M50 100.954C77.6142 100.954 100 78.5683 100 50.9541C100 23.3399 77.6142 0.954102 50 0.954102C22.3858 0.954102 0 23.3399 0 50.9541C0 78.5683 22.3858 100.954 50 100.954Z" fill="#2CBFAE"/>
<path d="M18.0234 30.7891V76.5953C18.0233 76.9515 18.0934 77.3043 18.2297 77.6335C18.366 77.9626 18.5658 78.2617 18.8177 78.5136C19.0696 78.7655 19.3686 78.9653 19.6978 79.1015C20.0269 79.2378 20.3797 79.3079 20.7359 79.3078H79.318C79.6742 79.3079 80.027 79.2378 80.3561 79.1015C80.6853 78.9653 80.9843 78.7655 81.2362 78.5136C81.4881 78.2617 81.6879 77.9626 81.8242 77.6335C81.9605 77.3043 82.0306 76.9515 82.0305 76.5953V30.7891H18.0234Z" fill="#EEEFEE"/>
<path d="M79.2633 22.6001H20.6813C20.325 22.6 19.9722 22.6701 19.6431 22.8064C19.314 22.9426 19.0149 23.1424 18.763 23.3943C18.5111 23.6462 18.3113 23.9453 18.175 24.2744C18.0387 24.6036 17.9686 24.9564 17.9688 25.3126V36.9837H81.9758V25.3126C81.9759 24.9564 81.9058 24.6036 81.7695 24.2744C81.6332 23.9453 81.4334 23.6462 81.1815 23.3943C80.9296 23.1424 80.6306 22.9426 80.3014 22.8064C79.9723 22.6701 79.6195 22.6 79.2633 22.6001Z" fill="#62667C"/>
<path d="M75.1449 31.6922C76.1947 31.6922 77.0457 30.8412 77.0457 29.7914C77.0457 28.7416 76.1947 27.8906 75.1449 27.8906C74.0951 27.8906 73.2441 28.7416 73.2441 29.7914C73.2441 30.8412 74.0951 31.6922 75.1449 31.6922Z" fill="#EF5261"/>
<path d="M59.1137 31.6922C60.1634 31.6922 61.0145 30.8412 61.0145 29.7914C61.0145 28.7416 60.1634 27.8906 59.1137 27.8906C58.0639 27.8906 57.2129 28.7416 57.2129 29.7914C57.2129 30.8412 58.0639 31.6922 59.1137 31.6922Z" fill="#F6C863"/>
<path d="M67.1293 31.6922C68.1791 31.6922 69.0301 30.8412 69.0301 29.7914C69.0301 28.7416 68.1791 27.8906 67.1293 27.8906C66.0795 27.8906 65.2285 28.7416 65.2285 29.7914C65.2285 30.8412 66.0795 31.6922 67.1293 31.6922Z" fill="#2CBFAE"/>
<path d="M51.4849 28.4219H24.7185C24.3608 28.4304 24.0207 28.5785 23.7707 28.8345C23.5208 29.0905 23.3809 29.434 23.3809 29.7918C23.3809 30.1496 23.5208 30.4931 23.7707 30.7491C24.0207 31.0051 24.3608 31.1532 24.7185 31.1617H51.4849C51.8425 31.1532 52.1827 31.0051 52.4326 30.7491C52.6825 30.4931 52.8225 30.1496 52.8225 29.7918C52.8225 29.434 52.6825 29.0905 52.4326 28.8345C52.1827 28.5785 51.8425 28.4304 51.4849 28.4219Z" fill="#EEEFEE"/>
<path d="M55.1012 47.7859V59.2351C55.0995 59.7685 54.8869 60.2796 54.5096 60.6567C54.1324 61.0337 53.6213 61.2462 53.0879 61.2477H42.8129L37.7816 66.282V61.25H35.3465C34.8128 61.2485 34.3014 61.0357 33.9242 60.6581C33.547 60.2805 33.3348 59.7689 33.334 59.2351V47.7859C33.3354 47.2526 33.5479 46.7416 33.925 46.3645C34.3021 45.9874 34.8132 45.7749 35.3465 45.7734H53.0879C53.6213 45.7749 54.1324 45.9873 54.5096 46.3644C54.8869 46.7415 55.0995 47.2526 55.1012 47.7859Z" fill="#2CBFAE"/>
<path d="M35.5781 49.2891H52.8578V50.0477H35.5781V49.2891Z" fill="#16A897"/>
<path d="M35.5781 53.1328H52.8578V53.8914H35.5781V53.1328Z" fill="#16A897"/>
<path d="M35.5781 56.9756H52.8578V57.7342H35.5781V56.9756Z" fill="#16A897"/>
<path d="M47.7598 54.4525V64.3994C47.761 64.8627 47.9456 65.3068 48.2732 65.6344C48.6009 65.962 49.0449 66.1466 49.5082 66.1479H58.4324L62.8035 70.5182V66.1479H64.9223C65.3856 66.1466 65.8296 65.962 66.1572 65.6344C66.4849 65.3068 66.6695 64.8627 66.6707 64.3994V54.4525C66.6695 53.9892 66.4849 53.5452 66.1572 53.2176C65.8296 52.8899 65.3856 52.7053 64.9223 52.7041H49.5082C49.0449 52.7053 48.6009 52.8899 48.2732 53.2176C47.9456 53.5452 47.761 53.9892 47.7598 54.4525Z" fill="#F6C863"/>
<path d="M64.7188 56.4175H49.7094V55.7589H64.7188V56.4175Z" fill="#EAB54E"/>
<path d="M64.7188 59.7559H49.7094V59.0973H64.7188V59.7559Z" fill="#EAB54E"/>
<path d="M64.7188 63.0938H49.7094V62.4352H64.7188V63.0938Z" fill="#EAB54E"/>
</g>
<defs>
<clipPath id="clip0">
<rect width="100" height="100" fill="white" transform="translate(0 0.954102)"/>
</clipPath>
</defs>
</svg>
