<svg width="100" height="101" viewBox="0 0 100 101" fill="none" xmlns="http://www.w3.org/2000/svg">
<g clip-path="url(#clip0)">
<path d="M50 100.997C77.6142 100.997 100 78.4252 100 50.581C100 22.7368 77.6142 0.164551 50 0.164551C22.3858 0.164551 0 22.7368 0 50.581C0 78.4252 22.3858 100.997 50 100.997Z" fill="#EA8953"/>
<path d="M79.8125 22.3389H20.1875C18.9621 22.3389 17.9688 23.3405 17.9688 24.5761V76.5885C17.9688 77.8241 18.9621 78.8258 20.1875 78.8258H79.8125C81.0379 78.8258 82.0312 77.8241 82.0312 76.5885V24.5761C82.0312 23.3405 81.0379 22.3389 79.8125 22.3389Z" fill="#EEEFEE"/>
<path d="M82.0312 24.5761V35.0123H17.9688V24.5761C17.9704 23.9833 18.2047 23.4152 18.6204 22.996C19.0362 22.5768 19.5996 22.3405 20.1875 22.3389H79.8125C80.4004 22.3405 80.9638 22.5768 81.3796 22.996C81.7953 23.4152 82.0296 23.9833 82.0312 24.5761Z" fill="#575B6D"/>
<path d="M74.7246 30.6448C75.8033 30.6448 76.6777 29.7631 76.6777 28.6754C76.6777 27.5878 75.8033 26.7061 74.7246 26.7061C73.6459 26.7061 72.7715 27.5878 72.7715 28.6754C72.7715 29.7631 73.6459 30.6448 74.7246 30.6448Z" fill="#DBD8DD"/>
<path d="M66.3477 30.6448C67.4263 30.6448 68.3008 29.7631 68.3008 28.6754C68.3008 27.5878 67.4263 26.7061 66.3477 26.7061C65.269 26.7061 64.3945 27.5878 64.3945 28.6754C64.3945 29.7631 65.269 30.6448 66.3477 30.6448Z" fill="#DBD8DD"/>
<path d="M57.9707 30.6448C59.0494 30.6448 59.9238 29.7631 59.9238 28.6754C59.9238 27.5878 59.0494 26.7061 57.9707 26.7061C56.892 26.7061 56.0176 27.5878 56.0176 28.6754C56.0176 29.7631 56.892 30.6448 57.9707 30.6448Z" fill="#DBD8DD"/>
<path d="M32.1214 48.4412H23.0879V40.1201H32.1214V48.4412ZM24.5121 47.0051H30.6972V41.5562H24.5121V47.0051Z" fill="#2CBFAE"/>
<path d="M35.5234 47.0054H76.9133V48.4414H35.5234V47.0054Z" fill="#DBD8DD"/>
<path d="M35.5234 42.54H58.7375V43.9761H35.5234V42.54Z" fill="#DBD8DD"/>
<path d="M32.1214 61.0776H23.0879V52.7573H32.1214V61.0776ZM24.5121 59.64H30.6972V54.1926H24.5121V59.64Z" fill="#EF5261"/>
<path d="M35.5234 59.644H76.9133V61.0801H35.5234V59.644Z" fill="#DBD8DD"/>
<path d="M35.5234 55.1787H58.7375V56.6148H35.5234V55.1787Z" fill="#DBD8DD"/>
<path d="M32.1214 73.7187H23.0879V65.3984H32.1214V73.7187ZM24.5121 72.2826H30.6972V66.8337H24.5121V72.2826Z" fill="#69B0EE"/>
<path d="M35.5234 72.2827H76.9133V73.7188H35.5234V72.2827Z" fill="#DBD8DD"/>
<path d="M35.5234 67.8193H58.7375V69.2554H35.5234V67.8193Z" fill="#DBD8DD"/>
</g>
<defs>
<clipPath id="clip0">
<rect width="100" height="100.833" fill="white" transform="translate(0 0.164551)"/>
</clipPath>
</defs>
</svg>
