<svg width="100" height="101" viewBox="0 0 100 101" fill="none" xmlns="http://www.w3.org/2000/svg">
<g clip-path="url(#clip0)">
<path d="M50 100.915C77.6142 100.915 100 78.3427 100 50.4985C100 22.6542 77.6142 0.0820312 50 0.0820312C22.3858 0.0820312 0 22.6542 0 50.4985C0 78.3427 22.3858 100.915 50 100.915Z" fill="#EF5261"/>
<path d="M67.8107 36.153C67.811 37.1712 67.724 38.1875 67.5506 39.1905C67.3879 40.1506 67.1512 41.0964 66.8427 42.0194C66.6451 42.5802 66.4217 43.1222 66.1881 43.6736C64.7674 46.7992 62.4855 49.447 59.6142 51.3014C56.7428 53.1558 53.4033 54.1386 49.9935 54.1326C48.0283 54.1357 46.0767 53.8057 44.22 53.1566C43.5596 52.9381 42.9155 52.6722 42.2926 52.361C39.3796 50.9524 36.9013 48.7715 35.1231 46.0517C33.345 43.3319 32.3339 40.1757 32.1981 36.921C32.1895 36.6681 32.1895 36.4153 32.1895 36.153C32.1827 32.0769 33.5598 28.1214 36.0918 24.944C36.4325 24.5194 36.7997 24.094 37.1762 23.7057C37.7029 23.1437 38.2659 22.6173 38.8614 22.1302C39.3192 21.778 39.7942 21.4165 40.2778 21.1061C41.4144 20.3447 42.6401 19.7281 43.927 19.2706C44.052 19.2163 44.1872 19.1808 44.3036 19.1351C47.108 18.1882 50.1006 17.9522 53.0169 18.4482C57.1542 19.1735 60.9054 21.3462 63.6111 24.5843C66.3169 27.8224 67.8039 31.9187 67.8107 36.153Z" fill="#EEEFEE"/>
<path d="M46.1207 30.1775C45.8886 30.1449 45.669 30.0514 45.4839 29.9065C45.21 29.7233 44.9069 29.5887 44.5878 29.5087C44.4593 29.4577 44.3199 29.4409 44.1831 29.4599C44.0463 29.4789 43.9166 29.5332 43.8066 29.6174C43.726 29.7255 43.6824 29.8571 43.6824 29.9924C43.6824 30.1276 43.726 30.2592 43.8066 30.3673C43.9918 30.5644 44.2281 30.7053 44.4886 30.7738C44.5332 30.7919 44.605 30.8101 44.6589 30.8376C44.7089 30.8817 44.7461 30.9386 44.7666 31.0022C44.787 31.0659 44.7901 31.134 44.7753 31.1992C44.7035 31.5246 44.2644 31.6419 43.9238 31.6057C43.5943 31.505 43.2451 31.4896 42.9082 31.5608C42.635 31.6969 42.4165 31.9236 42.2894 32.2028C42.0832 32.5967 41.8504 33.0434 41.4379 33.1426C41.3035 33.1875 41.1332 33.1875 41.0527 33.3002C41.0181 33.3545 40.9947 33.4152 40.9838 33.4788C40.973 33.5424 40.9749 33.6076 40.9894 33.6704C41.052 34.1514 40.9678 34.6403 40.748 35.0718C40.6488 35.2294 40.5136 35.3609 40.4254 35.5146C40.2543 35.8856 40.4074 36.3023 40.3621 36.6899C40.3441 36.7261 40.3441 36.7687 40.3082 36.7892C40.2543 36.8435 40.1519 36.7892 40.0933 36.7443C39.0269 35.8226 36.734 35.3428 36.2027 36.6537C36.1043 36.9247 36.2926 37.2327 36.3371 37.5202C36.3418 37.6005 36.3665 37.6782 36.409 37.7463C36.4715 37.8093 37.2613 38.5813 36.9379 39.4092C36.6145 40.2372 35.952 39.7984 35.5574 39.5991C34.9973 39.2425 34.5606 38.7196 34.3074 38.1024C34.0832 37.4784 34.1012 36.7466 33.6824 36.2495C33.5262 36.0778 33.2793 35.9423 33.109 36.092C32.8582 36.3086 33.1629 36.8238 32.8942 37.0318C32.8196 37.069 32.7371 37.0868 32.654 37.0836C32.5709 37.0804 32.4899 37.0564 32.4184 37.0137C32.3473 36.9774 32.2621 36.9593 32.1942 36.9231C32.1856 36.6702 32.1856 36.4173 32.1856 36.155C32.1794 32.0777 33.5579 28.1211 36.0918 24.9436C36.2662 25.0926 36.4882 25.1729 36.7168 25.1697C37.0846 25.1568 37.4453 25.0644 37.7746 24.8987C38.1871 24.727 38.5902 24.5552 38.9941 24.3835C39.4152 24.2118 39.8363 24.04 40.2488 23.8864C40.4471 23.7679 40.6686 23.6944 40.898 23.6708C41.1273 23.6473 41.359 23.6744 41.5769 23.7501C41.7472 23.8589 41.8996 24.1117 41.7652 24.2653C41.7255 24.319 41.6712 24.3601 41.609 24.3835C41.1246 24.6907 40.6136 24.9798 40.1027 25.2689C39.8015 25.4353 39.5242 25.6423 39.2785 25.8842C39.1563 26.01 39.065 26.163 39.0121 26.3309C38.9592 26.4988 38.9461 26.6769 38.9738 26.8508C39.1301 27.466 39.9058 27.7173 40.1566 28.3152C40.2551 28.5775 40.2551 28.9123 40.4972 29.0841C40.6146 29.1584 40.7546 29.1874 40.8915 29.1656C41.0283 29.1439 41.1528 29.073 41.2418 28.9659C41.4183 28.7443 41.5327 28.4791 41.573 28.1978C41.591 28.1529 41.609 28.0623 41.6808 28.0403C41.7354 28.0178 41.7966 28.0178 41.8511 28.0403C41.9608 28.0379 42.0658 27.9953 42.1466 27.9205C42.2274 27.8457 42.2785 27.7438 42.2902 27.6338C42.312 27.4151 42.2937 27.1943 42.2363 26.9823C42.1474 26.6846 42.1609 26.3654 42.2746 26.0764C42.3347 25.9302 42.4444 25.8104 42.5841 25.7382C42.7237 25.6661 42.8843 25.6463 43.0371 25.6825C43.3683 25.818 43.4761 26.2789 43.7722 26.5049C43.8853 26.5874 44.0206 26.6332 44.1601 26.6365C44.2996 26.6397 44.4367 26.6002 44.5535 26.5231C44.7597 26.3655 44.93 26.0622 45.1785 26.1292C45.3488 26.1654 45.43 26.319 45.5011 26.4726C45.7167 26.9154 45.8066 27.5936 46.1917 27.9009C46.3134 28.0039 46.3927 28.1488 46.4142 28.3075C46.4357 28.4662 46.3979 28.6274 46.3082 28.7595C46.1738 28.9588 45.8871 29.1479 45.9855 29.3653C46.0933 29.5552 46.3621 29.537 46.4605 29.7088C46.5956 29.8884 46.3628 30.1775 46.1207 30.1775Z" fill="#69B0EE"/>
<path d="M56.6326 47.0517C56.6129 47.3709 56.5163 47.6804 56.351 47.9533C56.1857 48.2263 55.9568 48.4543 55.6842 48.6178C55.1376 48.9407 54.6709 49.3846 54.3194 49.916C54.2412 50.0736 54.1764 50.2634 54.0202 50.3414C53.9236 50.3815 53.8182 50.3951 53.7147 50.3808C53.3582 50.3479 53.0141 50.2319 52.7096 50.042C52.4051 49.8521 52.1485 49.5935 51.96 49.2866C51.635 48.7493 51.8624 48.0805 51.7194 47.4748C51.6608 47.2258 51.3553 47.1203 51.128 47.0092C50.9717 46.9304 50.7905 46.865 50.7124 46.7075C50.6666 46.6118 50.6529 46.5037 50.6733 46.3995C50.7012 46.0395 50.8135 45.6914 51.0011 45.3838C51.1886 45.0762 51.446 44.818 51.752 44.6305C52.0581 44.443 52.4039 44.3315 52.761 44.3053C53.1182 44.2791 53.4764 44.3389 53.8061 44.4797C53.8972 44.5091 53.9796 44.5608 54.0459 44.6302C54.1208 44.7363 54.1543 44.8664 54.1399 44.9958C54.1254 45.1252 54.0642 45.2447 53.9678 45.3313C53.7658 45.4962 53.5268 45.6087 53.2717 45.659L53.1553 45.6661C53.2592 46.2293 53.6686 47.14 54.1952 46.9265C54.3381 46.8674 54.3053 46.6311 54.3311 46.4743C54.3639 46.2577 54.3772 45.9891 54.5655 45.8709C54.6438 45.8309 54.7308 45.8109 54.8186 45.8126C55.2203 45.7496 55.6308 45.8424 55.9674 46.0724C56.3039 46.3023 56.5417 46.6522 56.6326 47.0517Z" fill="#69B0EE"/>
<path d="M52.1227 21.1805C52.1227 21.368 52.325 21.4704 52.4946 21.5216C52.6633 21.5554 52.8657 21.5893 52.95 21.7429C52.9859 21.8116 52.9988 21.8902 52.9867 21.9669C52.9746 22.0436 52.9382 22.1143 52.8829 22.1683C52.7679 22.275 52.6286 22.3513 52.4774 22.3905C52.1391 22.4756 51.7844 22.5094 51.4297 22.6118C51.0829 22.6928 50.7773 22.8987 50.5704 23.1908C50.5166 23.323 50.4484 23.4488 50.3672 23.5658C50.1979 23.7437 49.9696 23.8528 49.7258 23.8723C49.6521 23.883 49.5823 23.9122 49.5227 23.9573C49.4983 23.9851 49.4797 24.0175 49.4682 24.0528C49.4566 24.088 49.4523 24.1252 49.4555 24.1621C49.4409 24.416 49.3713 24.6635 49.2516 24.8873C49.1319 25.111 48.9649 25.3056 48.7625 25.4572C48.5842 25.5489 48.3843 25.5894 48.1847 25.5744C47.9851 25.5594 47.7934 25.4894 47.6305 25.3721C47.3083 25.1327 47.0664 24.7995 46.9375 24.4174C46.7516 23.9573 46.718 23.3098 47.1399 23.0372C47.2922 22.9183 47.5461 22.782 47.461 22.6118C47.4274 22.5094 47.3094 22.4756 47.2079 22.4417C47.1063 22.3905 46.9735 22.2542 47.0516 22.1857C47.286 22.0281 47.7274 21.7768 47.5079 21.6067C47.3727 21.5042 47.1172 21.7091 47.018 21.5893C46.8493 21.4018 47.0516 21.0954 47.0688 20.8567C47.0851 20.7378 47.0753 20.6167 47.0402 20.502C47.0051 20.3872 46.9455 20.2817 46.8657 20.1926C46.7964 20.1495 46.7338 20.0964 46.6797 20.0351C46.579 19.8988 46.5954 19.694 46.4602 19.5923C46.4284 19.5705 46.3923 19.5561 46.3543 19.5501C46.3163 19.5441 46.2775 19.5467 46.2407 19.5577C45.9323 19.6342 45.6364 19.7546 45.3618 19.9153C45.2239 19.992 45.0663 20.0249 44.9097 20.0097C44.753 19.9945 44.6045 19.932 44.4836 19.8303C44.3542 19.6533 44.2886 19.4371 44.2977 19.2174V19.1362C46.1335 18.5101 48.059 18.1934 49.9969 18.1988C51.0104 18.1971 52.0221 18.2825 53.0211 18.454C53.0143 18.6075 53.0467 18.7601 53.1151 18.8973C53.1835 19.0345 53.2856 19.1518 53.4118 19.2379C53.4891 19.2846 53.5627 19.3373 53.6321 19.3954C53.7105 19.4859 53.7579 19.5994 53.7672 19.7192C53.7892 20.0028 53.7011 20.284 53.5213 20.5033C53.3416 20.7226 53.0844 20.8629 52.804 20.8945C52.6682 20.8975 52.5328 20.909 52.3985 20.9292C52.3336 20.9403 52.2731 20.9698 52.2243 21.0143C52.1754 21.0588 52.1402 21.1165 52.1227 21.1805Z" fill="#69B0EE"/>
<path d="M54.6078 24.7886C54.5831 24.95 54.5071 25.099 54.3914 25.2132C54.3171 25.2508 54.2349 25.2697 54.1518 25.2684C54.0686 25.267 53.9871 25.2454 53.914 25.2054C53.8253 25.1725 53.7429 25.1246 53.6703 25.0636C53.5523 24.9588 53.4851 24.8068 53.3703 24.6988C53.2197 24.5792 53.042 24.4994 52.8531 24.4665C52.6644 24.4329 52.4872 24.3516 52.3382 24.2301C52.2666 24.1668 52.2203 24.0792 52.2082 23.9839C52.1961 23.8886 52.219 23.7921 52.2726 23.7126C52.3362 23.6489 52.4151 23.6028 52.5015 23.5787C53.003 23.4358 53.5143 23.3305 54.0312 23.2636C54.3748 23.131 54.7409 23.0678 55.1086 23.0777C55.1828 23.1037 55.2512 23.1444 55.3095 23.1976C55.3678 23.2507 55.4149 23.3151 55.4481 23.387C55.4813 23.4588 55.4998 23.5367 55.5025 23.6159C55.5052 23.6951 55.4922 23.7741 55.4641 23.8481C55.3859 24.0103 55.0984 24.0962 54.9625 24.2286C54.8012 24.3837 54.6795 24.5758 54.6078 24.7886Z" fill="#69B0EE"/>
<path d="M67.8047 36.1602C67.8066 37.1766 67.7216 38.1913 67.5508 39.1931C67.4928 39.3245 67.4136 39.4453 67.3165 39.5507C67.2064 39.655 67.0809 39.7413 66.9446 39.8067C66.0451 40.3826 65.0483 40.7868 64.0039 40.9994C63.7649 40.9902 63.5289 41.0557 63.3281 41.1869C63.2778 41.2169 63.2343 41.2574 63.2006 41.3056C63.1669 41.3538 63.1437 41.4087 63.1326 41.4666C63.1215 41.5245 63.1226 41.5841 63.136 41.6415C63.1493 41.699 63.1746 41.7529 63.2102 41.7997C63.3252 41.8774 63.4628 41.9135 63.6008 41.9022L66.6258 42.0046C66.693 42.0046 66.761 42.0211 66.8454 42.0211C66.6422 42.5836 66.4227 43.1287 66.186 43.6754C66.0004 43.709 65.8243 43.7827 65.6698 43.8915C65.5152 44.0003 65.3859 44.1416 65.2906 44.3056C65.1895 44.6154 65.1895 44.9498 65.2906 45.2596C65.2906 45.2761 65.3078 45.3108 65.3078 45.3273C63.6939 48.0941 61.3709 50.3717 58.5828 51.9208C58.4448 51.688 58.3645 51.4251 58.3484 51.1544C58.3351 50.7634 58.3806 50.3727 58.4836 49.9956C58.7063 48.9843 59.0407 48.0013 59.4804 47.0651C59.7656 46.6272 59.8966 46.1053 59.8523 45.5833C59.7365 45.2479 59.5714 44.9319 59.3625 44.6459C59.2533 44.5058 59.1819 44.3396 59.1552 44.1635C59.1285 43.9874 59.1474 43.8073 59.2101 43.6407C59.2945 43.4532 59.4976 43.2469 59.3961 43.0617C59.3535 43.0004 59.3006 42.9471 59.2398 42.9042C58.7836 42.5292 58.6484 41.439 58.057 41.6091C57.4828 41.7801 56.9085 41.9502 56.3507 42.1204C56.112 42.2607 55.8398 42.3328 55.5634 42.3288C55.2871 42.3248 55.0171 42.2449 54.7824 42.0977C54.5478 41.9505 54.3574 41.7415 54.2317 41.4933C54.1061 41.2451 54.05 40.967 54.0694 40.689C54.0523 40.6386 54.0523 40.5874 54.0358 40.5362C53.8008 39.7412 53.7147 38.9091 53.7819 38.0823C53.8142 37.6729 53.951 37.2789 54.1791 36.9386C54.4072 36.5983 54.7188 36.3234 55.0835 36.1405C55.2361 36.1048 55.3763 36.0281 55.489 35.9184C55.7593 35.5442 55.2546 34.8793 55.6241 34.6406C55.7151 34.5845 55.8221 34.5607 55.9281 34.5729C56.4594 34.5343 56.9745 34.3708 57.432 34.0955C57.6583 33.9268 57.8953 33.7732 58.1414 33.6354C58.6864 33.4652 59.2698 33.4652 59.8148 33.6354C59.888 33.6345 59.9593 33.6587 60.0172 33.704C60.2203 33.8403 60.0851 34.1766 60.1523 34.4366C60.2022 34.6011 60.3103 34.7413 60.4562 34.8305C61.0278 35.3635 61.6638 35.8217 62.3492 36.1941C62.6023 36.313 62.8563 36.4154 63.0922 36.5517C63.6304 36.8872 64.0817 37.347 64.4086 37.8933C64.5602 38.1296 64.7992 38.4218 65.05 38.2871C65.2703 38.1847 65.2531 37.8933 65.2531 37.6569C65.2703 37.4206 65.5235 37.0433 65.6758 37.2308C65.8618 37.5033 65.811 38.0311 66.1321 38.0973C66.5539 38.1997 66.5883 37.3812 66.5375 36.9385C66.4696 36.3083 66.4024 35.6781 66.318 35.0479C66.3181 34.7533 66.2369 34.4644 66.0836 34.2136C65.9313 33.9915 65.3735 33.7363 65.3399 34.0262C65.3063 34.3838 65.4578 34.7588 65.1539 34.9801C64.849 35.1707 64.4971 35.2711 64.1383 35.27C63.7828 35.3212 63.3438 35.3039 63.1578 34.9975C62.9891 34.6902 63.1914 34.3153 63.3438 33.9734C63.4474 33.7062 63.5101 33.4246 63.5297 33.1384C63.558 32.9003 63.5042 32.6597 63.3773 32.457C63.2258 32.2695 62.8539 32.0993 62.7523 32.3207C62.6344 32.542 62.7523 32.8146 62.7523 33.0533C62.7591 33.1231 62.7475 33.1935 62.7187 33.2573C62.6172 33.4283 62.3633 33.3597 62.2289 33.2234C61.9829 32.9417 61.8554 32.5743 61.8734 32.1994C61.8865 31.8284 61.8293 31.4584 61.7047 31.1091C61.6322 30.9391 61.503 30.8 61.3395 30.716C61.1759 30.6319 60.9884 30.6083 60.8094 30.6491C60.6234 30.9901 60.9273 31.3817 61.2 31.6377C61.4703 31.9102 61.7578 32.3191 61.5547 32.6429C61.4665 32.7574 61.3644 32.8604 61.2508 32.9493C61.0945 33.1195 61.0164 33.3581 60.8601 33.5456C60.7039 33.7158 60.3867 33.8017 60.2515 33.6142C60.0484 33.3416 60.4539 33.0344 60.6062 32.7476C60.8406 32.2876 60.4711 31.759 60.1164 31.384C60.0407 31.2869 59.9417 31.2107 59.8289 31.1627C59.733 31.152 59.6361 31.1578 59.5422 31.18C58.7812 31.3163 57.9195 31.6739 57.7171 32.4239C57.6914 32.5831 57.6575 32.7408 57.6156 32.8965C57.5367 33.0703 57.4102 33.2176 57.251 33.3213C57.0919 33.425 56.9066 33.4807 56.7171 33.4818C56.3364 33.4971 55.9567 33.4333 55.6015 33.2943C55.3991 33.2258 55.1624 33.1407 55.1116 32.9359C55.092 32.8339 55.0979 32.7286 55.1288 32.6295C55.2468 32.2206 55.3991 31.7432 55.7874 31.5904C56.0709 31.531 56.3634 31.531 56.6468 31.5904C56.9343 31.5904 57.289 31.4329 57.3062 31.1477C57.3398 30.7538 56.7312 30.8578 56.4273 30.6191C56.089 30.3639 56.6468 29.8014 57.0187 29.5801C57.4122 29.4244 57.7648 29.1794 58.0492 28.864C58.2687 28.5576 58.2835 28.1314 58.5562 27.8588C58.7078 27.7394 58.8856 27.6583 59.0747 27.6224C59.2638 27.5865 59.4586 27.5968 59.6429 27.6524C60.0048 27.7734 60.379 27.8527 60.7586 27.8887C60.9477 27.9032 61.1361 27.8521 61.2924 27.7437C61.4487 27.6354 61.5636 27.4764 61.618 27.2932C61.6687 27.0033 61.55 26.611 61.8039 26.4921C62.125 26.3345 62.4797 26.867 62.7672 26.6795C62.7541 26.5855 62.7622 26.4896 62.791 26.3991C62.8199 26.3087 62.8686 26.226 62.9336 26.1572C62.9986 26.0884 63.0782 26.0353 63.1664 26.0019C63.2546 25.9685 63.3491 25.9556 63.443 25.9643C63.443 25.6744 63.3414 25.2821 63.0375 25.2821C62.7672 25.2821 62.5812 25.6759 62.3109 25.6405C62.057 25.6058 61.9898 25.2466 62.0062 24.993C62.0234 24.618 62.0406 24.2603 62.057 23.9027C62.0691 23.7792 62.0458 23.6548 61.9898 23.5443C61.8547 23.3402 61.5164 23.408 61.3648 23.6128C61.2363 23.8207 61.1502 24.0523 61.1117 24.2942C61.0273 24.5305 60.8773 24.7881 60.6383 24.822C60.4867 24.9418 60.6219 25.197 60.7734 25.2994C60.9429 25.4183 61.1453 25.4869 61.2133 25.6744C61.3484 26.0147 60.8586 26.2707 60.7234 26.611C60.6726 26.6969 60.6726 26.8158 60.6219 26.9009C60.5807 26.9571 60.5254 27.0013 60.4616 27.0288C60.3979 27.0564 60.3281 27.0664 60.2593 27.0577C60.1905 27.049 60.1252 27.0221 60.0702 26.9796C60.0151 26.937 59.9723 26.8805 59.9461 26.8158C59.8953 26.6457 59.9797 26.4582 59.9117 26.3046C59.6922 25.7933 58.6617 26.3731 58.4421 25.8619C58.3234 25.5546 58.6765 25.2143 58.5429 24.9244C58.4905 24.8432 58.4283 24.7689 58.3578 24.7031C58.1546 24.3793 58.4421 23.9366 58.7796 23.783C59.1351 23.6254 59.5406 23.6254 59.8781 23.4592C60.4023 23.1701 60.6594 22.5225 61.0273 22.0625C63.141 23.7423 64.8492 25.8839 66.0232 28.3258C67.1971 30.7678 67.8063 33.4465 67.8047 36.1602Z" fill="#69B0EE"/>
<path d="M48.3728 47.76C48.4378 48.0961 48.3783 48.4447 48.2055 48.7396C48.0327 49.0344 47.7587 49.2552 47.4353 49.3599C47.216 49.3897 47.0041 49.4602 46.8103 49.5679C46.6944 49.6587 46.6021 49.7766 46.5415 49.9113C46.2996 50.2582 46.1542 50.664 46.1204 51.0867C46.129 51.3033 46.129 51.6286 45.8962 51.6467C45.8222 51.6306 45.7521 51.5998 45.6899 51.5562C45.4289 51.4049 45.1436 51.3009 44.847 51.2489C44.7845 51.2403 44.6767 51.2221 44.6321 51.267C44.3634 51.4931 45.2509 52.0721 44.9188 52.1257C44.8077 52.1219 44.6977 52.1494 44.6011 52.2051C44.5045 52.2607 44.4252 52.3423 44.372 52.4408C44.2938 52.6669 44.3095 52.9016 44.2376 53.1498L44.2282 53.1592C43.5678 52.9407 42.9237 52.6748 42.3009 52.3636C42.5143 51.4244 42.4846 50.4457 42.2147 49.5214C41.9447 48.5971 41.4436 47.7583 40.7595 47.0857C40.5079 46.8241 40.2212 46.6067 39.9782 46.3176C39.7586 45.9881 39.6066 45.6176 39.5312 45.228C39.4558 44.8384 39.4585 44.4374 39.5391 44.0489C39.7149 43.273 39.9998 42.5266 40.3852 41.8321L41.022 40.7206L41.0759 40.6418C41.2641 40.3701 41.3884 39.973 41.6852 39.9273C42.2587 39.8281 42.6227 40.6418 43.2001 40.6056C43.4603 40.5875 43.7649 40.5418 43.9173 40.7411C44.0337 40.8853 44.0165 41.0664 44.079 41.2382C44.2853 41.8345 45.1454 41.7983 45.6564 42.1961C45.8621 42.3644 45.9981 42.604 46.038 42.8681C46.0779 43.1322 46.0187 43.4018 45.872 43.6243C46.4898 43.7729 47.0779 44.0268 47.6111 44.375C47.8721 44.556 48.0837 44.8004 48.2263 45.0857C48.3688 45.371 48.4378 45.688 48.4267 46.0072C48.3135 46.3658 48.2383 46.7355 48.2025 47.1101C48.2456 47.3301 48.3025 47.5472 48.3728 47.76Z" fill="#69B0EE"/>
<path d="M44.7748 36.382C44.6909 36.401 44.614 36.4433 44.5529 36.5041C44.5086 36.5696 44.4849 36.647 44.4849 36.7263C44.4791 36.9582 44.5207 37.1889 44.607 37.4039C44.6934 37.619 44.8227 37.8138 44.9869 37.9764C45.1511 38.1389 45.3467 38.2657 45.5615 38.3488C45.7763 38.4318 46.0058 38.4695 46.2357 38.4594C46.3316 38.4565 46.4246 38.4259 46.5037 38.3712C46.6388 38.2624 46.6529 38.0623 46.738 37.9111C46.9427 37.5527 47.4552 37.5755 47.8599 37.6456L48.4474 37.748C48.521 37.7689 48.5989 37.7689 48.6724 37.748C48.7333 37.7175 48.7849 37.671 48.8217 37.6133C49.1046 37.2322 49.2652 36.7728 49.2818 36.297C49.2897 36.1935 49.2764 36.0894 49.2428 35.9913C49.2107 35.9125 49.1568 35.8416 49.1185 35.7637C49.0624 35.5807 49.0524 35.3865 49.0897 35.1987C49.1269 35.0109 49.2102 34.8354 49.3318 34.6884C49.5784 34.394 49.72 34.0249 49.7342 33.6398C49.6685 33.0545 49.0053 32.7733 48.4451 32.6071C47.9357 32.4574 47.2693 32.3605 46.9802 32.8087C46.467 33.6028 47.6552 34.1204 46.9451 34.9704C46.3588 35.6269 45.6097 36.1142 44.7748 36.382Z" fill="#69B0EE"/>
<path d="M46.9569 73.2635L46.6655 77.1889H34.8998C35.0092 74.0426 33.9287 73.4715 31.7069 71.1452C28.3069 67.5822 25.6358 63.9956 24.2069 60.3467C23.953 59.6918 23.8293 58.9929 23.8428 58.2898V47.3298C23.8486 46.8464 24.0175 46.3795 24.3217 46.0059C24.6259 45.6324 25.0472 45.3744 25.5162 45.2745C26.0249 45.2038 26.541 45.3357 26.9549 45.6422C27.3688 45.9486 27.648 46.4056 27.7334 46.9162L29.2756 57.0783C30.3387 59.9088 32.2854 62.3142 34.8225 63.9318C35.478 64.3847 36.2061 64.8865 37.0444 64.3477C37.2463 64.0825 37.3453 63.7521 37.3229 63.4186C37.3005 63.085 37.1581 62.7711 36.9225 62.5358L33.4912 59.7929C32.9565 59.4447 32.5487 58.9304 32.3294 58.3279C32.1101 57.7253 32.0912 57.0671 32.2756 56.4528C32.3242 56.2494 32.4217 56.0613 32.5594 55.9048C32.6971 55.7484 32.8708 55.6284 33.0653 55.5556C33.2598 55.4828 33.469 55.4593 33.6746 55.4871C33.8802 55.515 34.0759 55.5934 34.2444 55.7155L41.1647 60.6988C42.3856 61.3828 43.4329 62.3424 44.2248 63.5024C46.202 66.352 47.1648 69.7922 46.9569 73.2635Z" fill="#FED19A"/>
<path d="M47.3496 76.8315H34.0066C33.7689 76.8315 33.5762 77.0259 33.5762 77.2656V82.3616C33.5762 82.6013 33.7689 82.7956 34.0066 82.7956H47.3496C47.5874 82.7956 47.7801 82.6013 47.7801 82.3616V77.2656C47.7801 77.0259 47.5874 76.8315 47.3496 76.8315Z" fill="#575B6D"/>
<path d="M45.8195 80.8123C46.3671 80.8123 46.8109 80.3647 46.8109 79.8126C46.8109 79.2605 46.3671 78.813 45.8195 78.813C45.272 78.813 44.8281 79.2605 44.8281 79.8126C44.8281 80.3647 45.272 80.8123 45.8195 80.8123Z" fill="#EEEFEE"/>
<path d="M53.0409 73.2641L53.3324 77.1894H65.098C64.9886 74.0431 66.0691 73.472 68.291 71.1458C71.691 67.5828 74.362 63.9961 75.7949 60.3472C76.0488 59.6923 76.1725 58.9934 76.1589 58.2904V47.3303C76.1531 46.847 75.9842 46.3801 75.68 46.0065C75.3758 45.6329 74.9545 45.3749 74.4855 45.2751C73.9762 45.2032 73.4591 45.3346 73.0444 45.6412C72.6296 45.9477 72.3498 46.4054 72.2644 46.9167L70.7222 57.0788C69.6592 59.9093 67.7124 62.3147 65.1753 63.9323C64.5199 64.3852 63.7917 64.887 62.9535 64.3482C62.7515 64.083 62.6525 63.7527 62.6749 63.4191C62.6973 63.0855 62.8397 62.7716 63.0753 62.5364L66.5128 59.7942C67.0476 59.446 67.4554 58.9317 67.6747 58.3292C67.894 57.7266 67.9129 57.0684 67.7285 56.4541C67.6798 56.2508 67.5824 56.0626 67.4447 55.9061C67.307 55.7497 67.1332 55.6298 66.9388 55.5569C66.7443 55.4841 66.535 55.4606 66.3294 55.4885C66.1238 55.5163 65.9282 55.5947 65.7597 55.7168L58.8394 60.7001C57.6185 61.3841 56.5712 62.3437 55.7792 63.5037C53.8001 66.3523 52.835 69.7922 53.0409 73.2641Z" fill="#FED19A"/>
<path d="M65.9941 76.8315H52.6512C52.4134 76.8315 52.2207 77.0259 52.2207 77.2656V82.3616C52.2207 82.6013 52.4134 82.7956 52.6512 82.7956H65.9941C66.2319 82.7956 66.4246 82.6013 66.4246 82.3616V77.2656C66.4246 77.0259 66.2319 76.8315 65.9941 76.8315Z" fill="#575B6D"/>
<path d="M54.177 80.8123C54.7245 80.8123 55.1684 80.3647 55.1684 79.8126C55.1684 79.2605 54.7245 78.813 54.177 78.813C53.6294 78.813 53.1855 79.2605 53.1855 79.8126C53.1855 80.3647 53.6294 80.8123 54.177 80.8123Z" fill="#EEEFEE"/>
</g>
<defs>
<clipPath id="clip0">
<rect width="100" height="100.833" fill="white" transform="translate(0 0.0820312)"/>
</clipPath>
</defs>
</svg>
