<svg width="100" height="102" fill="none" xmlns="http://www.w3.org/2000/svg" viewBox="0 0 100 102"><g clip-path="url(#clip0)"><path d="M50 101.08c27.614 0 50-22.573 50-50.417S77.614.247 50 .247 0 22.819 0 50.663c0 27.844 22.386 50.417 50 50.417z" fill="#3B5059"/><path d="M33.994 49.291h32.63v2.745h-32.63V49.29z" fill="#EEEFEE"/><path d="M70.96 73.526H57.81c-.361 0-.707-.145-.962-.402a1.377 1.377 0 01-.399-.97v-42.98a1.381 1.381 0 01.398-.97 1.36 1.36 0 01.962-.403h13.152v2.745H59.164v40.236h11.797v2.744z" fill="#EEEFEE"/><path d="M73.236 21.849h-.011c-4.012 0-7.264 3.279-7.264 7.324 0 4.046 3.252 7.325 7.264 7.325h.01c4.013 0 7.265-3.28 7.265-7.325s-3.252-7.324-7.264-7.324z" fill="#EF5261"/><path d="M73.239 23.866h-.013c-2.907 0-5.263 2.376-5.263 5.307 0 2.93 2.356 5.307 5.263 5.307h.013c2.906 0 5.263-2.376 5.263-5.307 0-2.93-2.356-5.307-5.263-5.307z" fill="#DA364C"/><path d="M73.236 43.338h-.011c-4.012 0-7.264 3.28-7.264 7.325s3.252 7.325 7.264 7.325h.01c4.013 0 7.265-3.28 7.265-7.325s-3.252-7.325-7.264-7.325z" fill="#F6C863"/><path d="M73.239 45.357h-.013c-2.907 0-5.263 2.376-5.263 5.307 0 2.93 2.356 5.306 5.263 5.306h.013c2.906 0 5.263-2.376 5.263-5.306 0-2.931-2.356-5.307-5.263-5.307z" fill="#EAB54E"/><path d="M73.236 64.83h-.011c-4.012 0-7.264 3.28-7.264 7.325s3.252 7.325 7.264 7.325h.01c4.013 0 7.265-3.28 7.265-7.325s-3.252-7.324-7.264-7.324z" fill="#69B0EE"/><path d="M73.239 66.847h-.013c-2.907 0-5.263 2.376-5.263 5.306 0 2.931 2.356 5.307 5.263 5.307h.013c2.906 0 5.263-2.376 5.263-5.307 0-2.93-2.356-5.306-5.263-5.306z" fill="#419BE9"/><path d="M51.618 59.923v7.318H16.369v-7.318a5.27 5.27 0 01.833-2.853 5.208 5.208 0 012.238-1.937l9.785-4.083 9.518.006 9.804 4.078a5.209 5.209 0 012.239 1.936c.544.85.833 1.841.832 2.853z" fill="#2CBFAE"/><path d="M29.26 48.379v4.006c.596.752.931 1.173 1.527 1.39h6.467c.596-.217.93-.638 1.528-1.39V48.38H29.26z" fill="#F4BB87"/><path d="M31.63 53.775l1.452 2.43H34.9l1.451-2.43h-4.72z" fill="#DA364C"/><path d="M35.987 64.326l-2.005 1.539-2.005-1.54 1.099-8.116h1.812l1.1 8.117z" fill="#EF5261"/><path d="M38.744 51.057a5.399 5.399 0 01-.184 3.038 5.354 5.354 0 01-1.796 2.446l-2.742-2.765 4.722-2.719zM29.227 51.05a5.45 5.45 0 00.223 3.05c.365.974 1 1.82 1.83 2.44l2.742-2.765-4.795-2.725z" fill="#EEEFEE"/><path d="M42.285 41.268c.402.054.77.254 1.038.561a1.696 1.696 0 010 2.222 1.669 1.669 0 01-1.038.562h-1.451v-3.345h1.451zM25.96 41.268a1.67 1.67 0 00-1.036.561 1.696 1.696 0 000 2.222 1.67 1.67 0 001.037.562h1.45v-3.345h-1.45z" fill="#F4BB87"/><path d="M25.959 44.235c0 .985.223 1.956.65 2.84a6.467 6.467 0 001.82 2.266l1.646 1.297a6.39 6.39 0 003.954 1.373 6.39 6.39 0 003.953-1.373l1.648-1.297a6.469 6.469 0 001.823-2.264 6.524 6.524 0 00.653-2.842V34.83H25.959v9.405z" fill="#FED19A"/><path d="M42.598 40.566a3.678 3.678 0 01-.5 1.542s-.126-2.852-.453-5.393c0 0-1.172 2.127-4.993 2.757 0 0 1.087-.815 1.144-2.994 0 0-2.376 3.91-11.391 2.483a19.127 19.127 0 000 3.532s-.587-.068-.952-1.533a14.9 14.9 0 01-.221-4.423c.336-5.773 6.917-6.82 6.917-6.82s5.57-1.514 7.937 3.181c0 0 2.156-.6 2.55 3.736a16.301 16.301 0 01-.038 3.932z" fill="#62667C"/></g><defs><clipPath id="clip0"><path fill="#fff" transform="translate(0 .247)" d="M0 0h100v100.833H0z"/></clipPath></defs></svg>