<svg width="100" height="101" fill="none" xmlns="http://www.w3.org/2000/svg" viewBox="0 0 100 101"><g clip-path="url(#clip0)"><path d="M50 100.833c27.614 0 50-22.572 50-50.417C100 22.572 77.614 0 50 0S0 22.572 0 50.416c0 27.845 22.386 50.417 50 50.417z" fill="#3B5059"/><path d="M67.25 57.854v3.793a2.036 2.036 0 01-.589 1.43 2.005 2.005 0 01-1.418.592H34.76a1.992 1.992 0 01-1.418-.592 2.025 2.025 0 01-.588-1.43v-3.793c-.002-.99.281-1.96.815-2.791a5.095 5.095 0 012.19-1.895l9.576-3.997 9.314.006 9.595 3.991a5.095 5.095 0 012.19 1.895c.534.831.817 1.8.815 2.791z" fill="#69B0EE"/><path d="M45.367 46.557v3.921c.584.735.911 1.148 1.495 1.359h6.329c.583-.211.91-.624 1.495-1.359v-3.921h-9.319z" fill="#F4BB87"/><path d="M47.685 51.837l1.422 2.378h1.777l1.42-2.378h-4.619z" fill="#DA364C"/><path d="M51.952 62.163l-1.962 1.505-1.963-1.505 1.076-7.943h1.773l1.076 7.943z" fill="#EF5261"/><path d="M54.648 49.177c.227.987.164 2.02-.18 2.973a5.234 5.234 0 01-1.758 2.393l-2.683-2.708 4.621-2.658z" fill="#EEEFEE"/><path d="M45.335 49.17a5.335 5.335 0 00.22 2.986 5.287 5.287 0 001.79 2.387l2.683-2.708-4.693-2.664z" fill="#EEEFEE"/><path d="M58.11 39.599c.39.057.747.254 1.005.555a1.662 1.662 0 010 2.164c-.258.3-.614.497-1.004.555h-1.42v-3.274h1.42zM42.138 39.599c-.39.057-.746.254-1.004.555a1.662 1.662 0 000 2.164c.258.3.614.497 1.004.555h1.42v-3.274h-1.42z" fill="#F4BB87"/><path d="M42.139 42.502c0 .963.216 1.915.635 2.781a6.33 6.33 0 001.782 2.218l1.616 1.266a6.252 6.252 0 003.869 1.344 6.252 6.252 0 003.869-1.344l1.61-1.266a6.33 6.33 0 001.78-2.216 6.382 6.382 0 00.637-2.78V33.3H42.139v9.202z" fill="#FED19A"/><path d="M44.29 34.634a11.975 11.975 0 01-2.15 5.002c-1.034-.97-1.529-7.623 2.097-10.025 2.947-2.206 8.342-3.308 11.473.682 3.306 1.733 3.438 5.625 2.227 9.305l-1.18-1.265-.019-.029a34.388 34.388 0 00-6.843-1.996c-1.952-.353-4.343-.91-5.604-1.674z" fill="#62667C"/><path d="M80.188 30.983l-3.105-3.13-7.775 7.84-4.708-4.748 7.775-7.84-3.097-3.123 12.754-1.86-1.844 12.86z" fill="#EF5261"/><path d="M19.813 69.85l3.104 3.13 7.775-7.84 4.709 4.748-7.775 7.841 3.097 3.123-12.754 1.86 1.843-12.861z" fill="#F6C863"/><path d="M19.813 30.983l3.104-3.13 7.775 7.84 4.709-4.748-7.775-7.84 3.097-3.123-12.754-1.86 1.843 12.86z" fill="#69B0EE"/><path d="M80.188 69.85l-3.105 3.13-7.775-7.84-4.708 4.748 7.775 7.841-3.097 3.123 12.754 1.86-1.844-12.861z" fill="#2CBFAE"/></g><defs><clipPath id="clip0"><path fill="#fff" d="M0 0h100v100.833H0z"/></clipPath></defs></svg>