<svg width="100" height="101" fill="none" xmlns="http://www.w3.org/2000/svg" viewBox="0 0 100 101"><g clip-path="url(#clip0)"><path d="M50 100.833c27.614 0 50-22.572 50-50.417C100 22.572 77.614 0 50 0S0 22.572 0 50.416c0 27.845 22.386 50.417 50 50.417z" fill="#69B0EE"/><path d="M58.287 42.176c1.275 0 2.309-1.293 2.309-2.888S59.562 36.4 58.287 36.4c-1.275 0-2.309 1.293-2.309 2.888s1.034 2.888 2.31 2.888zM34.596 36.4c-1.275 0-2.305 1.293-2.305 2.888s1.034 2.888 2.309 2.888c1.275 0 2.309-1.294 2.309-2.888 0-1.594-1.038-2.889-2.313-2.889z" fill="#F4BB87"/><path d="M72.958 64.139a8.353 8.353 0 00-2.047-4.101 8.247 8.247 0 00-3.89-2.384 120.968 120.968 0 01-14.344-6.033 11.83 11.83 0 01-6.349 1.85 11.83 11.83 0 01-6.348-1.85 120.969 120.969 0 01-14.343 6.033 8.246 8.246 0 00-3.891 2.384 8.351 8.351 0 00-2.047 4.1V74.57h53.259V64.14z" fill="#62667C"/><path d="M48.697 74.57a66.024 66.024 0 006.219-17.647l-8.587-1.036-8.589 1.036A66.023 66.023 0 0043.96 74.57h4.737z" fill="#DBD8DD"/><path d="M52.677 49.473v2.149l-6.349 4.265-6.348-4.265v-2.15h12.697z" fill="#F4BB87"/><path d="M58.275 36.4c.137 6.686-2.33 12.936-9.241 14.977a9.187 9.187 0 01-5.165 0c-6.914-2.04-9.41-8.287-9.273-14.977 0 0-1.784-13.34 5.757-13.588 7.542-.25 17.68 4.736 17.68 4.736.802 2.345.662 5.481.242 8.852z" fill="#FED19A"/><path d="M42.978 55.91l2.143 3.403h2.412l2.143-3.403h-6.698z" fill="#DA364C"/><path d="M47.673 74.57l1.77-2.009-1.906-13.244h-2.412l-1.906 13.248 1.77 2.009 2.684-.004z" fill="#EF5261"/><path d="M39.98 51.622l6.348 4.265-6.7 4.266.352-8.53zM52.677 51.622l-6.349 4.265 6.7 4.266-.351-8.53z" fill="#EEEFEE"/><path d="M34.072 59.318l3.354-.356-1.066 3.926s3.558 7.483 6.835 11.681h3.133c-3.093-8.006-6.555-15.714-6.347-22.947a18.557 18.557 0 00-5.909 7.696zM58.584 59.317l-3.354-.356 1.066 3.924s-3.558 7.483-6.835 11.682h-3.133c3.094-8.007 6.556-15.715 6.348-22.948a18.559 18.559 0 015.908 7.698z" fill="#575B6D"/><path d="M60.553 27.852c-.357-2.944-1.887-5.32-5.484-5.162 0 0-.317-4.569-8.528-4.569-2.967.045-5.861.933-8.35 2.562l-.07.045c-4.306 2.743-6.267 9.56-4.306 14.298.197.493.46.956.781 1.377l.475-2.264a5.373 5.373 0 011.146-2.29 5.315 5.315 0 012.07-1.49c2.798-1.161 4.86-3.376 7.407-2.466a9.243 9.243 0 003.588.552c2.863-.158 5.24.315 7.409 2.793.912 1.535 1.718 3.063 1.597 5.163l.86-1.67a11.997 11.997 0 001.405-6.879z" fill="#414451"/><path d="M71.695 82.714a8.564 8.564 0 01-4.788-1.46 8.67 8.67 0 01-3.176-3.899 8.754 8.754 0 01-.492-5.02 8.708 8.708 0 012.358-4.448 8.592 8.592 0 014.412-2.378 8.547 8.547 0 014.979.496 8.63 8.63 0 013.865 3.202 8.737 8.737 0 01-1.076 10.96 8.588 8.588 0 01-6.082 2.547z" fill="#F6C863"/><path d="M78.568 74.034a6.978 6.978 0 01-1.162 3.853 6.893 6.893 0 01-3.09 2.553 6.828 6.828 0 01-3.975.392 6.863 6.863 0 01-3.521-1.902 6.956 6.956 0 01-1.88-3.553 6.99 6.99 0 01.394-4.007 6.924 6.924 0 012.536-3.112 6.84 6.84 0 018.688.868 6.936 6.936 0 011.49 2.252c.344.843.521 1.745.52 2.656z" fill="#EAB54E"/><path d="M70.22 77.172a.86.86 0 01-.614-.257l-1.562-1.575a.876.876 0 01-.189-.955.876.876 0 01.47-.474.863.863 0 01.947.19l.948.956 3.884-3.915a.865.865 0 011.211.017.88.88 0 01.017 1.221l-4.498 4.535a.865.865 0 01-.614.257z" fill="#EEEFEE"/></g><defs><clipPath id="clip0"><path fill="#fff" d="M0 0h100v100.833H0z"/></clipPath></defs></svg>