<svg width="99" height="99" fill="none" xmlns="http://www.w3.org/2000/svg" viewBox="0 0 99 99"><path d="M49.5 99C76.838 99 99 76.838 99 49.5S76.838 0 49.5 0 0 22.162 0 49.5 22.162 99 49.5 99z" fill="#FF7A53"/><path d="M67.732 43.64h-6.714V29.006c0-6.35-5.166-11.517-11.516-11.517s-11.517 5.166-11.517 11.517V43.64h-6.713V29.006c0-10.053 8.178-18.23 18.23-18.23s18.23 8.177 18.23 18.23V43.64z" fill="#3C3B41"/><path d="M49.5 10.775v6.714c6.35 0 11.517 5.166 11.517 11.516V43.64h6.713V29.005c0-10.052-8.178-18.23-18.23-18.23z" fill="#3C3B41"/><path d="M64.28 82.634H34.723c-6.786 0-12.338-5.552-12.338-12.338v-24.51c0-3.262 2.669-5.931 5.931-5.931h42.37c3.263 0 5.932 2.669 5.932 5.93v24.511c0 6.786-5.552 12.338-12.338 12.338z" fill="#FFDB2D"/><path d="M70.685 39.855H49.5v42.78h14.779c6.785 0 12.338-5.553 12.338-12.339v-24.51c0-3.262-2.67-5.931-5.932-5.931z" fill="#FFDB2D"/><path d="M71.49 53.28H27.512v15.927H71.49V53.28z" fill="#fff"/><path d="M71.488 53.28H49.5v15.927h21.988V53.28z" fill="#fff"/><path d="M69.902 54.994H29.098v12.504h40.804V54.994z" fill="#3C3B41"/><path d="M69.902 54.994H49.5v12.504h20.402V54.994z" fill="#3C3B41"/><path d="M41.233 59.443l-.965-1.396-2.284 1.58V56.85h-1.696v2.776l-2.283-1.58-.966 1.396 2.606 1.803-2.606 1.803.965 1.395 2.284-1.58v2.777h1.697v-2.777l2.283 1.58.965-1.395-2.606-1.803 2.606-1.803zM53.596 59.442l-.965-1.396-2.283 1.58V56.85H48.65v2.776l-2.283-1.58-.966 1.396 2.606 1.803-2.606 1.803.966 1.395 2.283-1.58v2.777h1.697v-2.777l2.283 1.58.965-1.395-2.605-1.803 2.605-1.803z" fill="#fff"/><path d="M50.348 62.864l2.283 1.58.966-1.395-2.606-1.803 2.606-1.803-.966-1.396-2.283 1.58V56.85H49.5v8.79h.848v-2.777zM65.96 59.442l-.966-1.396-2.283 1.58V56.85h-1.697v2.776l-2.283-1.58-.965 1.396 2.606 1.803-2.606 1.803.965 1.395 2.283-1.58v2.777h1.697v-2.777l2.283 1.58.966-1.395-2.606-1.803 2.606-1.803z" fill="#fff"/></svg>