<svg width="100" height="100" fill="none" xmlns="http://www.w3.org/2000/svg" viewBox="0 0 100 100"><path d="M50 100c27.614 0 50-22.386 50-50S77.614 0 50 0 0 22.386 0 50s22.386 50 50 50z" fill="#5C2B73"/><path d="M81.887 48.792v2.402h-9.575v-2.402h9.575z" fill="#63AD82"/><path d="M81.011 53.277c-.896 0-1.623-1.47-1.623-3.284 0-1.814.727-3.284 1.623-3.284.897 0 1.624 1.47 1.624 3.284 0 1.814-.727 3.284-1.624 3.284z" fill="#85EBA3"/><path d="M17.957 51.195v-2.403h9.575v2.403h-9.575z" fill="#63AD82"/><path d="M18.831 53.277c-.896 0-1.623-1.47-1.623-3.284 0-1.814.727-3.284 1.623-3.284.897 0 1.624 1.47 1.624 3.284 0 1.814-.727 3.284-1.623 3.284z" fill="#85EBA3"/><path d="M60.044 22.424l1.995.835-2.127 5.193-1.995-.836 2.127-5.192z" fill="#63AD82"/><path d="M60.172 24.964c-1.506-.63-2.474-1.76-2.162-2.521.312-.762 1.786-.868 3.292-.237 1.506.631 2.474 1.76 2.163 2.522-.313.761-1.786.867-3.293.236z" fill="#85EBA3"/><path d="M39.798 77.562l-1.995-.836 2.127-5.192 1.995.835-2.127 5.193z" fill="#63AD82"/><path d="M38.54 77.78c-1.507-.63-2.475-1.76-2.163-2.521.312-.762 1.786-.868 3.292-.237 1.506.631 2.475 1.76 2.163 2.522-.312.761-1.786.867-3.293.236z" fill="#85EBA3"/><path d="M77.182 60.23l-.826 2.019-5.135-2.151.826-2.018 5.135 2.15z" fill="#63AD82"/><path d="M74.904 63.69c-.753-.316-.858-1.807-.234-3.33.624-1.523 1.74-2.503 2.494-2.187.753.315.858 1.806.234 3.33-.624 1.523-1.74 2.502-2.494 2.186z" fill="#85EBA3"/><path d="M22.662 39.755l.826-2.017 5.135 2.15-.827 2.018-5.134-2.15z" fill="#63AD82"/><path d="M22.68 41.812c-.753-.315-.858-1.806-.234-3.33.624-1.522 1.74-2.502 2.493-2.186.753.315.858 1.806.234 3.33-.624 1.523-1.74 2.502-2.493 2.186z" fill="#85EBA3"/><path d="M37.804 23.26l1.995-.836 2.127 5.192-1.995.836-2.127-5.192z" fill="#63AD82"/><path d="M36.377 24.728c-.312-.762.656-1.89 2.163-2.522 1.506-.63 2.98-.525 3.292.237.312.761-.657 1.89-2.163 2.521-1.506.631-2.98.525-3.292-.236z" fill="#85EBA3"/><path d="M62.04 76.726l-1.995.836-2.127-5.193 1.995-.835 2.127 5.192z" fill="#63AD82"/><path d="M58.01 77.543c-.312-.762.656-1.89 2.162-2.522 1.507-.63 2.98-.525 3.293.237.311.762-.657 1.89-2.163 2.522-1.506.63-2.98.525-3.292-.237z" fill="#85EBA3"/><path d="M76.355 37.738l.827 2.017-5.135 2.151-.826-2.017 5.134-2.151z" fill="#63AD82"/><path d="M74.67 39.626c-.624-1.524-.519-3.014.234-3.33.754-.315 1.87.664 2.494 2.187.624 1.523.519 3.014-.234 3.33-.753.315-1.87-.664-2.494-2.188z" fill="#85EBA3"/><path d="M23.488 62.249l-.826-2.018 5.135-2.15.826 2.017-5.135 2.15z" fill="#63AD82"/><path d="M22.446 61.502c-.624-1.523-.52-3.013.234-3.329.753-.315 1.87.664 2.493 2.187.624 1.523.52 3.014-.234 3.33-.753.315-1.87-.664-2.493-2.188z" fill="#85EBA3"/><path d="M48.734 17.666h2.375v9.683h-2.375v-9.683z" fill="#63AD82"/><path d="M49.92 20.193c-1.793 0-3.246-.735-3.246-1.642 0-.907 1.453-1.642 3.247-1.642 1.793 0 3.247.735 3.247 1.642 0 .907-1.454 1.642-3.247 1.642z" fill="#85EBA3"/><path d="M51.11 82.32h-2.376v-9.683h2.376v9.683z" fill="#63AD82"/><path d="M49.92 83.077c-1.793 0-3.246-.735-3.246-1.642 0-.907 1.453-1.642 3.247-1.642 1.793 0 3.247.735 3.247 1.642 0 .907-1.454 1.642-3.247 1.642z" fill="#85EBA3"/><path d="M81.887 48.792v2.402h-9.575v-2.402h9.575z" fill="#63AD82"/><path d="M81.011 53.277c-.896 0-1.623-1.47-1.623-3.284 0-1.814.727-3.284 1.623-3.284.897 0 1.624 1.47 1.624 3.284 0 1.814-.727 3.284-1.624 3.284z" fill="#85EBA3"/><path d="M17.957 51.195v-2.403h9.575v2.403h-9.575z" fill="#63AD82"/><path d="M18.831 53.277c-.896 0-1.623-1.47-1.623-3.284 0-1.814.727-3.284 1.623-3.284.897 0 1.624 1.47 1.624 3.284 0 1.814-.727 3.284-1.623 3.284z" fill="#85EBA3"/><path d="M26.479 27.983l1.68-1.698 6.77 6.847-1.68 1.699-6.77-6.848z" fill="#63AD82"/><path d="M25.64 30.082c-.633-.641-.12-2.2 1.149-3.483 1.268-1.283 2.81-1.803 3.444-1.161.634.64.12 2.2-1.148 3.483-1.268 1.282-2.81 1.802-3.444 1.16z" fill="#85EBA3"/><path d="M73.365 72.002l-1.68 1.699-6.77-6.847 1.68-1.699 6.77 6.847z" fill="#63AD82"/><path d="M69.61 74.548c-.635-.641-.12-2.2 1.147-3.483 1.268-1.282 2.81-1.802 3.445-1.161.634.641.12 2.2-1.148 3.483-1.269 1.282-2.81 1.802-3.445 1.161z" fill="#85EBA3"/><path d="M71.686 26.285l1.68 1.698-6.771 6.848-1.68-1.7 6.77-6.846z" fill="#63AD82"/><path d="M70.757 28.92c-1.268-1.282-1.782-2.841-1.148-3.482.634-.641 2.176-.122 3.445 1.16 1.268 1.283 1.782 2.843 1.148 3.484-.635.641-2.177.121-3.445-1.161z" fill="#85EBA3"/><path d="M28.158 73.701l-1.68-1.699 6.771-6.847 1.68 1.699-6.77 6.847z" fill="#63AD82"/><path d="M26.789 73.387c-1.268-1.283-1.782-2.842-1.148-3.483.634-.642 2.176-.122 3.444 1.16 1.268 1.283 1.782 2.843 1.148 3.484-.634.641-2.176.121-3.444-1.161z" fill="#85EBA3"/><path d="M48.734 17.666h2.375v9.683h-2.375v-9.683z" fill="#63AD82"/><path d="M49.92 20.193c-1.793 0-3.246-.735-3.246-1.642 0-.907 1.453-1.642 3.247-1.642 1.793 0 3.247.735 3.247 1.642 0 .907-1.454 1.642-3.247 1.642z" fill="#85EBA3"/><path d="M51.11 82.32h-2.376v-9.683h2.376v9.683z" fill="#63AD82"/><path d="M49.92 83.077c-1.793 0-3.246-.735-3.246-1.642 0-.907 1.453-1.642 3.247-1.642 1.793 0 3.247.735 3.247 1.642 0 .907-1.454 1.642-3.247 1.642zM49.92 75.007c-13.66 0-24.734-11.2-24.734-25.015 0-13.814 11.074-25.013 24.734-25.013 13.66 0 24.734 11.199 24.734 25.014 0 13.814-11.073 25.014-24.734 25.014z" fill="#85EBA3"/><path opacity=".7" d="M49.922 69.018c-10.39 0-18.812-8.518-18.812-19.025 0-10.507 8.423-19.025 18.812-19.025 10.39 0 18.812 8.518 18.812 19.025 0 10.507-8.422 19.025-18.812 19.025z" fill="#E3CC41"/><path opacity=".7" d="M49.92 64.006c-7.652 0-13.855-6.274-13.855-14.013 0-7.74 6.203-14.014 13.856-14.014s13.856 6.275 13.856 14.014c0 7.74-6.203 14.013-13.856 14.013z" fill="#E3CC41"/><path opacity=".7" d="M49.922 58.517c-4.655 0-8.428-3.816-8.428-8.524 0-4.707 3.773-8.523 8.428-8.523 4.654 0 8.428 3.816 8.428 8.523 0 4.708-3.774 8.524-8.428 8.524z" fill="#E3CC41"/><path d="M32.262 47.551c-2.121 0-3.84-1.739-3.84-3.883 0-2.145 1.719-3.884 3.84-3.884 2.12 0 3.84 1.739 3.84 3.884 0 2.145-1.72 3.883-3.84 3.883zM41.1 37.101c-2.121 0-3.84-1.738-3.84-3.883s1.719-3.884 3.84-3.884c2.12 0 3.84 1.74 3.84 3.884 0 2.145-1.72 3.883-3.84 3.883zM64.98 62.885c-2.12 0-3.84-1.739-3.84-3.883 0-2.145 1.72-3.884 3.84-3.884 2.121 0 3.84 1.739 3.84 3.884 0 2.144-1.719 3.883-3.84 3.883zM62.139 48.425a1.764 1.764 0 01-1.754-1.774c0-.98.785-1.774 1.754-1.774.968 0 1.754.794 1.754 1.774s-.786 1.773-1.754 1.773zM36.744 55.916a1.764 1.764 0 01-1.754-1.773c0-.98.785-1.774 1.754-1.774s1.754.794 1.754 1.774-.785 1.773-1.754 1.773zM48.732 70.791a1.764 1.764 0 01-1.753-1.773c0-.98.785-1.774 1.753-1.774.97 0 1.754.794 1.754 1.774s-.785 1.773-1.754 1.773zM43.176 49.123c-1.35 0-2.444-1.107-2.444-2.473 0-1.365 1.094-2.472 2.444-2.472 1.35 0 2.445 1.107 2.445 2.472 0 1.366-1.095 2.473-2.445 2.473zM55.202 42.045c-1.35 0-2.445-1.106-2.445-2.472 0-1.365 1.095-2.472 2.445-2.472 1.35 0 2.445 1.107 2.445 2.472 0 1.366-1.095 2.472-2.445 2.472z" fill="#86BE81"/></svg>