<svg width="100" height="100" fill="none" xmlns="http://www.w3.org/2000/svg" viewBox="0 0 100 100"><path d="M50 100c27.614 0 50-22.386 50-50S77.614 0 50 0 0 22.386 0 50s22.386 50 50 50z" fill="#F6C863"/><path d="M59.575 74.382l-2.22-7.832h-14.71l-2.221 7.832h19.151z" fill="#414451"/><path d="M65.728 76.546c-.1-2.11-.72-2.762-1.503-2.762H35.774c-.781 0-1.403.65-1.502 2.762h31.456zM79.634 23.454H20.366a2.398 2.398 0 00-2.397 2.398V65.55a2.398 2.398 0 002.397 2.398h59.268a2.398 2.398 0 002.397-2.398V25.852a2.398 2.398 0 00-2.397-2.398z" fill="#575B6D"/><path d="M20.639 25.852h58.724v34.75H20.639v-34.75z" fill="#69B0EE"/><path d="M50 63.047a1.468 1.468 0 100 2.937 1.468 1.468 0 000-2.937z" fill="#828A9E"/><path d="M49.102 39.54H62.26v1.952H49.102V39.54zM49.067 35.574v2.837h-1.953v-1.86H35.906v-1.954h12.188a.977.977 0 01.973.977z" fill="#EEEFEE"/><path d="M47.113 38.411h1.953v2.764h-1.953v-2.764z" fill="#575B6D"/><path d="M56.982 46.313v5.969h-2.021V47.36H41.219v4.922h-2.022v-5.97a.977.977 0 01.977-.977h6.905v-5.308H49.1v5.308h6.906a.977.977 0 01.976.977z" fill="#EEEFEE"/><path d="M51.753 39.246v2.545a.83.83 0 01-.83.83h-5.66a.83.83 0 01-.835-.83v-2.545a.835.835 0 01.835-.835h5.66a.834.834 0 01.83.835z" fill="#EF5261"/><path d="M58.803 49.69h-5.66a.832.832 0 00-.833.833v2.544c0 .46.373.832.833.832h5.66c.46 0 .833-.373.833-.832v-2.544a.832.832 0 00-.833-.832zM43.212 49.69H37.55a.832.832 0 00-.832.833v2.544c0 .46.372.832.832.832h5.66c.46 0 .833-.373.833-.832v-2.544a.832.832 0 00-.832-.832z" fill="#F6C863"/><path d="M64.834 40.516a2.931 2.931 0 11-5.862.006 2.931 2.931 0 015.862-.006z" fill="#575B6D"/><path d="M41.027 35.483a2.93 2.93 0 11-5.86.006 2.93 2.93 0 015.86-.006z" fill="#EF5261"/></svg>