<svg width="100" height="101" fill="none" xmlns="http://www.w3.org/2000/svg" viewBox="0 0 100 101"><g clip-path="url(#clip0)"><path d="M50 100.915c27.614 0 50-22.572 50-50.417C100 22.654 77.614.083 50 .083S0 22.654 0 50.498c0 27.845 22.386 50.417 50 50.417z" fill="#EA8953"/><path d="M79.813 22.256H20.187a2.228 2.228 0 00-2.218 2.238v52.012c0 1.236.993 2.237 2.218 2.237h59.626a2.228 2.228 0 002.218-2.237V24.494a2.228 2.228 0 00-2.219-2.238z" fill="#EEEFEE"/><path d="M82.031 24.494V34.93H17.97V24.494c.001-.593.236-1.161.651-1.58.416-.42.98-.656 1.567-.658h59.626a2.216 2.216 0 011.567.657c.415.42.65.988.651 1.58z" fill="#575B6D"/><path d="M74.725 30.562a1.961 1.961 0 001.953-1.97c0-1.087-.875-1.968-1.953-1.968a1.961 1.961 0 00-1.953 1.969c0 1.088.874 1.97 1.953 1.97zM66.348 30.562a1.961 1.961 0 001.953-1.97c0-1.087-.875-1.968-1.953-1.968a1.961 1.961 0 00-1.954 1.969c0 1.088.875 1.97 1.954 1.97zM57.97 30.562a1.961 1.961 0 001.954-1.97c0-1.087-.875-1.968-1.953-1.968a1.961 1.961 0 00-1.953 1.969c0 1.088.874 1.97 1.953 1.97z" fill="#DBD8DD"/><path d="M50.702 55.942V42.653H49.027v13.289H30.168v14.92h1.674V57.63h36.045v13.233h1.674V55.942H50.7z" fill="#575B6D"/><path d="M54.07 39.501h-8.414c-.683 0-1.236.558-1.236 1.246v3.814c0 .688.553 1.246 1.236 1.246h8.415c.682 0 1.236-.558 1.236-1.246v-3.814c0-.688-.554-1.246-1.236-1.246z" fill="#EF5261"/><path d="M54.07 53.634h-8.414c-.683 0-1.236.558-1.236 1.246v3.814c0 .688.553 1.246 1.236 1.246h8.415c.682 0 1.236-.558 1.236-1.246V54.88c0-.688-.554-1.246-1.236-1.246z" fill="#2CBFAE"/><path d="M72.93 53.634h-8.415c-.682 0-1.236.558-1.236 1.246v3.814c0 .688.554 1.246 1.236 1.246h8.415c.683 0 1.236-.558 1.236-1.246V54.88c0-.688-.553-1.246-1.236-1.246z" fill="#F6C863"/><path d="M72.93 67.71h-8.415c-.682 0-1.236.558-1.236 1.246v3.814c0 .688.554 1.246 1.236 1.246h8.415c.683 0 1.236-.558 1.236-1.246v-3.814c0-.688-.553-1.246-1.236-1.246z" fill="#69B0EE"/><path d="M35.485 53.634H27.07c-.683 0-1.236.558-1.236 1.246v3.814c0 .688.553 1.246 1.236 1.246h8.415c.682 0 1.236-.558 1.236-1.246V54.88c0-.688-.554-1.246-1.236-1.246z" fill="#F6C863"/><path d="M35.485 67.71H27.07c-.683 0-1.236.558-1.236 1.246v3.814c0 .688.553 1.246 1.236 1.246h8.415c.682 0 1.236-.558 1.236-1.246v-3.814c0-.688-.554-1.246-1.236-1.246z" fill="#69B0EE"/></g><defs><clipPath id="clip0"><path fill="#fff" transform="translate(0 .082)" d="M0 0h100v100.833H0z"/></clipPath></defs></svg>