<svg width="100" height="101" fill="none" xmlns="http://www.w3.org/2000/svg" viewBox="0 0 100 101"><g clip-path="url(#clip0)"><path d="M50 100.833c27.614 0 50-22.572 50-50.417C100 22.572 77.614 0 50 0S0 22.572 0 50.416c0 27.845 22.386 50.417 50 50.417z" fill="#2CBFAE"/><path d="M72.865 20.56H27.13a2.216 2.216 0 00-2.206 2.224V80.49c0 1.228.988 2.224 2.206 2.224h45.735a2.216 2.216 0 002.207-2.224V22.784a2.216 2.216 0 00-2.207-2.224z" fill="#F6B863"/><path d="M28.39 24.055h43.215v55.16H28.39v-55.16z" fill="#EEEFEE"/><path d="M50.444 28.89c-.162 0-.329-.006-.498-.02a5.724 5.724 0 01-3.015-.616 5.782 5.782 0 01-2.271-2.091h-9.271a.705.705 0 01-.657-.443.723.723 0 01-.054-.274v-5.61a.723.723 0 01.208-.507.71.71 0 01.503-.21h29.218a.705.705 0 01.657.442c.036.088.055.18.054.275v5.608a.723.723 0 01-.208.507.71.71 0 01-.503.21h-9.27a5.9 5.9 0 01-2.105 1.988 5.844 5.844 0 01-2.788.741zm-.498-1.448a4.53 4.53 0 002.567-.528 4.58 4.58 0 001.855-1.864.712.712 0 01.592-.32h8.937v-4.175H36.1v4.175h8.937a.706.706 0 01.592.32c.797 1.206 1.998 2.575 4.318 2.392z" fill="#62667C"/><path d="M61.436 18.118H38.56a1.692 1.692 0 00-1.229.49 1.72 1.72 0 00-.512 1.227 1.731 1.731 0 00.512 1.228 1.704 1.704 0 001.229.49h22.875a1.692 1.692 0 001.228-.49 1.719 1.719 0 00.512-1.228 1.731 1.731 0 00-.512-1.227 1.702 1.702 0 00-1.228-.49z" fill="#575B6D"/><path d="M33.98 40.097h4.818v13.75H33.98v-13.75z" fill="#69B0EE"/><path d="M42.77 33.412h4.817v20.436h-4.818V33.412z" fill="#F6C863"/><path d="M51.557 41.612h4.817v12.236h-4.817V41.612z" fill="#2CBFAE"/><path d="M60.346 31.267h4.817v22.58h-4.817v-22.58z" fill="#EF5261"/><path d="M32.143 58.04h35.71v1.784h-35.71V58.04zM32.143 63.524h35.71v1.784h-35.71v-1.784zM32.143 69.01h35.71v1.783h-35.71V69.01zM32.143 74.494h35.71v1.784h-35.71v-1.784z" fill="#CCD0D2"/></g><defs><clipPath id="clip0"><path fill="#fff" d="M0 0h100v100.833H0z"/></clipPath></defs></svg>