<svg width="140" height="52" fill="none" xmlns="http://www.w3.org/2000/svg" viewBox="0 0 140 52"><path d="M100.659.312H0v39.664h100.659V.312z" fill="#0B65A5"/><path d="M139.995.312h-39.337v39.664h39.337V.312z" fill="#1D1D1B"/><path d="M125.84 12.22h-10.023v6.374h-5.364v4.165h5.364v5.333h4.483v-5.358h5.54v-4.14h-5.54v-2.209h5.54v-4.164z" fill="#D9D9D9"/><path d="M41.878 51.428c-1.158 0-1.763-.762-1.763-2.082v-2.768h.706v2.742c0 .89.352 1.372 1.082 1.372.73 0 1.083-.457 1.083-1.32v-2.794h.705v2.768c0 1.346-.63 2.082-1.813 2.082zM48.151 51.352l-1.888-2.895-.353-.584v3.632h-.705v-4.927h.73l1.788 2.895.403.685v-3.58h.68v4.774h-.654zM53.513 51.352l-.378-1.143h-1.914l-.377 1.143h-.73l1.687-4.774h.755l1.738 4.774h-.781zm-.982-2.895c0-.355-.302-.914-.353-1.117 0 .203-.226.762-.352 1.117l-.378 1.092h1.46l-.377-1.092zM57.72 51.352v-4.774h3.048v.686h-2.342v1.193h1.36v.686h-1.36v1.498h2.518v.711h-3.223zM65.754 51.352v-3.377c0 .152-.176.482-.302.761l-1.058 2.692-1.133-2.692-.327-.761c.014.279.014.558 0 .838v2.539h-.68v-4.774h.73l1.083 2.54c0 .279.252.609.302.812 0-.203.227-.533.328-.813l1.032-2.539h.78v4.774h-.755zM69.959 49.575h-1.26v1.777h-.68v-4.774h1.965a1.4 1.4 0 011.109.394 1.422 1.422 0 01.427 1.104 1.434 1.434 0 01-.435 1.115 1.41 1.41 0 01-1.126.384zm0-2.337h-1.285v1.651h1.285a.724.724 0 00.596-.211.736.736 0 00.21-.602.769.769 0 00-.201-.598.754.754 0 00-.58-.24h-.025zM75.323 49.397l.957 1.955h-.806l-.932-1.904H73.46v1.904h-.68V46.58h2.065a1.35 1.35 0 011.08.36A1.37 1.37 0 0176.356 48c.02.319-.073.634-.262.89s-.462.435-.77.507zm-.479-2.158H73.46v1.549h1.385a.698.698 0 00.586-.185.712.712 0 00.22-.577.74.74 0 00-.49-.751.724.724 0 00-.316-.036zM77.791 51.352v-4.774h3.047v.686h-2.317v1.193h1.335v.686h-1.335v1.498h2.519v.711H77.79zM83.611 51.428a2.177 2.177 0 01-1.687-.787l.503-.483c.328.336.768.535 1.234.559.68 0 .983-.229.983-.686 0-.457-.277-.558-1.058-.812-.78-.254-1.486-.533-1.486-1.397a1.407 1.407 0 01.494-1.005 1.382 1.382 0 011.068-.315 2.125 2.125 0 011.56.635l-.503.508a1.485 1.485 0 00-1.108-.458c-.554 0-.806.28-.806.61 0 .33.227.482 1.058.736.83.254 1.511.584 1.511 1.448 0 .863-.554 1.447-1.763 1.447zM89.728 51.352l-.403-1.143h-1.889l-.403 1.143h-.73l1.687-4.774h.756l1.737 4.774h-.755zm-1.008-2.87c0-.355-.302-.913-.352-1.117 0 .203-.227.762-.353 1.118l-.378 1.092h1.461l-.378-1.092zM94.615 47.264v1.193h1.36v.711h-1.36v2.133h-.705v-4.723h3.047v.686h-2.342zM98.191 51.352v-4.774h3.048v.686h-2.342v1.193h1.359v.686h-1.36v1.498h2.519v.711h-3.224zM105.24 49.397l.957 1.955h-.805l-.957-1.904h-1.058v1.904h-.705V46.58h2.015a1.35 1.35 0 011.08.36 1.378 1.378 0 01.43 1.062c.024.308-.058.615-.232.869-.174.254-.43.44-.725.527zm-.478-2.158h-1.385v1.549h1.31a.695.695 0 00.585-.185.716.716 0 00.22-.577.742.742 0 00-.22-.584.73.73 0 00-.585-.203h.075zM110.278 49.397l.957 1.955h-.831l-.932-1.904h-1.058v1.904h-.705V46.58h2.015a1.35 1.35 0 011.08.36 1.388 1.388 0 01.431 1.061c.023.309-.059.616-.233.87-.174.254-.43.44-.724.527zm-.479-2.158h-1.385v1.549h1.31a.696.696 0 00.568-.196.722.722 0 00.212-.566.717.717 0 00-.202-.584.705.705 0 00-.578-.203h.075zM112.746 51.352v-4.774h3.047v.686h-2.342v1.193h1.31v.686h-1.36v1.498h2.518v.711h-3.173zM119.17 49.448v1.904h-.705v-1.904l-1.688-2.87h.831l.731 1.32c.151.28.403.762.478.94.076.178.328-.635.479-.94l.755-1.32h.831l-1.712 2.87zM123.499 51.428c-1.209 0-1.989-1.015-1.989-2.54 0-1.523.78-2.538 1.989-2.538a1.677 1.677 0 011.612.888l-.63.381a1.035 1.035 0 00-.982-.558c-.831 0-1.259.685-1.259 1.752 0 1.066.428 1.726 1.259 1.726a1.16 1.16 0 001.058-.584l.579.407a1.794 1.794 0 01-1.637 1.066zM128.109 51.428c-1.209 0-1.99-1.015-1.99-2.539 0-1.524.781-2.54 1.99-2.54 1.208 0 2.014 1.016 2.014 2.54s-.78 2.54-2.014 2.54zm0-4.215c-.806 0-1.26.686-1.26 1.752 0 1.067.454 1.727 1.26 1.727.805 0 1.284-.66 1.284-1.727 0-1.066-.453-1.752-1.284-1.752zM134.028 49.397l.957 1.955h-.806l-.932-1.904h-1.083v1.904h-.68V46.58h2.065a1.353 1.353 0 011.411.843c.075.183.109.38.1.578.026.32-.065.638-.255.895s-.466.435-.777.502zm-.479-2.158h-1.385v1.549h1.385a.699.699 0 00.761-.448.701.701 0 00.045-.314.742.742 0 00-.22-.584.73.73 0 00-.586-.203zM138.435 49.575h-1.234v1.777h-.705v-4.774h1.99a1.37 1.37 0 011.101.395 1.4 1.4 0 01.41 1.104 1.44 1.44 0 01-.436 1.114 1.407 1.407 0 01-1.126.384zm0-2.336h-1.259v1.65h1.259a.723.723 0 00.614-.2.732.732 0 00.217-.612.759.759 0 00-.806-.838h-.025z" fill="#1D1D1B"/><path d="M10.93 22.683h2.87v-6.551h5.591v-2.463h-5.59V9.783h6.069V7.27h-8.94v15.413zM30.749 7.27l-5.39 15.413h2.972l1.536-4.545h4.609l1.586 4.545h3.148L33.796 7.27h-3.047zm1.41 3.834c0 .33.227.711.378 1.092l1.234 3.555h-3.173l1.234-3.58c.125-.381.226-.737.327-1.067zM54.32 18.138a4.862 4.862 0 00-1.51-2.794 4.425 4.425 0 001.386-1.377 4.469 4.469 0 00-.53-5.479 5.796 5.796 0 00-4.306-1.32 21.085 21.085 0 00-3.476.304h-.378v15.236H48.2v-6.297h1.083c1.386 0 1.965.686 2.317 2.54.196 1.223.516 2.423.957 3.58v.228h2.871l-.352-.66a23.375 23.375 0 01-.756-3.961zm-2.14-6.349c0 1.397-1.008 2.286-2.519 2.286h-1.36V9.63c.428-.03.857-.03 1.285 0 1.662-.076 2.568.736 2.568 2.158h.026zM68.75 16.589h2.519v3.555a5.123 5.123 0 01-1.738.228c-2.745 0-4.457-2.057-4.457-5.383a4.735 4.735 0 011.118-3.767 4.66 4.66 0 011.61-1.19 4.626 4.626 0 011.956-.401 5.377 5.377 0 012.518.559l.504.279.68-2.54-.327-.177a7.653 7.653 0 00-3.425-.737 7.176 7.176 0 00-2.966.572 7.228 7.228 0 00-2.475 1.743 7.301 7.301 0 00-1.553 2.61c-.33.972-.452 2.002-.36 3.024a8.5 8.5 0 002.04 5.815 6.544 6.544 0 002.297 1.58 6.499 6.499 0 002.74.476c1.407-.006 2.8-.282 4.105-.812l.277-.127v-7.618h-5.037l-.025 2.31zM87.663 7.016c-3.576 0-6.07 3.326-6.07 8.075 0 4.748 2.519 7.846 5.919 7.846 3.022 0 6.07-2.54 6.07-8.1 0-4.673-2.368-7.821-5.92-7.821zm0 13.458c-2.342 0-3.4-2.819-3.4-5.434 0-2.616 1.058-5.561 3.425-5.561s3.4 2.818 3.4 5.434-1.158 5.612-3.5 5.612l.075-.05zM63.335 26.29v4.164h2.115v.762h-2.946v-4.927h.831zM72.48 26.29v4.926h-.832v-4.927h.832zM79.981 26.29l2.519 3.529v-3.53h.831v4.927H82.5l-2.519-3.53v3.53h-.83v-4.927h.83zM93.583 26.29v.76h-2.645v1.321h2.368v.737h-2.368v1.346h2.72v.762h-3.55v-4.927h3.475z" fill="#F4F6F8"/></svg>