<svg width="140" height="44" fill="none" xmlns="http://www.w3.org/2000/svg" viewBox="0 0 140 44"><path d="M137.168 12.75c0-.291.115-.57.319-.777a1.083 1.083 0 011.541 0 1.104 1.104 0 010 1.554 1.087 1.087 0 01-1.541 0 1.104 1.104 0 01-.319-.777zm1.939 0a.884.884 0 00-.255-.621.869.869 0 00-1.488.62c0 .234.092.457.255.622a.87.87 0 001.488-.621zm-1.089 0v.55h-.196v-1.253h.479c.24 0 .479 0 .479.351a.307.307 0 01-.261.286c.174 0 .196 0 .218.264v.351h-.24v-.483h-.196l-.283-.066zm.196-.198c.196 0 .239 0 .239-.176 0-.175 0-.131-.217-.131h-.218v.307h.196z" fill="#fff"/><path d="M104.836.624H0V35.86h104.836V.624z" fill="#FCBC00"/><path d="M139.781.624h-34.945V35.86h34.945V.624z" fill="#1D1D1B"/><path d="M115.839 24.13a2.198 2.198 0 00.762-1.846v-2.68h-3.573v3.515a.927.927 0 01-.275.638.913.913 0 01-.64.263.862.862 0 01-.624-.265.875.875 0 01-.247-.636v-9.842a.874.874 0 01.247-.635.863.863 0 01.624-.265.89.89 0 01.845.55c.046.111.07.23.07.35v3.537h3.486v-3.669c0-2.02-1.307-3.668-4.51-3.69-3.202-.022-4.531 1.67-4.531 3.69v10.37a3.524 3.524 0 001.059 2.524 3.474 3.474 0 002.535.99h1.112l3.66-2.9zM129.976 24.547V13.146h-2.484v-3.34h8.976v3.34h-2.483v13.862h-1.068l-2.941-2.46zM125.36 9.828h-5.011L117.43 23.01l5.425-4.393 5.664 4.767-3.159-13.555zm-3.464 7.887l.959-4.965.958 4.965h-1.917z" fill="#fff"/><path d="M131.915 27.051l-18.409-.022 9.346-7.469 9.063 7.491z" fill="#FDC42E"/><path d="M71.852 14.178h-2.18v.22l-1.48 3.998-1.395-3.976v-.242h-2.832l.174.483 2.81 6.854a.818.818 0 010 .747.831.831 0 01-.718.396c-.173.033-.35.033-.523 0l-.501-.264v2.197h.24c.412.112.836.171 1.263.176 1.373 0 2.004-1.209 2.701-2.768l2.942-7.491.174-.484-.675.154zM40.632 19.846h-5.73a2.213 2.213 0 00.72 1.645 2.174 2.174 0 001.699.552 5.996 5.996 0 002.745-.77v2.198a8.651 8.651 0 01-3.072.57 4.475 4.475 0 01-1.987-.25 4.505 4.505 0 01-1.684-1.094 4.582 4.582 0 01-1.253-3.73 4.56 4.56 0 011.088-3.469c.41-.47.912-.85 1.475-1.115a4.458 4.458 0 011.794-.424c.872 0 4.205 0 4.205 5.096v.79zm-2.68-1.626c0-1.23-.326-2.394-1.524-2.394-1.526 0-1.526 1.867-1.526 2.394h3.05zM41.83 16.221c.043-.687.043-1.377 0-2.065h2.702v1.78c.588-1.055 1.002-1.912 2.701-1.912h.436v2.725a4.512 4.512 0 00-1.002-.11c-1.721 0-1.917 1.515-1.917 2.943v4.394h-2.941l.021-7.755zM48.975 16.221v-2.065h2.68v1.78c.61-1.055 1.023-1.912 2.723-1.912h.414v2.725a4.17 4.17 0 00-.98-.11c-1.722 0-1.918 1.515-1.918 2.943v4.394h-2.92v-7.755zM63.68 19.846h-5.73a2.213 2.213 0 00.72 1.645 2.173 2.173 0 001.698.552 5.91 5.91 0 002.723-.77v2.198a8.651 8.651 0 01-3.072.57 4.475 4.475 0 01-1.987-.25 4.506 4.506 0 01-1.683-1.094 4.583 4.583 0 01-1.253-3.73 4.562 4.562 0 011.088-3.469c.41-.47.911-.85 1.474-1.115a4.458 4.458 0 011.795-.424c.893 0 4.226 0 4.226 5.096v.79zM61 18.22c0-1.23-.327-2.394-1.547-2.394s-1.503 1.867-1.503 2.394H61zM73.223 16.221v-2.065h2.68v1.78c.61-1.055 1.002-1.912 2.701-1.912h.436v2.725a4.17 4.17 0 00-.98-.11c-1.721 0-1.917 1.515-1.917 2.943v4.394H73.18l.043-7.755zM83.986 14.024a4.325 4.325 0 011.884.318c.597.245 1.133.621 1.568 1.1.436.48.76 1.05.951 1.67.19.622.242 1.277.15 1.92a4.67 4.67 0 01-1.125 3.629 4.6 4.6 0 01-1.553 1.151 4.565 4.565 0 01-5.324-1.151 4.647 4.647 0 01-1.126-3.628 4.428 4.428 0 011.108-3.6c.438-.48.977-.855 1.576-1.098.6-.244 1.246-.35 1.891-.31zm0 8.062c1.024 0 1.504-1.142 1.504-3.053s-.48-2.988-1.504-2.988-1.525 1.077-1.525 2.988.48 3.053 1.525 3.053zM95.513 16.638a5.863 5.863 0 00-2.375-.527c-.763 0-1.09.374-1.09.703 0 .33.415.813 2.027 1.406A2.723 2.723 0 0195.6 19.28c.37.521.547 1.157.501 1.797 0 2.197-1.612 3.032-3.573 3.032a9.947 9.947 0 01-3.18-.462V21.34c.73.44 1.566.675 2.418.68 1.394 0 1.481-.483 1.481-.922 0-.44-.763-.615-2.026-1.142a3.009 3.009 0 01-1.524-1.16 3.05 3.05 0 01-.524-1.85c0-1.055.74-2.922 3.638-2.922a9.444 9.444 0 012.702.374v2.24zM31.153 10.487h-8.911v5.668H17.47v3.69h4.77v4.746h3.988v-4.745h4.924v-3.691h-4.924v-1.977h4.924v-3.69zM66.536 43.769c-.871 0-1.329-.571-1.329-1.56v-2.065h.545v2.065c0 .66.261 1.033.806 1.033.544 0 .806-.352.806-1.01v-2.087h.545v2.086c0 .989-.48 1.538-1.373 1.538zM71.22 43.769l-1.395-2.197-.261-.44v2.637h-.523v-3.647h.545l1.35 2.197.284.505v-2.702h.5v3.647h-.5zM74.488 41.572l-.261-.813-.262.813-.283.813h1.09l-.284-.813zm.74 2.197l-.282-.857h-1.417l-.305.857h-.544l1.263-3.581h.567l1.285 3.58h-.566zM78.365 43.703v-3.58h2.266v.526h-1.743v.879h1.024v.527h-1.024v1.12h1.83v.528h-2.353zM84.356 43.769v-1.89a5.247 5.247 0 010-.637l-.24.572-.85 1.998-.85-1.998a4.12 4.12 0 01-.217-.572v2.527h-.545v-3.647h.545l.784 1.911c.092.2.172.406.24.615 0-.154.152-.417.24-.615l.784-1.91h.566v3.646h-.457zM87.515 40.627h-.937v1.23h.937a.542.542 0 00.585-.367.553.553 0 00.025-.248.576.576 0 00-.369-.581.564.564 0 00-.241-.034zm0 1.736H86.6v1.406h-.588v-3.647h1.481a1.101 1.101 0 01.923.232 1.12 1.12 0 01.407.867 1.128 1.128 0 01-.407.866 1.109 1.109 0 01-.923.232M91.155 40.627h-1.046v1.165h1.046a.517.517 0 00.43-.143.529.529 0 00.158-.428.554.554 0 00-.356-.562.54.54 0 00-.232-.032zm.348 1.604l.72 1.472h-.61l-.698-1.428h-.806v1.494h-.523v-3.647h1.569a1.016 1.016 0 01.812.275 1.032 1.032 0 01.32.802c.02.24-.049.478-.194.669a.958.958 0 01-.59.363zM93.353 43.703v-3.58h2.266v.526h-1.743v.879H94.9v.527h-1.024v1.12h1.83v.528h-2.353zM97.69 43.769a1.623 1.623 0 01-1.264-.571l.392-.374a1.285 1.285 0 00.915.418c.501 0 .74-.176.74-.506s-.217-.417-.805-.593c-.589-.175-1.112-.417-1.112-1.054a1.062 1.062 0 01.375-.753 1.043 1.043 0 01.802-.236 1.578 1.578 0 011.155.483l-.37.374a1.09 1.09 0 00-.829-.33c-.413 0-.588.198-.588.44s.153.373.763.549c.61.176 1.133.44 1.133 1.076 0 .638-.393 1.077-1.308 1.077zM101.502 41.572l-.262-.813-.261.813-.283.813h1.089l-.283-.813zm.74 2.197l-.283-.857h-1.416l-.305.857h-.545l1.286-3.581h.544l1.286 3.58h-.567zM105.904 40.65v.944h1.024v.527h-1.024v1.582h-.523v-3.58h2.287v.526h-1.764zM108.562 43.703v-3.58h2.288v.526h-1.743v.879h1.002v.527h-1.002v1.12h1.808v.528h-2.353zM113.485 40.627h-1.046v1.165h1.046a.518.518 0 00.557-.34.525.525 0 00.031-.231.567.567 0 00-.031-.235.562.562 0 00-.325-.327.537.537 0 00-.232-.032zm.348 1.604l.719 1.472h-.61l-.697-1.428h-.806v1.494h-.523v-3.647h1.569a1.017 1.017 0 011.059.64c.056.139.081.288.074.437.02.24-.05.478-.195.669a.956.956 0 01-.59.363zM117.23 40.627h-1.024v1.165h1.024a.539.539 0 00.437-.143.552.552 0 00.173-.428.561.561 0 00-.172-.435.573.573 0 00-.438-.159zm.349 1.604l.741 1.472h-.632l-.697-1.428h-.785v1.494h-.522v-3.647h1.546a1.02 1.02 0 011.06.64c.056.139.081.288.073.437a.973.973 0 01-.194.669.956.956 0 01-.59.363zM119.434 43.703v-3.58h2.287v.526h-1.743v.879h1.002v.527h-1.002v1.12h1.809v.528h-2.353zM124.248 42.275v1.494h-.545v-1.428l-1.264-2.197h.61l.545.989c.109.22.305.571.349.703l.37-.703.567-.989h.61l-1.242 2.131zM127.408 43.769c-.915 0-1.504-.747-1.504-1.824 0-1.076.589-1.845 1.504-1.845a1.277 1.277 0 011.198.66l-.458.307a.765.765 0 00-.74-.44c-.61 0-.959.506-.959 1.318 0 .813.349 1.297.959 1.297a.863.863 0 00.784-.44l.436.286a1.36 1.36 0 01-.517.511c-.214.12-.458.179-.703.17zM130.915 40.605c-.61 0-.958.506-.958 1.319 0 .812.348 1.296.958 1.296s.959-.506.959-1.297c0-.79-.327-1.318-.959-1.318zm0 3.142c-.915 0-1.503-.747-1.503-1.824 0-1.076.588-1.845 1.503-1.845.915 0 1.504.747 1.504 1.845 0 1.099-.589 1.824-1.504 1.824zM134.969 40.627h-1.024v1.165h1.024a.542.542 0 00.57-.338.549.549 0 00.04-.233.547.547 0 00-.61-.593zm.37 1.604l.784 1.538h-.61l-.719-1.428h-.849v1.428h-.523v-3.647h1.547a1.016 1.016 0 01.812.275 1.039 1.039 0 01.321.802.98.98 0 01-.186.663.959.959 0 01-.577.37zM138.649 40.627h-.958v1.23h.958a.543.543 0 00.61-.615.574.574 0 00-.369-.581.563.563 0 00-.241-.034zm0 1.736h-.937v1.406h-.523v-3.647h1.482a1.1 1.1 0 01.923.232 1.118 1.118 0 01.407.867 1.134 1.134 0 01-.407.866 1.106 1.106 0 01-.923.232" fill="#1D1D1B"/></svg>