<svg width="140" height="44" fill="none" xmlns="http://www.w3.org/2000/svg" viewBox="0 0 140 44"><path d="M7.857 9.968H0v6.129h7.857v7.853h6.587v-7.853h8.18V9.968h-8.157V6.73h8.158V.624H7.88l-.024 9.344zm58.47 4.148c0-1.724-.648-3.122-2.312-3.122-1.664 0-2.31 1.398-2.31 3.122h4.621zm3.835 1.958v.955h-8.504c.254 2.074 1.548 2.866 3.628 2.866a7.007 7.007 0 003.744-1.142v3.636c-1.416.64-2.955.959-4.506.932a6.881 6.881 0 01-2.95-.502 6.932 6.932 0 01-2.465-1.707 7.004 7.004 0 01-1.523-2.596 7.046 7.046 0 01-.296-3.002c0-4.94 2.75-7.783 6.563-7.783 4.622 0 6.217 3.915 6.217 8.343h.093zm-37.3-1.958c0-1.724-.67-3.122-2.31-3.122-1.641 0-2.311 1.398-2.311 3.122h4.622zm3.814 1.958v.955h-8.482c.232 2.074 1.526 2.866 3.606 2.866a6.892 6.892 0 003.743-1.142v3.636a10.417 10.417 0 01-4.506.932 7 7 0 01-2.897-.57 7.05 7.05 0 01-2.41-1.718 7.122 7.122 0 01-1.503-2.561 7.164 7.164 0 01-.331-2.958c0-4.94 2.75-7.783 6.586-7.783 4.622 0 6.194 3.915 6.194 8.343zm5.223-5.267v-2.75h-3.86v14.937h4.253V16.68c0-2.913 1.109-4.661 3.073-4.661a4.38 4.38 0 011.456.163l.208-4.288a7.154 7.154 0 00-1.456-.163c-1.825 0-2.889 1.189-3.628 3.076h-.046zM55.81 7.731c.49.005.977.06 1.456.163l-.231 4.288a4.174 4.174 0 00-1.433-.163c-1.964 0-3.074 1.748-3.074 4.66v6.316h-4.252V8.057h3.86v2.75c.739-1.888 1.802-3.077 3.628-3.077" fill="#00973D"/><path d="M132.234 22.459l6.54-19.108-7.788 13.399-3.051-9.065h-3.975l4.622 14.354-3.836 12.98 4.16-2.563-1.548 11.348 7.903-19.551-4.252 2.913 1.225-4.707zM79.866 7.475a4.018 4.018 0 00-2.538.635 4.072 4.072 0 00-1.622 2.068 24.393 24.393 0 00-.115-2.493h-4.068c.1 1.038.138 2.08.116 3.122V22.46l4.46-3.985V14.21c0-1.911.509-3.17 1.941-3.17.902 0 1.734.49 1.734 2.33v9.182l4.46-4.055v-5.685c0-2.96-1.086-5.337-4.322-5.337h-.046zm14.398 6.362c0-1.864-.486-3.635-2.311-3.635-2.311 0-2.311 2.842-2.311 3.635h4.622zm4.067 1.375v1.072h-8.69a3.31 3.31 0 001.046 2.528 3.251 3.251 0 002.583.85 9.048 9.048 0 004.16-1.165l-4.622 4.241a6.88 6.88 0 01-2.985-.416 6.928 6.928 0 01-2.529-1.653 7 7 0 01-1.593-2.58 7.047 7.047 0 01-.358-3.017c0-3.985 2.311-7.597 6.54-7.597 1.318 0 6.379 0 6.379 7.737h.07zm19.898 0c0-1.701-.393-4.381-2.195-4.381-1.803 0-2.173 2.843-2.173 4.38 0 1.166.162 4.265 2.126 4.265 1.965 0 2.311-2.19 2.311-4.264h-.069zm.416-7.41h4.229a31.39 31.39 0 000 3.332v9.717c0 2.144 0 8.11-7.487 8.11l-5.154-4.661c1.42.79 3.002 1.236 4.622 1.305 3.536 0 3.675-2.61 3.675-5.686a4.006 4.006 0 01-1.513 1.933 3.948 3.948 0 01-2.347.677c-2.565 0-5.2-1.818-5.2-7.387 0-4.66 1.872-7.644 5.223-7.644a4.02 4.02 0 012.388.654 4.07 4.07 0 011.564 1.933V7.801zm-10.908-.21h.647v4.147a5.756 5.756 0 00-1.479-.163c-2.611 0-2.912 2.33-2.912 4.428v2.983l-4.414 3.518V10.854a27.034 27.034 0 00-.115-3.123h4.044c0 .886 0 1.795.115 2.68.902-1.584 1.526-2.89 4.091-2.89" fill="#F39117"/><path d="M127.936 7.684l3.05 9.065 9.013-15.52-12.063 6.455z" fill="#00973D"/><path d="M31.453 40.635c-.925 0-1.41-.606-1.41-1.655v-2.33h.555v2.214c0 .722.3 1.118.878 1.118.578 0 .878-.373.878-1.072v-2.33h.578v2.33c0 1.072-.532 1.655-1.48 1.655M36.489 40.588l-1.525-2.33-.278-.49v2.89h-.508v-3.915h.578l1.456 2.33c0 .14.254.443.3.536v-2.866h.554v3.845h-.577zM40.027 38.281c0-.28-.254-.722-.3-.885l-.278.885-.3.886h1.178l-.3-.886zm.786 2.33l-.324-.908h-1.525l-.3.908h-.602l1.364-3.844h.624l1.364 3.844h-.601zM44.185 40.588v-3.845h2.45v.56h-1.872v.955h1.087v.559h-1.087v1.212h1.942v.559h-2.52zM50.635 40.588v-2.004a5.52 5.52 0 010-.676l-.278.676-.924 2.144-.901-2.144-.255-.606V40.681h-.554v-3.938h.577l.879 2.05c0 .21.208.49.254.653.046.163.162-.42.254-.652l.832-2.05h.6v3.844h-.484zM54.033 37.302h-1.017v1.282h1.017a.573.573 0 00.62-.39.588.588 0 00.027-.263.611.611 0 00-.392-.617.597.597 0 00-.255-.035v.023zm0 1.818h-.994v1.445h-.555v-3.822h1.595a1.193 1.193 0 011.406.625 1.22 1.22 0 01-.352 1.507 1.198 1.198 0 01-1.054.198M57.935 37.302h-1.109v1.282h1.11a.573.573 0 00.612-.374.587.587 0 00.035-.255.586.586 0 00-.4-.582.575.575 0 00-.248-.024v-.047zm.393 1.771l.786 1.562h-.67l-.763-1.515h-.855v1.515h-.554v-3.892h1.663a1.101 1.101 0 01.87.291 1.12 1.12 0 01.355.85c.023.26-.049.52-.202.73-.153.21-.377.357-.63.413M60.316 40.588v-3.845h2.45v.56h-1.872v.955h1.086v.559h-1.086v1.212h1.941v.559h-2.519zM64.983 40.635a1.7 1.7 0 01-1.34-.606l.392-.396a1.365 1.365 0 00.994.442c.532 0 .786-.186.786-.559 0-.373-.231-.443-.855-.63-.624-.186-1.202-.442-1.202-1.118 0-.675.555-1.072 1.271-1.072a1.652 1.652 0 011.225.513l-.393.42a1.11 1.11 0 00-.878-.373c-.44 0-.647.21-.647.466s.185.42.832.606 1.225.466 1.225 1.165c0 .699-.44 1.142-1.41 1.142zM69.099 38.281c0-.28-.254-.722-.3-.885-.078.3-.17.595-.278.885l-.3.886h1.178l-.3-.886zm.786 2.33l-.324-.908H68.06l-.323.908h-.601l1.386-3.844h.601l1.387 3.844h-.624zM73.835 37.302v1.002h1.087v.583h-1.087v1.7h-.577v-3.844h2.45v.56h-1.873zM76.701 40.588v-3.845h2.45v.56h-1.895v.955h1.11v.559h-1.11v1.212h1.964v.559h-2.519zM81.97 37.302h-1.11v1.282h1.11a.574.574 0 00.613-.374.587.587 0 00.034-.255.586.586 0 00-.399-.582.575.575 0 00-.248-.024v-.047zm.393 1.771l.762 1.562h-.647l-.762-1.515h-.855v1.515h-.463v-3.892h1.664a1.102 1.102 0 01.87.291 1.119 1.119 0 01.355.85c.023.26-.049.52-.202.73-.153.21-.377.357-.63.413M86.015 37.302h-.994v1.282h1.11a.574.574 0 00.612-.374.587.587 0 00.035-.255.586.586 0 00-.4-.582.575.575 0 00-.247-.024l-.116-.047zm.509 1.771l.762 1.562h-.647l-.763-1.515h-.855v1.515h-.554v-3.892h1.664a1.101 1.101 0 01.869.291 1.119 1.119 0 01.356.85c.022.26-.05.52-.203.73-.153.21-.377.357-.63.413M88.397 40.588v-3.845h2.426v.56h-1.872v.955h1.11v.559h-1.11v1.212h1.965v.559h-2.52zM93.55 39.073v1.515h-.577v-1.515l-1.364-2.33h.67l.601 1.072c.139.233.324.606.393.746l.393-.746.601-1.072h.647l-1.363 2.33zM97.038 40.635c-.994 0-1.618-.816-1.618-1.958s.624-1.98 1.618-1.98a1.4 1.4 0 011.294.699l-.509.326a.86.86 0 00-.785-.466c-.67 0-1.017.56-1.017 1.421 0 .862.347 1.398 1.017 1.398a.895.895 0 00.832-.489l.462.326c-.128.23-.317.419-.546.546a1.4 1.4 0 01-.748.177zM100.735 37.255c-.67 0-1.017.56-1.017 1.422 0 .862.347 1.398 1.017 1.398.67 0 1.04-.56 1.04-1.398 0-.839-.37-1.422-1.04-1.422zm0 3.38c-.993 0-1.594-.816-1.594-1.958s.6-1.98 1.594-1.98c.994 0 1.618.815 1.618 1.98s-.624 1.957-1.618 1.957zM105.102 37.302h-1.109v1.282h1.109a.62.62 0 00.684-.35.638.638 0 000-.536.624.624 0 00-.684-.35v-.046zm.37 1.771l.786 1.562h-.647l-.763-1.515h-.855v1.515h-.485v-3.892h1.664a1.097 1.097 0 01.869.291 1.127 1.127 0 01.356.85c.021.264-.054.526-.211.737-.158.21-.388.355-.645.406M109.055 37.302h-.924v1.282h1.016a.575.575 0 00.621-.39.571.571 0 00.026-.263.611.611 0 00-.391-.617.599.599 0 00-.256-.035l-.092.023zm.092 1.818h-1.016v1.445h-.578v-3.822h1.594a1.193 1.193 0 011.406.625 1.22 1.22 0 01-.352 1.507 1.196 1.196 0 01-1.054.198" fill="#1D1D1B"/></svg>