<svg width="99" height="99" fill="none" xmlns="http://www.w3.org/2000/svg" viewBox="0 0 99 99"><path d="M49.5 99C76.838 99 99 76.838 99 49.5S76.838 0 49.5 0 0 22.162 0 49.5 22.162 99 49.5 99z" fill="#EF5261"/><path d="M70.082 44.226a20.527 20.527 0 01-6.203 15.152 18.552 18.552 0 00-5.63 13.274v.155H40.751v-.144a19.223 19.223 0 00-5.847-13.5A20.591 20.591 0 0150.395 24.07a20.764 20.764 0 0119.687 20.155z" fill="#FFDB2D"/><path d="M58.395 70.425v7.046a3.13 3.13 0 01-3.13 3.13h-11.53a3.13 3.13 0 01-3.13-3.13v-7.046h17.79z" fill="#575B6D"/><path d="M58.492 76.435H40.509a.91.91 0 100 1.818h17.983a.91.91 0 100-1.818zM58.492 72.435H40.509a.91.91 0 100 1.818h17.983a.91.91 0 100-1.818zM45.865 80.602a3.718 3.718 0 007.266 0h-7.266z" fill="#414451"/><path d="M50.31 16.283a.814.814 0 10-1.628 0v4.1a.814.814 0 001.628 0v-4.1zM36.068 19.664a.814.814 0 00-1.41.815l2.049 3.55a.814.814 0 001.41-.815l-2.05-3.55zM25.424 29.715a.814.814 0 10-.814 1.411l3.55 2.05a.814.814 0 00.814-1.411l-3.55-2.05zM21.232 43.74a.814.814 0 100 1.63h4.1a.814.814 0 100-1.63h-4.1zM24.612 57.984a.814.814 0 10.814 1.411l3.55-2.05a.814.814 0 10-.814-1.41l-3.55 2.05zM73.576 59.386a.814.814 0 00.814-1.41l-3.55-2.05a.814.814 0 00-.814 1.41l3.55 2.05zM77.768 45.363a.814.814 0 100-1.63h-4.1a.814.814 0 100 1.63h4.1zM74.386 31.118a.814.814 0 10-.814-1.41l-3.55 2.05a.814.814 0 00.814 1.41l3.55-2.05zM64.335 20.475a.814.814 0 10-1.41-.814l-2.05 3.55a.814.814 0 001.41.814l2.05-3.55z" fill="#F6C863"/><path d="M63.76 46.616v-4.112l-4.141-.833a10.26 10.26 0 00-.921-2.22l2.34-3.517-2.912-2.909-3.517 2.34a10.212 10.212 0 00-2.22-.92l-.833-4.141h-4.113l-.836 4.14c-.773.22-1.519.529-2.22.922l-3.518-2.34-2.909 2.908 2.335 3.511c-.39.704-.7 1.45-.92 2.224l-4.139.833v4.112l4.138.833c.221.775.53 1.522.921 2.226l-2.337 3.517 2.909 2.909 3.52-2.338c.703.392 1.45.7 2.224.92l.832 4.139h4.113l.832-4.138c.774-.221 1.52-.53 2.224-.92l3.514 2.337 2.912-2.91-2.34-3.516c.392-.702.701-1.447.92-2.22l4.142-.837zM50.1 50.411a5.883 5.883 0 11-1.202-11.703A5.883 5.883 0 0150.1 50.41z" fill="#575B6D"/></svg>