<svg width="140" height="53" fill="none" xmlns="http://www.w3.org/2000/svg" viewBox="0 0 140 53"><path d="M100.617.312H0v39.657h100.617V.312z" fill="#0D609A"/><path d="M139.972.312h-39.329v39.657h39.329V.312z" fill="#1C1C19"/><path d="M125.809 12.19h-10.027v6.396h-5.364v4.145h5.364v5.333h4.487v-5.333h5.54v-4.145h-5.54V16.36h5.54v-4.17z" fill="#D9D8D8"/><path d="M28.349 52.05c-1.329 0-2.005-.884-2.005-2.375v-3.033h.802v3.108c0 1.037.426 1.567 1.228 1.567s1.253-.505 1.253-1.516v-3.16h.803v3.16c0 1.516-.727 2.25-2.081 2.25zM35.494 52.05l-2.13-3.386a5.281 5.281 0 01-.401-.683v4.07h-.778v-5.41h.803l2.055 3.312c.167.242.318.495.451.758v-4.07h.777v5.41h-.777zM41.61 52.05l-.451-1.289h-2.156l-.451 1.29h-.827l1.93-5.41h.852l1.955 5.41h-.852zm-1.128-3.26c-.15-.38-.351-1.011-.426-1.239 0 .228-.25.86-.376 1.239l-.426 1.238h1.654l-.426-1.238zM46.373 52.05v-5.408h3.46v.783h-2.658v1.34h1.554v.758h-1.554v1.718h2.783v.81h-3.585zM55.497 52.05v-2.856-.96c-.1.293-.217.58-.351.86l-1.279 2.956-1.278-3.058a7.924 7.924 0 01-.35-.86v3.918h-.753v-5.408h.827l1.204 2.88c.144.304.27.617.376.936 0-.227.225-.607.35-.935l1.204-2.881h.852v5.408h-.802zM60.286 50.028h-1.404v2.022h-.802V46.64h2.256a1.566 1.566 0 011.254.443 1.594 1.594 0 01.476 1.25 1.63 1.63 0 01-.501 1.263 1.601 1.601 0 01-1.279.431zm0-2.527h-1.454v1.87h1.454a.821.821 0 00.675-.248.835.835 0 00.227-.687.84.84 0 00-.473-.97.82.82 0 00-.379-.066l-.05.1zM66.402 49.851l1.103 2.2h-.928L65.5 49.901h-1.203v2.148h-.802v-5.408h2.331a1.517 1.517 0 011.243.397 1.544 1.544 0 01.487 1.22c.027.36-.074.72-.285 1.011-.211.292-.52.498-.868.581zm-.552-2.527h-1.554v1.744h1.53a.796.796 0 00.873-.501.814.814 0 00.054-.358.84.84 0 00-.286-.612.827.827 0 00-.642-.197l.025-.076zM69.209 52.05v-5.408h3.484v.783h-2.682v1.34h1.554v.758h-1.554v1.718h2.783v.81h-3.585zM75.852 52.05a2.488 2.488 0 01-1.905-.884l.577-.557a1.98 1.98 0 001.404.632c.752 0 1.102-.252 1.102-.783s-.326-.632-1.228-.91c-.902-.278-1.68-.632-1.68-1.592a1.628 1.628 0 01.567-1.145 1.599 1.599 0 011.214-.372 2.496 2.496 0 011.754.733l-.551.581a1.73 1.73 0 00-1.254-.505c-.626 0-.902.303-.902.657 0 .354.25.581 1.178.86.927.277 1.73.657 1.73 1.642 0 .986-.652 1.643-2.006 1.643zM82.772 52.05l-.451-1.289h-2.156l-.451 1.29h-.827l1.93-5.41h.852l1.98 5.41h-.877zm-1.128-3.26c0-.38-.35-1.011-.401-1.239 0 .228-.25.86-.401 1.239l-.426 1.238h1.654l-.426-1.238zM88.386 47.425v1.416h1.529v.808h-1.53v2.528h-.826v-5.535h3.484v.783h-2.657zM92.397 52.05v-5.408h3.509v.783h-2.682v1.34h1.554v.758h-1.554v1.718h2.682v.81h-3.51zM100.417 49.851l1.103 2.199h-.928l-1.078-2.148h-1.102v2.148h-.803v-5.409h2.357a1.543 1.543 0 011.25.398 1.567 1.567 0 01.504 1.22c.017.38-.107.754-.348 1.048a1.527 1.527 0 01-.955.544zm-.552-2.527h-1.453v1.744h1.554a.796.796 0 00.873-.502.81.81 0 00.054-.358.841.841 0 00-.318-.657.829.829 0 00-.71-.152v-.075zM106.133 49.85l1.103 2.2h-.928l-1.053-2.148h-1.228v2.148h-.777V46.64h2.356a1.541 1.541 0 011.234.408 1.567 1.567 0 01.496 1.21 1.53 1.53 0 01-.304 1.024 1.504 1.504 0 01-.899.568zm-.527-2.527h-1.579v1.744h1.579a.797.797 0 00.85-.508.823.823 0 00.053-.351.836.836 0 00-.569-.77.82.82 0 00-.334-.039v-.076zM108.967 52.05v-5.408h3.459v.783h-2.657v1.34h1.554v.758h-1.554v1.718h2.782v.81h-3.584zM116.284 49.902v2.148h-.828v-2.148l-2.005-3.26h.953l.852 1.49.551 1.062c.166-.363.35-.717.552-1.061l.827-1.491h.953l-1.855 3.26zM121.197 52.05c-1.379 0-2.281-1.162-2.281-2.805 0-1.643.902-2.806 2.281-2.806.369-.026.738.055 1.062.234.325.18.591.45.768.777l-.702.455a1.196 1.196 0 00-1.128-.657c-.927 0-1.429.783-1.429 1.997 0 1.213.502 1.971 1.429 1.971a1.245 1.245 0 001.178-.657l.677.455a2.066 2.066 0 01-.785.778 2.038 2.038 0 01-1.07.258zM126.436 52.05c-1.379 0-2.256-1.163-2.256-2.805 0-1.643.877-2.806 2.256-2.806 1.378 0 2.306 1.163 2.306 2.806 0 1.642-.903 2.805-2.306 2.805zm0-4.802c-.928 0-1.429.783-1.429 1.997 0 1.213.501 1.971 1.429 1.971.927 0 1.479-.758 1.479-1.971 0-1.214-.527-1.896-1.479-1.896v-.101zM133.181 49.85l1.102 2.2h-.952l-1.053-2.148H131v2.148h-.777V46.64h2.356a1.541 1.541 0 011.233.408 1.564 1.564 0 01.497 1.21c.028.357-.069.712-.276 1.004-.206.291-.508.5-.852.588zm-.552-2.527H131v1.744h1.579a.87.87 0 00.713-.195.882.882 0 00.312-.677.888.888 0 00-.647-.853.87.87 0 00-.378-.019h.05zM138.191 50.028h-1.404v2.022h-.777V46.64h2.256a1.564 1.564 0 011.254.443c.165.16.292.356.374.572.083.216.117.448.101.679a1.628 1.628 0 01-.509 1.273 1.596 1.596 0 01-1.295.42zm0-2.527h-1.429v1.87h1.429a.82.82 0 00.692-.237.844.844 0 00.235-.698.857.857 0 00-.193-.747.85.85 0 00-.709-.29l-.025.102z" fill="#1C1C19"/><path d="M22.034 15.881a6.583 6.583 0 011.413-4.457 6.482 6.482 0 014.002-2.367 6.92 6.92 0 015.047.89 7.022 7.022 0 013.078 4.13 7.08 7.08 0 01-.553 5.136 6.985 6.985 0 01-3.888 3.366 6.865 6.865 0 01-4.052.202 6.909 6.909 0 01-3.468-2.123 6.76 6.76 0 01-1.579-4.777zm11.33 0a4.501 4.501 0 00-.698-2.512 4.446 4.446 0 00-1.97-1.692 4.403 4.403 0 00-4.869.904 4.484 4.484 0 00-1.242 2.288c-.18.87-.098 1.775.235 2.599a4.467 4.467 0 001.633 2.024 4.41 4.41 0 002.475.762 4.328 4.328 0 003.115-1.244 4.4 4.4 0 001.321-3.104v-.025zM64.42 15.401c.74.28 1.36.806 1.762 1.491.401.685.558 1.488.445 2.275a3.427 3.427 0 01-.881 2.132 3.376 3.376 0 01-2.027 1.078c-.83.128-1.668.187-2.507.177h-2.907c-.326 0-.452-.127-.452-.455V9.664c0-.228 0-.43.301-.43h4.412a3.063 3.063 0 012.147 1.026 3.114 3.114 0 01.786 2.26A3.337 3.337 0 0164.42 15.4zm-3.609 3.21v1.415c0 .278 0 .38.376.354.451.025.903.025 1.354 0a1.494 1.494 0 001.048-.55 1.52 1.52 0 00.33-1.143 1.454 1.454 0 00-.298-1.107 1.43 1.43 0 00-1.005-.536 13.581 13.581 0 00-1.404 0c-.3 0-.426 0-.4.379v1.188zm0-5.56v1.263a.457.457 0 00.176.38 1.717 1.717 0 001.755-.607 2.035 2.035 0 000-1.972 1.567 1.567 0 00-1.58-.657.45.45 0 00-.326.303c-.175.43-.025.86-.025 1.29zM47.6 17.019l3.861 5.485H48.528a.747.747 0 01-.701-.405l-2.808-4.448-.2-.253v4.549c0 .405 0 .582-.552.556a15.148 15.148 0 00-1.855 0c-.326 0-.451 0-.451-.454V9.664c0-.253 0-.43.326-.405h4.712c.774.03 1.515.32 2.106.823.59.504.997 1.193 1.153 1.957.257.883.2 1.829-.162 2.674a3.93 3.93 0 01-1.818 1.952l-.677.354zm-2.806-3.615v1.568c0 .252 0 .379.376.353h.902c1.002-.177 1.454-.808 1.429-1.946a1.58 1.58 0 00-.346-1.18 1.554 1.554 0 00-1.083-.564h-.827c-.326 0-.477 0-.451.455.025.455 0 .809 0 1.314zM82.497 18.56l.3.531c.213.425.539.78.943 1.026.403.246.867.372 1.339.364.355 0 .701-.119.983-.338.28-.22.482-.528.57-.875a1.605 1.605 0 00-.55-1.87 10.734 10.734 0 00-1.43-.708l-1.504-.657a3.67 3.67 0 01-1.332-1.224 3.71 3.71 0 01.806-4.943 4.329 4.329 0 014.462-.657c.648.267 1.27.597 1.855.985a.382.382 0 010 .38c-.351.58-.777 1.137-1.178 1.718l-.502-.48a2.174 2.174 0 00-2.33-.455c-.241.083-.452.234-.608.436a1.32 1.32 0 00-.27.701 1.17 1.17 0 00.159.731c.131.22.33.39.568.482.4.228.852.405 1.278.607l1.053.455c.894.333 1.63.995 2.058 1.854a3.82 3.82 0 01.248 2.771 4.23 4.23 0 01-1.298 2.375 4.17 4.17 0 01-2.462 1.088 4.975 4.975 0 01-2.75-.405 5.025 5.025 0 01-2.113-1.82.427.427 0 01-.167-.34.433.433 0 01.167-.342c.702-.43 1.178-.758 1.705-1.39zM13.337 11.61v2.78h3.91v2.123s-.25.228-.376.228h-3.058c-.401 0-.501 0-.476.48v4.827c0 .405 0 .506-.502.506H10.93c-.275 0-.4 0-.4-.38V9.538c0-.303 0-.404.375-.404h6.267c.276 0 .376 0 .35.379-.024.38 0 1.01 0 1.516s0 .48-.475.48h-3.735l.025.102zM75.125 15.906v6.142c0 .43-.15.531-.527.531a13.943 13.943 0 00-1.78 0c-.45 0-.576-.177-.576-.581v-9.175-3.084c0-.379 0-.505.501-.48h1.906c.376 0 .476 0 .476.48v6.167zM49.056 26.472a2.242 2.242 0 011.724.733A2.281 2.281 0 0151.362 29a2.369 2.369 0 01-.61 1.769 2.334 2.334 0 01-1.696.759 2.263 2.263 0 01-1.715-.743A2.303 2.303 0 0146.75 29a2.243 2.243 0 01.56-1.812 2.205 2.205 0 011.746-.715zm-1.254 2.4c-.039.33.045.662.235.933.19.27.472.461.793.534.802 0 1.253-.278 1.454-1.163a1.477 1.477 0 00-.501-1.466 1.099 1.099 0 00-1.229-.152 1.349 1.349 0 00-.752 1.314zM58.157 27.609l-.853.48a.64.64 0 010-.177 1.056 1.056 0 00-1.078-.556 1.225 1.225 0 00-.927.86 1.86 1.86 0 00.326 1.895.927.927 0 001.053.278.903.903 0 00.651-.834h-.476c-.3 0-.476 0-.476-.404 0-.405.15-.48.501-.455h1.279s.325.177.3.278a2.342 2.342 0 01-.952 2.072 2.068 2.068 0 01-2.156 0 2.524 2.524 0 01-1.149-1.471 2.547 2.547 0 01.171-1.865 2.24 2.24 0 011.176-1.178 2.214 2.214 0 011.657-.035 1.832 1.832 0 01.953 1.112zM89.537 26.927l-.451.682a3.937 3.937 0 00-.777-.253.573.573 0 00-.426.329s0 .328.225.43c.243.14.494.267.752.379.281.126.512.345.653.62.141.276.185.592.124.896-.03.332-.17.645-.397.888a1.476 1.476 0 01-.856.452 1.543 1.543 0 01-1.63-.759.433.433 0 010-.354c0-.151.301-.277.452-.43.15-.15.276.355.426.481a.551.551 0 00.827 0 .554.554 0 00.26-.516.558.558 0 00-.335-.47l-.576-.278a1.276 1.276 0 01-.792-.674 1.296 1.296 0 01-.036-1.044c.115-.348.36-.636.685-.801.324-.166.7-.196 1.045-.084.291.141.568.31.827.506zM67.704 27.584a5.437 5.437 0 00-.852-.228.45.45 0 00-.35.329s0 .328.175.404c.223.138.458.257.701.354.292.103.537.307.693.575.156.269.213.584.16.891-.004.333-.12.654-.33.912-.21.257-.5.434-.823.503a1.542 1.542 0 01-1.705-.682.636.636 0 010-.43c.1-.174.209-.343.326-.505.172.205.356.399.552.581.275.202.576.253.802 0a.507.507 0 00-.176-.809c-.2 0-.426-.202-.652-.328a1.229 1.229 0 01-.642-.484 1.246 1.246 0 01-.21-.78c.001-.272.083-.538.234-.763.152-.226.368-.4.618-.5a1.792 1.792 0 011.68.303.356.356 0 010 .353c-.05.112-.118.214-.2.304zM83.672 27.837c-.827-.556-1.378-.556-1.855 0a1.677 1.677 0 000 2.072c.452.582.978.607 1.88 0 .351.708.15 1.163-.601 1.315a2.34 2.34 0 01-2.129-.874 2.386 2.386 0 01-.378-2.286 2.275 2.275 0 01.932-1.331 2.241 2.241 0 011.575-.362c.677.202.852.606.576 1.466zM70.838 27.406v-.834h2.507s.175.278.175.455a.482.482 0 01-.226.38 2.49 2.49 0 01-.626 0v3.74h-1.003v-3.083c0-.683 0-.607-.627-.607l-.2-.05zM44.117 31.223h-1.93a.425.425 0 01-.226-.278V26.85c0-.404.326-.278.526-.278s.502 0 .502.329v2.68c0 .91 0 .732.752.758.752.025.526.075.376.884zM77.508 28.923v1.921c0 .657-.2.405-.501.38-.301-.026-.552 0-.527-.38v-3.867c0-.405.2-.43.502-.43.3 0 .551 0 .526.43-.025.43 0 1.289 0 1.946zM62.267 31.173c-.978.151-.978.151-.978-.759v-3.362c0-.379 0-.505.476-.505.477 0 .577 0 .577.48v3.767a1.965 1.965 0 01-.075.379z" fill="#fff"/></svg>