<svg width="140" height="44" fill="none" xmlns="http://www.w3.org/2000/svg" viewBox="0 0 140 44"><path d="M115.963 23.505c.264-.226.471-.511.604-.833.133-.322.188-.672.162-1.02v-2.58h-3.587v3.507a.932.932 0 01-.269.633.915.915 0 01-.628.27.869.869 0 01-.626-.265.883.883 0 01-.249-.638v-9.946a.882.882 0 01.875-.904c.238 0 .466.095.634.264.168.17.263.4.263.64v3.528h3.587v-3.66c0-2.03-1.313-3.684-4.528-3.684s-4.527 1.676-4.527 3.683v10.387a3.518 3.518 0 001.064 2.528 3.475 3.475 0 002.545.979h1.115l3.565-2.889zM130.136 23.902V12.5h-2.493V9.148h8.967V12.5h-2.472v13.872h-1.071l-2.931-2.47zM122.042 17.065l.963-4.962.984 4.962h-1.947zm3.434-7.85h-4.987l-2.93 13.232 5.424-4.411 5.621 4.631-3.128-13.453zM138.38 9.942c.175 0 .219 0 .219-.176 0-.177 0-.155-.197-.155h-.24v.331h.218zm-.218.198v.552h-.197v-1.28h.415c.241 0 .481 0 .481.354a.328.328 0 01-.262.309c.153 0 .197 0 .219.242v.375h-.263v-.507h-.175l-.218-.045zm1.115 0a.911.911 0 00-.543-.853.89.89 0 00-.988.192.912.912 0 00.15 1.4.89.89 0 00.506.144.872.872 0 00.619-.259.886.886 0 00.256-.624zm-1.968 0a1.092 1.092 0 01.321-.772 1.078 1.078 0 011.522.01 1.055 1.055 0 01.3.763 1.039 1.039 0 01-.645.984 1.017 1.017 0 01-.405.074 1.04 1.04 0 01-.771-.294 1.052 1.052 0 01-.238-.349 1.042 1.042 0 01-.084-.416z" fill="#fff"/><path d="M105.004.062H0v35.286h105.004V.062z" fill="#FCBC00"/><path d="M140 .062h-34.994v35.286H140V.062z" fill="#1D1D1B"/><path d="M116.004 23.593a2.22 2.22 0 00.766-1.852v-2.58h-3.478v3.506a.897.897 0 01-1.237.835.874.874 0 01-.474-.491.9.9 0 01-.061-.344V12.72a.9.9 0 01.249-.638.874.874 0 01.626-.266.896.896 0 01.897.904v3.53h3.587v-3.662c0-2.007-1.312-3.683-4.527-3.683s-4.528 1.676-4.528 3.683v10.387a3.552 3.552 0 001.063 2.535 3.472 3.472 0 002.546.994h1.115l3.456-2.911zM130.177 23.99V12.61h-2.493V9.236h8.989v3.374h-2.494v13.872h-1.071l-2.931-2.492zM122.042 17.154l.984-4.962.963 4.962h-1.947zm3.5-7.94h-5.009l-2.865 13.232 5.424-4.41 5.665 4.785-3.215-13.607zM138.425 10.03c.197 0 .241 0 .241-.176 0-.177 0-.133-.219-.133h-.219v.31h.197zm-.197.199v.551h-.197V9.523h.394c.241 0 .481 0 .481.33a.31.31 0 01-.262.309c.175 0 .197 0 .218.243v.375h-.262v-.507h-.197l-.175-.044zm1.094 0a.89.89 0 00-.54-.815.87.87 0 00-.954.19.888.888 0 00.133 1.358.87.87 0 001.105-.11.886.886 0 00.256-.623zm-1.947 0a1.086 1.086 0 01.662-.999 1.063 1.063 0 011.168.234 1.093 1.093 0 01.232 1.178 1.073 1.073 0 01-.99.667 1.045 1.045 0 01-.996-.663 1.063 1.063 0 01-.076-.417z" fill="#fff"/><path d="M132.104 26.504h-18.438l9.361-7.476 9.077 7.476z" fill="#FCBD0A"/><path d="M21.697 9.214c0-.662-.613-.662-1.137-.662-1.29 0-1.313.397-1.334 1.478v1.08c0 1.192.415 1.302 1.334 1.302.918 0 1.137-.199 1.137-1.125h-1.225v-1.19h2.996v1.168c0 2.205-.546 2.646-2.908 2.646s-3.15-.286-3.15-2.492V9.7c0-2.205 1.203-2.536 3.15-2.536 1.946 0 2.909 0 2.909 2.205l-1.772-.154zM26.312 9.876h2.822v1.235h-2.822v1.301h3.084v1.456h-4.834V7.186h4.768v1.477h-3.018v1.213zM32.437 13.868h-1.75V7.186h2.975l1.903 5.138h.065l-.109-5.138h1.772v6.682h-3.019L32.415 8.75h-.065l.087 5.117zM40.33 9.876h2.822v1.235H40.33v1.301h3.062v1.456H38.56V7.186h4.768v1.477H40.33v1.213zM44.66 7.186h3.412c1.53 0 2.187.374 2.187 2.028 0 1.103 0 1.765-1.269 2.051a1.107 1.107 0 01.871.319 1.126 1.126 0 01.332.872v1.346h-1.771v-.927c0-.507-.197-.838-.722-.838h-1.356v1.764h-1.772l.088-6.615zm3.127 3.352c.766 0 .744-.265.744-1.037 0-.772-.153-.75-.744-.75h-1.356v1.787h1.356zM52.93 12.72l-.328 1.147h-1.815l1.969-6.616h2.69l2.012 6.616h-1.815l-.328-1.146H52.93zm1.203-4.19l-.809 2.89h1.64l-.83-2.89zM59.797 12.324h2.756v1.544h-4.528V7.186h1.772v5.138zM66.666 7.186h3.346c1.86 0 2.669.705 2.669 2.602v1.39c0 1.83-.569 2.69-2.428 2.69h-3.587V7.186zm1.772 5.138h1.53c.657 0 .897-.44.897-1.147v-1.39c0-.86-.262-1.036-.896-1.036h-1.531v3.573zM75.543 9.876h2.821v1.235h-2.821v1.301h3.084v1.456h-4.834V7.186h4.768v1.477h-3.018v1.213zM20.974 19.888h5.271v2.315h-5.27v2.404h5.73v2.735h-9.012V14.904h8.902v2.712h-5.62v2.272zM38.932 26.372a6.367 6.367 0 01-4.243 1.058c-3.827 0-5.73-.838-5.73-5.006v-2.602c0-4.08 1.968-5.007 5.73-5.007 3.762 0 5.709.927 5.709 5.007v3.11a4.445 4.445 0 01-.24 1.653l1.333.927-1.334 1.83-1.225-.97zm-1.946-3.926v-2.205c0-2.206-.285-2.625-2.34-2.625-2.056 0-2.275.42-2.275 2.625v2.205c0 1.919.7 2.007 2.34 2.007.488.035.978-.024 1.444-.176l-2.188-1.434 1.29-1.852 1.729 1.455zM53.17 14.904v8.292c0 3.308-1.53 4.234-5.161 4.234-4.922 0-5.447-1.257-5.447-4.234v-8.292h3.281v8.226c0 1.411.788 1.411 2.187 1.411 1.4 0 1.881-.11 1.881-1.566v-8.071h3.26zM58.835 14.904h-3.28V27.32h3.28V14.904zM61.13 27.342V14.904h6.234c3.062 0 4.221 1.301 4.221 4.565 0 3.264-.787 4.675-4.22 4.675h-2.91v3.198h-3.324zm5.534-6.065c1.313 0 1.487-.198 1.487-1.808 0-1.28-.196-1.676-1.487-1.676h-2.187v3.484h2.187zM72.723 22.887v-3.529c0-3.815 2.384-4.543 5.708-4.543 3.325 0 5.709.728 5.709 4.543v3.53c0 3.814-2.363 4.542-5.709 4.542-3.346 0-5.708-.728-5.708-4.543zm8.026-.375v-2.8c0-1.831-.612-2.03-2.318-2.03s-2.187.199-2.318 2.03v2.734c0 1.852.612 2.029 2.318 2.029s2.318-.177 2.318-2.029M91.642 19.778c3.63.265 4.549.728 4.549 3.573 0 2.05 0 4.08-5.359 4.08-3.127 0-5.205 0-5.205-4.146h3.15c0 1.3.459 1.433 2.055 1.433 1.597 0 2.056-.11 2.056-1.147 0-1.036-.175-1.058-1.728-1.169h-.7c-3.061-.22-4.833-.198-4.833-3.748 0-3.551 1.99-3.794 5.205-3.794 2.712 0 5.009 0 5.009 3.463v.529h-3.15c0-1.28-.525-1.28-1.859-1.28-1.771 0-1.902.354-1.902 1.06 0 .705.459 1.014 1.334 1.08l1.378.066zM66.643 43.243c-.875 0-1.334-.574-1.334-1.544v-2.073h.546v2.051c0 .662.263 1.037.81 1.037.546 0 .809-.353.809-1.015v-2.073h.525v2.073c0 .993-.481 1.544-1.356 1.544zM71.345 43.177l-1.421-2.206-.263-.44v2.646h-.503v-3.551h.547l1.334 2.206.284.507v-2.713h.525v3.551h-.503zM74.604 41.038c0-.243-.218-.662-.262-.816l-.263.816-.284.816h1.094l-.285-.816zm.744 2.205l-.306-.838h-1.4l-.306.838h-.547l1.269-3.55h.568l1.29 3.55h-.568zM78.475 43.199v-3.573h2.296v.507h-1.75v.883h1.006v.529h-1.006v1.125h1.816v.529h-2.362zM84.489 43.177v-1.875a5.25 5.25 0 010-.64c0 .11-.154.376-.241.574l-.853 2.007-.853-2.007a4.154 4.154 0 01-.219-.573v2.514h-.503v-3.551h.547l.787 1.897c.092.2.172.407.241.617 0-.154.153-.419.24-.617l.788-1.897h.569v3.55h-.503zM87.66 40.089h-.962v1.213h.962a.611.611 0 00.498-.607.62.62 0 00-.498-.606zm0 1.72h-.918v1.323h-.525v-3.506h1.487a1.02 1.02 0 01.824.283 1.037 1.037 0 01.313.82 1.066 1.066 0 01-.326.844 1.048 1.048 0 01-.855.28M91.291 40.09h-1.028v1.146h1.028c.151 0 .296-.06.402-.168a.576.576 0 00-.402-.979zm.35 1.587l.722 1.455h-.612l-.7-1.411h-.788v1.411h-.525v-3.506h1.553a1.021 1.021 0 011.057.628c.057.136.085.283.08.43.02.241-.049.48-.194.672a.96.96 0 01-.593.365M93.5 43.199v-3.573h2.275v.507h-1.75v.883h1.028v.529h-1.028v1.125h1.815v.529H93.5zM97.853 43.243a1.629 1.629 0 01-1.269-.574l.372-.375a1.29 1.29 0 00.918.42c.504 0 .744-.177.744-.508 0-.33-.219-.419-.81-.595-.59-.177-1.093-.42-1.093-1.059a1.044 1.044 0 01.362-.754 1.024 1.024 0 01.797-.238 1.566 1.566 0 011.16.485l-.372.375a1.094 1.094 0 00-.831-.33c-.416 0-.59.198-.59.44 0 .243.174.375.787.551.612.177 1.115.442 1.115 1.081 0 .64-.394 1.08-1.29 1.08zM101.659 41.038c0-.243-.219-.662-.262-.816l-.263.816-.284.816h1.093l-.284-.816zm.744 2.205l-.285-.838h-1.421l-.285.838h-.568l1.29-3.55h.547l1.29 3.55h-.568zM106.078 40.133v.949h1.006v.529h-1.006v1.588h-.525v-3.573h2.274v.507h-1.749zM108.746 43.199v-3.573h2.275v.507h-1.75v.883h1.006v.529h-1.006v1.125h1.815v.529h-2.34zM113.643 40.09h-1.028v1.146h1.028a.542.542 0 00.572-.34.553.553 0 00.04-.233.553.553 0 00-.377-.551.545.545 0 00-.235-.023zm.372 1.587l.721 1.455h-.612l-.7-1.411h-.809v1.411h-.525v-3.506h1.553a1.02 1.02 0 011.056.628c.057.136.085.283.081.43a.977.977 0 01-.187.666.96.96 0 01-.578.371M117.406 40.09h-1.028v1.146h1.028a.54.54 0 00.439-.143.554.554 0 00.174-.43.553.553 0 00-.378-.551.543.543 0 00-.235-.023zm.372 1.587l.722 1.455h-.612l-.7-1.411h-.81v1.411h-.524v-3.506h1.552a1.023 1.023 0 011.057.628c.057.136.085.283.081.43a.977.977 0 01-.187.666.96.96 0 01-.579.371M119.615 43.199v-3.573h2.275v.507h-1.75v.883h1.028v.529h-1.028v1.125h1.837v.529h-2.362zM124.426 41.765v1.411h-.525v-1.411l-1.268-2.205h.612l.547.97c.131.22.306.573.372.706l.372-.706.546-.97h.613l-1.269 2.205zM127.663 43.243c-.919 0-1.487-.75-1.487-1.83 0-1.081.568-1.853 1.487-1.853a1.282 1.282 0 011.203.662l-.459.308a.804.804 0 00-.744-.441c-.612 0-.94.508-.94 1.324 0 .816.328 1.3.94 1.3a.865.865 0 00.787-.44l.438.286a1.35 1.35 0 01-1.225.684zM131.12 40.089c-.612 0-.962.507-.962 1.323s.35 1.301.962 1.301c.613 0 .963-.507.963-1.3 0-.795-.35-1.324-.963-1.324zm0 3.154c-.918 0-1.509-.75-1.509-1.83 0-1.081.591-1.853 1.509-1.853.919 0 1.488.771 1.488 1.852 0 1.08-.569 1.83-1.488 1.83zM135.164 40.09h-1.028v1.146h1.028a.542.542 0 00.438-.143.544.544 0 00.175-.43.544.544 0 00-.378-.55.545.545 0 00-.235-.024zm.372 1.587l.722 1.455h-.613l-.699-1.411h-.81v1.411h-.525v-3.506h1.553a1.025 1.025 0 011.057.628c.057.136.085.283.081.43a.977.977 0 01-.187.666.96.96 0 01-.579.371M138.861 40.089h-.963v1.213h.963a.613.613 0 00.497-.607.612.612 0 00-.497-.606zm0 1.72h-.919v1.323h-.59v-3.506h1.487a1.02 1.02 0 01.824.283 1.03 1.03 0 01.313.82 1.058 1.058 0 01-1.181 1.124" fill="#1D1D1B"/></svg>