<svg width="140" height="44" fill="none" xmlns="http://www.w3.org/2000/svg" viewBox="0 0 140 44"><path d="M104.976.062H0v35.291h104.976V.062z" fill="#FCBC00"/><path d="M139.998.062h-35v35.291h35V.062z" fill="#1D1D1B"/><path d="M116.002 23.59a2.222 2.222 0 00.772-1.847v-2.58h-3.595v3.492a.917.917 0 01-.264.645.902.902 0 01-.983.197.895.895 0 01-.478-.495.896.896 0 01-.061-.347v-9.918a.895.895 0 01.539-.842.902.902 0 01.983.197.917.917 0 01.264.645v3.514h3.595v-3.647c0-2.024-1.323-3.691-4.543-3.691s-4.411 1.667-4.411 3.691v10.363a3.542 3.542 0 001.066 2.54 3.5 3.5 0 002.551.995h1.103l3.462-2.913zM130.162 24.012V12.604h-2.492V9.246h8.998v3.358h-2.492v13.877h-1.081l-2.933-2.469zM125.529 9.268h-5.006l-2.933 13.143 5.447-4.448 5.646 4.76-3.154-13.455zm-3.462 7.895l.97-4.982.948 4.982h-1.918zM137.35 10.158a1.084 1.084 0 01.317-.763 1.061 1.061 0 01.763-.304c.293 0 .573.117.78.325a1.116 1.116 0 010 1.573 1.098 1.098 0 01-.78.325 1.049 1.049 0 01-.763-.304 1.084 1.084 0 01-.317-.763v-.09zm1.962.089a.893.893 0 00-.544-.822.876.876 0 00-.962.193.894.894 0 00.134 1.368.877.877 0 001.114-.11.89.89 0 00.258-.63zm-1.102 0v.556h-.199V9.535h.353c.243 0 .485 0 .485.356a.334.334 0 01-.264.29c.176 0 .198 0 .22.244v.378h-.242v-.489h-.177l-.176-.067zm.198-.2c.199 0 .221 0 .221-.178s0-.134-.199-.134h-.22v.312h.198z" fill="#fff"/><path d="M132.103 26.502h-18.437l9.351-7.471 9.086 7.471z" fill="#FDC42E"/><path d="M20.223 14.983c0-1-.11-2.557-1.434-2.557-1.323 0-1.632 1.49-1.632 5.581 0 4.092.199 5.537 1.632 5.537 1.434 0 1.654-1.111 1.654-3.224v-.49h-1.698v-2.4h4.94v8.227h-2.448v-1.468c-.29.604-.762 1.101-1.347 1.42a3.153 3.153 0 01-1.917.36c-3.815 0-4.41-2.87-4.41-7.673s.33-8.272 5.403-8.272a4.202 4.202 0 011.951.206 4.23 4.23 0 011.65 1.072c.46.482.8 1.067.994 1.706.194.64.237 1.316.124 1.975h-3.462zM26.066 10.313h8.8v2.914h-5.227v3.09h4.896v2.914H29.64v3.513h5.47v2.913h-9.043V10.313zM37.139 10.313h4.124l2.933 9.963h.044v-9.963h3.33v15.344h-4.058l-3.131-10.562h-.045v10.562H37.14V10.313zM52.42 13.227h-3.197v-2.914h9.99v2.914h-3.22v12.43H52.42v-12.43zM60.867 10.313h5.999a3.633 3.633 0 013.002 1.01c.394.385.697.853.888 1.37a3.72 3.72 0 01.212 1.623c0 2.224-.904 3.336-2.558 3.736 2.205.311 2.404 1.757 2.448 3.825 0 3.024.176 3.336.683 3.536v.2h-3.749a7.104 7.104 0 01-.375-3.113c0-2.669-.375-3.225-1.5-3.225H64.55v6.338h-3.572l-.11-15.3zm3.573 6.472h1.103a1.754 1.754 0 001.392-.563 1.781 1.781 0 00.46-1.439c0-1.156-.44-1.934-1.874-1.934H64.44v3.936zM76.327 10.313h4.41l3.794 15.344h-3.705l-.552-2.913h-3.66l-.53 2.913h-3.705l3.948-15.344zm2.205 2.802l-1.257 6.827h2.602l-1.345-6.827zM92.162 15.65c0-2.223-.243-3.224-1.434-3.224-1.19 0-1.565 1.379-1.565 5.382 0 4.558.154 5.737 1.654 5.737s1.455-1.512 1.477-3.914h3.463v.556c0 3.291-.927 5.782-5.36 5.782-4.432 0-4.962-3.47-4.962-8.095 0-3.936.221-7.85 5.293-7.85 3.154 0 4.874 1.357 4.874 4.982v.644h-3.44zM66.644 43.247c-.882 0-1.345-.578-1.345-1.556v-2.068h.53v2.045c0 .668.286 1.023.815 1.023.53 0 .816-.333.816-.978v-2.09h.53v2.068c0 1-.464 1.556-1.346 1.556zM71.322 43.114L70 40.89l-.265-.422v2.646h-.529v-3.558h.551l1.346 2.224.286.511v-2.669h.508v3.492h-.574zM74.608 41.046c0-.267-.243-.667-.287-.823a7.585 7.585 0 01-.242.823l-.287.8h1.08l-.264-.8zm.728 2.224l-.287-.846h-1.412l-.308.846h-.552l1.28-3.559h.573l1.279 3.559h-.573zM78.469 43.18v-3.557h2.293v.511h-1.764v.89h1.037v.511h-1.037v1.134h1.83v.512h-2.36zM84.489 43.114v-2.446l-.22.556-.86 2.023-.86-2.023c0-.2-.177-.445-.221-.556-.044-.112 0 .422 0 .622v1.824h-.508v-3.558h.53l.816 1.89c0 .2.198.467.242.623.061-.212.135-.42.22-.623l.795-1.89h.551v3.558h-.485zM87.641 40.112h-.948v1.223h.948a.547.547 0 00.585-.357.56.56 0 00.033-.244.582.582 0 00-.374-.589.57.57 0 00-.244-.033zm0 1.734h-.926v1.268h-.53v-3.558h1.456a1.029 1.029 0 01.816.295 1.047 1.047 0 01.309.817 1.075 1.075 0 01-.331.827 1.057 1.057 0 01-.838.285M91.28 40.112h-1.036v1.157h1.037a.525.525 0 00.564-.344.537.537 0 00.031-.235.56.56 0 00-.365-.547.548.548 0 00-.23-.03zm.353 1.601l.728 1.468h-.617l-.706-1.401h-.794v1.334h-.53v-3.558h1.567a.986.986 0 011.06.63c.054.14.076.289.064.438a.962.962 0 01-.19.661.947.947 0 01-.582.362M93.486 43.18v-3.557h2.272v.511h-1.742v.89h1.014v.511h-1.014v1.134h1.83v.512h-2.36zM97.831 43.247a1.708 1.708 0 01-1.257-.578l.375-.378a1.303 1.303 0 00.927.423c.485 0 .727-.178.727-.512 0-.333-.198-.422-.794-.6-.595-.178-1.102-.423-1.102-1.045a1.052 1.052 0 01.365-.761 1.034 1.034 0 01.803-.24 1.555 1.555 0 011.147.49l-.375.377a1.057 1.057 0 00-.816-.333c-.419 0-.595.2-.595.444 0 .245.154.356.772.556.617.2 1.147.423 1.147 1.068s-.42 1.09-1.324 1.09zM101.646 41.046l-.264-.823c0 .156-.155.556-.243.823l-.287.8h1.081l-.287-.8zm.75 2.224l-.287-.846h-1.411l-.309.846h-.551l1.279-3.559h.551l1.412 3.403-.684.156zM106.057 40.134v.934h1.014v.534h-1.014v1.579h-.53v-3.558h2.272v.511h-1.742zM108.727 43.18v-3.557h2.271v.511h-1.742v.89h1.014v.511h-1.014v1.134h1.83v.512h-2.359zM113.642 40.112h-1.037v1.157h1.037a.524.524 0 00.564-.344.523.523 0 00.031-.235.55.55 0 00-.595-.578zm.353 1.601l.728 1.468h-.618l-.706-1.401h-.794v1.334h-.529v-3.558h1.566a.985.985 0 01.815.263 1.005 1.005 0 01.31.805.967.967 0 01-.19.661.948.948 0 01-.582.362M117.393 40.112h-1.081v1.156h1.036a.548.548 0 00.578-.342.562.562 0 00.04-.236.579.579 0 00-.618-.578h.045zm.308 1.6l.816 1.402h-.595l-.706-1.401h-.904v1.4h-.507v-3.557h1.543a1.006 1.006 0 01.822.262 1.016 1.016 0 01.325.805.984.984 0 01-.204.664.968.968 0 01-.59.36M119.598 43.18v-3.557h2.293v.511h-1.764v.89h1.037v.511h-1.037v1.134h1.83v.512h-2.359zM124.405 41.78v1.334h-.529V41.78l-1.257-2.224h.618l.551.978c.11.223.309.578.353.712.044.133.242-.49.375-.712l.551-.978h.618l-1.28 2.224zM127.648 43.248c-.904 0-1.5-.779-1.5-1.846 0-1.068.596-1.846 1.5-1.846a1.294 1.294 0 011.213.667l-.485.29a.755.755 0 00-.728-.423c-.617 0-.948.511-.948 1.312 0 .8.331 1.29.948 1.29a.855.855 0 00.794-.423l.419.29a1.294 1.294 0 01-1.213.69zM131.109 40.09c-.617 0-.97.51-.97 1.311 0 .801.353 1.29.97 1.29.618 0 .948-.489.948-1.29 0-.8-.33-1.312-.948-1.312zm0 3.157c-.926 0-1.5-.778-1.5-1.846 0-1.067.574-1.845 1.5-1.845s1.5.756 1.5 1.846-.596 1.845-1.5 1.845zM135.168 40.112h-1.037v1.156h1.037a.525.525 0 00.564-.343.523.523 0 00.031-.235.55.55 0 00-.168-.424.551.551 0 00-.427-.154zm.353 1.601l.639 1.401h-.617l-.706-1.401h-.794v1.401h-.529v-3.558h1.566a1.008 1.008 0 011.052.634c.055.138.08.285.072.433a.957.957 0 01-.772 1.023M138.828 40.112h-.948v1.223h.948a.55.55 0 00.585-.357.576.576 0 00.033-.244.589.589 0 00-.167-.455.566.566 0 00-.451-.167zm0 1.734h-.926v1.268h-.507v-3.558h1.477a1.028 1.028 0 01.816.295 1.041 1.041 0 01.309.817 1.081 1.081 0 01-.331.827 1.054 1.054 0 01-.838.285" fill="#1D1D1B"/></svg>