<svg width="100" height="101" fill="none" xmlns="http://www.w3.org/2000/svg" viewBox="0 0 100 101"><g clip-path="url(#clip0)"><path d="M50 100.954c27.614 0 50-22.386 50-50s-22.386-50-50-50-50 22.386-50 50 22.386 50 50 50z" fill="#E93E11"/><path d="M22.377 33.013V66.39h55.247V33.013a2.026 2.026 0 00-2.026-2.026H24.403a2.025 2.025 0 00-2.026 2.026z" fill="#575B6D"/><path d="M25.09 33.7h49.819v29.978h-49.82V33.7z" fill="#28B7CD"/><path d="M80.495 66.392h-61.29c-.683 0-1.236.741-1.236 1.656V69H81.73v-.953c0-.915-.554-1.656-1.236-1.656zM24.738 70.921a13.216 13.216 0 01-6.77-1.92h63.763a13.215 13.215 0 01-6.77 1.918l-50.223.002z" fill="#DBD8DD"/><path d="M19.506 66.392h61.29c.683 0 1.236.741 1.236 1.656V69H18.27v-.953c0-.915.553-1.656 1.236-1.656z" fill="#EEEFEE"/><path d="M54.746 46.635c.507 0 .917-.509.917-1.136 0-.628-.41-1.137-.916-1.137-.507 0-.917.509-.917 1.136 0 .628.41 1.137.916 1.137zM45.344 44.362a1.164 1.164 0 10.918 1.136 1.043 1.043 0 00-.918-1.136z" fill="#F4BB87"/><path d="M60.568 55.28a3.275 3.275 0 00-2.357-2.553 48.292 48.292 0 01-5.692-2.374 4.725 4.725 0 01-5.039 0 48.292 48.292 0 01-5.692 2.374 3.276 3.276 0 00-2.356 2.553v4.105h21.136V55.28z" fill="#62667C"/><path d="M50.938 59.385a25.828 25.828 0 002.468-6.945L50 52.032l-3.408.408a25.854 25.854 0 002.468 6.945h1.878z" fill="#DBD8DD"/><path d="M52.52 49.507v.846L50 52.033l-2.52-1.68v-.846h5.04z" fill="#F4BB87"/><path d="M54.742 44.362c.054 2.631-.925 5.091-3.668 5.895-.67.194-1.38.194-2.05 0-2.743-.804-3.734-3.264-3.68-5.895 0 0-.708-5.25 2.285-5.349 2.993-.098 7.017 1.863 7.017 1.863a8.198 8.198 0 01.096 3.486z" fill="#FED19A"/><path d="M48.67 52.041l.85 1.34h.958l.85-1.34H48.67z" fill="#DA364C"/><path d="M50.534 59.385l.703-.79-.757-5.215h-.958l-.756 5.214.703.791h1.065z" fill="#EF5261"/><path d="M47.48 50.353L50 52.032l-2.658 1.679.139-3.358zM52.52 50.353L50 52.032l2.659 1.679-.14-3.358z" fill="#EEEFEE"/><path d="M45.137 53.383l1.328-.14-.424 1.544a31.043 31.043 0 002.713 4.598H50c-1.228-3.151-2.602-6.185-2.52-9.032a7.312 7.312 0 00-2.344 3.03zM54.864 53.383l-1.328-.14.423 1.544a31.043 31.043 0 01-2.712 4.598H50c1.228-3.151 2.602-6.185 2.52-9.032a7.312 7.312 0 012.344 3.03z" fill="#575B6D"/><path d="M55.646 40.998c-.141-1.159-.749-2.094-2.176-2.032 0 0-.126-1.797-3.385-1.797a6.257 6.257 0 00-3.314 1.008l-.028.018a4.91 4.91 0 00-1.709 5.625c.08.194.185.376.313.542l.188-.891a2.11 2.11 0 011.276-1.484c1.111-.457 1.93-1.329 2.94-.97a3.7 3.7 0 001.424.216 3.273 3.273 0 012.94 1.099c.425.591.647 1.304.634 2.031l.342-.658c.453-.826.646-1.77.555-2.707z" fill="#414451"/></g><defs><clipPath id="clip0"><path fill="#fff" transform="translate(0 .954)" d="M0 0h100v100H0z"/></clipPath></defs></svg>