<svg width="100" height="101" fill="none" xmlns="http://www.w3.org/2000/svg" viewBox="0 0 100 101"><g clip-path="url(#clip0)"><path d="M50 100.954c27.614 0 50-22.386 50-50s-22.386-50-50-50-50 22.386-50 50 22.386 50 50 50z" fill="#69B0EE"/><path d="M80.91 51.316a3.83 3.83 0 001.11-3.016 3.989 3.989 0 00-4.045-3.562H58.192c3.543-2.045 7.178-7.578 8.111-13.754a4.16 4.16 0 00-3.787-4.679l-.215-.019a4.21 4.21 0 00-4.342 2.845c-2.122 3.838-4.725 7.02-8.282 8.9a30.426 30.426 0 00-7.148 5.078c-2.872 2.812-6.935 6.23-10.033 6.742v23.196c2.305.4 4.844.955 6.827 1.415 2.387.553 4.827.841 7.276.86l22.735.208a3.85 3.85 0 100-7.699h2.958a3.816 3.816 0 003.767-3.092 3.859 3.859 0 00-3.767-4.607h2.942a3.94 3.94 0 002.734-1.12 3.859 3.859 0 00-2.734-6.578h2.957a3.813 3.813 0 002.718-1.118z" fill="#FED19A"/><path d="M30.69 47.819H19.774c-.998 0-1.806.808-1.806 1.806v24.21c0 .997.808 1.806 1.806 1.806h10.914c.998 0 1.806-.809 1.806-1.806v-24.21c0-.998-.808-1.806-1.806-1.806z" fill="#575B6D"/><path d="M25.235 67.684a2.206 2.206 0 100 4.411 2.206 2.206 0 000-4.411z" fill="#DBD8DD"/></g><defs><clipPath id="clip0"><path fill="#fff" transform="translate(0 .954)" d="M0 0h100v100H0z"/></clipPath></defs></svg>