<svg width="100" height="101" fill="none" xmlns="http://www.w3.org/2000/svg" viewBox="0 0 100 101"><g clip-path="url(#clip0)"><path d="M50 100.954c27.614 0 50-22.386 50-50s-22.386-50-50-50-50 22.386-50 50 22.386 50 50 50z" fill="#28B7CD"/><path d="M82.031 44.2v35.796H17.983l22.844-18.038L17.969 44.2 50 16.187 82.031 44.2z" fill="#E38D06"/><path d="M24.146 22.804h51.356v42.484H24.147V22.804z" fill="#EEEFEE"/><path d="M28.484 55.736h42.68v1.166h-42.68v-1.166zM45.643 26.555h25.522v1.167H45.643v-1.167zM45.643 32.391h25.522v1.166H45.643v-1.166zM45.643 38.227h25.522v1.167H45.643v-1.167zM28.484 44.063h42.68v1.166h-42.68v-1.166zM28.484 49.899h42.68v1.166h-42.68V49.9z" fill="#9B9B9B"/><path d="M59.174 61.958l22.844 18.038h.014V44.2L59.174 61.958zM40.827 61.958L17.983 79.996h-.014V44.2l22.858 17.758z" fill="#FF9E06"/><path d="M82.017 79.996H17.982l22.843-18.038h18.349l22.843 18.038z" fill="#E38D06"/><path d="M35.171 33.507a3.476 3.476 0 100-6.952 3.476 3.476 0 000 6.952z" fill="#9B9B9B"/><path d="M41.718 39.392H28.635a6.54 6.54 0 0113.08 0h.003z" fill="#9B9B9B"/></g><defs><clipPath id="clip0"><path fill="#fff" transform="translate(0 .954)" d="M0 0h100v100H0z"/></clipPath></defs></svg>