<svg width="100" height="101" fill="none" xmlns="http://www.w3.org/2000/svg" viewBox="0 0 100 101"><g clip-path="url(#clip0)"><path d="M50 100.954c27.614 0 50-22.386 50-50s-22.386-50-50-50-50 22.386-50 50 22.386 50 50 50z" fill="#3B5059"/><path d="M50 78.94a27.986 27.986 0 1127.986-27.986A28.018 28.018 0 0150 78.94zm0-53.281A25.291 25.291 0 1075.29 50.954 25.32 25.32 0 0050 25.663v-.004z" fill="#EEEFEE"/><path d="M23.665 58.368a6.868 6.868 0 100-13.736 6.868 6.868 0 000 13.736z" fill="#EF5261"/><path d="M23.665 56.19a4.69 4.69 0 100-9.38 4.69 4.69 0 000 9.38z" fill="#DA364C"/><path d="M76.335 57.276a6.868 6.868 0 100-13.736 6.868 6.868 0 000 13.736z" fill="#2CBFAE"/><path d="M76.334 55.098a4.69 4.69 0 100-9.38 4.69 4.69 0 000 9.38z" fill="#16A897"/><path d="M50.546 84.157a6.868 6.868 0 100-13.736 6.868 6.868 0 000 13.736z" fill="#F6C863"/><path d="M50.545 81.98a4.69 4.69 0 100-9.38 4.69 4.69 0 000 9.38z" fill="#EAB54E"/><path d="M49.454 31.487a6.868 6.868 0 100-13.736 6.868 6.868 0 000 13.736z" fill="#69B0EE"/><path d="M49.453 29.309a4.69 4.69 0 100-9.38 4.69 4.69 0 000 9.38z" fill="#419BE9"/><path d="M63.434 60.384v2.93a1.562 1.562 0 01-1.563 1.562H38.13a1.562 1.562 0 01-1.563-1.563v-2.93a3.959 3.959 0 012.344-3.62l7.459-3.086 7.254.004 7.47 3.083a3.96 3.96 0 012.34 3.62z" fill="#2CBFAE"/><path d="M46.39 51.657v3.03c.455.567.71.885 1.166 1.048h4.928c.455-.163.71-.48 1.165-1.049v-3.029h-7.258z" fill="#F4BB87"/><path d="M48.197 55.736l1.107 1.838h1.385l1.106-1.838h-3.598z" fill="#DA364C"/><path d="M51.522 63.713l-1.528 1.163-1.53-1.163.84-6.136h1.38l.838 6.136z" fill="#EF5261"/><path d="M53.62 53.682a4.046 4.046 0 01-1.51 4.147l-2.09-2.09 3.6-2.057zM46.366 53.677a4.086 4.086 0 001.563 4.149l2.09-2.09-3.653-2.06z" fill="#EEEFEE"/><path d="M56.318 46.282a1.275 1.275 0 010 2.53h-1.105v-2.53h1.105zM43.878 46.282a1.276 1.276 0 000 2.53h1.105v-2.53h-1.105z" fill="#F4BB87"/><path d="M43.877 48.526a4.897 4.897 0 001.883 3.86l1.255.98a4.896 4.896 0 006.028 0l1.254-.98a4.898 4.898 0 001.882-3.86v-7.11H43.877v7.11z" fill="#FED19A"/><path d="M45.553 42.447a9.205 9.205 0 01-1.676 3.864c-.805-.749-1.19-5.888 1.634-7.744 2.295-1.705 6.497-2.559 8.936.527 2.578 1.34 2.676 4.345 1.735 7.188l-.92-.977-.014-.022a26.93 26.93 0 00-5.326-1.543 15.115 15.115 0 01-4.37-1.293z" fill="#62667C"/></g><defs><clipPath id="clip0"><path fill="#fff" transform="translate(0 .954)" d="M0 0h100v100H0z"/></clipPath></defs></svg>