<svg width="100" height="101" fill="none" xmlns="http://www.w3.org/2000/svg" viewBox="0 0 100 101"><g clip-path="url(#clip0)"><path d="M50 100.915c27.614 0 50-22.572 50-50.417C100 22.654 77.614.083 50 .083S0 22.654 0 50.498c0 27.845 22.386 50.417 50 50.417z" fill="#F6C863"/><path d="M36.057 63.013h1.365c.207 0 .406.083.552.23a.791.791 0 01.23.557v3.006c0 .209-.083.41-.23.557a.778.778 0 01-.552.23h-1.367V63.01l.002.004z" fill="#DA364C"/><path d="M36.35 56.977V78.37a3.13 3.13 0 01-.903 2.198 3.08 3.08 0 01-2.179.91H30.51a3.059 3.059 0 01-2.18-.91 3.11 3.11 0 01-.901-2.198V56.977h8.922zM76.095 21.847v44.345a2.346 2.346 0 01-.67 1.659 2.307 2.307 0 01-1.641.687h-.022a2.295 2.295 0 01-1.64-.69 2.33 2.33 0 01-.669-1.659V21.847a2.34 2.34 0 01.676-1.647 2.305 2.305 0 011.633-.681h.022a2.288 2.288 0 011.635.68 2.326 2.326 0 01.676 1.648z" fill="#EF5261"/><path d="M82.031 44.035c0 1.588-.625 3.111-1.739 4.234a5.913 5.913 0 01-4.198 1.753V38.041a5.93 5.93 0 014.196 1.76 6.029 6.029 0 011.741 4.234z" fill="#EEEFEE"/><path d="M80.977 41.682a6.017 6.017 0 01-1.385 3.834 5.927 5.927 0 01-3.498 2.049V38.04a5.865 5.865 0 012.66.634 5.919 5.919 0 012.09 1.775c.087.405.132.818.133 1.232zM71.452 21.991c-.132.055-8.505 9.352-32.302 8.142v27.795c23.797-2.545 32.17 8.09 32.302 8.142" fill="#EEEFEE"/><path d="M39.14 30.142v27.772H26.217a8.213 8.213 0 01-5.832-2.435 8.35 8.35 0 01-2.415-5.88v-11.14c0-1.093.213-2.174.627-3.183a8.322 8.322 0 011.788-2.698 8.245 8.245 0 012.675-1.803c1.001-.418 2.074-.633 3.157-.633H39.14z" fill="#EF5261"/><path d="M27.428 57.914h8.922v2.894h-8.922v-2.894z" fill="#DA364C"/></g><defs><clipPath id="clip0"><path fill="#fff" transform="translate(0 .082)" d="M0 0h100v100.833H0z"/></clipPath></defs></svg>