<svg width="100" height="100" fill="none" xmlns="http://www.w3.org/2000/svg" viewBox="0 0 100 100"><path d="M50 100c27.614 0 50-22.386 50-50S77.614 0 50 0 0 22.386 0 50s22.386 50 50 50z" fill="#9DC31F"/><path d="M59.575 73.533l-2.22-7.832h-14.71l-2.221 7.832h19.151z" fill="#414451"/><path d="M65.728 75.697c-.1-2.109-.72-2.763-1.503-2.763H35.774c-.781 0-1.403.65-1.502 2.763h31.456zM79.634 24.302H20.366A2.398 2.398 0 0017.97 26.7v38a2.398 2.398 0 002.397 2.398h59.268a2.398 2.398 0 002.397-2.397V26.7a2.398 2.398 0 00-2.397-2.398z" fill="#575B6D"/><path d="M78.582 26.565H21.42a.781.781 0 00-.781.781v31.626c0 .431.35.781.78.781h57.163c.431 0 .78-.35.78-.781V27.346a.781.781 0 00-.78-.781z" fill="#69B0EE"/><path d="M50 62.194a1.467 1.467 0 100 2.935 1.467 1.467 0 000-2.935z" fill="#828A9E"/><path d="M36.238 34.481v20.123a.757.757 0 00.757.757h26.032a.756.756 0 00.757-.757V34.481H36.238z" fill="#EEEFEE"/><path d="M63.005 30.957H36.973a.755.755 0 00-.756.757v5.433h27.545v-5.433a.757.757 0 00-.757-.757z" fill="#62667C"/><path d="M60.822 34.87a.818.818 0 100-1.636.818.818 0 000 1.636z" fill="#EF5261"/><path d="M53.922 34.87a.818.818 0 100-1.636.818.818 0 000 1.636z" fill="#F6C863"/><path d="M57.373 34.87a.818.818 0 100-1.636.818.818 0 000 1.636z" fill="#2CBFAE"/><path d="M50.64 33.463H39.122a.59.59 0 100 1.179h11.52a.59.59 0 100-1.18z" fill="#EEEFEE"/><path d="M39.098 39.866h5.091v5.092h-5.091v-5.092zM46.719 39.866h14.183v5.092H46.72v-5.092zM39.098 47.207h21.804v5.435H39.098v-5.435z" fill="#DBD8DD"/></svg>