<svg width="140" height="40" fill="none" xmlns="http://www.w3.org/2000/svg" viewBox="0 0 140 40"><path d="M108.018.079H0v32.18h108.018V.08z" fill="#E30613"/><path d="M139.998.079h-31.959v32.18h31.959V.08z" fill="#1D1D1B"/><path d="M130.854 9.122h-8.925v5.669h-4.769v3.683h4.769v4.743h3.981v-4.743h4.944v-3.683h-4.944v-1.963h4.944V9.122z" fill="#DADADA"/><path d="M19.732 11.195H17.04l3.303 12.087h2.69l-3.302-12.087zM53.307 11.262h-8.444l-.765 2.14h3.346v9.88h2.516v-9.88h2.56l.787-2.14zM40.533 15.717c0-1.742-.35-2.47-2.34-2.47h-.197c-1.99 0-2.34.728-2.34 2.47v3.132c0 1.72.35 2.449 2.34 2.449h.197c1.99 0 2.34-.728 2.34-2.449v-3.132zm-2.537 7.742c-3.303 0-4.922-1.147-4.922-4.61v-3.132c0-3.507 1.575-4.632 4.922-4.632h.197c3.325 0 4.922 1.125 4.922 4.632v3.132c0 3.463-1.597 4.61-4.922 4.61h-.197zM61.206 15.717c0-1.742-.35-2.47-2.341-2.47h-.197c-1.99 0-2.34.728-2.34 2.47v3.132c0 1.72.35 2.449 2.34 2.449h.197c1.99 0 2.34-.728 2.34-2.449v-3.132zm-2.538 7.742c-3.303 0-4.922-1.147-4.922-4.61v-3.132c0-3.507 1.575-4.632 4.922-4.632h.197c3.325 0 4.922 1.125 4.922 4.632v3.132c0 3.463-1.597 4.61-4.922 4.61h-.197zM70.348 16.886c1.553 0 1.88-.33 1.88-1.742s-.327-1.743-1.88-1.743h-1.925v3.485h1.925zm-4.375 6.397V11.262h4.375c3.018 0 4.484.683 4.484 3.882 0 2.205-.678 3.198-2.188 3.617l2.188 4.411h-2.69l-1.947-4.256h-1.86v4.256l-2.362.11zM76.867 23.283V11.262h7.985v2.14h-5.47v2.624h4.616v2.14h-4.615v2.977h5.469v2.14h-7.985zM93.864 15.761c0-1.588-.306-2.36-2.472-2.36H89.49v7.742h1.86c2.187 0 2.472-.772 2.472-2.36l.043-3.022zm-6.846 7.522V11.262h4.79c4.113 0 4.638 1.5 4.638 4.411v3.022c0 3.375-.832 4.411-4.638 4.411l-4.79.177zM28.458 11.195h-2.69l3.303 12.087h2.69l-3.303-12.087z" fill="#fff"/><path d="M25.462 9.122l-5.118 14.16h3.762l5.097-14.16h-3.74zM16.732 9.122l-5.119 14.16h3.763l5.097-14.16h-3.741z" fill="#fff"/><path d="M73.105 39.45c-.787 0-1.203-.507-1.203-1.412v-1.896h.482v1.874c0 .618.24.949.743.949s.744-.31.744-.905v-1.918h.481v1.896c0 .927-.437 1.412-1.247 1.412zM77.393 39.34l-1.29-2.051-.241-.397v2.448h-.46v-3.176h.482l1.225 1.963.262.463v-2.426h.481v3.176h-.459zM80.368 37.443a4.86 4.86 0 01-.241-.75c0 .155-.153.53-.24.75l-.263.75h1.115l-.371-.75zm.678 1.963l-.285-.772h-1.268l-.285.772h-.503l1.16-3.242h.524l1.16 3.242h-.503zM83.889 39.406v-3.242h2.078v.463h-1.575v.794h.919v.485h-.92v1.015h1.663v.485H83.89zM89.488 39.34v-2.206s-.13.331-.197.508l-.787 1.83-.766-1.83c0-.177-.175-.42-.218-.508v2.206h-.438v-3.176h.481l.722 1.72c.09.18.171.364.24.552l.198-.552.722-1.72h.503v3.176h-.46zM92.268 36.605h-.875v1.125h.875a.478.478 0 00.528-.328.488.488 0 00.019-.224.51.51 0 00-.324-.544.5.5 0 00-.223-.029zm0 1.588h-.853v1.147h-.481v-3.176h1.356a.956.956 0 01.983.608c.05.129.074.268.067.406a.978.978 0 01-.303.759.96.96 0 01-.769.256zM95.57 36.605h-.941v1.058h.94a.477.477 0 00.459-.33.488.488 0 00.023-.199.51.51 0 00-.336-.502.5.5 0 00-.211-.027h.066zm.262 1.478l.656 1.323h-.437l-.657-1.28h-.721v1.214h-.482v-3.176h1.422a.933.933 0 01.746.242.949.949 0 01.304.728.931.931 0 01-.189.607.918.918 0 01-.533.342M97.582 39.406v-3.242h2.078v.463h-1.597v.794h.94v.485h-.94v1.015h1.663v.485h-2.144zM101.542 39.45a1.435 1.435 0 01-1.138-.53l.35-.33a1.166 1.166 0 00.832.397c.459 0 .678-.176.678-.485s-.197-.375-.744-.53c-.547-.154-1.006-.374-1.006-.97a.975.975 0 01.343-.684.951.951 0 01.729-.22c.394 0 .771.16 1.05.44l-.35.354a.903.903 0 00-.744-.309c-.372 0-.525.177-.525.397 0 .22.131.353.7.507.569.155 1.028.397 1.028.993 0 .595-.372.97-1.203.97zM105.041 37.443c-.1-.243-.18-.493-.24-.75 0 .155-.153.53-.241.75l-.262.75h.984l-.241-.75zm.679 1.963l-.285-.772h-1.29l-.263.772h-.503l1.159-3.242h.503l1.182 3.242h-.503zM109.046 36.627v.86h.94v.485h-.94v1.434h-.482v-3.242h2.079v.463h-1.597zM111.473 39.406v-3.242h2.078v.463h-1.597v.794h.941v.485h-.941v1.015h1.684v.485h-2.165zM115.957 36.605h-.941v1.058h.941a.48.48 0 00.547-.529.51.51 0 00-.336-.502.496.496 0 00-.211-.027zm.328 1.478l.656 1.323h-.547l-.656-1.28h-.722v1.214h-.481v-3.176h1.422a.935.935 0 01.976.573.95.95 0 01.074.397.933.933 0 01-.189.607.918.918 0 01-.533.342zM119.391 36.605h-.94v1.059h.94a.479.479 0 00.52-.313.483.483 0 00.027-.217.498.498 0 00-.335-.502.5.5 0 00-.212-.027zm.329 1.478l.656 1.323h-.569l-.634-1.28h-.722v1.214h-.525v-3.176h1.422a.913.913 0 01.963.575.94.94 0 01.065.395.916.916 0 01-.175.606.898.898 0 01-.525.343M121.404 39.406v-3.242h2.078v.463h-1.596v.794h.918v.485h-.918v1.015h1.662v.485h-2.144zM125.779 38.127v1.213h-.481v-1.28l-1.159-1.962h.568l.504.882c.109.199.284.53.328.64l.328-.64.525-.882h.547l-1.16 2.029zM128.733 39.45c-.831 0-1.356-.683-1.356-1.676 0-.992.525-1.676 1.356-1.676a1.153 1.153 0 011.094.617l-.416.265a.72.72 0 00-.678-.397c-.569 0-.853.463-.853 1.191s.284 1.191.853 1.191a.759.759 0 00.722-.397l.394.265a1.228 1.228 0 01-1.116.617zM131.884 36.583c-.569 0-.875.463-.875 1.19 0 .729.306 1.192.875 1.192.568 0 .875-.463.875-1.191s-.307-1.191-.875-1.191zm0 2.867c-.832 0-1.357-.684-1.357-1.676 0-.993.525-1.676 1.357-1.676.831 0 1.378.706 1.378 1.676s-.547 1.676-1.378 1.676zM135.582 36.605h-.941v1.058h.941a.48.48 0 00.547-.529.51.51 0 00-.336-.502.496.496 0 00-.211-.027zm.328 1.478l.656 1.323h-.547l-.656-1.28h-.722v1.214h-.481v-3.176h1.422a.935.935 0 01.976.573.95.95 0 01.074.397.933.933 0 01-.189.607.918.918 0 01-.533.342zM138.926 36.605h-.853v1.125h.853a.5.5 0 00.54-.327.505.505 0 00.028-.225.532.532 0 00-.343-.543.521.521 0 00-.225-.03zm0 1.588h-.831v1.147h-.482v-3.177h1.356a.938.938 0 01.971.61c.048.129.068.267.058.405a.97.97 0 01-1.072 1.015z" fill="#1D1D1B"/><path d="M73.105 39.45c-.787 0-1.203-.507-1.203-1.412v-1.896h.482v1.874c0 .618.24.949.743.949s.744-.31.744-.905v-1.918h.481v1.896c0 .927-.437 1.412-1.247 1.412zM77.393 39.34l-1.29-2.051-.241-.397v2.448h-.46v-3.176h.482l1.225 1.963.262.463v-2.426h.481v3.176h-.459zM80.368 37.443a4.86 4.86 0 01-.241-.75c0 .155-.153.53-.24.75l-.263.75h1.115l-.371-.75zm.678 1.963l-.285-.772h-1.268l-.285.772h-.503l1.16-3.242h.524l1.16 3.242h-.503zM83.889 39.406v-3.242h2.078v.463h-1.575v.794h.919v.485h-.92v1.015h1.663v.485H83.89zM89.488 39.34v-2.206s-.13.331-.197.508l-.787 1.83-.766-1.83c0-.177-.175-.42-.218-.508v2.206h-.438v-3.176h.481l.722 1.72c.09.18.171.364.24.552l.198-.552.722-1.72h.503v3.176h-.46zM92.268 36.605h-.875v1.125h.875a.478.478 0 00.528-.328.488.488 0 00.019-.224.51.51 0 00-.324-.544.5.5 0 00-.223-.029zm0 1.588h-.853v1.147h-.481v-3.176h1.356a.956.956 0 01.983.608c.05.129.074.268.067.406a.978.978 0 01-.303.759.96.96 0 01-.769.256zM95.57 36.605h-.941v1.058h.94a.477.477 0 00.459-.33.488.488 0 00.023-.199.51.51 0 00-.336-.502.5.5 0 00-.211-.027h.066zm.262 1.478l.656 1.323h-.437l-.657-1.28h-.721v1.214h-.482v-3.176h1.422a.933.933 0 01.746.242.949.949 0 01.304.728.931.931 0 01-.189.607.918.918 0 01-.533.342M97.582 39.406v-3.242h2.078v.463h-1.597v.794h.94v.485h-.94v1.015h1.663v.485h-2.144zM101.542 39.45a1.435 1.435 0 01-1.138-.53l.35-.33a1.166 1.166 0 00.832.397c.459 0 .678-.176.678-.485s-.197-.375-.744-.53c-.547-.154-1.006-.374-1.006-.97a.975.975 0 01.343-.684.951.951 0 01.729-.22c.394 0 .771.16 1.05.44l-.35.354a.903.903 0 00-.744-.309c-.372 0-.525.177-.525.397 0 .22.131.353.7.507.569.155 1.028.397 1.028.993 0 .595-.372.97-1.203.97zM105.041 37.443c-.1-.243-.18-.493-.24-.75 0 .155-.153.53-.241.75l-.262.75h.984l-.241-.75zm.679 1.963l-.285-.772h-1.29l-.263.772h-.503l1.159-3.242h.503l1.182 3.242h-.503zM109.046 36.627v.86h.94v.485h-.94v1.434h-.482v-3.242h2.079v.463h-1.597zM111.473 39.406v-3.242h2.078v.463h-1.597v.794h.941v.485h-.941v1.015h1.684v.485h-2.165zM115.957 36.605h-.941v1.058h.941a.48.48 0 00.547-.529.51.51 0 00-.336-.502.496.496 0 00-.211-.027zm.328 1.478l.656 1.323h-.547l-.656-1.28h-.722v1.214h-.481v-3.176h1.422a.935.935 0 01.976.573.95.95 0 01.074.397.933.933 0 01-.189.607.918.918 0 01-.533.342zM119.391 36.605h-.94v1.059h.94a.479.479 0 00.52-.313.483.483 0 00.027-.217.498.498 0 00-.335-.502.5.5 0 00-.212-.027zm.329 1.478l.656 1.323h-.569l-.634-1.28h-.722v1.214h-.525v-3.176h1.422a.913.913 0 01.963.575.94.94 0 01.065.395.916.916 0 01-.175.606.898.898 0 01-.525.343M121.404 39.406v-3.242h2.078v.463h-1.596v.794h.918v.485h-.918v1.015h1.662v.485h-2.144zM125.779 38.127v1.213h-.481v-1.28l-1.159-1.962h.568l.504.882c.109.199.284.53.328.64l.328-.64.525-.882h.547l-1.16 2.029zM128.733 39.45c-.831 0-1.356-.683-1.356-1.676 0-.992.525-1.676 1.356-1.676a1.153 1.153 0 011.094.617l-.416.265a.72.72 0 00-.678-.397c-.569 0-.853.463-.853 1.191s.284 1.191.853 1.191a.759.759 0 00.722-.397l.394.265a1.228 1.228 0 01-1.116.617zM131.884 36.583c-.569 0-.875.463-.875 1.19 0 .729.306 1.192.875 1.192.568 0 .875-.463.875-1.191s-.307-1.191-.875-1.191zm0 2.867c-.832 0-1.357-.684-1.357-1.676 0-.993.525-1.676 1.357-1.676.831 0 1.378.706 1.378 1.676s-.547 1.676-1.378 1.676zM135.582 36.605h-.941v1.058h.941a.48.48 0 00.547-.529.51.51 0 00-.336-.502.496.496 0 00-.211-.027zm.328 1.478l.656 1.323h-.547l-.656-1.28h-.722v1.214h-.481v-3.176h1.422a.935.935 0 01.976.573.95.95 0 01.074.397.933.933 0 01-.189.607.918.918 0 01-.533.342zM138.926 36.605h-.853v1.125h.853a.5.5 0 00.54-.327.505.505 0 00.028-.225.532.532 0 00-.343-.543.521.521 0 00-.225-.03zm0 1.588h-.831v1.147h-.482v-3.177h1.356a.938.938 0 01.971.61c.048.129.068.267.058.405a.97.97 0 01-1.072 1.015z" fill="#1D1D1B"/></svg>