<svg width="140" height="44" fill="none" xmlns="http://www.w3.org/2000/svg" viewBox="0 0 140 44"><path d="M104.981.624H0v35.285h104.981V.624z" fill="#FCBC00"/><path d="M139.974.624H104.98v35.285h34.994V.624z" fill="#1D1D1B"/><path d="M115.968 24.103c.268-.223.479-.508.616-.83.137-.323.196-.674.172-1.023v-2.56h-3.59v3.508a.917.917 0 01-.919.905.866.866 0 01-.612-.274.894.894 0 01-.241-.63V13.29a.893.893 0 01.241-.631.873.873 0 01.612-.274.918.918 0 01.919.905v3.53h3.59V13.07c0-2.008-1.313-3.685-4.531-3.685-3.217 0-4.53 1.677-4.53 3.707v10.35a3.556 3.556 0 001.064 2.536 3.497 3.497 0 002.547.994h1.116l3.546-2.869zM130.147 24.567V13.18h-2.495V9.826h8.973v3.354h-2.473v13.858h-1.072l-2.933-2.471zM122.03 17.726l.985-4.965.963 4.965h-1.948zm3.48-7.9h-5.011l-2.911 13.24 5.427-4.413 5.668 4.766-3.173-13.593zM138.355 10.598c.197 0 .241 0 .241-.176 0-.177 0-.133-.197-.133h-.241v.31h.197zm-.197.199v.551h-.197v-1.257h.394c.241 0 .482 0 .482.353a.313.313 0 01-.241.286c.153 0 .175.11.197.243v.375h-.263v-.485h-.175l-.197-.066zm1.094 0a.865.865 0 00-.536-.822.85.85 0 00-.339-.06.872.872 0 00-.619.258.887.887 0 000 1.248.871.871 0 00.619.258.849.849 0 00.815-.541.865.865 0 00.06-.341zm-1.947 0a1.07 1.07 0 01.315-.757 1.05 1.05 0 01.757-.302 1.043 1.043 0 01.99.648c.054.13.082.27.082.41a1.063 1.063 0 01-.658 1.006c-.132.053-.272.079-.414.076-.284 0-.557-.114-.758-.317a1.086 1.086 0 01-.314-.764z" fill="#fff"/><path d="M132.075 27.082h-18.427l9.345-7.48 9.082 7.48z" fill="#FCBD0A"/><path d="M23.328 22.271c1.882 0 2.56-2.206 2.56-4.854s-.678-4.877-2.56-4.877c-1.882 0-2.538 2.207-2.538 4.877s.656 4.854 2.538 4.854zm0-12.092c3.983 0 5.91 3.133 5.91 7.238 0 4.104-1.927 7.237-5.91 7.237s-5.887-3.133-5.887-7.237c0-4.105 1.883-7.238 5.887-7.238zM36.109 16.137V13.93h2.845v1.898c.634-1.125 1.072-2.052 2.888-2.052h.438v2.935a3.691 3.691 0 00-1.05-.133c-1.817 0-2.036 1.611-2.036 3.134v4.656h-3.151l.066-8.231zM47.707 13.975h3.26l1.905 7.414h.044l1.882-7.414h3.064l-3.24 10.415h-3.698l-3.217-10.415zM67.143 10.179h-3.13v2.802h3.13v-2.802zM67.143 13.975h-3.13v10.437h3.13V13.975zM80.493 16.578a6.735 6.735 0 00-2.538-.551c-.81 0-1.16.397-1.16.772s.46.838 2.188 1.5c.665.161 1.251.557 1.653 1.115.401.559.591 1.243.536 1.93 0 2.207-1.73 3.223-3.83 3.223a10.86 10.86 0 01-3.392-.508v-2.45c.78.471 1.672.723 2.582.729 1.466 0 1.576-.53 1.576-.993 0-.464-.81-.662-2.189-1.214a3.22 3.22 0 01-1.622-1.233 3.264 3.264 0 01-.566-1.967c0-1.125.788-3.133 3.874-3.133a9.382 9.382 0 012.866.42l.022 2.36zM93.339 19.38c-1.27 0-3.217 0-3.217 1.81a1.246 1.246 0 00.351 1.014 1.223 1.223 0 001.006.354c.262 0 1.86 0 1.86-2.582v-.595zm-4.946-4.92a12.883 12.883 0 013.349-.662c3.632 0 4.376 1.522 4.376 3.84V24.39h-2.867v-1.435a3.077 3.077 0 01-1.192 1.22 3.043 3.043 0 01-1.653.391 2.976 2.976 0 01-2.306-.864 3.025 3.025 0 01-.889-2.313c0-3.487 4.049-3.509 5.121-3.509h.963c0-1.986-1.466-1.986-1.926-1.986a5.44 5.44 0 00-2.888.905l-.088-2.34zM66.618 43.809c-.876 0-1.313-.574-1.313-1.567V40.19h.525v2.052c0 .662.285 1.037.81 1.037.525 0 .81-.353.81-1.015V40.19h.525v2.074c0 .993-.482 1.545-1.357 1.545zM71.321 43.743L69.9 41.536l-.263-.441v2.648h-.503V40.19h.547l1.335 2.207.284.507V40.19h.526v3.553h-.504zM74.581 41.602c0-.243-.219-.662-.262-.816l-.263.816-.284.816h1.094l-.285-.816zm.744 2.207l-.306-.839h-1.4l-.307.839h-.613l1.27-3.553h.569l1.29 3.553h-.503zM78.457 43.743V40.19h2.276v.508h-1.729v.882h1.007v.53h-1.007v1.125h1.817v.508h-2.364zM84.475 43.743v-2.516c0 .11-.132.375-.22.574l-.875 2.008-.831-2.052-.24-.574v2.516h-.504v-3.51h.547l.788 1.899c.091.2.172.407.24.617.069-.21.15-.416.241-.617l.766-1.898h.57v3.553h-.482zM87.626 40.697h-.941v1.214h.941a.542.542 0 00.588-.37.557.557 0 00.025-.248.555.555 0 00-.372-.572.543.543 0 00-.241-.024zm0 1.722h-.92v1.324h-.524V40.19h1.488a1.043 1.043 0 01.817.292 1.062 1.062 0 01.32.811 1.09 1.09 0 01-.334.836 1.073 1.073 0 01-.847.29zM91.261 40.698h-1.05v1.059h1.028c.151 0 .296-.06.403-.168a.576.576 0 00-.403-.98l.022.089zm.329 1.5l.744 1.456h-.613l-.7-1.412h-.81v1.413h-.525V40.19h1.553a1.02 1.02 0 01.808.27 1.036 1.036 0 01.33.79c.02.24-.049.48-.195.671a.962.962 0 01-.593.365M93.469 43.743V40.19h2.276v.508h-1.751v.882h1.029v.53h-1.029v1.125h1.838v.508H93.47zM97.824 43.81a1.63 1.63 0 01-1.27-.575l.373-.375a1.29 1.29 0 00.94.42c.482 0 .723-.177.723-.508s-.219-.42-.81-.596c-.59-.176-1.094-.42-1.094-1.06a1.046 1.046 0 01.362-.754 1.025 1.025 0 01.798-.238 1.565 1.565 0 011.16.485l-.372.375a1.093 1.093 0 00-.832-.33c-.416 0-.59.198-.59.44 0 .243.174.376.787.553.613.176 1.116.44 1.116 1.08 0 .64-.394 1.082-1.291 1.082zM101.633 41.602c0-.243-.219-.662-.263-.816l-.262.816-.285.816h1.094l-.284-.816zm.744 2.207l-.307-.839h-1.4l-.285.839h-.569l1.292-3.553h.547l1.291 3.553h-.569zM106.053 40.697v.95h1.007v.529h-1.007v1.567h-.547V40.19h2.298v.508h-1.751zM108.701 43.743V40.19h2.298v.508h-1.773v.882h1.029v.53h-1.029v1.125h1.839v.508h-2.364zM113.626 40.698h-1.029v1.059h1.029a.575.575 0 000-1.148v.089zm.35 1.5l.722 1.456h-.613l-.7-1.412h-.788v1.413h-.503V40.19h1.554a1.019 1.019 0 01.807.27 1.034 1.034 0 01.331.79c.02.24-.05.48-.196.671a.96.96 0 01-.592.365M117.368 40.698h-1.029v1.059h1.029a.575.575 0 000-1.148v.089zm.372 1.5l.722 1.457h-.613l-.7-1.413h-.81v1.413h-.503V40.19h1.532a1.02 1.02 0 01.822.26 1.036 1.036 0 01.338.8c.02.24-.05.48-.195.672a.962.962 0 01-.593.365M119.58 43.743V40.19h2.298v.508h-1.751v.882h1.007v.53h-1.007v1.125h1.817v.508h-2.364zM124.392 42.33v1.413h-.525V42.33l-1.269-2.207h.612l.548.971c.131.22.306.574.372.706l.372-.706.547-.971h.613l-1.27 2.207zM127.633 43.808c-.919 0-1.488-.75-1.488-1.831s.569-1.853 1.488-1.853a1.282 1.282 0 011.203.661l-.459.31a.811.811 0 00-.744-.442c-.613 0-.941.508-.941 1.324 0 .816.328 1.302.941 1.302a.87.87 0 00.787-.442l.438.287a1.36 1.36 0 01-1.225.684zM131.09 40.654c-.635 0-.963.507-.963 1.324 0 .816.328 1.301.963 1.301s.963-.507.963-1.301c0-.795-.35-1.324-.963-1.324zm0 3.155c-.919 0-1.51-.772-1.51-1.831 0-1.06.591-1.854 1.51-1.854s1.488.772 1.488 1.854c0 1.08-.569 1.831-1.488 1.831zM135.138 40.698h-1.029v1.059h1.029a.575.575 0 000-1.148v.089zm.35 1.5l.744 1.456h-.613l-.722-1.412h-.788v1.413h-.525V40.19h1.554a1.017 1.017 0 01.807.27 1.034 1.034 0 01.331.79c.02.24-.05.48-.195.671a.962.962 0 01-.593.365M138.815 40.697h-.941v1.214h.941a.545.545 0 00.589-.37.552.552 0 00.024-.248.555.555 0 00-.372-.572.544.544 0 00-.241-.024zm0 1.721h-.919v1.324h-.525V40.19h1.488a1.02 1.02 0 01.825.283 1.031 1.031 0 01.313.82 1.059 1.059 0 01-1.182 1.125z" fill="#1D1D1B"/></svg>