<svg width="100" height="101" fill="none" xmlns="http://www.w3.org/2000/svg" viewBox="0 0 100 101"><g clip-path="url(#clip0)"><path d="M50 100.833c27.614 0 50-22.572 50-50.417C100 22.572 77.614 0 50 0S0 22.572 0 50.416c0 27.845 22.386 50.417 50 50.417z" fill="#28B7CD"/><path d="M25.016 18.118h49.968v64.596H25.016V18.118z" fill="#EEEFEE"/><path d="M42.6 25.628h18.018v1.938H42.6v-1.938zM42.6 31.118h28.12v1.938H42.6v-1.938zM29.28 23.69h9.288v9.367H29.28V23.69zM42.6 40.324h18.018v1.938H42.6v-1.938zM42.6 45.815h28.12v1.937H42.6v-1.938zM29.28 38.386h9.288v9.366H29.28v-9.366zM42.6 55.019h18.018v1.937H42.6V55.02zM42.6 60.51h28.12v1.938H42.6V60.51zM29.28 53.081h9.288v9.366H29.28v-9.366zM42.6 69.714h18.018v1.938H42.6v-1.938zM42.6 75.205h28.12v1.938H42.6v-1.938zM29.28 67.776h9.288v9.367H29.28v-9.367z" fill="#DBD8DD"/></g><defs><clipPath id="clip0"><path fill="#fff" d="M0 0h100v100.833H0z"/></clipPath></defs></svg>