<svg width="100" height="101" fill="none" xmlns="http://www.w3.org/2000/svg" viewBox="0 0 100 101"><g clip-path="url(#clip0)"><path d="M50 100.915c27.614 0 50-22.572 50-50.417C100 22.654 77.614.083 50 .083S0 22.654 0 50.498c0 27.845 22.386 50.417 50 50.417z" fill="#EF5261"/><path d="M74.788 27.395V82.01h-49.6v-63.02h41.275l8.325 8.406z" fill="#EEEFEE"/><path d="M38.188 46.562h4.2v23.762h-4.2V46.562z" fill="#69B0EE"/><path d="M46.406 61.627h4.2v8.697h-4.2v-8.697z" fill="#2CBFAE"/><path d="M54.627 50.498h4.2v19.826h-4.2V50.499z" fill="#EF5261"/><path d="M62.846 57.294h4.2v13.03h-4.2v-13.03z" fill="#F6C863"/><path d="M67.228 75.167h-34.48V43.912h1.742v29.5h32.738v1.755z" fill="#575B6D"/><path d="M32.748 24.668h20.248v1.772H32.748v-1.773zM32.748 30.477h20.248v1.772H32.748v-1.772zM74.813 27.395h-8.325v-8.407l8.325 8.407z" fill="#DBD8DD"/></g><defs><clipPath id="clip0"><path fill="#fff" transform="translate(0 .082)" d="M0 0h100v100.833H0z"/></clipPath></defs></svg>