<svg width="100" height="101" fill="none" xmlns="http://www.w3.org/2000/svg" viewBox="0 0 100 101"><g clip-path="url(#clip0)"><path d="M50 100.997c27.614 0 50-22.572 50-50.416C100 22.737 77.614.165 50 .165S0 22.737 0 50.58c0 27.844 22.386 50.416 50 50.416z" fill="#3B5059"/><path d="M79.87 52.753c0 7.99-3.148 15.652-8.752 21.302a29.753 29.753 0 01-21.126 8.824c-4.64.01-9.216-1.08-13.36-3.184l14.054-26.4.07-.122a.887.887 0 00.103-.42V22.644a29.757 29.757 0 0120.564 9.119 30.25 30.25 0 018.447 20.99z" fill="#F6C863"/><path d="M48.567 44.824L36.422 21.257a29.542 29.542 0 0112.145-2.974v26.54z" fill="#EF5261"/><path d="M48.551 52.761L35.104 78.006a29.921 29.921 0 01-10.76-10.648 30.235 30.235 0 01-4.213-14.597h28.42z" fill="#2CBFAE"/><path d="M48.568 50.752H20.131a30.292 30.292 0 014.325-14.761 29.97 29.97 0 0110.995-10.677l13.117 25.438z" fill="#69B0EE"/></g><defs><clipPath id="clip0"><path fill="#fff" transform="translate(0 .165)" d="M0 0h100v100.833H0z"/></clipPath></defs></svg>