<svg width="140" height="49" fill="none" xmlns="http://www.w3.org/2000/svg" viewBox="0 0 140 49"><path d="M135.184 44.69H43.508v3.425h91.676V44.69z" fill="#F59B00"/><path d="M1.22 34.394a18.325 18.325 0 007.637 1.903c3.24 0 4.44-.65 4.44-2.507 0-1.858-.711-2.238-4.44-3.402C3.663 28.73.377 27.254.4 22.084c0-4.79 4.44-8.416 11.809-8.416a17.621 17.621 0 017.28.963l-.288 5.819a20.049 20.049 0 00-7.103-1.276c-3.064 0-4.151.94-4.151 2.238 0 1.791 1.776 2.239 5.882 3.56 6.66 2.237 7.614 4.476 7.614 8.952 0 4.477-3.996 8.685-12.564 8.685A22.391 22.391 0 010 40.863l1.22-6.469zM32.963 14.317h-7.059v26.59h7.06v-26.59zM57.602 14.317H36.736v5.395h6.77v21.195h7.06V19.712h7.036v-5.395zM67.815 35.513v-5.327h11.41v-5.282h-11.41v-5.192h12.364v-5.395H60.755V40.908H80.824v-5.395H67.815zM128.125 14.317v9.96h-9.101v-9.96h-7.059v26.59h7.059V29.694h9.101v11.213h7.059v-26.59h-7.059zM108.37 40.034a29.323 29.323 0 01-8.879 1.59c-9.656 0-15.538-5.775-15.538-13.43 0-9.154 7.636-14.257 16.093-14.257 2.803.065 5.57.642 8.169 1.7v5.574a17.115 17.115 0 00-7.924-2.238 8.809 8.809 0 00-3.802.222 8.856 8.856 0 00-3.36 1.807 8.946 8.946 0 00-2.3 3.06 9.015 9.015 0 000 7.502 8.945 8.945 0 002.3 3.06 8.856 8.856 0 003.36 1.808 8.81 8.81 0 003.802.222 34.565 34.565 0 007.969-1.656l.11 5.036zM136.893 14.63h-.489v-.335h1.399v.336h-.489v1.432h-.421v-1.432zM139.601 15.392v-.739c0 .246-.155.492-.222.694l-.222.694h-.311l-.199-.694a5.188 5.188 0 01-.178-.694V16.063h-.377l.111-1.768h.555l.177.604c.065.206.117.415.156.627l.155-.65.2-.581h.555v1.768h-.4v-.671z" fill="#0E406A"/><path d="M41 .328C23.085.328 7.702 4.603 1.82 10.96H23.02c4.994-3.357 13.319-5.35 25.794-5.35s23.884 2.104 31.565 5.551C74.54 4.805 59.112.328 40.999.328z" fill="#F59B00"/></svg>