<svg width="140" height="42" fill="none" xmlns="http://www.w3.org/2000/svg" viewBox="0 0 140 42"><path d="M69.104 41.61c-.808 0-1.223-.507-1.223-1.41v-1.872h.48V40.2c0 .595.263.925.743.925.481 0 .743-.308.743-.903v-1.894h.48v1.894c0 .903-.436 1.388-1.223 1.388zM73.365 41.566l-1.288-2.027-.24-.418V41.566h-.481v-3.238h.502l1.223 1.982.263.44v-2.422h.458v3.238h-.437zM76.336 39.605l-.24-.749c0 .154-.153.529-.219.771l-.262.727h.983l-.262-.749zm.699 1.96l-.284-.77h-1.29l-.261.77h-.503l1.158-3.237h.503l1.18 3.238h-.503zM79.877 41.566v-3.238h2.076v.462h-1.595v.793h.939v.485h-.94v1.035h1.661v.463h-2.141zM85.337 41.566v-1.718a4.115 4.115 0 010-.573s-.13.33-.218.507l-.787 1.828-.764-1.828a3.302 3.302 0 01-.197-.507v2.203h-.459v-3.15h.503l.72 1.718c0 .198.175.418.22.55.043.133.13-.352.218-.55l.699-1.718h.524v3.238h-.459zM88.155 38.79h-.853v1.102h.853a.478.478 0 00.527-.328.487.487 0 00.019-.223.512.512 0 00-.33-.523.498.498 0 00-.216-.028zm0 1.564h-.83v1.212h-.481v-3.238h1.31a.931.931 0 01.748.265.948.948 0 01.28.748.976.976 0 01-.303.757.959.959 0 01-.768.256M91.541 38.79h-.94v1.036h.94a.5.5 0 00.511-.318.511.511 0 00.035-.211.489.489 0 00-.336-.49.477.477 0 00-.21-.017zm.328 1.454l.655 1.322h-.568l-.633-1.278h-.721v1.278h-.48v-3.239h1.42a.91.91 0 01.737.244.926.926 0 01.29.726.908.908 0 01-.176.605.894.894 0 01-.524.342zM93.553 41.566v-3.238h2.075v.462h-1.595v.793h.918v.485h-.918v1.035h1.66v.463h-2.14zM97.506 41.61a1.54 1.54 0 01-1.158-.507l.35-.352a1.204 1.204 0 00.851.396c.437 0 .656-.176.656-.484 0-.309-.197-.375-.721-.53-.525-.153-1.005-.374-1.005-.968a.954.954 0 01.328-.683.938.938 0 01.72-.22c.4 0 .785.157 1.071.44l-.35.352a1.006 1.006 0 00-.742-.308c-.394 0-.547.176-.547.397 0 .22.153.352.7.506.546.154 1.026.397 1.026.992 0 .594-.35.969-1.18.969zM100.978 39.605l-.24-.749c0 .154-.153.529-.24.771l-.241.727h1.005l-.284-.749zm.678 1.96l-.262-.77h-1.289l-.263.77h-.502l1.158-3.237H101l1.18 3.238h-.524zM105 38.79v.86h.918v.484H105v1.432h-.48v-3.238h2.075v.462H105zM107.424 41.566v-3.238h2.075v.462h-1.595v.793h.918v.485h-.918v1.035h1.661v.463h-2.141zM111.904 38.79h-.939v1.036h.939a.504.504 0 00.547-.53.483.483 0 00-.547-.506zm.328 1.454l.656 1.322h-.568l-.634-1.278h-.721v1.278h-.481v-3.239h1.42a.91.91 0 01.738.244.926.926 0 01.289.726.898.898 0 01-.699.947zM115.31 38.79h-.939v1.036h.939a.479.479 0 00.546-.529.482.482 0 00-.546-.507zm.328 1.454l.655 1.322h-.546l-.633-1.278h-.743v1.278h-.459v-3.238h1.398a.935.935 0 01.975.572c.053.126.078.261.074.397a.931.931 0 01-.189.607.915.915 0 01-.532.34zM117.322 41.566v-3.238h2.076v.462h-1.595v.793h.939v.485h-.939v1.035h1.66v.463h-2.141zM121.713 40.288v1.278h-.481v-1.278l-1.158-1.96h.568l.503.88.328.662c0-.133.218-.44.327-.661l.503-.881h.568l-1.158 1.96zM124.662 41.61c-.831 0-1.377-.683-1.377-1.675 0-.99.546-1.674 1.377-1.674a1.153 1.153 0 011.092.617l-.437.264a.682.682 0 00-.655-.396c-.568 0-.874.463-.874 1.19 0 .726.306 1.189.874 1.189a.74.74 0 00.633-.44l.415.264a1.245 1.245 0 01-1.114.617M127.786 38.746c-.546 0-.852.462-.852 1.19 0 .726.306 1.189.852 1.189s.896-.44.896-1.19c0-.749-.328-1.19-.896-1.19zm0 2.864c-.83 0-1.354-.683-1.354-1.675 0-.99.524-1.674 1.354-1.674.83 0 1.377.705 1.377 1.674 0 .97-.525 1.675-1.377 1.675zM131.499 38.79h-.939v1.036h.939a.497.497 0 00.511-.318.51.51 0 00.036-.211.498.498 0 00-.155-.383.476.476 0 00-.392-.124zm.328 1.454l.656 1.322h-.634l-.634-1.278h-.721v1.278h-.48v-3.239h1.42a.907.907 0 01.738.244.936.936 0 01.289.726.914.914 0 01-.175.605.895.895 0 01-.524.342M134.843 38.79h-.808v1.102h.874a.475.475 0 00.41-.137.483.483 0 00.136-.414.507.507 0 00-.546-.55h-.066zm.066 1.564h-.874v1.212h-.459v-3.238h1.333a.928.928 0 01.762.256.959.959 0 01.287.757.968.968 0 01-.302.757.96.96 0 01-.769.256" fill="#1D1D1B"/><path d="M69.104 41.61c-.808 0-1.223-.507-1.223-1.41v-1.872h.48V40.2c0 .595.263.925.743.925.481 0 .743-.308.743-.903v-1.894h.48v1.894c0 .903-.436 1.388-1.223 1.388zM73.365 41.566l-1.288-2.027-.24-.418V41.566h-.481v-3.238h.502l1.223 1.982.263.44v-2.422h.458v3.238h-.437zM76.336 39.605l-.24-.749c0 .154-.153.529-.219.771l-.262.727h.983l-.262-.749zm.699 1.96l-.284-.77h-1.29l-.261.77h-.503l1.158-3.237h.503l1.18 3.238h-.503zM79.877 41.566v-3.238h2.076v.462h-1.595v.793h.939v.485h-.94v1.035h1.661v.463h-2.141zM85.337 41.566v-1.718a4.115 4.115 0 010-.573s-.13.33-.218.507l-.787 1.828-.764-1.828a3.302 3.302 0 01-.197-.507v2.203h-.459v-3.15h.503l.72 1.718c0 .198.175.418.22.55.043.133.13-.352.218-.55l.699-1.718h.524v3.238h-.459zM88.155 38.79h-.853v1.102h.853a.478.478 0 00.527-.328.487.487 0 00.019-.223.512.512 0 00-.33-.523.498.498 0 00-.216-.028zm0 1.564h-.83v1.212h-.481v-3.238h1.31a.931.931 0 01.748.265.948.948 0 01.28.748.976.976 0 01-.303.757.959.959 0 01-.768.256M91.541 38.79h-.94v1.036h.94a.5.5 0 00.511-.318.511.511 0 00.035-.211.489.489 0 00-.336-.49.477.477 0 00-.21-.017zm.328 1.454l.655 1.322h-.568l-.633-1.278h-.721v1.278h-.48v-3.239h1.42a.91.91 0 01.737.244.926.926 0 01.29.726.908.908 0 01-.176.605.894.894 0 01-.524.342zM93.553 41.566v-3.238h2.075v.462h-1.595v.793h.918v.485h-.918v1.035h1.66v.463h-2.14zM97.506 41.61a1.54 1.54 0 01-1.158-.507l.35-.352a1.204 1.204 0 00.851.396c.437 0 .656-.176.656-.484 0-.309-.197-.375-.721-.53-.525-.153-1.005-.374-1.005-.968a.954.954 0 01.328-.683.938.938 0 01.72-.22c.4 0 .785.157 1.071.44l-.35.352a1.006 1.006 0 00-.742-.308c-.394 0-.547.176-.547.397 0 .22.153.352.7.506.546.154 1.026.397 1.026.992 0 .594-.35.969-1.18.969zM100.978 39.605l-.24-.749c0 .154-.153.529-.24.771l-.241.727h1.005l-.284-.749zm.678 1.96l-.262-.77h-1.289l-.263.77h-.502l1.158-3.237H101l1.18 3.238h-.524zM105 38.79v.86h.918v.484H105v1.432h-.48v-3.238h2.075v.462H105zM107.424 41.566v-3.238h2.075v.462h-1.595v.793h.918v.485h-.918v1.035h1.661v.463h-2.141zM111.904 38.79h-.939v1.036h.939a.504.504 0 00.547-.53.483.483 0 00-.547-.506zm.328 1.454l.656 1.322h-.568l-.634-1.278h-.721v1.278h-.481v-3.239h1.42a.91.91 0 01.738.244.926.926 0 01.289.726.898.898 0 01-.699.947zM115.31 38.79h-.939v1.036h.939a.479.479 0 00.546-.529.482.482 0 00-.546-.507zm.328 1.454l.655 1.322h-.546l-.633-1.278h-.743v1.278h-.459v-3.238h1.398a.935.935 0 01.975.572c.053.126.078.261.074.397a.931.931 0 01-.189.607.915.915 0 01-.532.34zM117.322 41.566v-3.238h2.076v.462h-1.595v.793h.939v.485h-.939v1.035h1.66v.463h-2.141zM121.713 40.288v1.278h-.481v-1.278l-1.158-1.96h.568l.503.88.328.662c0-.133.218-.44.327-.661l.503-.881h.568l-1.158 1.96zM124.662 41.61c-.831 0-1.377-.683-1.377-1.675 0-.99.546-1.674 1.377-1.674a1.153 1.153 0 011.092.617l-.437.264a.682.682 0 00-.655-.396c-.568 0-.874.463-.874 1.19 0 .726.306 1.189.874 1.189a.74.74 0 00.633-.44l.415.264a1.245 1.245 0 01-1.114.617M127.786 38.746c-.546 0-.852.462-.852 1.19 0 .726.306 1.189.852 1.189s.896-.44.896-1.19c0-.749-.328-1.19-.896-1.19zm0 2.864c-.83 0-1.354-.683-1.354-1.675 0-.99.524-1.674 1.354-1.674.83 0 1.377.705 1.377 1.674 0 .97-.525 1.675-1.377 1.675zM131.499 38.79h-.939v1.036h.939a.497.497 0 00.511-.318.51.51 0 00.036-.211.498.498 0 00-.155-.383.476.476 0 00-.392-.124zm.328 1.454l.656 1.322h-.634l-.634-1.278h-.721v1.278h-.48v-3.239h1.42a.907.907 0 01.738.244.936.936 0 01.289.726.914.914 0 01-.175.605.895.895 0 01-.524.342M134.843 38.79h-.808v1.102h.874a.475.475 0 00.41-.137.483.483 0 00.136-.414.507.507 0 00-.546-.55h-.066zm.066 1.564h-.874v1.212h-.459v-3.238h1.333a.928.928 0 01.762.256.959.959 0 01.287.757.968.968 0 01-.302.757.96.96 0 01-.769.256" fill="#1D1D1B"/><path d="M106.747.569H0v33.529h106.747V.568z" fill="#E30613"/><path d="M140 .569h-33.252v33.529H140V.568z" fill="#1D1D1B"/><path d="M130.125 9.844h-9.569v6.102h-5.113v3.965h5.113V25h4.282V19.91h5.287v-3.965h-5.287V13.83h5.287V9.844z" fill="#DADADA"/><path d="M12.127 25.264a6.616 6.616 0 01-3.076-.624A6.673 6.673 0 016.6 22.665l2.053-1.85c.448.53 1.009.95 1.64 1.233a4.577 4.577 0 002.009.396c1.682 0 2.469-.462 2.469-1.542s-.481-1.344-3.168-1.96c-2.688-.617-4.37-1.454-4.37-4.274.04-.62.205-1.223.486-1.776.28-.552.67-1.04 1.145-1.435a4.487 4.487 0 013.438-.997c.97-.029 1.933.153 2.827.533.894.38 1.695.95 2.35 1.67l-2.053 2.005a4.372 4.372 0 00-1.461-1.084 4.338 4.338 0 00-1.772-.392c-1.508 0-2.032.639-2.032 1.278s.612 1.19 2.862 1.718c2.25.529 4.763 1.322 4.763 4.406 0 2.732-1.705 4.582-5.593 4.582M26.261 13.214c-2.294 0-3.255 1.982-3.255 4.538 0 2.555.961 4.538 3.255 4.538s3.233-1.983 3.233-4.538-.939-4.538-3.233-4.538zm0 11.94c-3.889 0-6.183-3.04-6.183-7.402s2.294-7.402 6.183-7.402 6.161 3.04 6.161 7.402-2.294 7.512-6.161 7.512M35.547 24.912V10.57h2.84v11.522h7.122v2.82h-9.962zM51.672 13.412v11.5h-2.84v-11.5h-4.086V10.57h11.011v2.842h-4.085zM65.26 13.368h-3.715v3.68h3.714c1.311 0 2.032-.618 2.032-1.851 0-1.234-.764-1.829-2.032-1.829zm1.682 11.544l-2.535-5.155h-2.862v5.155h-2.84V10.57h6.554a4.335 4.335 0 013.494 1.138c.466.434.832.965 1.074 1.556a4.44 4.44 0 01.326 1.867 4.08 4.08 0 01-.64 2.582 4.025 4.025 0 01-2.09 1.625l2.73 5.574h-3.211zM79.57 16.452c-.285-.859-.569-1.718-.722-2.203-.13.529-.415 1.388-.699 2.203l-.917 2.556h3.255l-.918-2.556zm2.993 8.504l-1.115-3.195h-5.2l-1.201 3.15h-3.059l5.462-14.319h2.753l5.396 14.32-3.037.044zM97.529 24.911l-3.867-6.917-2.185 2.71v4.207h-2.84V10.57h2.84v6.301c.34-.508.713-.994 1.114-1.454l3.976-4.913h3.43l-4.15 4.957 5.221 9.384-3.54.066z" fill="#fff"/></svg>