<svg width="140" height="42" fill="none" xmlns="http://www.w3.org/2000/svg" viewBox="0 0 140 42"><path d="M69.104 41.112c-.808 0-1.223-.507-1.223-1.41v-1.873h.48v1.873c0 .595.263.925.743.925.481 0 .743-.309.743-.903v-1.895h.48v1.895c0 .903-.436 1.388-1.223 1.388zM73.365 41.067l-1.288-2.026-.24-.419v2.445h-.481V37.83h.502l1.223 1.983.263.44V37.83h.458v3.238h-.437zM76.336 39.107l-.24-.75c0 .155-.153.53-.219.772l-.262.727h.983l-.262-.75zm.699 1.96l-.284-.77h-1.29l-.261.77h-.503l1.158-3.238h.503l1.18 3.238h-.503zM79.877 41.067V37.83h2.076v.463h-1.595v.793h.939v.484h-.94v1.036h1.661v.462h-2.141zM85.337 41.068v-1.719a4.117 4.117 0 010-.573s-.13.33-.218.507l-.787 1.829-.764-1.829a3.3 3.3 0 01-.197-.507v2.203h-.459v-3.15h.503l.72 1.718c0 .199.175.419.22.551.043.132.13-.352.218-.55l.699-1.719h.524v3.239h-.459zM88.155 38.292h-.853v1.101h.853a.477.477 0 00.527-.327.487.487 0 00.019-.224.512.512 0 00-.33-.522.5.5 0 00-.216-.028zm0 1.564h-.83v1.211h-.481V37.83h1.31a.931.931 0 01.748.266.948.948 0 01.28.747.975.975 0 01-.303.758.961.961 0 01-.768.256M91.541 38.292h-.94v1.035h.94a.498.498 0 00.511-.317.511.511 0 00.035-.212.488.488 0 00-.336-.489.478.478 0 00-.21-.017zm.328 1.454l.655 1.321h-.568l-.633-1.277h-.721v1.277h-.48V37.83h1.42a.91.91 0 01.737.243.926.926 0 01.29.726.908.908 0 01-.176.605.895.895 0 01-.524.343zM93.553 41.067V37.83h2.075v.463h-1.595v.793h.918v.484h-.918v1.036h1.66v.462h-2.14zM97.506 41.111a1.54 1.54 0 01-1.158-.506l.35-.353a1.201 1.201 0 00.851.397c.437 0 .656-.176.656-.485 0-.308-.197-.374-.721-.529-.525-.154-1.005-.374-1.005-.969a.954.954 0 01.328-.683.935.935 0 01.72-.22c.4 0 .785.158 1.071.44l-.35.353a1.004 1.004 0 00-.742-.308c-.394 0-.547.176-.547.396 0 .22.153.353.7.507.546.154 1.026.396 1.026.991s-.35.97-1.18.97zM100.978 39.107l-.24-.75c0 .155-.153.53-.24.772l-.241.727h1.005l-.284-.75zm.678 1.96l-.262-.77h-1.289l-.263.77h-.502l1.158-3.238H101l1.18 3.238h-.524zM105 38.292v.859h.918v.484H105v1.432h-.48V37.83h2.075v.463H105zM107.424 41.067V37.83h2.075v.463h-1.595v.793h.918v.484h-.918v1.036h1.661v.462h-2.141zM111.904 38.292h-.939v1.035h.939a.502.502 0 00.547-.529.483.483 0 00-.547-.506zm.328 1.454l.656 1.321h-.568l-.634-1.277h-.721v1.277h-.481V37.83h1.42a.91.91 0 01.738.243.926.926 0 01.289.726.898.898 0 01-.699.947zM115.31 38.291h-.939v1.036h.939a.479.479 0 00.546-.529.482.482 0 00-.546-.507zm.328 1.454l.655 1.322h-.546l-.633-1.278h-.743v1.278h-.459V37.83h1.398a.938.938 0 01.975.572c.053.126.078.261.074.397a.931.931 0 01-.189.607.915.915 0 01-.532.34zM117.322 41.067V37.83h2.076v.463h-1.595v.793h.939v.484h-.939v1.036h1.66v.462h-2.141zM121.713 39.79v1.277h-.481V39.79l-1.158-1.96h.568l.503.88.328.661c0-.132.218-.44.327-.66l.503-.882h.568l-1.158 1.96zM124.662 41.111c-.831 0-1.377-.683-1.377-1.674 0-.991.546-1.674 1.377-1.674a1.151 1.151 0 011.092.617l-.437.264a.682.682 0 00-.655-.396c-.568 0-.874.462-.874 1.189 0 .727.306 1.19.874 1.19a.741.741 0 00.633-.44l.415.263a1.246 1.246 0 01-1.114.617M127.786 38.247c-.546 0-.852.463-.852 1.19 0 .727.306 1.19.852 1.19s.896-.44.896-1.19c0-.749-.328-1.19-.896-1.19zm0 2.864c-.83 0-1.354-.683-1.354-1.674 0-.991.524-1.674 1.354-1.674.83 0 1.377.705 1.377 1.674 0 .97-.525 1.674-1.377 1.674zM131.499 38.292h-.939v1.035h.939a.496.496 0 00.393-.14.507.507 0 00.154-.389.498.498 0 00-.155-.383.476.476 0 00-.392-.123zm.328 1.454l.656 1.321h-.634l-.634-1.277h-.721v1.277h-.48V37.83h1.42a.907.907 0 01.738.243.937.937 0 01.289.726.914.914 0 01-.175.605.896.896 0 01-.524.343M134.843 38.292h-.808v1.101h.874a.475.475 0 00.41-.136.483.483 0 00.136-.414.507.507 0 00-.546-.551h-.066zm.066 1.564h-.874v1.211h-.459V37.83h1.333a.93.93 0 01.762.257.96.96 0 01.287.757.969.969 0 01-.302.757.963.963 0 01-.769.256" fill="#1D1D1B"/><path d="M69.104 41.112c-.808 0-1.223-.507-1.223-1.41v-1.873h.48v1.873c0 .595.263.925.743.925.481 0 .743-.309.743-.903v-1.895h.48v1.895c0 .903-.436 1.388-1.223 1.388zM73.365 41.067l-1.288-2.026-.24-.419v2.445h-.481V37.83h.502l1.223 1.983.263.44V37.83h.458v3.238h-.437zM76.336 39.107l-.24-.75c0 .155-.153.53-.219.772l-.262.727h.983l-.262-.75zm.699 1.96l-.284-.77h-1.29l-.261.77h-.503l1.158-3.238h.503l1.18 3.238h-.503zM79.877 41.067V37.83h2.076v.463h-1.595v.793h.939v.484h-.94v1.036h1.661v.462h-2.141zM85.337 41.068v-1.719a4.117 4.117 0 010-.573s-.13.33-.218.507l-.787 1.829-.764-1.829a3.3 3.3 0 01-.197-.507v2.203h-.459v-3.15h.503l.72 1.718c0 .199.175.419.22.551.043.132.13-.352.218-.55l.699-1.719h.524v3.239h-.459zM88.155 38.292h-.853v1.101h.853a.477.477 0 00.527-.327.487.487 0 00.019-.224.512.512 0 00-.33-.522.5.5 0 00-.216-.028zm0 1.564h-.83v1.211h-.481V37.83h1.31a.931.931 0 01.748.266.948.948 0 01.28.747.975.975 0 01-.303.758.961.961 0 01-.768.256M91.541 38.292h-.94v1.035h.94a.498.498 0 00.511-.317.511.511 0 00.035-.212.488.488 0 00-.336-.489.478.478 0 00-.21-.017zm.328 1.454l.655 1.321h-.568l-.633-1.277h-.721v1.277h-.48V37.83h1.42a.91.91 0 01.737.243.926.926 0 01.29.726.908.908 0 01-.176.605.895.895 0 01-.524.343zM93.553 41.067V37.83h2.075v.463h-1.595v.793h.918v.484h-.918v1.036h1.66v.462h-2.14zM97.506 41.111a1.54 1.54 0 01-1.158-.506l.35-.353a1.201 1.201 0 00.851.397c.437 0 .656-.176.656-.485 0-.308-.197-.374-.721-.529-.525-.154-1.005-.374-1.005-.969a.954.954 0 01.328-.683.935.935 0 01.72-.22c.4 0 .785.158 1.071.44l-.35.353a1.004 1.004 0 00-.742-.308c-.394 0-.547.176-.547.396 0 .22.153.353.7.507.546.154 1.026.396 1.026.991s-.35.97-1.18.97zM100.978 39.107l-.24-.75c0 .155-.153.53-.24.772l-.241.727h1.005l-.284-.75zm.678 1.96l-.262-.77h-1.289l-.263.77h-.502l1.158-3.238H101l1.18 3.238h-.524zM105 38.292v.859h.918v.484H105v1.432h-.48V37.83h2.075v.463H105zM107.424 41.067V37.83h2.075v.463h-1.595v.793h.918v.484h-.918v1.036h1.661v.462h-2.141zM111.904 38.292h-.939v1.035h.939a.502.502 0 00.547-.529.483.483 0 00-.547-.506zm.328 1.454l.656 1.321h-.568l-.634-1.277h-.721v1.277h-.481V37.83h1.42a.91.91 0 01.738.243.926.926 0 01.289.726.898.898 0 01-.699.947zM115.31 38.291h-.939v1.036h.939a.479.479 0 00.546-.529.482.482 0 00-.546-.507zm.328 1.454l.655 1.322h-.546l-.633-1.278h-.743v1.278h-.459V37.83h1.398a.938.938 0 01.975.572c.053.126.078.261.074.397a.931.931 0 01-.189.607.915.915 0 01-.532.34zM117.322 41.067V37.83h2.076v.463h-1.595v.793h.939v.484h-.939v1.036h1.66v.462h-2.141zM121.713 39.79v1.277h-.481V39.79l-1.158-1.96h.568l.503.88.328.661c0-.132.218-.44.327-.66l.503-.882h.568l-1.158 1.96zM124.662 41.111c-.831 0-1.377-.683-1.377-1.674 0-.991.546-1.674 1.377-1.674a1.151 1.151 0 011.092.617l-.437.264a.682.682 0 00-.655-.396c-.568 0-.874.462-.874 1.189 0 .727.306 1.19.874 1.19a.741.741 0 00.633-.44l.415.263a1.246 1.246 0 01-1.114.617M127.786 38.247c-.546 0-.852.463-.852 1.19 0 .727.306 1.19.852 1.19s.896-.44.896-1.19c0-.749-.328-1.19-.896-1.19zm0 2.864c-.83 0-1.354-.683-1.354-1.674 0-.991.524-1.674 1.354-1.674.83 0 1.377.705 1.377 1.674 0 .97-.525 1.674-1.377 1.674zM131.499 38.292h-.939v1.035h.939a.496.496 0 00.393-.14.507.507 0 00.154-.389.498.498 0 00-.155-.383.476.476 0 00-.392-.123zm.328 1.454l.656 1.321h-.634l-.634-1.277h-.721v1.277h-.48V37.83h1.42a.907.907 0 01.738.243.937.937 0 01.289.726.914.914 0 01-.175.605.896.896 0 01-.524.343M134.843 38.292h-.808v1.101h.874a.475.475 0 00.41-.136.483.483 0 00.136-.414.507.507 0 00-.546-.551h-.066zm.066 1.564h-.874v1.211h-.459V37.83h1.333a.93.93 0 01.762.257.96.96 0 01.287.757.969.969 0 01-.302.757.963.963 0 01-.769.256" fill="#1D1D1B"/><path d="M106.747.07H0V33.6h106.747V.07z" fill="#E30613"/><path d="M140 .07h-33.252V33.6H140V.07z" fill="#1D1D1B"/><path d="M130.125 9.345h-9.569v6.102h-5.113v3.965h5.113v5.09h4.282v-5.09h5.287v-3.965h-5.287v-2.115h5.287V9.345z" fill="#DADADA"/><path d="M12.127 24.765a6.615 6.615 0 01-3.076-.624A6.673 6.673 0 016.6 22.166l2.053-1.85c.448.53 1.009.951 1.64 1.233a4.576 4.576 0 002.009.397c1.682 0 2.469-.463 2.469-1.543 0-1.079-.481-1.343-3.168-1.96-2.688-.617-4.37-1.454-4.37-4.274.04-.62.205-1.223.486-1.776.28-.552.67-1.04 1.145-1.435a4.489 4.489 0 013.438-.997c.97-.029 1.933.153 2.827.533.894.38 1.695.95 2.35 1.67l-2.053 2.005a4.372 4.372 0 00-1.461-1.084 4.34 4.34 0 00-1.772-.392c-1.508 0-2.032.639-2.032 1.278s.612 1.19 2.862 1.718c2.25.529 4.763 1.322 4.763 4.406 0 2.732-1.705 4.582-5.593 4.582M26.261 12.715c-2.294 0-3.255 1.983-3.255 4.538 0 2.556.961 4.539 3.255 4.539s3.233-1.983 3.233-4.539c0-2.555-.939-4.538-3.233-4.538zm0 11.94c-3.889 0-6.183-3.04-6.183-7.402 0-4.361 2.294-7.401 6.183-7.401s6.161 3.04 6.161 7.401c0 4.362-2.294 7.513-6.161 7.513M35.547 24.413V10.072h2.84v11.521h7.122v2.82h-9.962zM51.672 12.914v11.499h-2.84v-11.5h-4.086v-2.841h11.011v2.842h-4.085zM65.26 12.87h-3.715v3.678h3.714c1.311 0 2.032-.617 2.032-1.85 0-1.234-.764-1.829-2.032-1.829zm1.682 11.543l-2.535-5.155h-2.862v5.155h-2.84V10.07h6.554a4.335 4.335 0 013.494 1.138c.466.434.832.965 1.074 1.556a4.44 4.44 0 01.326 1.867 4.08 4.08 0 01-.64 2.582 4.025 4.025 0 01-2.09 1.625l2.73 5.574h-3.211zM79.57 15.954c-.285-.86-.569-1.719-.722-2.203-.13.528-.415 1.387-.699 2.203l-.917 2.555h3.255l-.918-2.556zm2.993 8.503l-1.115-3.194h-5.2l-1.201 3.15h-3.059l5.462-14.32h2.753l5.396 14.32-3.037.044zM97.529 24.413l-3.867-6.917-2.185 2.71v4.207h-2.84V10.072h2.84V16.372c.34-.507.713-.993 1.114-1.454l3.976-4.912h3.43l-4.15 4.957 5.221 9.384-3.54.066z" fill="#fff"/></svg>