<svg width="140" height="55" fill="none" xmlns="http://www.w3.org/2000/svg" viewBox="0 0 140 55"><path d="M47.814 54.061c-1.109 0-1.677-.717-1.677-1.949v-2.608h.682v2.58c0 .86.341 1.318 1.023 1.318.683 0 1.023-.459 1.023-1.261v-2.637h.654v2.608c0 1.261-.597 1.949-1.705 1.949zM53.699 54.004l-1.763-2.866-.34-.545v3.382h-.655v-4.471h.825l1.677 2.866.37.63v-3.496h.653v4.5H53.7zM57.819 51.31l-.341-1.032c0 .172-.2.688-.313 1.032l-.37 1.003h1.365l-.341-1.003zm.938 2.694l-.37-1.09h-1.79l-.37 1.09h-.682l1.592-4.5h.71l1.62 4.5h-.71zM62.682 53.975v-4.471h2.87v.66h-2.188v1.117h1.279v.63h-1.28v1.433h2.275v.63h-2.956zM70.242 54.004v-3.182s-.17.459-.284.717l-1.08 2.522-1.052-2.522a5.265 5.265 0 01-.285-.717v3.182h-.625v-4.5h.682l.995 2.407c.091.263.167.531.227.803 0-.172.2-.487.285-.745l.995-2.408h.71v4.5l-.568-.057zM74.222 50.134h-1.194v1.548h1.194a.677.677 0 00.555-.208.69.69 0 00.184-.566.694.694 0 00-.184-.566.683.683 0 00-.555-.208zm0 2.178h-1.137v1.692h-.653v-4.5h1.847a1.3 1.3 0 011.032.37 1.32 1.32 0 01.39 1.034 1.356 1.356 0 01-.419 1.045 1.335 1.335 0 01-1.06.36zM78.769 50.134h-1.28v1.462h1.28a.732.732 0 00.812-.412.751.751 0 00-.199-.895.736.736 0 00-.613-.155zm.455 2.035l.91 1.835h-.768l-.881-1.777h-.995v1.777h-.654v-4.5h1.933a1.295 1.295 0 011.029.34 1.319 1.319 0 01.42 1.007c.015.302-.077.6-.26.841-.181.241-.441.41-.734.477zM81.555 53.975v-4.471h2.87v.66H82.21v1.117h1.279v.63h-1.28v1.433h2.303v.63h-2.956zM87.016 54.06a2.117 2.117 0 01-1.592-.716l.483-.487a1.592 1.592 0 001.165.544c.626 0 .91-.23.91-.66 0-.429-.256-.515-.995-.744-.739-.23-1.393-.516-1.393-1.319 0-.802.654-1.232 1.478-1.232a1.92 1.92 0 011.45.602l-.483.487a1.362 1.362 0 00-1.023-.43c-.512 0-.74.258-.74.545 0 .286.2.458.967.688.767.229 1.421.573 1.421 1.375 0 .803-.511 1.347-1.648 1.347zM91.817 51.31l-.341-1.032c0 .172-.199.688-.313 1.032l-.37 1.003h1.394l-.37-1.003zm.938 2.694l-.37-1.09h-1.79l-.37 1.09h-.682l1.592-4.5h.71l1.62 4.5h-.71zM97.362 50.163v1.175h1.28v.66h-1.28v1.977h-.682v-4.471h2.87v.66h-2.188zM100.715 53.975v-4.471h2.842v.66h-2.188v1.117h1.279v.63h-1.279v1.433h2.302v.63h-2.956zM106.881 50.134h-1.307v1.462h1.307a.676.676 0 00.542-.2.68.68 0 00.197-.546.66.66 0 00-.448-.69.648.648 0 00-.291-.026zm.455 2.035l.91 1.834h-.768l-.881-1.777h-1.023v1.777h-.654v-4.5h1.961a1.272 1.272 0 011.331.8c.069.174.1.36.091.547.021.3-.065.598-.242.84a1.248 1.248 0 01-.725.479zM111.602 50.134h-1.307v1.462h1.307a.734.734 0 00.812-.412.747.747 0 00-.488-1.042.734.734 0 00-.324-.008zm.455 2.035l.91 1.834h-.768l-.881-1.777h-1.023v1.777h-.654v-4.5h1.961a1.268 1.268 0 011.02.342 1.287 1.287 0 01.401 1.005 1.255 1.255 0 01-.966 1.319zM114.387 53.975v-4.471h2.842v.66h-2.189v1.117h1.28v.63h-1.28v1.433h2.303v.63h-2.956zM120.414 52.227v1.777h-.654v-1.777l-1.592-2.867h.768l.682 1.233c.173.284.325.581.455.888l.483-.888.682-1.233h.768l-1.592 2.867zM124.48 54.06c-1.137 0-1.876-.945-1.876-2.32 0-1.377.739-2.294 1.876-2.294.308-.023.615.043.887.19.272.147.497.37.648.641l-.597.373a.99.99 0 00-.938-.545c-.768 0-1.194.63-1.194 1.634 0 1.003.426 1.663 1.194 1.663a1.04 1.04 0 00.581-.139c.177-.101.32-.252.414-.435l.54.373a1.713 1.713 0 01-1.535.86zM128.827 50.105c-.796 0-1.222.631-1.222 1.634 0 1.004.426 1.663 1.222 1.663s1.194-.66 1.194-1.663c0-1.003-.426-1.633-1.194-1.633zm0 3.956c-1.165 0-1.876-.946-1.876-2.322 0-1.375.711-2.293 1.876-2.293 1.166 0 1.876.946 1.876 2.293 0 1.348-.739 2.322-1.876 2.322zM133.917 50.134h-1.279v1.462h1.279a.733.733 0 00.813-.412.747.747 0 00-.813-1.05zm.455 2.035l.91 1.834h-.768l-.881-1.777h-.995v1.777h-.654v-4.5h1.933a1.27 1.27 0 011.02.342c.136.128.242.285.311.458.069.174.1.36.091.547.021.3-.065.598-.242.84a1.248 1.248 0 01-.725.479zM138.55 50.135h-1.194v1.547h1.194a.673.673 0 00.574-.195.688.688 0 00.193-.579.71.71 0 00-.041-.306.709.709 0 00-.726-.467zm0 2.178h-1.166v1.69h-.654v-4.5h1.848c.377 0 .739.152 1.005.42.267.27.416.634.416 1.014s-.149.745-.416 1.013c-.266.27-.628.42-1.005.42" fill="#1B1516"/><path d="M96.649.519H0v43.624h96.649V.52z" fill="#E30613"/><path d="M139.97.519H96.648v43.624h43.322V.52z" fill="#1D1D1B"/><path d="M17.74 32.22h-4.093l3.467-16.51h-5.827l.682-3.296h15.692l-.711 3.296h-5.742L17.74 32.22zM32.604 21.185h2.104c1.469.08 2.942-.045 4.377-.373a3.64 3.64 0 001.706-1.232c.385-.5.595-1.116.597-1.749a1.76 1.76 0 00-.208-.945 1.742 1.742 0 00-.674-.689 5.105 5.105 0 00-2.33-.315h-4.52l-1.052 5.303zm-2.36 11.178H26.18l4.15-19.806h8.869c1.2-.033 2.4.121 3.553.459a4.215 4.215 0 012.047 1.72c.5.87.766 1.859.767 2.866a6.049 6.049 0 01-1.506 4.185 7.333 7.333 0 01-4.605 2.006 9.415 9.415 0 011.478 1.863 47.476 47.476 0 013.041 6.564h-4.377c-.37-1.118-1.052-2.866-2.104-5.217a5.733 5.733 0 00-1.79-2.58 3.754 3.754 0 00-2.019-.4h-1.82l-1.62 8.34zM46.164 32.22l4.15-19.806h14.753l-.682 3.296h-10.66l-.966 4.529h10.319l-.683 3.296H52.077l-1.251 5.36h11.598l-.71 3.325h-15.55zM68.025 32.22h-5.287l8.926-10.003-4.946-9.803h4.264l1.961 3.726 1.308 2.866.199.373c1.108-1.347 2.018-2.436 2.842-3.296l3.127-3.526h5.145L76.44 22.991l4.917 9.372h-4.633l-1.478-2.866c-.768-1.576-1.308-2.866-1.564-3.382a40.312 40.312 0 01-2.842 3.267l-2.815 2.838z" fill="#fff"/><path d="M127.861 12.47h-12.45v7.912h-6.681v5.159h6.681v6.621h5.571v-6.621h6.879v-5.16h-6.879V17.63h6.879v-5.16z" fill="#DADADA"/></svg>