<svg width="140" height="43" fill="none" xmlns="http://www.w3.org/2000/svg" viewBox="0 0 140 43"><path d="M139.973.632H87.744v34.031h52.229V.632z" fill="#FCBC00"/><path d="M87.746.632H0v34.031h87.746V.632z" fill="#C01818"/><path d="M33.664 13.611h-1.768v8.975h1.768v-8.975zM21.162 22.344V13.39h1.702l3.578 5.983v-5.983H28.1v8.953h-1.79l-3.512-5.852v5.852h-1.636zM11.584 13.39h1.483v6.358c.054.336.215.645.458.88a1.649 1.649 0 001.942 0c.216-.21.348-.49.37-.792.036-.505.036-1.012 0-1.518v-4.927h1.484v4.707c.016.736-.028 1.472-.13 2.2-.065.401-.214.784-.437 1.122a2.36 2.36 0 01-.873.726 3.269 3.269 0 01-1.418.264 3.378 3.378 0 01-1.592-.286 2.494 2.494 0 01-.873-.77 3.203 3.203 0 01-.414-.99 14.886 14.886 0 01-.131-2.2l.13-4.773zM37.133 22.586l1.461-8.975h1.659l1.592 6.072 1.55-6.072h1.766l1.157 9.02-1.637-.045-.523-5.719-2.051 5.72h-.72l-1.636-5.72-1.004 5.72h-1.614zM64.118 14.71a2.61 2.61 0 011.695.85 2.652 2.652 0 010 3.559 2.61 2.61 0 01-1.695.85V23.4h.72v-1.562a4.36 4.36 0 002.481-1.586c.62-.802.947-1.796.922-2.813a4.422 4.422 0 00-1.138-3.127 4.349 4.349 0 00-2.985-1.427v1.826zm0 5.258a2.61 2.61 0 01-1.695-.849 2.652 2.652 0 010-3.559 2.61 2.61 0 011.695-.85v-1.913a4.348 4.348 0 00-3 1.42 4.422 4.422 0 00-1.146 3.134 4.424 4.424 0 00.922 2.813 4.36 4.36 0 002.482 1.586v1.562h.764l-.022-3.344zm-10.429.572v-1.517h1.2l-1.2-3.278v-2.2h.938l3.491 8.975h-1.92l-.763-2.046-1.746.066zm0-6.93v2.2l-1.178 3.322h1.2v1.518h-1.68l-.72 2.046h-1.854l3.382-8.975.85-.11z" fill="#fff"/><path d="M87.66 27.887c2.05.005 4.056-.604 5.763-1.75a10.43 10.43 0 003.826-4.685 10.53 10.53 0 00.599-6.039 10.477 10.477 0 00-2.832-5.356 10.337 10.337 0 00-5.305-2.865c-2.01-.405-4.096-.2-5.99.59a10.382 10.382 0 00-4.655 3.849 10.512 10.512 0 00-1.748 5.807c0 2.768 1.09 5.422 3.028 7.381a10.32 10.32 0 007.313 3.068z" fill="#1D1D1B"/><path d="M91.06 20.276v-5.17h-1.134v-1.54h4.08v1.54H92.87v6.292h-.48l-1.33-1.122zM84.756 20.1a1.012 1.012 0 00.349-.835v-1.188h-1.614v1.562a.42.42 0 01-.415.396.368.368 0 01-.477-.207.375.375 0 01-.025-.19v-4.4a.398.398 0 01.238-.385.413.413 0 01.57.386v1.584h1.614v-1.65c0-.924-.59-1.672-2.05-1.694-1.462-.022-2.052.77-2.052 1.694v4.708a1.618 1.618 0 00.482 1.15 1.59 1.59 0 001.155.456h.501l1.724-1.386z" fill="#fff"/><path d="M91.78 21.42l-3.948-3.344-4.101 3.344h8.05z" fill="#FCBD00"/><path d="M88.967 13.589h-2.182l-1.418 6.05 2.465-2.003 2.553 2.2-1.418-6.247zm-1.57 3.585l.435-2.2.437 2.2h-.873z" fill="#fff"/><path d="M108.276 21.442h-2.378l-1.767-3.454h-.895v2.2h.982v1.342h-4.058v-1.342h1.069v-5.28h-1.069v-1.32h4.843a2.165 2.165 0 011.643.588 2.213 2.213 0 01.692 1.613c.006.422-.119.836-.358 1.183-.238.347-.579.61-.973.753l1.244 2.375h1.025v1.342zm-4.211-4.707c.895 0 1.157-.528 1.157-.924a.854.854 0 00-.263-.67.852.852 0 00-.676-.232h-1.047v1.826h.829zM114.384 20.21a2.97 2.97 0 01-1.152 1.032 2.947 2.947 0 01-1.51.31 2.698 2.698 0 01-2.827-1.61 2.752 2.752 0 01-.227-1.14 2.876 2.876 0 01.821-2.126 2.816 2.816 0 012.103-.844 2.75 2.75 0 011.178.24 2.779 2.779 0 011.542 1.784c.111.393.136.806.072 1.21h-3.97a1.295 1.295 0 00.809 1.273c.165.066.343.097.521.091a1.67 1.67 0 001.266-.638l1.374.418zm-1.702-2.2a1.148 1.148 0 00-.347-.802 1.138 1.138 0 00-.809-.32c-.611 0-1.003.374-1.112 1.122h2.268zM115.299 15.965h2.574v.506a2.52 2.52 0 011.571-.594 1.606 1.606 0 011.265.541 1.626 1.626 0 01.393 1.329v2.42h.742v1.275h-2.553v-3.475c0-.44-.174-.616-.502-.616a1.843 1.843 0 00-.959.352v2.463h.741v1.276h-3.272v-1.276h.829V17.22h-.829v-1.254zM122.193 15.965h.699v-.858l1.745-1.254v2.2h.982v1.254h-.982v2.331c0 .484 0 .572.458.572.18 0 .358-.037.524-.11v1.188c-.409.17-.846.26-1.288.264a1.254 1.254 0 01-1.018-.312 1.28 1.28 0 01-.421-.985v-3.036h-.699v-1.254zM132.468 21.442h-2.64v-.44a2.408 2.408 0 01-1.462.506 1.795 1.795 0 01-1.356-.43 1.843 1.843 0 01-.629-1.286 2.017 2.017 0 01.71-1.375 1.985 1.985 0 011.471-.45c.42-.001.835.081 1.222.242V17.9a.937.937 0 00-.305-.703.931.931 0 00-.72-.243 1.257 1.257 0 00-.982.418l-1.396-.242a2.603 2.603 0 011.111-1.055 2.578 2.578 0 011.507-.243c1.789 0 2.552.638 2.552 2.09v2.2h.873l.044 1.32zm-3.622-2.42a.712.712 0 00-.732.397.73.73 0 00-.075.285.73.73 0 00.211.514.716.716 0 00.509.212c.349 0 .611-.154 1.069-.572v-.44a1.782 1.782 0 00-.982-.395zM133.014 20.166h.851v-5.323h-.851v-1.254h2.596v6.577h.785v1.254h-3.381v-1.254zM101.599 30.33c0 .263 0 .461.502.461s.502-.132.502-.484V29.01a2.214 2.214 0 00-.218-.99l-.873-1.672a2.204 2.204 0 01-.283-1.034v-1.122c0-.506.327-.792.872-.792.546 0 .851.22.851.704v1.364h-.371v-1.32c0-.308-.153-.44-.458-.44a.43.43 0 00-.317.136.46.46 0 00-.093.15.453.453 0 00-.026.176v1.188a1.48 1.48 0 00.174.726l.851 1.65c.188.36.292.759.305 1.165v1.43c0 .484-.24.792-.894.792s-.894-.308-.894-.814v-1.363h.37v1.385zM109.236 23.444v.308H110v7.326h.414v-7.326h.742v-.308h-1.92zM119.249 30.285a.812.812 0 01-.054.345.783.783 0 01-.841.491c-.589 0-.938-.307-.938-.835v-6.072c0-.528.349-.814.938-.814s.895.286.895.814v6.072zm-.415-6.05a.496.496 0 00-.124-.37.473.473 0 00-.356-.157.5.5 0 00-.523.528v6.05a.475.475 0 00.321.481.474.474 0 00.202.024.454.454 0 00.457-.31.465.465 0 00.023-.196v-6.05zM126.207 23.444h.938c.502 0 .873.22.873.704v2.2c0 .418 0 .726-.655.77a.632.632 0 01.655.682v3.278h-.415v-3.212a.527.527 0 00-.589-.55h-.392v3.762h-.415v-7.634zm.829 3.542c.371 0 .567-.154.567-.506v-2.2c0-.33-.196-.484-.523-.484h-.458v3.234l.414-.044zM100.463 4.416v.307h.742v7.326h.436V4.724h.742v-.308h-1.92zM118.77 4.416v3.541h-1.004V4.416h-.414v7.633h.414V8.287h1.004v3.762h.414V4.416h-.414zM134.084 4.416v7.633h1.505v-.33h-1.09V8.287h.959v-.33h-.959V4.723h1.025v-.307h-1.44zM134.15 23.444v7.634h1.528v-.308h-1.091v-3.454h.938v-.308h-.938v-3.234h1.003v-.33h-1.44zM137.619 30.307v-.33h.174c.197 0 .262 0 .262.154s0 .176-.284.176h-.152zm-.109-.418v.88h.109v-.374c.196 0 .262 0 .392.374h.131c-.131-.308-.152-.352-.283-.396a.242.242 0 00.241-.144.221.221 0 00.02-.098c0-.154-.13-.242-.305-.242h-.305zm.349-.395a.825.825 0 00-.782.5.847.847 0 00.166.918.829.829 0 00.906.192.835.835 0 00.517-.775.839.839 0 00-.235-.583.826.826 0 00-.572-.252zm0 1.561a.716.716 0 01-.509-.212.73.73 0 01-.211-.514.74.74 0 011.461 0 .74.74 0 01-.741.726zM69.268 42.275c-.851 0-1.287-.55-1.287-1.518v-1.98h.523v1.98c0 .638.262.99.764.99.501 0 .807-.33.807-.968v-2.002h.502v2.002c0 .968-.459 1.496-1.31 1.496zM73.848 42.209l-1.353-2.2-.262-.418v2.573h-.567v-3.387h.524l1.287 2.09.283.484v-2.574h.48v3.431h-.392zM76.948 40.14c0-.241-.218-.637-.262-.791-.07.27-.158.534-.262.792l-.261.792h1.047l-.262-.792zm.72 2.069l-.305-.814h-1.331l-.284.813h-.523l1.221-3.431h.546l1.243 3.431h-.567zM80.678 42.209v-3.432h2.203v.506h-1.68v.836h.96v.506h-.96v1.078h1.746v.505h-2.27zM86.46 42.209v-1.826-.594c0-.088-.131.352-.219.55l-.829 1.936-.829-1.936c0-.198-.174-.462-.218-.55-.044-.088 0 .396 0 .594v1.826h-.502v-3.432h.546l.763 1.826c.085.193.158.391.219.594l.24-.594.741-1.826h.567v3.432h-.48zM89.511 39.26h-.916v1.188h.916a.587.587 0 00.417-.174.596.596 0 00-.416-1.014zm0 1.672h-.894v1.276h-.502v-3.431h1.44a.994.994 0 01.792.285 1.014 1.014 0 01.299.792 1.043 1.043 0 01-.321.803 1.024 1.024 0 01-.814.275zM93.025 39.26H92.02v1.1h1.004a.543.543 0 00.385-.16.552.552 0 00-.385-.94zm.349 1.54l.698 1.408h-.59l-.676-1.364h-.763v1.364h-.502v-3.431h1.505a.975.975 0 011.014.599c.055.13.081.27.077.413a.951.951 0 01-.18.648.937.937 0 01-.561.363M95.143 42.209v-3.432h2.203v.506h-1.68v.836h.982v.506h-.982v1.078h1.745v.505h-2.268zM99.33 42.275a1.538 1.538 0 01-1.2-.572l.35-.352c.234.25.554.4.894.418.48 0 .72-.176.72-.506s-.218-.396-.785-.572c-.567-.176-1.07-.396-1.07-1.012a1.042 1.042 0 01.362-.73 1.025 1.025 0 01.773-.238 1.56 1.56 0 011.113.462l-.349.374a1.046 1.046 0 00-.807-.33c-.393 0-.567.198-.567.44s.152.352.741.528c.589.176 1.091.418 1.091 1.034 0 .616-.393 1.056-1.265 1.056zM103.017 40.14c0-.241-.218-.637-.262-.791-.062.269-.142.534-.24.792l-.262.792h1.047l-.283-.792zm.72 2.069l-.284-.814h-1.374l-.284.813h-.524l1.222-3.431h.546l1.243 3.431h-.545zM107.272 39.283v.902h.981v.506h-.981v1.517h-.524v-3.431h2.204v.506h-1.68zM109.846 42.209v-3.432h2.181v.506h-1.679v.836h.981v.506h-.981v1.078h1.767v.505h-2.269zM114.579 39.26h-1.004v1.1h1.004a.545.545 0 00.545-.55.545.545 0 00-.545-.55zm.349 1.54l.698 1.408h-.589l-.698-1.364h-.764v1.364h-.458v-3.431h1.506a.972.972 0 01.774.255.99.99 0 01.316.757.939.939 0 01-.741 1.012M118.201 39.26h-1.004v1.1h1.004a.521.521 0 00.551-.324.56.56 0 00.038-.226.521.521 0 00-.363-.529.521.521 0 00-.226-.02zm.349 1.54l.698 1.408h-.589l-.677-1.364h-.785v1.364h-.502v-3.431h1.506a.972.972 0 01.774.255 1 1 0 01.316.757.939.939 0 01-.741 1.012zM120.34 42.209v-3.432h2.181v.506h-1.679v.836h.981v.506h-.981v1.078h1.767v.505h-2.269zM124.966 40.845v1.364h-.524v-1.364l-1.221-2.068h.611l.523.946c.138.215.254.444.349.682l.349-.682.546-.946h.611l-1.244 2.068zM128.084 42.275c-.872 0-1.439-.748-1.439-1.782s.567-1.782 1.439-1.782a1.207 1.207 0 011.157.66l-.458.286a.695.695 0 00-.699-.418c-.589 0-.916.484-.916 1.254s.327 1.254.916 1.254a.892.892 0 00.764-.418l.415.286a1.315 1.315 0 01-1.179.66zM131.401 39.239c-.589 0-.916.484-.916 1.254s.327 1.254.916 1.254.938-.484.938-1.254-.327-1.254-.938-1.254zm0 3.036c-.873 0-1.44-.748-1.44-1.782s.567-1.782 1.44-1.782c.872 0 1.461.748 1.461 1.782s-.567 1.782-1.461 1.782zM135.328 39.26h-1.004v1.1h1.004a.55.55 0 00.385-.939.542.542 0 00-.385-.16zm.349 1.54l.698 1.408h-.589l-.698-1.364h-.764v1.364h-.502v-3.431h1.506a.972.972 0 01.774.255 1 1 0 01.316.757.939.939 0 01-.741 1.012zM138.861 39.26h-.916v1.189h.916a.541.541 0 00.558-.36.552.552 0 00.031-.234.526.526 0 00-.589-.594zm0 1.672h-.894v1.276h-.502v-3.431h1.44a.972.972 0 01.8.276.998.998 0 01.291.802 1.035 1.035 0 01-1.135 1.077z" fill="#1D1D1B"/></svg>