<svg width="100" height="101" fill="none" xmlns="http://www.w3.org/2000/svg" viewBox="0 0 100 101"><g clip-path="url(#clip0)"><path d="M50 100.954c27.614 0 50-22.386 50-50s-22.386-50-50-50-50 22.386-50 50 22.386 50 50 50z" fill="#2CBFAE"/><path d="M18.023 30.79v45.805a2.712 2.712 0 002.713 2.713h58.582a2.711 2.711 0 002.713-2.713V30.79H18.023z" fill="#EEEFEE"/><path d="M79.263 22.6H20.681a2.711 2.711 0 00-2.712 2.713v11.67h64.007v-11.67a2.712 2.712 0 00-2.713-2.713z" fill="#62667C"/><path d="M75.145 31.692a1.9 1.9 0 100-3.801 1.9 1.9 0 000 3.801z" fill="#EF5261"/><path d="M59.114 31.692a1.9 1.9 0 100-3.801 1.9 1.9 0 000 3.801z" fill="#F6C863"/><path d="M67.13 31.692a1.9 1.9 0 100-3.801 1.9 1.9 0 000 3.801z" fill="#2CBFAE"/><path d="M51.485 28.422H24.718a1.37 1.37 0 000 2.74h26.767a1.37 1.37 0 000-2.74z" fill="#EEEFEE"/><path d="M55.101 47.786v11.45a2.019 2.019 0 01-2.013 2.012H42.813l-5.031 5.034V61.25h-2.435a2.018 2.018 0 01-2.013-2.015v-11.45a2.018 2.018 0 012.012-2.012h17.742a2.019 2.019 0 012.013 2.013z" fill="#2CBFAE"/><path d="M35.578 49.29h17.28v.758h-17.28v-.759zM35.578 53.133h17.28v.758h-17.28v-.758zM35.578 56.976h17.28v.758h-17.28v-.758z" fill="#16A897"/><path d="M47.76 54.453v9.946a1.753 1.753 0 001.748 1.749h8.924l4.371 4.37v-4.37h2.12a1.753 1.753 0 001.748-1.749v-9.947a1.753 1.753 0 00-1.749-1.748H49.508a1.753 1.753 0 00-1.748 1.748z" fill="#F6C863"/><path d="M64.719 56.417h-15.01v-.658h15.01v.658zM64.719 59.756h-15.01v-.659h15.01v.659zM64.719 63.094h-15.01v-.659h15.01v.659z" fill="#EAB54E"/></g><defs><clipPath id="clip0"><path fill="#fff" transform="translate(0 .954)" d="M0 0h100v100H0z"/></clipPath></defs></svg>