<svg width="100" height="101" fill="none" xmlns="http://www.w3.org/2000/svg" viewBox="0 0 100 101"><g clip-path="url(#clip0)"><path d="M50 100.997c27.614 0 50-22.572 50-50.416C100 22.737 77.614.165 50 .165S0 22.737 0 50.58c0 27.844 22.386 50.416 50 50.416z" fill="#EA8953"/><path d="M79.813 22.339H20.187a2.228 2.228 0 00-2.218 2.237V76.59c0 1.235.993 2.237 2.218 2.237h59.626a2.228 2.228 0 002.218-2.237V24.575a2.228 2.228 0 00-2.219-2.237z" fill="#EEEFEE"/><path d="M82.031 24.576v10.436H17.97V24.576c.001-.593.236-1.16.651-1.58.416-.42.98-.655 1.567-.657h59.626a2.216 2.216 0 011.567.657c.415.42.65.987.651 1.58z" fill="#575B6D"/><path d="M74.725 30.645a1.961 1.961 0 001.953-1.97c0-1.087-.875-1.969-1.953-1.969a1.961 1.961 0 00-1.953 1.97c0 1.087.874 1.969 1.953 1.969zM66.348 30.645a1.961 1.961 0 001.953-1.97c0-1.087-.875-1.969-1.953-1.969a1.961 1.961 0 00-1.954 1.97c0 1.087.875 1.969 1.954 1.969zM57.97 30.645a1.961 1.961 0 001.954-1.97c0-1.087-.875-1.969-1.953-1.969a1.961 1.961 0 00-1.953 1.97c0 1.087.874 1.969 1.953 1.969z" fill="#DBD8DD"/><path d="M32.121 48.441h-9.033v-8.32h9.033v8.32zm-7.609-1.436h6.185v-5.449h-6.185v5.45z" fill="#2CBFAE"/><path d="M35.523 47.005h41.39v1.436h-41.39v-1.436zM35.523 42.54h23.214v1.436H35.523V42.54z" fill="#DBD8DD"/><path d="M32.121 61.078h-9.033v-8.32h9.033v8.32zm-7.609-1.438h6.185v-5.447h-6.185v5.447z" fill="#EF5261"/><path d="M35.523 59.644h41.39v1.436h-41.39v-1.436zM35.523 55.179h23.214v1.436H35.523v-1.436z" fill="#DBD8DD"/><path d="M32.121 73.719h-9.033v-8.32h9.033v8.32zm-7.609-1.436h6.185v-5.45h-6.185v5.45z" fill="#69B0EE"/><path d="M35.523 72.283h41.39v1.436h-41.39v-1.436zM35.523 67.82h23.214v1.435H35.523V67.82z" fill="#DBD8DD"/></g><defs><clipPath id="clip0"><path fill="#fff" transform="translate(0 .165)" d="M0 0h100v100.833H0z"/></clipPath></defs></svg>