<svg width="100" height="101" fill="none" xmlns="http://www.w3.org/2000/svg" viewBox="0 0 100 101"><g clip-path="url(#clip0)"><path d="M50 100.915c27.614 0 50-22.572 50-50.417C100 22.654 77.614.083 50 .083S0 22.654 0 50.498c0 27.845 22.386 50.417 50 50.417z" fill="#EF5261"/><path d="M67.81 36.153a17.8 17.8 0 01-.26 3.038c-.162.96-.399 1.905-.707 2.828a28.57 28.57 0 01-.655 1.655 17.886 17.886 0 01-6.574 7.627 17.673 17.673 0 01-9.62 2.832 17.41 17.41 0 01-5.774-.976 14.512 14.512 0 01-1.927-.796 17.858 17.858 0 01-7.17-6.31 18.065 18.065 0 01-2.925-9.13c-.008-.253-.008-.506-.008-.768a17.94 17.94 0 014.986-12.447 17.463 17.463 0 011.685-1.576c.458-.352.933-.713 1.417-1.024a16.469 16.469 0 013.649-1.835c.125-.055.26-.09.377-.136a17.867 17.867 0 018.713-.687 17.819 17.819 0 0110.594 6.136 18.09 18.09 0 014.2 11.569z" fill="#EEEFEE"/><path d="M46.12 30.177a1.334 1.334 0 01-.636-.27 2.865 2.865 0 00-.896-.398.799.799 0 00-.781.108.627.627 0 000 .75c.185.197.421.338.682.407.044.018.116.036.17.064a.371.371 0 01.116.361c-.072.326-.51.443-.851.407-.33-.101-.679-.116-1.016-.045a1.334 1.334 0 00-.619.642c-.206.394-.439.84-.851.94-.135.044-.305.044-.385.157a.485.485 0 00-.064.37c.063.481-.021.97-.241 1.402-.1.157-.234.289-.323.443-.17.37-.018.787-.063 1.175-.018.036-.018.079-.054.1-.054.053-.156 0-.215-.046-1.066-.921-3.359-1.401-3.89-.09-.099.27.09.579.134.866a.48.48 0 00.072.226c.063.063.852.835.529 1.663-.324.828-.986.39-1.38.19a3.224 3.224 0 01-1.25-1.497c-.225-.624-.207-1.355-.626-1.852-.156-.172-.403-.308-.573-.158-.25.217.054.732-.215.94a.495.495 0 01-.476-.018c-.07-.037-.156-.055-.224-.09-.008-.254-.008-.507-.008-.769a17.941 17.941 0 013.906-11.211c.174.149.396.229.625.226a2.552 2.552 0 001.058-.271c.412-.172.815-.344 1.22-.515.42-.172.841-.344 1.254-.498a1.58 1.58 0 011.328-.136c.17.109.323.362.188.515a.346.346 0 01-.156.119c-.484.307-.995.596-1.506.885a3.78 3.78 0 00-.825.615 1.127 1.127 0 00-.304.967c.156.615.932.866 1.183 1.464.098.262.098.597.34.77a.57.57 0 00.745-.12c.176-.22.29-.486.331-.767.018-.045.036-.136.108-.158a.223.223 0 01.17 0 .45.45 0 00.44-.406c.021-.219.003-.44-.055-.652a1.39 1.39 0 01.039-.906.665.665 0 01.762-.393c.331.135.44.596.735.822a.686.686 0 00.782.018c.206-.157.376-.46.624-.394.17.036.252.19.323.344.216.442.306 1.12.69 1.428a.646.646 0 01.117.858c-.134.2-.42.389-.322.606.107.19.376.172.475.344.135.18-.098.468-.34.468zM56.633 47.052a1.975 1.975 0 01-.949 1.566 4.195 4.195 0 00-1.365 1.298c-.078.158-.143.347-.299.425a.587.587 0 01-.305.04 2.298 2.298 0 01-1.755-1.094c-.325-.538-.098-1.206-.24-1.812-.06-.25-.365-.355-.592-.466-.156-.079-.337-.144-.416-.301a.494.494 0 01-.039-.308 2.29 2.29 0 011.079-1.77 2.246 2.246 0 012.054-.15c.091.03.174.08.24.15a.532.532 0 01-.078.701 1.586 1.586 0 01-.696.328l-.117.007c.104.563.514 1.474 1.04 1.26.143-.059.11-.295.136-.452.033-.216.046-.485.234-.603a.534.534 0 01.254-.058c.401-.063.812.03 1.148.26.337.23.575.58.666.979zM52.123 21.18c0 .188.202.29.372.342.168.033.37.067.455.22a.362.362 0 01-.067.426.945.945 0 01-.406.223c-.338.085-.693.118-1.047.22a1.46 1.46 0 00-.86.58 1.941 1.941 0 01-.203.375.995.995 0 01-.641.306.442.442 0 00-.203.085.273.273 0 00-.068.205 1.75 1.75 0 01-.692 1.295 1.085 1.085 0 01-1.133-.085 1.976 1.976 0 01-.693-.955c-.185-.46-.219-1.107.203-1.38.152-.119.406-.255.321-.425-.034-.103-.152-.136-.253-.17-.102-.052-.234-.188-.156-.256.234-.158.675-.41.456-.58-.135-.102-.39.103-.49-.017-.169-.187.034-.494.05-.732a.828.828 0 00-.202-.664.84.84 0 01-.186-.158c-.101-.136-.085-.341-.22-.443a.258.258 0 00-.22-.034 3.325 3.325 0 00-.878.357.776.776 0 01-.878-.085.97.97 0 01-.186-.613v-.08a17.503 17.503 0 015.699-.938 17.698 17.698 0 013.024.255.904.904 0 00.39.784c.078.047.152.1.221.157a.56.56 0 01.135.324c.022.284-.066.565-.246.784-.18.22-.437.36-.717.392a3.201 3.201 0 00-.406.034.345.345 0 00-.275.252zM54.608 24.789a.758.758 0 01-.217.424.513.513 0 01-.477-.008.824.824 0 01-.244-.141c-.118-.105-.185-.257-.3-.365-.15-.12-.328-.2-.517-.233a1.128 1.128 0 01-.515-.236.395.395 0 01-.065-.517.522.522 0 01.228-.134 10.5 10.5 0 011.53-.315c.344-.133.71-.196 1.078-.186a.585.585 0 01.393.538.597.597 0 01-.038.232c-.078.162-.366.248-.502.38a1.394 1.394 0 00-.354.56z" fill="#69B0EE"/><path d="M67.805 36.16a17.848 17.848 0 01-.254 3.033 1.306 1.306 0 01-.234.358c-.11.104-.236.19-.372.256-.9.576-1.897.98-2.941 1.192a1.154 1.154 0 00-.676.188.415.415 0 00-.192.455.416.416 0 00.074.158.609.609 0 00.39.102l3.026.103c.067 0 .135.016.22.016a28.603 28.603 0 01-.66 1.654 1.298 1.298 0 00-.895.63c-.102.31-.102.645 0 .955 0 .016.017.05.017.067a17.796 17.796 0 01-6.725 6.594 1.701 1.701 0 01-.235-.767 3.896 3.896 0 01.136-1.158c.222-1.012.557-1.995.996-2.93.286-.439.417-.96.372-1.483a3.558 3.558 0 00-.49-.937 1.038 1.038 0 01-.152-1.005c.084-.188.288-.394.186-.58a.639.639 0 00-.156-.157c-.456-.375-.592-1.465-1.183-1.295-.574.171-1.149.341-1.706.511a1.51 1.51 0 01-2.12-.627 1.544 1.544 0 01-.162-.804c-.017-.05-.017-.102-.033-.153a6.733 6.733 0 01-.254-2.454c.032-.41.169-.803.397-1.143.228-.34.54-.616.904-.798a.863.863 0 00.406-.223c.27-.374-.234-1.039.135-1.277a.475.475 0 01.304-.068 3.394 3.394 0 001.504-.477 6.5 6.5 0 01.71-.46 2.806 2.806 0 011.673 0c.073-.002.144.023.202.068.203.136.068.473.135.733a.7.7 0 00.304.394 9.255 9.255 0 001.893 1.363c.253.119.507.221.743.358.538.335.99.795 1.317 1.341.151.237.39.529.641.394.22-.102.203-.394.203-.63.017-.236.27-.614.423-.426.186.272.135.8.456.866.422.103.456-.716.405-1.159-.067-.63-.135-1.26-.219-1.89a1.6 1.6 0 00-.234-.834c-.153-.222-.71-.478-.744-.188-.034.358.118.733-.186.954-.305.19-.657.291-1.016.29-.355.051-.794.034-.98-.273-.169-.307.033-.682.186-1.024.103-.267.166-.548.186-.835a1.05 1.05 0 00-.153-.681c-.151-.188-.523-.358-.625-.136-.118.221 0 .494 0 .732a.401.401 0 01-.033.204c-.102.171-.356.103-.49-.034a1.451 1.451 0 01-.356-1.024 2.937 2.937 0 00-.168-1.09.78.78 0 00-.895-.46c-.187.341.117.733.39.989.27.272.558.681.355 1.005-.088.114-.19.217-.304.306-.157.17-.235.41-.39.597-.157.17-.474.256-.61.068-.203-.272.203-.58.355-.866.235-.46-.135-.989-.49-1.364a.725.725 0 00-.287-.221.84.84 0 00-.287.017c-.76.136-1.623.494-1.825 1.244-.026.16-.06.317-.101.473a1 1 0 01-.899.585c-.38.015-.76-.049-1.115-.188-.203-.068-.44-.153-.49-.358a.63.63 0 01.017-.306c.118-.41.27-.887.658-1.04.284-.059.576-.059.86 0 .287 0 .642-.157.66-.442.033-.394-.576-.29-.88-.529-.338-.255.22-.818.592-1.039a2.75 2.75 0 001.03-.716c.22-.306.234-.733.507-1.005a1.2 1.2 0 011.087-.207c.362.121.736.2 1.116.237a.826.826 0 00.533-.145.838.838 0 00.326-.45c.05-.29-.068-.683.186-.802.321-.158.676.375.963.188a.636.636 0 01.4-.678.62.62 0 01.276-.038c0-.29-.102-.682-.405-.682-.27 0-.457.394-.727.358-.254-.034-.321-.393-.305-.647l.051-1.09a.652.652 0 00-.067-.359c-.135-.204-.474-.136-.625.069-.129.208-.215.44-.253.681-.085.236-.235.494-.474.528-.151.12-.016.375.135.477.17.12.372.188.44.375.135.34-.354.597-.49.937-.05.086-.05.205-.101.29a.39.39 0 01-.676-.085c-.05-.17.034-.358-.034-.511-.22-.512-1.25.068-1.47-.443-.119-.307.234-.648.1-.938a1.172 1.172 0 00-.184-.22c-.203-.325.084-.767.422-.921.355-.158.76-.158 1.098-.324.524-.289.781-.936 1.15-1.396a17.912 17.912 0 014.995 6.263 18.06 18.06 0 011.782 7.834zM48.373 47.76a1.41 1.41 0 01-.167.98 1.39 1.39 0 01-.77.62c-.22.03-.432.1-.626.208a.911.911 0 00-.269.343 2.388 2.388 0 00-.42 1.176c.008.216.008.542-.225.56a.57.57 0 01-.206-.09 2.563 2.563 0 00-.843-.308c-.063-.009-.17-.027-.215.018-.269.226.619.805.287.859a.595.595 0 00-.547.315c-.078.226-.063.46-.134.709l-.01.01a14.505 14.505 0 01-1.927-.796 5.665 5.665 0 00-.086-2.843 5.628 5.628 0 00-1.456-2.435c-.251-.262-.538-.48-.78-.768a2.989 2.989 0 01-.44-2.27c.176-.775.46-1.521.846-2.216l.637-1.111.054-.08c.188-.27.312-.668.61-.714.573-.099.937.715 1.514.679.26-.019.565-.064.717.135.117.144.1.325.162.497.206.596 1.066.56 1.577.958a1.076 1.076 0 01.216 1.428 5.558 5.558 0 011.74.751 1.896 1.896 0 01.815 1.632 5.357 5.357 0 00-.224 1.103c.043.22.1.437.17.65zM44.775 36.382a.458.458 0 00-.222.122.397.397 0 00-.068.222 1.705 1.705 0 00.502 1.25 1.678 1.678 0 001.249.483.497.497 0 00.268-.088c.135-.109.149-.309.234-.46.205-.358.717-.336 1.122-.265l.587.102c.074.02.152.02.225 0a.378.378 0 00.15-.135c.283-.38.443-.84.46-1.316a.764.764 0 00-.04-.306c-.031-.078-.085-.15-.123-.227a1.158 1.158 0 01.213-1.076c.246-.294.388-.663.402-1.048-.066-.586-.729-.867-1.289-1.033-.51-.15-1.176-.246-1.465.202-.513.794.675 1.311-.035 2.161a4.929 4.929 0 01-2.17 1.412z" fill="#69B0EE"/><path d="M46.957 73.263l-.291 3.926H34.9c.11-3.146-.971-3.717-3.193-6.044-3.4-3.563-6.071-7.15-7.5-10.798a5.404 5.404 0 01-.364-2.057V47.33c.006-.484.174-.95.479-1.324a2.107 2.107 0 011.194-.731 1.963 1.963 0 011.439.367c.414.307.693.764.778 1.274l1.543 10.162a13.933 13.933 0 005.546 6.854c.656.453 1.384.954 2.222.416a1.381 1.381 0 00-.121-1.812l-3.432-2.743a2.952 2.952 0 01-1.162-1.465 2.98 2.98 0 01-.053-1.875 1.28 1.28 0 01.79-.897 1.257 1.257 0 011.178.16l6.92 4.983a9.08 9.08 0 013.06 2.803 15.501 15.501 0 012.733 9.761z" fill="#FED19A"/><path d="M47.35 76.832H34.007a.432.432 0 00-.43.434v5.096c0 .24.192.434.43.434H47.35c.237 0 .43-.195.43-.434v-5.096a.432.432 0 00-.43-.434z" fill="#575B6D"/><path d="M45.82 80.812a.996.996 0 00.99-1c0-.552-.443-.999-.99-.999a.996.996 0 00-.992 1c0 .552.444 1 .991 1z" fill="#EEEFEE"/><path d="M53.04 73.264l.292 3.925h11.766c-.11-3.146.971-3.717 3.193-6.043 3.4-3.563 6.071-7.15 7.504-10.799a5.402 5.402 0 00.364-2.057V47.33a2.137 2.137 0 00-.479-1.323 2.106 2.106 0 00-1.195-.732 1.962 1.962 0 00-1.44.366 1.994 1.994 0 00-.78 1.276l-1.543 10.162a13.933 13.933 0 01-5.547 6.853c-.655.453-1.383.955-2.221.416a1.38 1.38 0 01.121-1.812l3.438-2.742a2.952 2.952 0 001.162-1.465 2.98 2.98 0 00.053-1.875 1.281 1.281 0 00-.79-.897 1.256 1.256 0 00-1.178.16L58.84 60.7a9.082 9.082 0 00-3.06 2.804 15.502 15.502 0 00-2.74 9.76z" fill="#FED19A"/><path d="M65.994 76.832H52.651a.432.432 0 00-.43.434v5.096c0 .24.192.434.43.434h13.343c.238 0 .43-.195.43-.434v-5.096a.432.432 0 00-.43-.434z" fill="#575B6D"/><path d="M54.177 80.812a.996.996 0 00.991-1c0-.552-.444-.999-.991-.999a.996.996 0 00-.992 1c0 .552.444 1 .992 1z" fill="#EEEFEE"/></g><defs><clipPath id="clip0"><path fill="#fff" transform="translate(0 .082)" d="M0 0h100v100.833H0z"/></clipPath></defs></svg>