<svg width="28" height="28" viewBox="0 0 28 28" fill="none" xmlns="http://www.w3.org/2000/svg">
<path d="M27.0538 22.0648L22.428 17.4564C23.2691 15.7805 23.8298 13.8254 23.8298 11.8703C23.8298 5.30673 18.5031 0 11.9149 0C5.32666 0 0 5.30673 0 11.8703C0 18.4339 5.32666 23.7407 11.9149 23.7407C13.8773 23.7407 15.8398 23.182 17.5219 22.3441L22.1477 26.9526C23.5494 28.3491 25.6521 28.3491 27.0538 26.9526C28.3154 25.5561 28.3154 23.4613 27.0538 22.0648ZM11.9149 20.9476C6.86859 20.9476 2.8035 16.8978 2.8035 11.8703C2.8035 6.84289 6.86859 2.79302 11.9149 2.79302C16.9612 2.79302 21.0263 6.84289 21.0263 11.8703C21.0263 16.8978 16.9612 20.9476 11.9149 20.9476Z" fill="#9DC31F"/>
</svg>
